<svg xmlns="http://www.w3.org/2000/svg" xmlns:xlink="http://www.w3.org/1999/xlink" fill="none" version="1.1" width="568" height="1024" viewBox="0 0 568 1024"><g><rect x="0" y="0" width="568" height="1024" rx="0" fill="#252C38" fill-opacity="1"/><g><g><path d="M24,59L24,57.992000000000004L24.456,57.992000000000004Q24.936,57.992000000000004,25.224,57.848Q25.512,57.704,25.752,57.296Q25.992,56.888000000000005,26.28,56.120000000000005L31.608,41.864000000000004L33.480000000000004,41.864000000000004L38.903999999999996,56.72Q39.096000000000004,57.224000000000004,39.312,57.5Q39.528,57.775999999999996,39.84,57.884Q40.152,57.992000000000004,40.608000000000004,57.992000000000004L40.92,57.992000000000004L40.92,59L34.32,59L34.32,57.992000000000004L34.872,57.992000000000004Q35.592,57.992000000000004,35.952,57.716Q36.312,57.44,36.312,56.84Q36.312,56.696,36.288,56.564Q36.263999999999996,56.432,36.228,56.275999999999996Q36.192,56.120000000000005,36.12,55.952L35.16,53.263999999999996L28.848,53.263999999999996L27.936,55.784Q27.864,55.976,27.816,56.168Q27.768,56.36,27.744,56.516Q27.72,56.672,27.72,56.816Q27.72,57.416,28.116,57.704Q28.512,57.992000000000004,29.304000000000002,57.992000000000004L29.856,57.992000000000004L29.856,59L24,59ZM29.304000000000002,52.064L34.728,52.064L33.24,47.864000000000004Q33,47.144,32.772,46.496Q32.544,45.848,32.364000000000004,45.248Q32.184,44.647999999999996,32.04,44.072Q31.92,44.647999999999996,31.764,45.188Q31.608,45.728,31.416,46.316Q31.224,46.903999999999996,30.936,47.647999999999996L29.304000000000002,52.064ZM46.656,59.239999999999995Q45.072,59.239999999999995,43.980000000000004,58.544Q42.888000000000005,57.848,42.324,56.372Q41.760000000000005,54.896,41.760000000000005,52.592Q41.760000000000005,50.263999999999996,42.324,48.788Q42.888000000000005,47.312,43.980000000000004,46.604Q45.072,45.896,46.656,45.896Q48.048,45.896,48.924,46.484Q49.8,47.072,50.328,48.007999999999996L50.472,48.007999999999996Q50.4,47.408,50.364000000000004,46.676Q50.328,45.944,50.328,45.368L50.328,43.4Q50.328,42.68,50.052,42.332Q49.775999999999996,41.984,49.332,41.876Q48.888000000000005,41.768,48.36,41.768L48.168,41.768L48.168,40.76L52.584,40.76L52.584,56.36Q52.584,57.056,52.86,57.416Q53.135999999999996,57.775999999999996,53.58,57.884Q54.024,57.992000000000004,54.552,57.992000000000004L54.744,57.992000000000004L54.744,59L50.688,59L50.424,56.84L50.328,56.84Q49.8,57.944,48.936,58.592Q48.072,59.239999999999995,46.656,59.239999999999995ZM47.064,57.704Q48.936,57.704,49.632000000000005,56.444Q50.328,55.184,50.328,52.592Q50.328,50.096000000000004,49.632000000000005,48.763999999999996Q48.936,47.432,47.04,47.432Q45.984,47.432,45.336,48.032Q44.688,48.632000000000005,44.388000000000005,49.784Q44.088,50.936,44.088,52.616Q44.088,55.16,44.772,56.432Q45.456,57.704,47.064,57.704ZM61.392,59.239999999999995Q59.808,59.239999999999995,58.716,58.544Q57.624,57.848,57.06,56.372Q56.496,54.896,56.496,52.592Q56.496,50.263999999999996,57.06,48.788Q57.624,47.312,58.716,46.604Q59.808,45.896,61.392,45.896Q62.784,45.896,63.66,46.484Q64.536,47.072,65.064,48.007999999999996L65.208,48.007999999999996Q65.136,47.408,65.1,46.676Q65.064,45.944,65.064,45.368L65.064,43.4Q65.064,42.68,64.788,42.332Q64.512,41.984,64.068,41.876Q63.624,41.768,63.096,41.768L62.904,41.768L62.904,40.76L67.32,40.76L67.32,56.36Q67.32,57.056,67.596,57.416Q67.872,57.775999999999996,68.316,57.884Q68.75999999999999,57.992000000000004,69.288,57.992000000000004L69.47999999999999,57.992000000000004L69.47999999999999,59L65.424,59L65.16,56.84L65.064,56.84Q64.536,57.944,63.672,58.592Q62.808,59.239999999999995,61.392,59.239999999999995ZM61.8,57.704Q63.672,57.704,64.368,56.444Q65.064,55.184,65.064,52.592Q65.064,50.096000000000004,64.368,48.763999999999996Q63.672,47.432,61.776,47.432Q60.72,47.432,60.072,48.032Q59.424,48.632000000000005,59.124,49.784Q58.824,50.936,58.824,52.616Q58.824,55.16,59.508,56.432Q60.192,57.704,61.8,57.704ZM76.944,59L76.944,57.992000000000004L77.01599999999999,57.992000000000004Q77.568,57.992000000000004,78.012,57.872Q78.456,57.751999999999995,78.72,57.379999999999995Q78.98400000000001,57.007999999999996,78.98400000000001,56.263999999999996L78.98400000000001,48.775999999999996Q78.98400000000001,48.056,78.708,47.708Q78.432,47.36,77.988,47.252Q77.544,47.144,77.01599999999999,47.144L76.944,47.144L76.944,46.135999999999996L80.64,46.135999999999996L81.096,48.512L81.21600000000001,48.512Q81.52799999999999,47.792,81.888,47.192Q82.24799999999999,46.592,82.848,46.244Q83.44800000000001,45.896,84.50399999999999,45.896Q85.824,45.896,86.46000000000001,46.352000000000004Q87.096,46.808,87.096,47.647999999999996Q87.096,48.391999999999996,86.58,48.872Q86.064,49.352000000000004,84.864,49.352000000000004Q84.864,48.68,84.744,48.272Q84.624,47.864000000000004,84.348,47.672Q84.072,47.480000000000004,83.592,47.480000000000004Q82.92,47.480000000000004,82.464,48.007999999999996Q82.00800000000001,48.536,81.744,49.352000000000004Q81.47999999999999,50.168,81.36,51.044Q81.24000000000001,51.92,81.24000000000001,52.616L81.24000000000001,56.384Q81.24000000000001,57.08,81.51599999999999,57.428Q81.792,57.775999999999996,82.23599999999999,57.884Q82.68,57.992000000000004,83.208,57.992000000000004L83.88,57.992000000000004L83.88,59L76.944,59ZM94.344,59.239999999999995Q91.752,59.239999999999995,90.264,57.584Q88.776,55.928,88.776,52.544Q88.776,49.184,90.204,47.54Q91.632,45.896,94.416,45.896Q97.008,45.896,98.496,47.54Q99.984,49.184,99.984,52.544Q99.984,55.928,98.556,57.584Q97.128,59.239999999999995,94.344,59.239999999999995ZM94.392,57.992000000000004Q95.592,57.992000000000004,96.312,57.379999999999995Q97.032,56.768,97.344,55.544Q97.656,54.32,97.656,52.544Q97.656,49.856,96.912,48.512Q96.168,47.168,94.368,47.168Q92.568,47.168,91.836,48.512Q91.104,49.856,91.104,52.544Q91.104,55.232,91.848,56.611999999999995Q92.592,57.992000000000004,94.392,57.992000000000004ZM107.856,59.239999999999995Q105.96,59.239999999999995,104.928,58.123999999999995Q103.896,57.007999999999996,103.896,54.536L103.896,48.775999999999996Q103.896,48.056,103.62,47.708Q103.344,47.36,102.9,47.252Q102.456,47.144,101.928,47.144L101.856,47.144L101.856,46.135999999999996L106.152,46.135999999999996L106.152,54.416Q106.152,55.448,106.38,56.192Q106.608,56.936,107.16,57.32Q107.712,57.704,108.672,57.704Q109.728,57.704,110.4,57.212Q111.072,56.72,111.384,55.844Q111.696,54.968,111.696,53.816L111.696,48.872Q111.696,48.104,111.432,47.744Q111.168,47.384,110.724,47.263999999999996Q110.28,47.144,109.728,47.144L109.656,47.144L109.656,46.135999999999996L113.952,46.135999999999996L113.952,56.384Q113.952,57.08,114.228,57.428Q114.504,57.775999999999996,114.948,57.884Q115.392,57.992000000000004,115.92,57.992000000000004L115.992,57.992000000000004L115.992,59L112.176,59L111.864,57.056L111.744,57.056Q111,58.4,110.016,58.82Q109.032,59.239999999999995,107.856,59.239999999999995ZM122.304,59.239999999999995Q120.48,59.239999999999995,119.652,58.412Q118.824,57.584,118.824,55.519999999999996L118.824,47.504L117,47.504L117,46.544Q117.432,46.544,117.96,46.364000000000004Q118.488,46.184,118.872,45.775999999999996Q119.28,45.344,119.544,44.72Q119.808,44.096000000000004,119.976,43.184L121.08,43.184L121.08,46.135999999999996L124.224,46.135999999999996L124.224,47.504L121.08,47.504L121.08,55.592Q121.08,56.816,121.584,57.391999999999996Q122.088,57.968,122.904,57.968Q123.336,57.968,123.696,57.92Q124.056,57.872,124.44,57.8L124.44,58.856Q124.128,59,123.504,59.120000000000005Q122.88,59.239999999999995,122.304,59.239999999999995ZM131.88,59.239999999999995Q129.264,59.239999999999995,127.788,57.512Q126.312,55.784,126.312,52.664Q126.312,49.304,127.704,47.6Q129.096,45.896,131.64,45.896Q133.96800000000002,45.896,135.3,47.336Q136.632,48.775999999999996,136.632,51.632000000000005L136.632,52.736000000000004L128.64,52.736000000000004Q128.688,55.352000000000004,129.588,56.54Q130.488,57.728,132.216,57.728Q133.464,57.728,134.34,57.212Q135.216,56.696,135.648,56.048Q135.816,56.120000000000005,135.95999999999998,56.336Q136.10399999999998,56.552,136.10399999999998,56.864000000000004Q136.10399999999998,57.344,135.648,57.896Q135.192,58.448,134.256,58.844Q133.32,59.239999999999995,131.88,59.239999999999995ZM134.208,51.44Q134.208,49.519999999999996,133.62,48.356Q133.03199999999998,47.192,131.59199999999998,47.192Q130.272,47.192,129.54000000000002,48.284Q128.808,49.376000000000005,128.688,51.44L134.208,51.44Z" fill="#FFFFFF" fill-opacity="1"/></g><g><g><path d="M24 104C24 101.79086100067683 25.790861000676827 100 28 100L540 100C542.2091389993232 100 544 101.79086100067683 544 104L544 156C544 156 544 156 544 156L24 156C24 156 24 156 24 156Z" fill="#222834" fill-opacity="1"/><g><g><g><g><path d="M41.25568,122L41.25568,113.27273L44.20454,113.27273Q45.22727,113.27273,45.88352,113.62003Q46.53977,113.96733,46.855109999999996,114.57244Q47.17045,115.17756,47.17045,115.94886Q47.17045,116.72017,46.855109999999996,117.3168Q46.53977,117.9134,45.88778,118.2521Q45.23579,118.5909,44.22159,118.5909L41.83522,118.5909L41.83522,117.6364L44.1875,117.6364Q44.886359999999996,117.6364,45.31463,117.4318Q45.74289,117.2273,45.93679,116.85014Q46.13068,116.47301,46.13068,115.94886Q46.13068,115.42472000000001,45.93466,115.03267Q45.73863,114.64062,45.30824,114.42543Q44.87784,114.21023,44.17045,114.21023L42.3125,114.21023L42.3125,122L41.25568,122ZM45.36363,118.0795L47.511359999999996,122L46.28409,122L44.17045,118.0795L45.36363,118.0795ZM51.3807,122.1364Q50.4943,122.1364,49.82741,121.7145Q49.16051,121.2926,48.787639999999996,120.5341Q48.414770000000004,119.7756,48.414770000000004,118.7614Q48.414770000000004,117.7386,48.787639999999996,116.97585Q49.16051,116.21307,49.82741,115.79119Q50.4943,115.36932,51.3807,115.36932Q52.266999999999996,115.36932,52.9339,115.79119Q53.6008,116.21307,53.9737,116.97585Q54.3466,117.7386,54.3466,118.7614Q54.3466,119.7756,53.9737,120.5341Q53.6008,121.2926,52.9339,121.7145Q52.266999999999996,122.1364,51.3807,122.1364ZM51.3807,121.233Q52.054,121.233,52.4886,120.8878Q52.9233,120.5426,53.1321,119.9801Q53.3409,119.4176,53.3409,118.7614Q53.3409,118.1051,53.1321,117.5384Q52.9233,116.97159,52.4886,116.62216Q52.054,116.27273,51.3807,116.27273Q50.7074,116.27273,50.2727,116.62216Q49.83807,116.97159,49.62926,117.5384Q49.42045,118.1051,49.42045,118.7614Q49.42045,119.4176,49.62926,119.9801Q49.83807,120.5426,50.2727,120.8878Q50.7074,121.233,51.3807,121.233ZM60.005700000000004,119.3239L60.005700000000004,115.45455L61.011399999999995,115.45455L61.011399999999995,122L60.005700000000004,122L60.005700000000004,120.892L59.9375,120.892Q59.7074,121.3906,59.221599999999995,121.7379Q58.7358,122.0852,57.994299999999996,122.0852Q57.380700000000004,122.0852,56.903400000000005,121.8146Q56.426100000000005,121.544,56.153400000000005,120.9964Q55.8807,120.4489,55.8807,119.6136L55.8807,115.45455L56.886399999999995,115.45455L56.886399999999995,119.5455Q56.886399999999995,120.2614,57.289100000000005,120.6875Q57.6918,121.1136,58.318200000000004,121.1136Q58.693200000000004,121.1136,59.0831,120.9219Q59.473,120.7301,59.7393,120.3338Q60.005700000000004,119.9375,60.005700000000004,119.3239ZM65.6989,115.45455L65.6989,116.30682L62.306799999999996,116.30682L62.306799999999996,115.45455L65.6989,115.45455ZM63.295500000000004,113.88636L64.3011,113.88636L64.3011,120.125Q64.3011,120.5511,64.4268,120.7621Q64.5526,120.973,64.7507,121.0433Q64.9489,121.1136,65.1705,121.1136Q65.3366,121.1136,65.4432,121.0945Q65.5497,121.0753,65.6136,121.0625L65.8182,121.9659Q65.7159,122.0043,65.5327,122.0447Q65.3494,122.0852,65.0682,122.0852Q64.642,122.0852,64.2351,121.902Q63.8281,121.7188,63.561800000000005,121.3438Q63.295500000000004,120.9688,63.295500000000004,120.3977L63.295500000000004,113.88636ZM69.892,122.1364Q68.946,122.1364,68.2621,121.7166Q67.5781,121.2969,67.20949999999999,120.5405Q66.8409,119.7841,66.8409,118.7784Q66.8409,117.7727,67.20949999999999,117.0036Q67.5781,116.23438,68.24080000000001,115.80185Q68.9034,115.36932,69.7898,115.36932Q70.3011,115.36932,70.7997,115.53977Q71.2983,115.71023,71.7074,116.09162Q72.1165,116.47301,72.3594,117.0994Q72.6023,117.7259,72.6023,118.642L72.6023,119.0682L67.5568,119.0682L67.5568,118.1989L71.5795,118.1989Q71.5795,117.6449,71.3601,117.2102Q71.1406,116.77557,70.7379,116.52415Q70.3352,116.27273,69.7898,116.27273Q69.1889,116.27273,68.7521,116.56889Q68.31530000000001,116.86506,68.081,117.3381Q67.8466,117.8111,67.8466,118.3523L67.8466,118.9318Q67.8466,119.6733,68.1044,120.1868Q68.3622,120.7003,68.8224,120.9666Q69.2827,121.233,69.892,121.233Q70.28829999999999,121.233,70.6101,121.12Q70.9318,121.0071,71.1662,120.7791Q71.4006,120.5511,71.5284,120.2102L72.5,120.483Q72.3466,120.9773,71.9844,121.3501Q71.62219999999999,121.723,71.0895,121.9297Q70.5568,122.1364,69.892,122.1364ZM78.517,118.0625L78.517,122L77.51140000000001,122L77.51140000000001,115.45455L78.483,115.45455L78.483,116.47727L78.56819999999999,116.47727Q78.7983,115.97869,79.267,115.67401Q79.7358,115.36932,80.4773,115.36932Q81.142,115.36932,81.6406,115.63991Q82.1392,115.91051,82.4162,116.4581Q82.69319999999999,117.0057,82.69319999999999,117.8409L82.69319999999999,122L81.6875,122L81.6875,117.9091Q81.6875,117.1378,81.2869,116.70526Q80.88640000000001,116.27273,80.1875,116.27273Q79.706,116.27273,79.3288,116.48152999999999Q78.9517,116.69034,78.7344,117.0909Q78.517,117.4915,78.517,118.0625ZM86.4602,122.1534Q85.8381,122.1534,85.331,121.9169Q84.82390000000001,121.6804,84.5256,121.2308Q84.2273,120.7812,84.2273,120.142Q84.2273,119.5795,84.44890000000001,119.228Q84.6705,118.8764,85.0412,118.6761Q85.4119,118.4759,85.8615,118.3757Q86.31110000000001,118.2756,86.767,118.2159Q87.36359999999999,118.1392,87.7365,118.0987Q88.1094,118.0582,88.282,117.9602Q88.4545,117.8622,88.4545,117.6193L88.4545,117.5852Q88.4545,116.95455,88.1115,116.60511Q87.7685,116.25568,87.07390000000001,116.25568Q86.3537,116.25568,85.94460000000001,116.57102Q85.5355,116.88636,85.36930000000001,117.2443L84.4148,116.90341Q84.6705,116.30682,85.09870000000001,115.9723Q85.527,115.63777999999999,86.03620000000001,115.50355Q86.5455,115.36932,87.0398,115.36932Q87.3551,115.36932,87.7663,115.44389Q88.1776,115.51847000000001,88.5632,115.74858Q88.94890000000001,115.97869,89.2045,116.44318Q89.4602,116.90767,89.4602,117.6875L89.4602,122L88.4545,122L88.4545,121.1136L88.4034,121.1136Q88.30109999999999,121.3267,88.0625,121.5696Q87.82390000000001,121.8125,87.4276,121.983Q87.0312,122.1534,86.4602,122.1534ZM86.61359999999999,121.25Q87.2102,121.25,87.6214,121.0156Q88.0327,120.7812,88.2436,120.4105Q88.4545,120.0398,88.4545,119.6307L88.4545,118.7102Q88.3906,118.7869,88.1754,118.8487Q87.9602,118.9105,87.6811,118.9553Q87.402,119,87.1399,119.032Q86.87780000000001,119.0639,86.7159,119.0852Q86.32390000000001,119.1364,85.9851,119.2493Q85.6463,119.3622,85.4396,119.5859Q85.233,119.80969999999999,85.233,120.1932Q85.233,120.7173,85.6229,120.9837Q86.0128,121.25,86.61359999999999,121.25ZM91.30109999999999,122L91.30109999999999,115.45455L92.2727,115.45455L92.2727,116.47727L92.358,116.47727Q92.5625,115.95312,93.0185,115.66122Q93.4744,115.36932,94.11359999999999,115.36932Q94.76140000000001,115.36932,95.1939,115.66122Q95.62639999999999,115.95312,95.86930000000001,116.47727L95.9375,116.47727Q96.18889999999999,115.97017,96.6918,115.66974Q97.19460000000001,115.36932,97.8977,115.36932Q98.7756,115.36932,99.3338,115.9169Q99.892,116.46449,99.892,117.6193L99.892,122L98.88640000000001,122L98.88640000000001,117.6193Q98.88640000000001,116.89489,98.4901,116.58381Q98.0938,116.27273,97.55680000000001,116.27273Q96.8665,116.27273,96.4872,116.68821Q96.108,117.1037,96.108,117.7386L96.108,122L95.0852,122L95.0852,117.517Q95.0852,116.95881,94.723,116.61577Q94.3608,116.27273,93.7898,116.27273Q93.3977,116.27273,93.0589,116.48152999999999Q92.7202,116.69034,92.5135,117.0589Q92.30680000000001,117.4276,92.30680000000001,117.9091L92.30680000000001,122L91.30109999999999,122ZM104.4773,122.1364Q103.5312,122.1364,102.84729999999999,121.7166Q102.1634,121.2969,101.7947,120.5405Q101.42609999999999,119.7841,101.42609999999999,118.7784Q101.42609999999999,117.7727,101.7947,117.0036Q102.1634,116.23438,102.826,115.80185Q103.48859999999999,115.36932,104.375,115.36932Q104.8864,115.36932,105.3849,115.53977Q105.8835,115.71023,106.2926,116.09162Q106.7017,116.47301,106.9446,117.0994Q107.1875,117.7259,107.1875,118.642L107.1875,119.0682L102.142,119.0682L102.142,118.1989L106.1648,118.1989Q106.1648,117.6449,105.9453,117.2102Q105.7259,116.77557,105.3232,116.52415Q104.9205,116.27273,104.375,116.27273Q103.7741,116.27273,103.3374,116.56889Q102.9006,116.86506,102.6662,117.3381Q102.43180000000001,117.8111,102.43180000000001,118.3523L102.43180000000001,118.9318Q102.43180000000001,119.6733,102.6896,120.1868Q102.9474,120.7003,103.4077,120.9666Q103.86789999999999,121.233,104.4773,121.233Q104.8736,121.233,105.1953,121.12Q105.517,121.0071,105.7514,120.7791Q105.9858,120.5511,106.1136,120.2102L107.0852,120.483Q106.9318,120.9773,106.5696,121.3501Q106.2074,121.723,105.6747,121.9297Q105.142,122.1364,104.4773,122.1364Z" fill="#98A1B3" fill-opacity="1"/></g></g><g><g><path d="M41.63636,144L41.63636,132.36364L45.56818,132.36364Q46.93181,132.36364,47.80681,132.8267Q48.68181,133.28977,49.102270000000004,134.09659Q49.52272,134.90341,49.52272,135.93182Q49.52272,136.96023,49.102270000000004,137.75568Q48.68181,138.5511,47.8125,139.0028Q46.94318,139.4545,45.5909,139.4545L42.40909,139.4545L42.40909,138.1818L45.54545,138.1818Q46.47727,138.1818,47.04829,137.90909Q47.61931,137.63636,47.87784,137.13352Q48.136359999999996,136.63068,48.136359999999996,135.93182Q48.136359999999996,135.23295,47.875,134.71023Q47.61363,134.1875,47.03977,133.90057Q46.4659,133.61364,45.52272,133.61364L43.04545,133.61364L43.04545,144L41.63636,144ZM47.11363,138.7727L49.977270000000004,144L48.34091,144L45.52272,138.7727L47.11363,138.7727ZM54.25,144.2045Q53.420500000000004,144.2045,52.7443,143.8892Q52.0682,143.5739,51.670500000000004,142.9744Q51.2727,142.375,51.2727,141.5227Q51.2727,140.7727,51.5682,140.304Q51.8636,139.8352,52.358000000000004,139.5682Q52.8523,139.3011,53.4517,139.1676Q54.0511,139.0341,54.6591,138.9545Q55.454499999999996,138.8523,55.9517,138.7983Q56.448899999999995,138.7443,56.679,138.6136Q56.909099999999995,138.483,56.909099999999995,138.1591L56.909099999999995,138.1136Q56.909099999999995,137.27273,56.4517,136.80682Q55.9943,136.34091,55.0682,136.34091Q54.108000000000004,136.34091,53.5625,136.76136Q53.016999999999996,137.18182,52.795500000000004,137.65909L51.5227,137.20455Q51.8636,136.40909,52.4347,135.96307Q53.0057,135.51705,53.6847,135.33807Q54.3636,135.15909,55.0227,135.15909Q55.4432,135.15909,55.9915,135.25852Q56.5398,135.35795,57.054,135.66477Q57.568200000000004,135.97159,57.909099999999995,136.59091Q58.25,137.21023,58.25,138.25L58.25,144L56.909099999999995,144L56.909099999999995,142.8182L56.840900000000005,142.8182Q56.704499999999996,143.1023,56.386399999999995,143.4261Q56.068200000000004,143.75,55.5398,143.9773Q55.0114,144.2045,54.25,144.2045ZM54.454499999999996,143Q55.25,143,55.7983,142.6875Q56.346599999999995,142.375,56.6278,141.8807Q56.909099999999995,141.3864,56.909099999999995,140.8409L56.909099999999995,139.6136Q56.823899999999995,139.7159,56.5369,139.7983Q56.25,139.8807,55.8778,139.9403Q55.5057,140,55.1562,140.0426Q54.8068,140.0852,54.5909,140.1136Q54.0682,140.1818,53.6165,140.3324Q53.1648,140.483,52.8892,140.7812Q52.6136,141.0795,52.6136,141.5909Q52.6136,142.2898,53.1335,142.6449Q53.6534,143,54.454499999999996,143ZM60.704499999999996,144L60.704499999999996,135.27273L62.045500000000004,135.27273L62.045500000000004,144L60.704499999999996,144ZM61.386399999999995,133.81818Q60.994299999999996,133.81818,60.7131,133.55114Q60.431799999999996,133.28409,60.431799999999996,132.90909Q60.431799999999996,132.53409,60.7131,132.26705Q60.994299999999996,132,61.386399999999995,132Q61.778400000000005,132,62.0597,132.26705Q62.340900000000005,132.53409,62.340900000000005,132.90909Q62.340900000000005,133.28409,62.0597,133.55114Q61.778400000000005,133.81818,61.386399999999995,133.81818ZM65.8409,138.75L65.8409,144L64.5,144L64.5,135.27273L65.7955,135.27273L65.7955,136.63636L65.9091,136.63636Q66.2159,135.97159,66.8409,135.56534Q67.4659,135.15909,68.4545,135.15909Q69.3409,135.15909,70.0057,135.51989Q70.6705,135.88068,71.0398,136.6108Q71.4091,137.34091,71.4091,138.4545L71.4091,144L70.0682,144L70.0682,138.5455Q70.0682,137.51705,69.5341,136.94034Q69,136.36364,68.0682,136.36364Q67.4261,136.36364,66.9233,136.64205Q66.4205,136.92045,66.1307,137.45455Q65.8409,137.98864,65.8409,138.75ZM77.75,135.27273L77.75,136.40909L73.0455,136.40909L73.0455,135.27273L77.75,135.27273ZM74.4545,144L74.4545,134.06818Q74.4545,133.31818,74.80680000000001,132.81818Q75.1591,132.31818,75.7216,132.06818Q76.2841,131.81818,76.9091,131.81818Q77.4034,131.81818,77.7159,131.89773Q78.0284,131.97727,78.18180000000001,132.04545L77.7955,133.20455Q77.69319999999999,133.17045,77.5142,133.11932Q77.3352,133.06818,77.0455,133.06818Q76.38069999999999,133.06818,76.0881,133.40341Q75.7955,133.73864,75.7955,134.38636L75.7955,144L74.4545,144ZM82.81819999999999,144.1818Q81.63640000000001,144.1818,80.74719999999999,143.6193Q79.858,143.0568,79.3608,142.0455Q78.86359999999999,141.0341,78.86359999999999,139.6818Q78.86359999999999,138.3182,79.3608,137.30114Q79.858,136.28409,80.74719999999999,135.72159Q81.63640000000001,135.15909,82.81819999999999,135.15909Q84,135.15909,84.8892,135.72159Q85.7784,136.28409,86.2756,137.30114Q86.7727,138.3182,86.7727,139.6818Q86.7727,141.0341,86.2756,142.0455Q85.7784,143.0568,84.8892,143.6193Q84,144.1818,82.81819999999999,144.1818ZM82.81819999999999,142.9773Q83.7159,142.9773,84.2955,142.517Q84.875,142.0568,85.1534,141.3068Q85.43180000000001,140.5568,85.43180000000001,139.6818Q85.43180000000001,138.8068,85.1534,138.0511Q84.875,137.29545,84.2955,136.82955Q83.7159,136.36364,82.81819999999999,136.36364Q81.9205,136.36364,81.3409,136.82955Q80.76140000000001,137.29545,80.483,138.0511Q80.2045,138.8068,80.2045,139.6818Q80.2045,140.5568,80.483,141.3068Q80.76140000000001,142.0568,81.3409,142.517Q81.9205,142.9773,82.81819999999999,142.9773ZM88.81819999999999,144L88.81819999999999,135.27273L90.11359999999999,135.27273L90.11359999999999,136.59091L90.2045,136.59091Q90.44319999999999,135.94318,91.06819999999999,135.53977Q91.69319999999999,135.13636,92.4773,135.13636Q92.625,135.13636,92.8466,135.14205Q93.06819999999999,135.14773,93.18180000000001,135.15909L93.18180000000001,136.52273Q93.11359999999999,136.50568,92.87219999999999,136.46875Q92.63069999999999,136.43182,92.36359999999999,136.43182Q91.7273,136.43182,91.2301,136.69602Q90.733,136.96023,90.446,137.4233Q90.1591,137.88636,90.1591,138.4773L90.1591,144L88.81819999999999,144ZM98.1591,144.1818Q96.8977,144.1818,95.9858,143.6222Q95.07390000000001,143.0625,94.5824,142.054Q94.0909,141.0455,94.0909,139.7045Q94.0909,138.3636,94.5824,137.33807Q95.07390000000001,136.3125,95.9574,135.7358Q96.8409,135.15909,98.0227,135.15909Q98.7045,135.15909,99.36930000000001,135.38636Q100.0341,135.61364,100.5795,136.12216Q101.125,136.63068,101.44890000000001,137.46591Q101.7727,138.3011,101.7727,139.5227L101.7727,140.0909L95.0455,140.0909L95.0455,138.9318L100.4091,138.9318Q100.4091,138.1932,100.1165,137.61364Q99.82390000000001,137.03409,99.2869,136.69886Q98.75,136.36364,98.0227,136.36364Q97.2216,136.36364,96.6392,136.75852Q96.05680000000001,137.15341,95.74430000000001,137.78409Q95.43180000000001,138.4148,95.43180000000001,139.1364L95.43180000000001,139.9091Q95.43180000000001,140.8977,95.7756,141.5824Q96.11930000000001,142.267,96.733,142.6222Q97.3466,142.9773,98.1591,142.9773Q98.6875,142.9773,99.1165,142.8267Q99.5455,142.6761,99.858,142.3722Q100.1705,142.0682,100.3409,141.6136L101.63640000000001,141.9773Q101.43180000000001,142.6364,100.94890000000001,143.1335Q100.4659,143.6307,99.75569999999999,143.9062Q99.0455,144.1818,98.1591,144.1818ZM110,137.22727L108.7955,137.56818Q108.6818,137.26705,108.4631,136.98011Q108.2443,136.69318,107.8693,136.50568Q107.4943,136.31818,106.9091,136.31818Q106.108,136.31818,105.5767,136.68466Q105.0455,137.05114,105.0455,137.61364Q105.0455,138.1136,105.4091,138.4034Q105.7727,138.6932,106.5455,138.8864L107.8409,139.2045Q109.0114,139.4886,109.5852,140.071Q110.1591,140.6534,110.1591,141.5682Q110.1591,142.3182,109.7301,142.9091Q109.3011,143.5,108.5341,143.8409Q107.767,144.1818,106.75,144.1818Q105.4148,144.1818,104.5398,143.6023Q103.6648,143.0227,103.43180000000001,141.9091L104.7045,141.5909Q104.8864,142.2955,105.3949,142.6477Q105.9034,143,106.7273,143Q107.6648,143,108.2188,142.5994Q108.7727,142.1989,108.7727,141.6364Q108.7727,141.1818,108.4545,140.8722Q108.1364,140.5625,107.4773,140.4091L106.0227,140.0682Q104.8239,139.7841,104.2642,139.1847Q103.7045,138.5852,103.7045,137.68182Q103.7045,136.94318,104.1222,136.375Q104.5398,135.80682,105.2642,135.48295Q105.9886,135.15909,106.9091,135.15909Q108.2045,135.15909,108.946,135.72727Q109.6875,136.29545,110,137.22727ZM115.9773,135.27273L115.9773,136.40909L111.4545,136.40909L111.4545,135.27273L115.9773,135.27273ZM112.7727,133.18182L114.1136,133.18182L114.1136,141.5Q114.1136,142.0682,114.2812,142.3494Q114.4489,142.6307,114.7131,142.7244Q114.9773,142.8182,115.2727,142.8182Q115.4943,142.8182,115.6364,142.7926Q115.7784,142.767,115.8636,142.75L116.1364,143.9545Q116,144.0057,115.7557,144.0597Q115.5114,144.1136,115.1364,144.1136Q114.5682,144.1136,114.0256,143.8693Q113.483,143.625,113.1278,143.125Q112.7727,142.625,112.7727,141.8636L112.7727,133.18182Z" fill="#F4F7FF" fill-opacity="1"/></g></g></g></g></g><g><line x1="24" y1="155.5" x2="544" y2="155.5" fill-opacity="0" stroke-opacity="1" stroke="#98A1B3" fill="none" stroke-width="1"/></g></g></g><g><g><rect x="24" y="917" width="134" height="48" rx="24" fill="#454546" fill-opacity="1"/><g><path d="M80.00337,937.91815Q79.91246,937.11364,79.25506,936.66823Q78.59774,936.22274,77.5989,936.22274Q76.88299,936.22274,76.35964,936.44602Q75.83638,936.6693,75.54998,937.05913Q75.26367,937.44886,75.26252,937.94549Q75.26021,938.36026,75.45738,938.65971Q75.65456,938.95907,75.97496,939.16078Q76.29545,939.36248,76.66477,939.49547Q77.03409,939.62837,77.37615,939.7136L78.51252,940.00906Q79.06933,940.14542,79.65456,940.38068Q80.23979,940.6159,80.73864,940.9949Q81.23748,941.3738,81.54714,941.9363Q81.85679999999999,942.4988,81.85795,943.2864Q81.85679999999999,944.2704,81.34996,945.0386Q80.84322,945.8068,79.88015,946.2488Q78.91708,946.6909,77.54883,946.6909Q76.24547,946.6909,75.2903,946.2784Q74.33523,945.8659,73.79483,945.1017Q73.25453,944.3375,73.19886,943.2818L74.96253,943.2818Q75.01367,943.9159,75.37269,944.3319Q75.73179999999999,944.7477,76.29829,944.9512Q76.86479,945.1546,77.53977,945.1546Q78.2864,945.1546,78.86816,944.9182Q79.45002,944.6818,79.78524,944.258Q80.12047,943.8341,80.12162000000001,943.2682Q80.12047,942.7512,79.82786,942.4199Q79.53524,942.0886,79.03631,941.8745Q78.53746,941.6602,77.91708,941.4955L76.53977,941.1182Q75.13974,940.7375,74.32554999999999,939.99831Q73.51136,939.25906,73.51252,938.04545Q73.51136,937.04208,74.0562,936.29155Q74.60112,935.54093,75.53462,935.12278Q76.46822,934.70455,77.63521,934.70455Q78.81703,934.70455,79.72265,935.11932Q80.62837,935.53409,81.15163,936.25968Q81.67498,936.98526,81.69886,937.91815L80.00337,937.91815ZM86.358,946.6909Q85.5273,946.6909,84.85849999999999,946.3835Q84.1898,946.0762,83.7988,945.4841Q83.4079,944.892,83.4079,944.0364Q83.4079,943.2931,83.6932,942.8165Q83.9784,942.3398,84.4614,942.0613Q84.9443,941.7829,85.5403,941.642Q86.1364,941.5012,86.758,941.4273Q87.5409,941.3341,88.0278,941.2744Q88.5147,941.2148,88.7386,941.0802Q88.9625,940.9455,88.9625,940.6364L88.9625,940.5954Q88.9625,939.85458,88.54429999999999,939.44549Q88.1262,939.0364,87.3034,939.0364Q86.4455,939.0364,85.9529,939.41193Q85.4602,939.78746,85.2716,940.25L83.6761,939.88636Q83.9602,939.09091,84.5074,938.59943Q85.0545,938.10795,85.7716,937.88352Q86.4886,937.65909,87.2761,937.65909Q87.8,937.65909,88.3874,937.7824Q88.975,937.90572,89.4909,938.22905Q90.0068,938.55229,90.3346,939.15172Q90.6625,939.75115,90.6625,940.7045L90.6625,946.5L89.0034,946.5L89.0034,945.3091L88.9352,945.3091Q88.7739,945.6341,88.4449,945.9534Q88.1159,946.2727,87.5983,946.4818Q87.08070000000001,946.6909,86.358,946.6909ZM86.7261,945.3319Q87.4341,945.3319,87.9358,945.0523Q88.4375,944.7727,88.7022,944.3216Q88.9671,943.8705,88.9671,943.3546L88.9671,942.2273Q88.8738,942.3193,88.6165,942.3944Q88.3591,942.4693,88.0301,942.525Q87.7012,942.5807,87.3869,942.6216Q87.0727,942.6625,86.8625,942.6909Q86.3716,942.7568,85.9642,942.9029Q85.5568,943.0488,85.3142,943.3244Q85.0716,943.6,85.0716,944.0545Q85.0716,944.6863,85.5386,945.0091Q86.0057,945.3319,86.7261,945.3319ZM100.075,937.77273L96.9068,946.5L95.0886,946.5L91.9205,937.77273L93.7432,937.77273L95.9522,944.4909L96.0431,944.4909L98.2523,937.77273L100.075,937.77273ZM105.1262,946.6773Q103.8375,946.6773,102.9062,946.1222Q101.975,945.567,101.4733,944.5585Q100.9716,943.55,100.9716,942.1955Q100.9716,940.8523,101.4738,939.82955Q101.9761,938.80682,102.8817,938.23295Q103.7875,937.65909,105.0034,937.65909Q105.7466,937.65909,106.4387,937.90226Q107.13069999999999,938.14542,107.6807,938.66877Q108.23060000000001,939.19203,108.55109999999999,940.02619Q108.8716,940.8603,108.8716,942.0455L108.8716,942.6454L101.9307,942.6454L101.9307,941.3727L107.2034,941.3727Q107.2022,940.7069,106.93119999999999,940.18581Q106.6602,939.66477,106.1688,939.36426Q105.6773,939.06365,105.017,939.06365Q104.3,939.06365,103.7704,939.41193Q103.2409,939.76021,102.9529,940.32164Q102.6648,940.883,102.6625,941.5364L102.6625,942.5273Q102.6625,943.4023,102.9727,944.0159Q103.2829,944.6295,103.8398,944.9512Q104.3966,945.2727,105.1397,945.2727Q105.62729999999999,945.2727,106.0244,945.1341Q106.4216,944.9955,106.7102,944.7177Q106.9988,944.4398,107.1534,944.0273L108.7625,944.3182Q108.5693,945.0273,108.0727,945.5585Q107.5762,946.0898,106.8267,946.3835Q106.0772,946.6773,105.1262,946.6773Z" fill="#868686" fill-opacity="1"/></g></g><g><rect x="174.5" y="917.5" width="148" height="47" rx="23.5" fill-opacity="0" stroke-opacity="1" stroke="#868686" fill="none" stroke-width="1"/><g><path d="M232.992,938.64542L231.22390000000001,938.64542Q231.11701,938.07955,230.84029,937.64657Q230.56365,937.2136,230.16078,936.91424Q229.75799,936.61479,229.25906,936.462Q228.76021,936.30913,228.2057,936.30913Q227.20117,936.30913,226.4074,936.81365Q225.61364,937.31818,225.1551,938.2943Q224.69656,939.27042,224.69656,940.6818Q224.69656,942.1046,225.15625,943.0802Q225.61594,944.0557,226.40909,944.5551Q227.20224,945.0545,228.20117,945.0545Q228.75231,945.0545,229.24885,944.9051Q229.74547,944.7557,230.14888,944.4614Q230.55229,944.1671,230.83239,943.7369Q231.11248,943.3068,231.22390000000001,942.75L232.992,942.7545Q232.8534,943.6159,232.4454,944.3324Q232.0375,945.0488,231.40625,945.571Q230.77504,946.0932,229.96138,946.3762Q229.14773,946.6591,228.1875,946.6591Q226.67614,946.6591,225.49485,945.9398Q224.31365,945.2204,223.63468,943.8807Q222.955699,942.5409,222.955699,940.6818Q222.955699,938.82049,223.63752,937.48127Q224.31934,936.14205,225.50115,935.4233Q226.68297,934.70455,228.1875,934.70455Q229.11248,934.70455,229.91815,934.96937Q230.72390000000001,935.23411,231.36364,935.74263Q232.0034,936.25115,232.425,936.98073Q232.8466,937.71023,232.992,938.64542ZM237.5,946.6909Q236.6693,946.6909,236.0005,946.3835Q235.3319,946.0762,234.9409,945.4841Q234.55,944.892,234.55,944.0364Q234.55,943.2931,234.8352,942.8165Q235.1205,942.3398,235.6034,942.0613Q236.0864,941.7829,236.6824,941.642Q237.2784,941.5012,237.9,941.4273Q238.683,941.3341,239.1698,941.2744Q239.6568,941.2148,239.8807,941.0802Q240.1046,940.9455,240.1046,940.6364L240.1046,940.5954Q240.1046,939.85458,239.6863,939.44549Q239.2682,939.0364,238.4455,939.0364Q237.5875,939.0364,237.0949,939.41193Q236.6023,939.78746,236.4136,940.25L234.8182,939.88636Q235.1023,939.09091,235.6494,938.59943Q236.1966,938.10795,236.9136,937.88352Q237.6307,937.65909,238.4181,937.65909Q238.942,937.65909,239.52949999999998,937.7824Q240.117,937.90572,240.6329,938.22905Q241.1489,938.55229,241.4767,939.15172Q241.8045,939.75115,241.8045,940.7045L241.8045,946.5L240.1454,946.5L240.1454,945.3091L240.0772,945.3091Q239.9159,945.6341,239.5869,945.9534Q239.258,946.2727,238.7403,946.4818Q238.2227,946.6909,237.5,946.6909ZM237.8682,945.3319Q238.5762,945.3319,239.0779,945.0523Q239.5795,944.7727,239.8443,944.3216Q240.1091,943.8705,240.1091,943.3546L240.1091,942.2273Q240.0159,942.3193,239.7585,942.3944Q239.5012,942.4693,239.1721,942.525Q238.8432,942.5807,238.5289,942.6216Q238.2148,942.6625,238.0045,942.6909Q237.5137,942.7568,237.1063,942.9029Q236.6989,943.0488,236.4562,943.3244Q236.21359999999999,943.6,236.21359999999999,944.0545Q236.21359999999999,944.6863,236.6807,945.0091Q237.1477,945.3319,237.8682,945.3319ZM245.767,941.3182L245.767,946.5L244.067,946.5L244.067,937.77273L245.6989,937.77273L245.6989,939.19549L245.808,939.19549Q246.1103,938.49769,246.754,938.07839Q247.3977,937.65909,248.3807,937.65909Q249.275,937.65909,249.9437,938.0324Q250.6125,938.40572,250.9835,939.13752Q251.3546,939.86932,251.3534,940.95L251.3534,946.5L249.6534,946.5L249.6534,941.1546Q249.6546,940.20224,249.1608,939.66708Q248.6671,939.13184,247.8034,939.13184Q247.2125,939.13184,246.7528,939.38814Q246.2931,939.64435,246.0306,940.13352Q245.7682,940.6227,245.767,941.3182ZM257.3011,946.6773Q256.03520000000003,946.6773,255.12380000000002,946.1006Q254.2125,945.5239,253.7227,944.5075Q253.233,943.4909,253.233,942.1773Q253.233,940.8454,253.7341,939.8267Q254.2353,938.80797,255.1444,938.23358Q256.0534,937.65909,257.2829,937.65909Q258.2761,937.65909,259.055,938.02441Q259.8341,938.38974,260.3147,939.04945Q260.7955,939.70907,260.8875,940.5909L259.233,940.5909Q259.09770000000003,939.97612,258.6108,939.53356Q258.1238,939.09091,257.3102,939.09091Q256.6011,939.09091,256.0692,939.46307Q255.5375,939.83523,255.242,940.5187Q254.9466,941.2022,254.9466,942.1364Q254.9466,943.0886,255.2375,943.7836Q255.5284,944.4784,256.0602,944.8574Q256.5921,945.2363,257.3102,945.2363Q257.7978,945.2363,258.192,945.0585Q258.5864,944.8807,258.8563,944.5449Q259.1262,944.2091,259.233,943.7363L260.8875,943.7363Q260.7931,944.5852,260.3341,945.2495Q259.875,945.9136,259.104,946.2955Q258.3329,946.6773,257.3011,946.6773ZM266.47270000000003,946.6773Q265.1841,946.6773,264.2528,946.1222Q263.3216,945.567,262.8199,944.5585Q262.3182,943.55,262.3182,942.1955Q262.3182,940.8523,262.8204,939.82955Q263.3227,938.80682,264.2283,938.23295Q265.1341,937.65909,266.35,937.65909Q267.0932,937.65909,267.78520000000003,937.90226Q268.4773,938.14542,269.02729999999997,938.66877Q269.5772,939.19203,269.8977,940.02619Q270.2182,940.8603,270.2182,942.0455L270.2182,942.6454L263.27729999999997,942.6454L263.27729999999997,941.3727L268.55,941.3727Q268.5488,940.7069,268.2778,940.18581Q268.0068,939.66477,267.5154,939.36426Q267.0239,939.06365,266.3636,939.06365Q265.6466,939.06365,265.117,939.41193Q264.5875,939.76021,264.2994,940.32164Q264.0114,940.883,264.0091,941.5364L264.0091,942.5273Q264.0091,943.4023,264.3192,944.0159Q264.6295,944.6295,265.1863,944.9512Q265.7432,945.2727,266.4863,945.2727Q266.9739,945.2727,267.371,945.1341Q267.7682,944.9955,268.0568,944.7177Q268.3454,944.4398,268.5,944.0273L270.1091,944.3182Q269.9159,945.0273,269.4193,945.5585Q268.9228,946.0898,268.1733,946.3835Q267.4238,946.6773,266.47270000000003,946.6773ZM273.8068,934.86364L273.8068,946.5L272.1068,946.5L272.1068,934.86364L273.8068,934.86364Z" fill="#868686" fill-opacity="1"/></g></g></g></g></svg>