<svg xmlns="http://www.w3.org/2000/svg" xmlns:xlink="http://www.w3.org/1999/xlink" fill="none" version="1.1" width="568" height="526" viewBox="0 0 568 526"><g><rect x="0" y="0" width="568" height="526" rx="0" fill="#252C38" fill-opacity="1"/><g><g><g><g><path d="M24,59L24,57.992000000000004L24.456,57.992000000000004Q24.936,57.992000000000004,25.224,57.848Q25.512,57.704,25.752,57.296Q25.992,56.888000000000005,26.28,56.120000000000005L31.608,41.864000000000004L33.480000000000004,41.864000000000004L38.903999999999996,56.72Q39.096000000000004,57.224000000000004,39.312,57.5Q39.528,57.775999999999996,39.84,57.884Q40.152,57.992000000000004,40.608000000000004,57.992000000000004L40.92,57.992000000000004L40.92,59L34.32,59L34.32,57.992000000000004L34.872,57.992000000000004Q35.592,57.992000000000004,35.952,57.716Q36.312,57.44,36.312,56.84Q36.312,56.696,36.288,56.564Q36.263999999999996,56.432,36.228,56.275999999999996Q36.192,56.120000000000005,36.12,55.952L35.16,53.263999999999996L28.848,53.263999999999996L27.936,55.784Q27.864,55.976,27.816,56.168Q27.768,56.36,27.744,56.516Q27.72,56.672,27.72,56.816Q27.72,57.416,28.116,57.704Q28.512,57.992000000000004,29.304000000000002,57.992000000000004L29.856,57.992000000000004L29.856,59L24,59ZM29.304000000000002,52.064L34.728,52.064L33.24,47.864000000000004Q33,47.144,32.772,46.496Q32.544,45.848,32.364000000000004,45.248Q32.184,44.647999999999996,32.04,44.072Q31.92,44.647999999999996,31.764,45.188Q31.608,45.728,31.416,46.316Q31.224,46.903999999999996,30.936,47.647999999999996L29.304000000000002,52.064ZM46.656,59.239999999999995Q45.072,59.239999999999995,43.980000000000004,58.544Q42.888000000000005,57.848,42.324,56.372Q41.760000000000005,54.896,41.760000000000005,52.592Q41.760000000000005,50.263999999999996,42.324,48.788Q42.888000000000005,47.312,43.980000000000004,46.604Q45.072,45.896,46.656,45.896Q48.048,45.896,48.924,46.484Q49.8,47.072,50.328,48.007999999999996L50.472,48.007999999999996Q50.4,47.408,50.364000000000004,46.676Q50.328,45.944,50.328,45.368L50.328,43.4Q50.328,42.68,50.052,42.332Q49.775999999999996,41.984,49.332,41.876Q48.888000000000005,41.768,48.36,41.768L48.168,41.768L48.168,40.76L52.584,40.76L52.584,56.36Q52.584,57.056,52.86,57.416Q53.135999999999996,57.775999999999996,53.58,57.884Q54.024,57.992000000000004,54.552,57.992000000000004L54.744,57.992000000000004L54.744,59L50.688,59L50.424,56.84L50.328,56.84Q49.8,57.944,48.936,58.592Q48.072,59.239999999999995,46.656,59.239999999999995ZM47.064,57.704Q48.936,57.704,49.632000000000005,56.444Q50.328,55.184,50.328,52.592Q50.328,50.096000000000004,49.632000000000005,48.763999999999996Q48.936,47.432,47.04,47.432Q45.984,47.432,45.336,48.032Q44.688,48.632000000000005,44.388000000000005,49.784Q44.088,50.936,44.088,52.616Q44.088,55.16,44.772,56.432Q45.456,57.704,47.064,57.704ZM61.392,59.239999999999995Q59.808,59.239999999999995,58.716,58.544Q57.624,57.848,57.06,56.372Q56.496,54.896,56.496,52.592Q56.496,50.263999999999996,57.06,48.788Q57.624,47.312,58.716,46.604Q59.808,45.896,61.392,45.896Q62.784,45.896,63.66,46.484Q64.536,47.072,65.064,48.007999999999996L65.208,48.007999999999996Q65.136,47.408,65.1,46.676Q65.064,45.944,65.064,45.368L65.064,43.4Q65.064,42.68,64.788,42.332Q64.512,41.984,64.068,41.876Q63.624,41.768,63.096,41.768L62.904,41.768L62.904,40.76L67.32,40.76L67.32,56.36Q67.32,57.056,67.596,57.416Q67.872,57.775999999999996,68.316,57.884Q68.75999999999999,57.992000000000004,69.288,57.992000000000004L69.47999999999999,57.992000000000004L69.47999999999999,59L65.424,59L65.16,56.84L65.064,56.84Q64.536,57.944,63.672,58.592Q62.808,59.239999999999995,61.392,59.239999999999995ZM61.8,57.704Q63.672,57.704,64.368,56.444Q65.064,55.184,65.064,52.592Q65.064,50.096000000000004,64.368,48.763999999999996Q63.672,47.432,61.776,47.432Q60.72,47.432,60.072,48.032Q59.424,48.632000000000005,59.124,49.784Q58.824,50.936,58.824,52.616Q58.824,55.16,59.508,56.432Q60.192,57.704,61.8,57.704ZM76.464,59L76.464,57.992000000000004L76.77600000000001,57.992000000000004Q77.328,57.992000000000004,77.77199999999999,57.872Q78.21600000000001,57.751999999999995,78.47999999999999,57.379999999999995Q78.744,57.007999999999996,78.744,56.263999999999996L78.744,43.4Q78.744,42.68,78.468,42.332Q78.19200000000001,41.984,77.74799999999999,41.876Q77.304,41.768,76.77600000000001,41.768L76.464,41.768L76.464,40.76L81,40.76L81,56.263999999999996Q81,57.007999999999996,81.26400000000001,57.379999999999995Q81.52799999999999,57.751999999999995,81.98400000000001,57.872Q82.44,57.992000000000004,82.968,57.992000000000004L83.28,57.992000000000004L83.28,59L76.464,59ZM90.48,59.239999999999995Q87.864,59.239999999999995,86.388,57.512Q84.912,55.784,84.912,52.664Q84.912,49.304,86.304,47.6Q87.696,45.896,90.24,45.896Q92.568,45.896,93.9,47.336Q95.232,48.775999999999996,95.232,51.632000000000005L95.232,52.736000000000004L87.24000000000001,52.736000000000004Q87.288,55.352000000000004,88.188,56.54Q89.088,57.728,90.816,57.728Q92.064,57.728,92.94,57.212Q93.816,56.696,94.248,56.048Q94.416,56.120000000000005,94.56,56.336Q94.704,56.552,94.704,56.864000000000004Q94.704,57.344,94.248,57.896Q93.792,58.448,92.856,58.844Q91.92,59.239999999999995,90.48,59.239999999999995ZM92.808,51.44Q92.808,49.519999999999996,92.22,48.356Q91.632,47.192,90.192,47.192Q88.872,47.192,88.14,48.284Q87.408,49.376000000000005,87.288,51.44L92.808,51.44ZM101.352,59.239999999999995Q100.296,59.239999999999995,99.444,58.82Q98.592,58.4,98.112,57.548Q97.632,56.696,97.632,55.4Q97.632,53.480000000000004,98.988,52.568Q100.344,51.656,103.104,51.56L105.096,51.488L105.096,50.048Q105.096,49.184,104.952,48.524Q104.808,47.864000000000004,104.328,47.480000000000004Q103.848,47.096000000000004,102.864,47.096000000000004Q101.952,47.096000000000004,101.472,47.432Q100.992,47.768,100.836,48.356Q100.68,48.944,100.68,49.712Q99.672,49.712,99.156,49.364000000000004Q98.64,49.016,98.64,48.2Q98.64,47.36,99.228,46.856Q99.816,46.352000000000004,100.8,46.124Q101.784,45.896,102.96,45.896Q105.168,45.896,106.26,46.832Q107.352,47.768,107.352,50.048L107.352,56.263999999999996Q107.352,56.936,107.496,57.308Q107.64,57.68,107.976,57.836Q108.312,57.992000000000004,108.84,57.992000000000004L108.912,57.992000000000004L108.912,59L105.672,59L105.288,56.936L105.096,56.936Q104.592,57.608000000000004,104.112,58.123999999999995Q103.632,58.64,102.996,58.94Q102.36,59.239999999999995,101.352,59.239999999999995ZM101.904,57.751999999999995Q102.888,57.751999999999995,103.596,57.344Q104.304,56.936,104.7,56.18Q105.096,55.424,105.096,54.416L105.096,52.472L103.56,52.544Q102.192,52.592,101.412,52.952Q100.632,53.312,100.296,53.948Q99.96,54.584,99.96,55.519999999999996Q99.96,56.263999999999996,100.176,56.756Q100.392,57.248000000000005,100.824,57.5Q101.256,57.751999999999995,101.904,57.751999999999995ZM111.816,48.416Q111.648,47.912,111.42,47.635999999999996Q111.192,47.36,110.868,47.252Q110.544,47.144,110.04,47.144L110.04,46.135999999999996L116.04,46.135999999999996L116.04,47.144L115.728,47.144Q115.008,47.144,114.648,47.42Q114.288,47.696,114.288,48.296Q114.288,48.488,114.336,48.704Q114.384,48.92,114.48,49.184L116.112,53.72Q116.328,54.296,116.544,54.980000000000004Q116.76,55.664,116.94,56.275999999999996Q117.12,56.888000000000005,117.24,57.32Q117.36,56.816,117.744,55.856Q118.128,54.896,118.44,54.032L120.168,49.352000000000004Q120.288,49.064,120.336,48.788Q120.384,48.512,120.384,48.32Q120.384,47.696,119.988,47.42Q119.592,47.144,118.8,47.144L118.632,47.144L118.632,46.135999999999996L123.768,46.135999999999996L123.768,47.144L123.48,47.144Q123.024,47.144,122.724,47.288Q122.424,47.432,122.184,47.84Q121.944,48.248000000000005,121.656,49.016L117.864,59L115.68,59L111.816,48.416ZM130.728,59.239999999999995Q128.112,59.239999999999995,126.636,57.512Q125.16,55.784,125.16,52.664Q125.16,49.304,126.552,47.6Q127.944,45.896,130.488,45.896Q132.816,45.896,134.148,47.336Q135.48000000000002,48.775999999999996,135.48000000000002,51.632000000000005L135.48000000000002,52.736000000000004L127.488,52.736000000000004Q127.536,55.352000000000004,128.436,56.54Q129.336,57.728,131.064,57.728Q132.312,57.728,133.188,57.212Q134.064,56.696,134.49599999999998,56.048Q134.664,56.120000000000005,134.808,56.336Q134.952,56.552,134.952,56.864000000000004Q134.952,57.344,134.49599999999998,57.896Q134.04000000000002,58.448,133.10399999999998,58.844Q132.168,59.239999999999995,130.728,59.239999999999995ZM133.05599999999998,51.44Q133.05599999999998,49.519999999999996,132.46800000000002,48.356Q131.88,47.192,130.44,47.192Q129.12,47.192,128.388,48.284Q127.656,49.376000000000005,127.536,51.44L133.05599999999998,51.44ZM148.68,59.239999999999995Q146.856,59.239999999999995,146.02800000000002,58.412Q145.2,57.584,145.2,55.519999999999996L145.2,47.504L143.376,47.504L143.376,46.544Q143.808,46.544,144.336,46.364000000000004Q144.864,46.184,145.248,45.775999999999996Q145.656,45.344,145.92000000000002,44.72Q146.184,44.096000000000004,146.352,43.184L147.45600000000002,43.184L147.45600000000002,46.135999999999996L150.6,46.135999999999996L150.6,47.504L147.45600000000002,47.504L147.45600000000002,55.592Q147.45600000000002,56.816,147.95999999999998,57.391999999999996Q148.464,57.968,149.28,57.968Q149.712,57.968,150.072,57.92Q150.43200000000002,57.872,150.816,57.8L150.816,58.856Q150.50400000000002,59,149.88,59.120000000000005Q149.256,59.239999999999995,148.68,59.239999999999995ZM152.28,63.632000000000005Q153.504,63.632000000000005,154.392,63.272Q155.28,62.912,155.904,62.275999999999996Q156.528,61.64,156.96,60.775999999999996Q157.392,59.912,157.68,58.903999999999996L153.24,48.416Q153.024,47.912,152.808,47.635999999999996Q152.592,47.36,152.304,47.252Q152.016,47.144,151.536,47.144L151.464,47.144L151.464,46.135999999999996L157.224,46.135999999999996L157.224,47.144L157.152,47.144Q156.432,47.144,156.072,47.42Q155.712,47.696,155.712,48.296Q155.712,48.488,155.76,48.704Q155.808,48.92,155.904,49.184L157.656,53.456Q157.896,54.007999999999996,158.124,54.668Q158.352,55.328,158.544,55.928Q158.736,56.528,158.808,56.936Q158.976,56.239999999999995,159.252,55.495999999999995Q159.528,54.751999999999995,159.768,54.032L161.376,49.352000000000004Q161.496,49.064,161.544,48.788Q161.592,48.512,161.592,48.32Q161.592,47.696,161.196,47.42Q160.8,47.144,160.008,47.144L159.936,47.144L159.936,46.135999999999996L164.928,46.135999999999996L164.928,47.144L164.856,47.144Q164.4,47.144,164.088,47.288Q163.776,47.432,163.548,47.84Q163.32,48.248000000000005,163.032,49.016L159.384,59.096000000000004Q158.76,60.848,158.184,61.952Q157.608,63.056,156.9,63.668Q156.192,64.28,155.136,64.52000000000001Q154.08,64.75999999999999,152.496,64.75999999999999L152.28,64.75999999999999L152.28,63.632000000000005ZM165.36,64.75999999999999L165.36,63.751999999999995L165.552,63.751999999999995Q166.104,63.751999999999995,166.548,63.632000000000005Q166.992,63.512,167.256,63.14Q167.52,62.768,167.52,62.024L167.52,48.775999999999996Q167.52,48.056,167.244,47.708Q166.968,47.36,166.524,47.252Q166.08,47.144,165.552,47.144L165.24,47.144L165.24,46.135999999999996L169.44,46.135999999999996L169.68,48.296L169.776,48.296Q170.328,47.192,171.192,46.544Q172.056,45.896,173.448,45.896Q175.824,45.896,177.084,47.492000000000004Q178.344,49.088,178.344,52.544Q178.344,56.024,177.084,57.632000000000005Q175.824,59.239999999999995,173.448,59.239999999999995Q172.056,59.239999999999995,171.18,58.652Q170.304,58.064,169.776,57.128L169.68,57.128Q169.728,57.584,169.74,58.1Q169.752,58.616,169.764,59.072Q169.776,59.528,169.776,59.84L169.776,62.144Q169.776,62.84,170.052,63.188Q170.328,63.536,170.772,63.644Q171.216,63.751999999999995,171.744,63.751999999999995L171.816,63.751999999999995L171.816,64.75999999999999L165.36,64.75999999999999ZM173.064,57.704Q174.648,57.704,175.332,56.372Q176.016,55.04,176.016,52.519999999999996Q176.016,49.952,175.332,48.692Q174.648,47.432,173.04,47.432Q171.792,47.432,171.084,47.984Q170.376,48.536,170.076,49.676Q169.776,50.816,169.776,52.544Q169.776,54.2,170.076,55.352000000000004Q170.376,56.504000000000005,171.096,57.104Q171.816,57.704,173.064,57.704ZM186.552,59.239999999999995Q183.936,59.239999999999995,182.46,57.512Q180.984,55.784,180.984,52.664Q180.984,49.304,182.376,47.6Q183.768,45.896,186.312,45.896Q188.64,45.896,189.972,47.336Q191.304,48.775999999999996,191.304,51.632000000000005L191.304,52.736000000000004L183.312,52.736000000000004Q183.36,55.352000000000004,184.26,56.54Q185.16,57.728,186.888,57.728Q188.136,57.728,189.012,57.212Q189.888,56.696,190.32,56.048Q190.488,56.120000000000005,190.632,56.336Q190.776,56.552,190.776,56.864000000000004Q190.776,57.344,190.32,57.896Q189.864,58.448,188.928,58.844Q187.992,59.239999999999995,186.552,59.239999999999995ZM188.88,51.44Q188.88,49.519999999999996,188.292,48.356Q187.704,47.192,186.264,47.192Q184.944,47.192,184.212,48.284Q183.48,49.376000000000005,183.36,51.44L188.88,51.44Z" fill="#FFFFFF" fill-opacity="1"/></g><g><rect x="428.5" y="32.5" width="115" height="39" rx="19.5" fill-opacity="0" stroke-opacity="1" stroke="#EFBF04" fill="none" stroke-width="1"/><g><path d="M446.44804,57.5L444.817358,57.5L448.48041,47.31818L450.25426,47.31818L453.91731,57.5L452.28663,57.5L449.40707,49.167609999999996L449.32752,49.167609999999996L446.44804,57.5ZM446.71845,53.5148L452.00822,53.5148L452.00822,54.803399999999996L446.71845,54.803399999999996L446.71845,53.5148ZM458.005,57.647099999999995Q457.0782,57.647099999999995,456.3569,57.1739Q455.6355,56.7006,455.2234,55.8167Q454.8112,54.9326,454.8112,53.6977Q454.8112,52.4588,455.2273,51.577799999999996Q455.6435,50.69684,456.3688,50.23052Q457.0942,49.7642,458.0169,49.7642Q458.7269,49.7642,459.1603,50.00035Q459.5939,50.23651,459.8365,50.55026Q460.0791,50.86394,460.2124,51.10055L460.2998,51.10055L460.2998,47.31818L461.7873,47.31818L461.7873,57.5L460.3356,57.5L460.3356,56.3108L460.2124,56.3108Q460.0771,56.5554,459.8271,56.8692Q459.577,57.1828,459.139,57.415Q458.701,57.647099999999995,458.005,57.647099999999995ZM458.3351,56.382400000000004Q458.9754,56.382400000000004,459.4194,56.0418Q459.8633,55.7013,460.0955,55.0933Q460.3277,54.4852,460.3277,53.6818Q460.3277,52.884299999999996,460.0995,52.2883Q459.8713,51.6922,459.4273,51.36063Q458.9834,51.02901,458.3351,51.02901Q457.6629,51.02901,457.2139,51.37655Q456.765,51.724000000000004,456.5398,52.3241Q456.3146,52.924099999999996,456.3146,53.6818Q456.3146,54.4474,456.5438,55.0595Q456.773,55.6715,457.2219,56.0269Q457.6709,56.382400000000004,458.3351,56.382400000000004ZM466.7649,57.647099999999995Q465.83820000000003,57.647099999999995,465.1168,57.1739Q464.39549999999997,56.7006,463.9833,55.8167Q463.5711,54.9326,463.5711,53.6977Q463.5711,52.4588,463.9873,51.577799999999996Q464.4034,50.69684,465.1287,50.23052Q465.8541,49.7642,466.7769,49.7642Q467.4868,49.7642,467.9203,50.00035Q468.3538,50.23651,468.5964,50.55026Q468.8391,50.86394,468.9723,51.10055L469.0598,51.10055L469.0598,47.31818L470.5473,47.31818L470.5473,57.5L469.0956,57.5L469.0956,56.3108L468.9723,56.3108Q468.8371,56.5554,468.587,56.8692Q468.3369,57.1828,467.8989,57.415Q467.4609,57.647099999999995,466.7649,57.647099999999995ZM467.0951,56.382400000000004Q467.7354,56.382400000000004,468.1793,56.0418Q468.6233,55.7013,468.8555,55.0933Q469.0877,54.4852,469.0877,53.6818Q469.0877,52.884299999999996,468.8594,52.2883Q468.6313,51.6922,468.1873,51.36063Q467.7433,51.02901,467.0951,51.02901Q466.4229,51.02901,465.9739,51.37655Q465.525,51.724000000000004,465.2998,52.3241Q465.0746,52.924099999999996,465.0746,53.6818Q465.0746,54.4474,465.3037,55.0595Q465.533,55.6715,465.9819,56.0269Q466.4308,56.382400000000004,467.0951,56.382400000000004ZM478.5973,57.667Q477.8704,57.667,477.2853,57.3981Q476.7002,57.1292,476.3581,56.6111Q476.016,56.093,476.016,55.344300000000004Q476.016,54.694,476.2656,54.2769Q476.5152,53.8598,476.9378,53.6162Q477.3604,53.3726,477.8819,53.2493Q478.4034,53.126,478.9473,53.0614Q479.6324,52.9798,480.0584,52.9276Q480.4845,52.8754,480.6804,52.7576Q480.8763,52.6398,480.8763,52.3693L480.8763,52.3335Q480.8763,51.6853,480.5104,51.3273Q480.1445,50.96935,479.4246,50.96935Q478.6739,50.96935,478.2428,51.29794Q477.8118,51.6265,477.6467,52.0312L476.2507,51.7131Q476.4993,51.01705,476.978,50.587Q477.4568,50.15696,478.0842,49.96058Q478.7116,49.7642,479.40070000000003,49.7642Q479.8591,49.7642,480.3731,49.8721Q480.8872,49.980000000000004,481.3386,50.26292Q481.7901,50.54575,482.0769,51.07026Q482.3637,51.5948,482.3637,52.429L482.3637,57.5L480.912,57.5L480.912,56.458L480.8524,56.458Q480.7112,56.7423,480.4233,57.021699999999996Q480.1355,57.3011,479.6826,57.4841Q479.2297,57.667,478.5973,57.667ZM478.9194,56.4779Q479.5389,56.4779,479.9779,56.2333Q480.4169,55.9886,480.6485,55.5939Q480.8803,55.1992,480.8803,54.7478L480.8803,53.7614Q480.7987,53.8419,480.5735,53.9076Q480.3483,53.9731,480.0604,54.0219Q479.7726,54.0706,479.4976,54.1064Q479.22270000000003,54.1422,479.0388,54.167Q478.6093,54.2247,478.2528,54.3525Q477.8963,54.480199999999996,477.68399999999997,54.7213Q477.4717,54.9625,477.4717,55.3602Q477.4717,55.9131,477.8804,56.195499999999996Q478.2891,56.4779,478.9194,56.4779ZM485.831,52.9659L485.831,57.5L484.3434,57.5L484.3434,49.863640000000004L485.7713,49.863640000000004L485.7713,51.10855L485.8668,51.10855Q486.1313,50.49798,486.6945,50.13109Q487.2578,49.7642,488.1179,49.7642Q488.9005,49.7642,489.4855,50.09085Q490.0707,50.417500000000004,490.3954,51.057829999999996Q490.7201,51.6982,490.719,52.6438L490.719,57.5L489.2315,57.5L489.2315,52.8227Q489.2325,51.9895,488.8005,51.5212Q488.3685,51.05286,487.6128,51.05286Q487.0958,51.05286,486.6935,51.27712Q486.2913,51.5013,486.0616,51.9293Q485.832,52.3574,485.831,52.9659ZM495.9233,57.655100000000004Q494.8474,57.655100000000004,494.048,57.1625Q493.2486,56.6697,492.8061,55.7843Q492.3636,54.8988,492.3636,53.7176Q492.3636,52.5284,492.8061,51.638999999999996Q493.2486,50.74959,494.048,50.25694Q494.8474,49.7642,495.9233,49.7642Q496.9992,49.7642,497.7986,50.25694Q498.598,50.74959,499.0405,51.638999999999996Q499.483,52.5284,499.483,53.7176Q499.483,54.8988,499.0405,55.7843Q498.598,56.6697,497.7986,57.1625Q496.9992,57.655100000000004,495.9233,57.655100000000004ZM495.9273,56.4062Q496.6253,56.4062,497.0817,56.0373Q497.5381,55.6684,497.7608,55.0569Q497.9836,54.4454,497.9836,53.7137Q497.9836,52.9808,497.7608,52.3658Q497.5381,51.7508,497.0817,51.37795Q496.6253,51.00508,495.9273,51.00508Q495.2253,51.00508,494.7669,51.37795Q494.3085,51.7508,494.0857,52.3658Q493.863,52.9808,493.863,53.7137Q493.863,54.4454,494.0857,55.0569Q494.3085,55.6684,494.7669,56.0373Q495.2253,56.4062,495.9273,56.4062ZM504.7051,49.863640000000004L504.7051,51.05682L500.533,51.05682L500.533,49.863640000000004L504.7051,49.863640000000004ZM501.6506,48.03409L503.1381,48.03409L503.1381,55.2588Q503.1381,55.6883,503.2663,55.9066Q503.39459999999997,56.1249,503.6024,56.200900000000004Q503.8103,56.277,504.0529,56.277Q504.2328,56.277,504.3655,56.2531Q504.4983,56.2293,504.5739,56.2134L504.8443,57.4424Q504.7121,57.489000000000004,504.4729,57.542699999999996Q504.2338,57.5965,503.8778,57.6015Q503.2912,57.6114,502.7831,57.3912Q502.275,57.1709,501.9618,56.7145Q501.6485,56.2581,501.6506,55.565L501.6506,48.03409ZM507.9893,52.9659L507.9893,57.5L506.5018,57.5L506.5018,47.31818L507.9695,47.31818L507.9695,51.10855L508.06489999999997,51.10855Q508.33140000000003,50.48905,508.8832,50.126670000000004Q509.43510000000003,49.7642,510.324,49.7642Q511.1105,49.7642,511.69960000000003,50.086349999999996Q512.2888,50.40849,512.6154,51.04889Q512.9421,51.6892,512.941,52.6438L512.941,57.5L511.4535,57.5L511.4535,52.8227Q511.4545,51.9815,511.0215,51.5172Q510.5885,51.05286,509.8189,51.05286Q509.29089999999997,51.05286,508.8768,51.27712Q508.4627,51.5013,508.2265,51.9293Q507.9904,52.3574,507.9893,52.9659ZM518.2219,57.655100000000004Q517.0943,57.655100000000004,516.2795,57.169399999999996Q515.4646,56.6836,515.0255999999999,55.8012Q514.5866,54.9187,514.5866,53.733599999999996Q514.5866,52.5582,515.0261,51.663399999999996Q515.4656,50.76847,516.258,50.26634Q517.0505,49.7642,518.1144,49.7642Q518.7648,49.7642,519.3703,49.97697Q519.9758,50.18974,520.4571,50.64767Q520.9383,51.10552,521.2187,51.8354Q521.4992,52.565200000000004,521.4992,53.6023L521.4992,54.1272L515.4258,54.1272L515.4258,53.0136L520.0395,53.0136Q520.0385,52.431,519.8013,51.9751Q519.5642,51.5192,519.1342,51.25623Q518.7041,50.9932,518.1264,50.9932Q517.499,50.9932,517.0356,51.29794Q516.5723,51.6027,516.3203,52.0939Q516.0682,52.5851,516.0662,53.156800000000004L516.0662,54.0238Q516.0662,54.789500000000004,516.3376,55.3264Q516.6091,55.8633,517.0963,56.144800000000004Q517.5835,56.4261,518.2338,56.4261Q518.6604,56.4261,519.0079000000001,56.3049Q519.3554,56.1835,519.6079,55.9405Q519.8605,55.6973,519.9956999999999,55.3363L521.4037,55.5909Q521.2347,56.2113,520.8001,56.6762Q520.3656,57.141,519.7099000000001,57.3981Q519.0541000000001,57.655100000000004,518.2219,57.655100000000004ZM523.1517,57.5L523.1517,49.863640000000004L524.5915,49.863640000000004L524.5915,51.0767L524.6711,51.0767Q524.8799,50.46225,525.4083,50.1053Q525.9368,49.74828,526.608,49.74828Q526.7472,49.74828,526.9376,49.75776Q527.128,49.767160000000004,527.2404,49.7851L527.2404,51.20799Q527.1519,51.18212,526.9232,51.14934Q526.6945000000001,51.116479999999996,526.4648,51.116479999999996Q525.9388,51.116479999999996,525.5266,51.33771Q525.1145,51.5589,524.8768,51.9482Q524.6392,52.3375,524.6392,52.8387L524.6392,57.5L523.1517,57.5Z" fill="#EFBF04" fill-opacity="1"/></g></g></g><g><g><path d="M24 100C24 97.79086100067683 25.790861000676827 96 28 96L540 96C542.2091389993232 96 544 97.79086100067683 544 100L544 152C544 152 544 152 544 152L24 152C24 152 24 152 24 152Z" fill="#222834" fill-opacity="1"/><g><g><g><g><path d="M48.366479999999996,109.27273L48.366479999999996,118L47.34375,118L42.58807,111.14773L42.50284,111.14773L42.50284,118L41.44602,118L41.44602,109.27273L42.46875,109.27273L47.24148,116.142L47.3267,116.142L47.3267,109.27273L48.366479999999996,109.27273ZM52.2699,118.1534Q51.6477,118.1534,51.1406,117.9169Q50.6335,117.6804,50.3352,117.2308Q50.0369,116.7812,50.0369,116.142Q50.0369,115.5795,50.2585,115.228Q50.4801,114.8764,50.850899999999996,114.6761Q51.2216,114.4759,51.6712,114.3757Q52.1207,114.2756,52.5767,114.2159Q53.1733,114.1392,53.5462,114.0987Q53.919,114.0582,54.0916,113.9602Q54.2642,113.8622,54.2642,113.6193L54.2642,113.5852Q54.2642,112.95455,53.9212,112.60511Q53.5781,112.25568,52.8835,112.25568Q52.163399999999996,112.25568,51.7543,112.57102Q51.3452,112.88636,51.179,113.2443L50.2244,112.90341Q50.4801,112.30682,50.9084,111.9723Q51.336600000000004,111.63777999999999,51.8459,111.50355Q52.3551,111.36932,52.8494,111.36932Q53.1648,111.36932,53.576,111.44389Q53.9872,111.51847000000001,54.3729,111.74858Q54.7585,111.97869,55.0142,112.44318Q55.2699,112.90767,55.2699,113.6875L55.2699,118L54.2642,118L54.2642,117.1136L54.2131,117.1136Q54.1108,117.3267,53.8722,117.5696Q53.6335,117.8125,53.2372,117.983Q52.8409,118.1534,52.2699,118.1534ZM52.4233,117.25Q53.0199,117.25,53.4311,117.0156Q53.8423,116.7812,54.0533,116.4105Q54.2642,116.0398,54.2642,115.6307L54.2642,114.7102Q54.2003,114.7869,53.9851,114.8487Q53.7699,114.9105,53.4908,114.9553Q53.211600000000004,115,52.949600000000004,115.032Q52.6875,115.0639,52.5256,115.0852Q52.1335,115.1364,51.7947,115.2493Q51.456,115.3622,51.2493,115.5859Q51.0426,115.80969999999999,51.0426,116.1932Q51.0426,116.7173,51.4325,116.9837Q51.8224,117.25,52.4233,117.25ZM57.1108,118L57.1108,111.45455L58.0824,111.45455L58.0824,112.47727L58.1676,112.47727Q58.3722,111.95312,58.8281,111.66122Q59.284099999999995,111.36932,59.9233,111.36932Q60.571,111.36932,61.0036,111.66122Q61.436099999999996,111.95312,61.679,112.47727L61.7472,112.47727Q61.998599999999996,111.97017,62.501400000000004,111.66974Q63.0043,111.36932,63.7074,111.36932Q64.5852,111.36932,65.1435,111.9169Q65.7017,112.46449,65.7017,113.6193L65.7017,118L64.696,118L64.696,113.6193Q64.696,112.89489,64.2997,112.58381Q63.903400000000005,112.27273,63.3665,112.27273Q62.676100000000005,112.27273,62.2969,112.68821Q61.9176,113.1037,61.9176,113.7386L61.9176,118L60.8949,118L60.8949,113.517Q60.8949,112.95881,60.5327,112.61577Q60.170500000000004,112.27273,59.5994,112.27273Q59.2074,112.27273,58.8686,112.48152999999999Q58.5298,112.69034,58.3232,113.0589Q58.1165,113.4276,58.1165,113.9091L58.1165,118L57.1108,118ZM70.2869,118.1364Q69.3409,118.1364,68.657,117.7166Q67.973,117.2969,67.6044,116.5405Q67.2358,115.7841,67.2358,114.7784Q67.2358,113.7727,67.6044,113.0036Q67.973,112.23438,68.6357,111.80185Q69.2983,111.36932,70.18469999999999,111.36932Q70.696,111.36932,71.19460000000001,111.53977Q71.6932,111.71023,72.1023,112.09162Q72.51140000000001,112.47301,72.7543,113.0994Q72.99719999999999,113.7259,72.99719999999999,114.642L72.99719999999999,115.0682L67.9517,115.0682L67.9517,114.1989L71.9744,114.1989Q71.9744,113.6449,71.755,113.2102Q71.5355,112.77557,71.1328,112.52415Q70.7301,112.27273,70.18469999999999,112.27273Q69.5838,112.27273,69.14699999999999,112.56889Q68.7102,112.86506,68.4759,113.3381Q68.2415,113.8111,68.2415,114.3523L68.2415,114.9318Q68.2415,115.6733,68.4993,116.1868Q68.75710000000001,116.7003,69.2173,116.9666Q69.6776,117.233,70.2869,117.233Q70.6832,117.233,71.005,117.12Q71.3267,117.0071,71.5611,116.7791Q71.7955,116.5511,71.9233,116.2102L72.8949,116.483Q72.7415,116.9773,72.3793,117.3501Q72.017,117.723,71.4844,117.9297Q70.9517,118.1364,70.2869,118.1364Z" fill="#98A1B3" fill-opacity="1"/></g></g><g><g><path d="M47.95454,131.27273Q47.85227,130.40909,47.125,129.93182Q46.39773,129.45455,45.34091,129.45455Q44.56818,129.45455,43.99148,129.70455Q43.41477,129.95455,43.09375,130.39205Q42.77273,130.82955,42.77273,131.38636Q42.77273,131.85227,42.99716,132.18466Q43.22159,132.51705,43.573859999999996,132.7358Q43.926140000000004,132.95455,44.3125,133.09375Q44.698859999999996,133.23295,45.02273,133.31818L46.20454,133.63636Q46.65909,133.75568,47.21875,133.96591Q47.77841,134.1761,48.292609999999996,134.5369Q48.80682,134.8977,49.14205,135.4602Q49.477270000000004,136.0227,49.477270000000004,136.8409Q49.477270000000004,137.7841,48.9858,138.5455Q48.49432,139.3068,47.55398,139.7557Q46.613640000000004,140.2045,45.27273,140.2045Q44.02273,140.2045,43.11079,139.8011Q42.198859999999996,139.3977,41.67898,138.6761Q41.15909,137.9545,41.09091,137L42.54545,137Q42.60227,137.6591,42.99148,138.0881Q43.38068,138.517,43.980109999999996,138.7244Q44.57954,138.9318,45.27273,138.9318Q46.07954,138.9318,46.72159,138.6676Q47.363640000000004,138.4034,47.738640000000004,137.929Q48.113640000000004,137.4545,48.113640000000004,136.8182Q48.113640000000004,136.2386,47.78977,135.875Q47.46591,135.5114,46.9375,135.2841Q46.40909,135.0568,45.79545,134.8864L44.363640000000004,134.4773Q43,134.0852,42.20454,133.35795Q41.40909,132.63068,41.40909,131.45455Q41.40909,130.47727,41.94034,129.74716Q42.47159,129.01705,43.37216,128.6108Q44.27273,128.20455,45.386359999999996,128.20455Q46.511359999999996,128.20455,47.386359999999996,128.60511Q48.261359999999996,129.00568,48.77557,129.69886Q49.289770000000004,130.39205,49.31818,131.27273L47.95454,131.27273ZM51.6136,140L51.6136,131.27273L52.954499999999996,131.27273L52.954499999999996,140L51.6136,140ZM52.295500000000004,129.81818Q51.9034,129.81818,51.6222,129.55114Q51.3409,129.28409,51.3409,128.90909Q51.3409,128.53409,51.6222,128.26705Q51.9034,128,52.295500000000004,128Q52.6875,128,52.9688,128.26705Q53.25,128.53409,53.25,128.90909Q53.25,129.28409,52.9688,129.55114Q52.6875,129.81818,52.295500000000004,129.81818ZM58.954499999999996,140.1818Q57.7273,140.1818,56.840900000000005,139.6023Q55.954499999999996,139.0227,55.4773,138.0057Q55,136.9886,55,135.6818Q55,134.3523,55.4915,133.33239Q55.983000000000004,132.3125,56.8665,131.7358Q57.75,131.15909,58.931799999999996,131.15909Q59.8523,131.15909,60.590900000000005,131.5Q61.329499999999996,131.84091,61.801100000000005,132.45455Q62.2727,133.06818,62.386399999999995,133.88636L61.045500000000004,133.88636Q60.891999999999996,133.28977,60.3665,132.8267Q59.840900000000005,132.36364,58.954499999999996,132.36364Q58.170500000000004,132.36364,57.5824,132.76989Q56.994299999999996,133.17614,56.6676,133.91193Q56.340900000000005,134.6477,56.340900000000005,135.6364Q56.340900000000005,136.6477,56.6619,137.3977Q56.983000000000004,138.1477,57.571,138.5625Q58.159099999999995,138.9773,58.954499999999996,138.9773Q59.4773,138.9773,59.903400000000005,138.7955Q60.329499999999996,138.6136,60.625,138.2727Q60.920500000000004,137.9318,61.045500000000004,137.4545L62.386399999999995,137.4545Q62.2727,138.2273,61.8267,138.8438Q61.380700000000004,139.4602,60.6506,139.821Q59.920500000000004,140.1818,58.954499999999996,140.1818ZM65.5909,136.8182L65.5682,135.1591L65.8409,135.1591L69.6591,131.27273L71.3182,131.27273L67.25,135.3864L67.1364,135.3864L65.5909,136.8182ZM64.3409,140L64.3409,128.36364L65.6818,128.36364L65.6818,140L64.3409,140ZM69.8864,140L66.4773,135.6818L67.4318,134.75L71.5909,140L69.8864,140Z" fill="#F4F7FF" fill-opacity="1"/></g></g></g></g></g><g><line x1="24" y1="151.5" x2="544" y2="151.5" fill-opacity="0" stroke-opacity="1" stroke="#98A1B3" fill="none" stroke-width="1"/></g></g><g><g><g><rect x="24.5" y="176.5" width="145" height="47" rx="23.5" fill-opacity="0" stroke-opacity="1" stroke="#868686" fill="none" stroke-width="1"/><g><path d="M77.25568,205.5L73.48748,205.5L73.48748,193.86364L77.37384,193.86364Q79.08753,193.86364,80.31303,194.55966Q81.53862,195.25568,82.1949,196.55513Q82.8511,197.85458,82.8511,199.6636Q82.8511,201.4818,82.1909,202.7904Q81.53071,204.09890000000001,80.27956,204.7994Q79.02841,205.5,77.25568,205.5ZM75.24662000000001,203.96359999999999L77.16024,203.96359999999999Q78.48748,203.96359999999999,79.36869,203.4625Q80.25,202.9614,80.68688,202.0023Q81.12384,201.0431,81.12384,199.6636Q81.12384,198.29315,80.69034,197.34091Q80.25683000000001,196.38867,79.39941,195.89435Q78.54208,195.40003,77.26935,195.40003L75.24662000000001,195.40003L75.24662000000001,203.96359999999999ZM88.6602,205.6773Q87.3716,205.6773,86.44030000000001,205.1222Q85.5091,204.567,85.0074,203.5585Q84.5057,202.55,84.5057,201.1955Q84.5057,199.8523,85.0079,198.82955Q85.5102,197.80682,86.4158,197.23295Q87.3216,196.65909,88.5375,196.65909Q89.2807,196.65909,89.9727,196.90226Q90.6648,197.14542,91.2148,197.66877Q91.7647,198.19203,92.0852,199.02618999999999Q92.4057,199.8603,92.4057,201.0455L92.4057,201.6454L85.4648,201.6454L85.4648,200.3727L90.7375,200.3727Q90.7363,199.7069,90.4653,199.18581Q90.1943,198.66477,89.7029,198.36426Q89.2114,198.06365,88.5511,198.06365Q87.8341,198.06365,87.3045,198.41193Q86.775,198.76021,86.4869,199.32164Q86.1989,199.883,86.1966,200.53640000000001L86.1966,201.5273Q86.1966,202.4023,86.5067,203.0159Q86.81700000000001,203.6295,87.3738,203.9512Q87.9307,204.2727,88.6738,204.2727Q89.1614,204.2727,89.5585,204.1341Q89.95570000000001,203.9955,90.2443,203.7177Q90.5329,203.4398,90.6875,203.0273L92.2966,203.3182Q92.1034,204.0273,91.60679999999999,204.5585Q91.1103,205.0898,90.3608,205.3835Q89.6113,205.6773,88.6602,205.6773ZM95.9943,193.86364L95.9943,205.5L94.29429999999999,205.5L94.29429999999999,193.86364L95.9943,193.86364ZM102.0409,205.6773Q100.7523,205.6773,99.821,205.1222Q98.8897,204.567,98.388,203.5585Q97.8864,202.55,97.8864,201.1955Q97.8864,199.8523,98.3886,198.82955Q98.8909,197.80682,99.79650000000001,197.23295Q100.7022,196.65909,101.9181,196.65909Q102.6614,196.65909,103.3534,196.90226Q104.0455,197.14542,104.5954,197.66877Q105.1454,198.19203,105.4659,199.02618999999999Q105.7864,199.8603,105.7864,201.0455L105.7864,201.6454L98.8454,201.6454L98.8454,200.3727L104.1182,200.3727Q104.11699999999999,199.7069,103.846,199.18581Q103.575,198.66477,103.0835,198.36426Q102.5921,198.06365,101.9318,198.06365Q101.2148,198.06365,100.6852,198.41193Q100.1557,198.76021,99.8676,199.32164Q99.5795,199.883,99.5772,200.53640000000001L99.5772,201.5273Q99.5772,202.4023,99.8874,203.0159Q100.1977,203.6295,100.75450000000001,203.9512Q101.3113,204.2727,102.0545,204.2727Q102.5421,204.2727,102.9392,204.1341Q103.3364,203.9955,103.625,203.7177Q103.9136,203.4398,104.06819999999999,203.0273L105.6773,203.3182Q105.4841,204.0273,104.9875,204.5585Q104.49090000000001,205.0898,103.7415,205.3835Q102.992,205.6773,102.0409,205.6773ZM111.75229999999999,196.77273L111.75229999999999,198.13636L106.9841,198.13636L106.9841,196.77273L111.75229999999999,196.77273ZM108.26140000000001,194.68182L109.9614,194.68182L109.9614,202.9387Q109.9614,203.4295,110.108,203.679Q110.25450000000001,203.9284,110.49199999999999,204.0154Q110.7296,204.1023,111.0068,204.1023Q111.2125,204.1023,111.3642,204.075Q111.5159,204.0478,111.6023,204.0296L111.9114,205.4341Q111.7602,205.4875,111.48689999999999,205.5488Q111.2136,205.6103,110.80680000000001,205.6159Q110.13640000000001,205.6273,109.5557,205.3756Q108.975,205.1238,108.61699999999999,204.6023Q108.25909999999999,204.0807,108.26140000000001,203.2886L108.26140000000001,194.68182ZM117.2966,205.6773Q116.00800000000001,205.6773,115.0767,205.1222Q114.1454,204.567,113.6437,203.5585Q113.142,202.55,113.142,201.1955Q113.142,199.8523,113.6443,198.82955Q114.1466,197.80682,115.0522,197.23295Q115.9579,196.65909,117.1738,196.65909Q117.9171,196.65909,118.6091,196.90226Q119.30109999999999,197.14542,119.8511,197.66877Q120.4011,198.19203,120.7216,199.02618999999999Q121.0421,199.8603,121.0421,201.0455L121.0421,201.6454L114.1011,201.6454L114.1011,200.3727L119.3738,200.3727Q119.37270000000001,199.7069,119.1017,199.18581Q118.83070000000001,198.66477,118.3392,198.36426Q117.8477,198.06365,117.1875,198.06365Q116.4704,198.06365,115.9409,198.41193Q115.4114,198.76021,115.1233,199.32164Q114.8352,199.883,114.8329,200.53640000000001L114.8329,201.5273Q114.8329,202.4023,115.1431,203.0159Q115.4534,203.6295,116.0102,203.9512Q116.56700000000001,204.2727,117.31020000000001,204.2727Q117.7978,204.2727,118.19489999999999,204.1341Q118.5921,203.9955,118.88069999999999,203.7177Q119.16929999999999,203.4398,119.32390000000001,203.0273L120.93299999999999,203.3182Q120.7398,204.0273,120.2432,204.5585Q119.7466,205.0898,118.99719999999999,205.3835Q118.24770000000001,205.6773,117.2966,205.6773Z" fill="#868686" fill-opacity="1"/></g></g></g></g></g><g><g><g><path d="M24,277L24,275.992L24.456,275.992Q24.936,275.992,25.224,275.848Q25.512,275.704,25.752,275.296Q25.992,274.888,26.28,274.12L31.608,259.864L33.480000000000004,259.864L38.903999999999996,274.72Q39.096000000000004,275.224,39.312,275.5Q39.528,275.776,39.84,275.884Q40.152,275.992,40.608000000000004,275.992L40.92,275.992L40.92,277L34.32,277L34.32,275.992L34.872,275.992Q35.592,275.992,35.952,275.716Q36.312,275.44,36.312,274.84Q36.312,274.696,36.288,274.564Q36.263999999999996,274.432,36.228,274.276Q36.192,274.12,36.12,273.952L35.16,271.264L28.848,271.264L27.936,273.784Q27.864,273.976,27.816,274.168Q27.768,274.36,27.744,274.516Q27.72,274.672,27.72,274.816Q27.72,275.416,28.116,275.704Q28.512,275.992,29.304000000000002,275.992L29.856,275.992L29.856,277L24,277ZM29.304000000000002,270.064L34.728,270.064L33.24,265.864Q33,265.144,32.772,264.496Q32.544,263.848,32.364000000000004,263.248Q32.184,262.648,32.04,262.072Q31.92,262.648,31.764,263.188Q31.608,263.728,31.416,264.316Q31.224,264.904,30.936,265.648L29.304000000000002,270.064ZM46.656,277.24Q45.072,277.24,43.980000000000004,276.544Q42.888000000000005,275.848,42.324,274.372Q41.760000000000005,272.896,41.760000000000005,270.592Q41.760000000000005,268.264,42.324,266.788Q42.888000000000005,265.312,43.980000000000004,264.604Q45.072,263.896,46.656,263.896Q48.048,263.896,48.924,264.484Q49.8,265.072,50.328,266.008L50.472,266.008Q50.4,265.408,50.364000000000004,264.676Q50.328,263.944,50.328,263.368L50.328,261.4Q50.328,260.68,50.052,260.332Q49.775999999999996,259.984,49.332,259.876Q48.888000000000005,259.76800000000003,48.36,259.76800000000003L48.168,259.76800000000003L48.168,258.76L52.584,258.76L52.584,274.36Q52.584,275.056,52.86,275.416Q53.135999999999996,275.776,53.58,275.884Q54.024,275.992,54.552,275.992L54.744,275.992L54.744,277L50.688,277L50.424,274.84L50.328,274.84Q49.8,275.944,48.936,276.592Q48.072,277.24,46.656,277.24ZM47.064,275.704Q48.936,275.704,49.632000000000005,274.444Q50.328,273.184,50.328,270.592Q50.328,268.096,49.632000000000005,266.764Q48.936,265.432,47.04,265.432Q45.984,265.432,45.336,266.032Q44.688,266.632,44.388000000000005,267.784Q44.088,268.936,44.088,270.616Q44.088,273.16,44.772,274.432Q45.456,275.704,47.064,275.704ZM61.392,277.24Q59.808,277.24,58.716,276.544Q57.624,275.848,57.06,274.372Q56.496,272.896,56.496,270.592Q56.496,268.264,57.06,266.788Q57.624,265.312,58.716,264.604Q59.808,263.896,61.392,263.896Q62.784,263.896,63.66,264.484Q64.536,265.072,65.064,266.008L65.208,266.008Q65.136,265.408,65.1,264.676Q65.064,263.944,65.064,263.368L65.064,261.4Q65.064,260.68,64.788,260.332Q64.512,259.984,64.068,259.876Q63.624,259.76800000000003,63.096,259.76800000000003L62.904,259.76800000000003L62.904,258.76L67.32,258.76L67.32,274.36Q67.32,275.056,67.596,275.416Q67.872,275.776,68.316,275.884Q68.75999999999999,275.992,69.288,275.992L69.47999999999999,275.992L69.47999999999999,277L65.424,277L65.16,274.84L65.064,274.84Q64.536,275.944,63.672,276.592Q62.808,277.24,61.392,277.24ZM61.8,275.704Q63.672,275.704,64.368,274.444Q65.064,273.184,65.064,270.592Q65.064,268.096,64.368,266.764Q63.672,265.432,61.776,265.432Q60.72,265.432,60.072,266.032Q59.424,266.632,59.124,267.784Q58.824,268.936,58.824,270.616Q58.824,273.16,59.508,274.432Q60.192,275.704,61.8,275.704ZM81.072,277.24Q80.01599999999999,277.24,79.164,276.82Q78.312,276.4,77.832,275.548Q77.352,274.696,77.352,273.4Q77.352,271.48,78.708,270.568Q80.064,269.656,82.824,269.56L84.816,269.488L84.816,268.048Q84.816,267.184,84.672,266.524Q84.52799999999999,265.864,84.048,265.48Q83.568,265.096,82.584,265.096Q81.672,265.096,81.19200000000001,265.432Q80.712,265.76800000000003,80.556,266.356Q80.4,266.944,80.4,267.712Q79.392,267.712,78.876,267.364Q78.36,267.016,78.36,266.2Q78.36,265.36,78.94800000000001,264.856Q79.536,264.352,80.52000000000001,264.124Q81.50399999999999,263.896,82.68,263.896Q84.888,263.896,85.97999999999999,264.832Q87.072,265.76800000000003,87.072,268.048L87.072,274.264Q87.072,274.936,87.21600000000001,275.308Q87.36,275.68,87.696,275.836Q88.032,275.992,88.56,275.992L88.632,275.992L88.632,277L85.392,277L85.00800000000001,274.936L84.816,274.936Q84.312,275.608,83.832,276.124Q83.352,276.64,82.71600000000001,276.94Q82.08,277.24,81.072,277.24ZM81.624,275.752Q82.608,275.752,83.316,275.344Q84.024,274.936,84.42,274.18Q84.816,273.424,84.816,272.416L84.816,270.472L83.28,270.544Q81.912,270.592,81.132,270.952Q80.352,271.312,80.01599999999999,271.948Q79.68,272.584,79.68,273.52Q79.68,274.264,79.896,274.756Q80.112,275.248,80.544,275.5Q80.976,275.752,81.624,275.752ZM90.336,277L90.336,275.992L90.528,275.992Q91.08,275.992,91.524,275.872Q91.968,275.752,92.232,275.38Q92.496,275.008,92.496,274.264L92.496,266.776Q92.496,266.056,92.232,265.708Q91.968,265.36,91.536,265.252Q91.104,265.144,90.576,265.144L90.456,265.144L90.456,264.136L94.344,264.136L94.656,266.08L94.776,266.08Q95.28,265.168,95.844,264.7Q96.408,264.23199999999997,97.08,264.064Q97.752,263.896,98.52,263.896Q100.416,263.896,101.484,265.012Q102.552,266.128,102.552,268.6L102.552,274.264Q102.552,275.008,102.78,275.38Q103.008,275.752,103.416,275.872Q103.824,275.992,104.352,275.992L104.472,275.992L104.472,277L100.296,277L100.296,268.72Q100.296,267.16,99.708,266.296Q99.12,265.432,97.656,265.432Q96.576,265.432,95.94,265.972Q95.304,266.512,95.028,267.4Q94.752,268.288,94.752,269.32L94.752,274.384Q94.752,275.08,95.016,275.428Q95.28,275.776,95.712,275.884Q96.144,275.992,96.672,275.992L96.792,275.992L96.792,277L90.336,277ZM112.032,277.24Q109.44,277.24,107.952,275.584Q106.464,273.928,106.464,270.544Q106.464,267.184,107.892,265.54Q109.32,263.896,112.104,263.896Q114.696,263.896,116.184,265.54Q117.672,267.184,117.672,270.544Q117.672,273.928,116.244,275.584Q114.816,277.24,112.032,277.24ZM112.08,275.992Q113.28,275.992,114,275.38Q114.72,274.76800000000003,115.032,273.544Q115.344,272.32,115.344,270.544Q115.344,267.856,114.6,266.512Q113.856,265.168,112.056,265.168Q110.256,265.168,109.524,266.512Q108.792,267.856,108.792,270.544Q108.792,273.23199999999997,109.536,274.612Q110.28,275.992,112.08,275.992ZM124.752,277.24Q122.928,277.24,122.1,276.412Q121.272,275.584,121.272,273.52L121.272,265.504L119.448,265.504L119.448,264.544Q119.88,264.544,120.408,264.364Q120.936,264.184,121.32,263.776Q121.728,263.344,121.992,262.72Q122.256,262.096,122.424,261.184L123.528,261.184L123.528,264.136L126.672,264.136L126.672,265.504L123.528,265.504L123.528,273.592Q123.528,274.816,124.032,275.392Q124.536,275.968,125.352,275.968Q125.784,275.968,126.144,275.92Q126.504,275.872,126.888,275.8L126.888,276.856Q126.576,277,125.952,277.12Q125.328,277.24,124.752,277.24ZM127.872,277L127.872,275.992L128.064,275.992Q128.61599999999999,275.992,129.06,275.872Q129.50400000000002,275.752,129.768,275.38Q130.03199999999998,275.008,130.03199999999998,274.264L130.03199999999998,261.4Q130.03199999999998,260.68,129.756,260.332Q129.48000000000002,259.984,129.036,259.876Q128.59199999999998,259.76800000000003,128.064,259.76800000000003L127.872,259.76800000000003L127.872,258.76L132.288,258.76L132.288,264.04Q132.288,264.472,132.264,264.94Q132.24,265.408,132.216,265.744Q132.192,266.08,132.192,266.08L132.312,266.08Q132.672,265.36,133.188,264.868Q133.704,264.376,134.364,264.136Q135.024,263.896,135.84,263.896Q137.904,263.896,138.99599999999998,265.012Q140.088,266.128,140.088,268.6L140.088,274.264Q140.088,275.008,140.328,275.38Q140.56799999999998,275.752,140.988,275.872Q141.40800000000002,275.992,141.936,275.992L142.00799999999998,275.992L142.00799999999998,277L137.832,277L137.832,268.72Q137.832,267.16,137.244,266.296Q136.656,265.432,135.192,265.432Q134.208,265.432,133.56,265.912Q132.912,266.392,132.6,267.26800000000003Q132.288,268.144,132.288,269.32L132.288,274.384Q132.288,275.08,132.564,275.428Q132.84,275.776,133.284,275.884Q133.728,275.992,134.256,275.992L134.328,275.992L134.328,277L127.872,277ZM149.56799999999998,277.24Q146.952,277.24,145.476,275.512Q144,273.784,144,270.664Q144,267.304,145.392,265.6Q146.784,263.896,149.328,263.896Q151.656,263.896,152.988,265.336Q154.32,266.776,154.32,269.632L154.32,270.736L146.328,270.736Q146.376,273.352,147.276,274.54Q148.176,275.728,149.904,275.728Q151.152,275.728,152.028,275.212Q152.904,274.696,153.336,274.048Q153.504,274.12,153.648,274.336Q153.792,274.552,153.792,274.864Q153.792,275.344,153.336,275.896Q152.88,276.448,151.94400000000002,276.844Q151.00799999999998,277.24,149.56799999999998,277.24ZM151.89600000000002,269.44Q151.89600000000002,267.52,151.308,266.356Q150.72,265.192,149.28,265.192Q147.95999999999998,265.192,147.228,266.284Q146.49599999999998,267.376,146.376,269.44L151.89600000000002,269.44ZM156.312,277L156.312,275.992L156.384,275.992Q156.936,275.992,157.38,275.872Q157.824,275.752,158.088,275.38Q158.352,275.008,158.352,274.264L158.352,266.776Q158.352,266.056,158.076,265.708Q157.8,265.36,157.356,265.252Q156.912,265.144,156.384,265.144L156.312,265.144L156.312,264.136L160.008,264.136L160.464,266.512L160.584,266.512Q160.896,265.792,161.256,265.192Q161.616,264.592,162.216,264.244Q162.816,263.896,163.872,263.896Q165.192,263.896,165.828,264.352Q166.464,264.808,166.464,265.648Q166.464,266.392,165.948,266.872Q165.432,267.352,164.232,267.352Q164.232,266.68,164.112,266.272Q163.992,265.864,163.716,265.672Q163.44,265.48,162.96,265.48Q162.288,265.48,161.832,266.008Q161.376,266.536,161.112,267.352Q160.848,268.168,160.728,269.044Q160.608,269.92,160.608,270.616L160.608,274.384Q160.608,275.08,160.884,275.428Q161.16,275.776,161.604,275.884Q162.048,275.992,162.576,275.992L163.248,275.992L163.248,277L156.312,277Z" fill="#FFFFFF" fill-opacity="1"/></g><g><g><path d="M24 314C24 311.79086100067684 25.790861000676827 310 28 310L540 310C542.2091389993232 310 544 311.79086100067684 544 314L544 366C544 366 544 366 544 366L24 366C24 366 24 366 24 366Z" fill="#222834" fill-opacity="1"/><g><g><g><g><path d="M48.366479999999996,323.27273L48.366479999999996,332L47.34375,332L42.58807,325.14773L42.50284,325.14773L42.50284,332L41.44602,332L41.44602,323.27273L42.46875,323.27273L47.24148,330.142L47.3267,330.142L47.3267,323.27273L48.366479999999996,323.27273ZM52.2699,332.1534Q51.6477,332.1534,51.1406,331.9169Q50.6335,331.6804,50.3352,331.2308Q50.0369,330.7812,50.0369,330.142Q50.0369,329.5795,50.2585,329.228Q50.4801,328.8764,50.850899999999996,328.6761Q51.2216,328.4759,51.6712,328.3757Q52.1207,328.2756,52.5767,328.2159Q53.1733,328.1392,53.5462,328.0987Q53.919,328.0582,54.0916,327.9602Q54.2642,327.8622,54.2642,327.6193L54.2642,327.5852Q54.2642,326.95455,53.9212,326.60511Q53.5781,326.25568,52.8835,326.25568Q52.163399999999996,326.25568,51.7543,326.57102Q51.3452,326.88636,51.179,327.2443L50.2244,326.90341Q50.4801,326.30682,50.9084,325.9723Q51.336600000000004,325.63778,51.8459,325.50355Q52.3551,325.36932,52.8494,325.36932Q53.1648,325.36932,53.576,325.44389Q53.9872,325.51847,54.3729,325.74858Q54.7585,325.97869000000003,55.0142,326.44318Q55.2699,326.90767,55.2699,327.6875L55.2699,332L54.2642,332L54.2642,331.1136L54.2131,331.1136Q54.1108,331.3267,53.8722,331.5696Q53.6335,331.8125,53.2372,331.983Q52.8409,332.1534,52.2699,332.1534ZM52.4233,331.25Q53.0199,331.25,53.4311,331.0156Q53.8423,330.7812,54.0533,330.4105Q54.2642,330.0398,54.2642,329.6307L54.2642,328.7102Q54.2003,328.7869,53.9851,328.8487Q53.7699,328.9105,53.4908,328.9553Q53.211600000000004,329,52.949600000000004,329.032Q52.6875,329.0639,52.5256,329.0852Q52.1335,329.1364,51.7947,329.2493Q51.456,329.3622,51.2493,329.5859Q51.0426,329.8097,51.0426,330.1932Q51.0426,330.7173,51.4325,330.9837Q51.8224,331.25,52.4233,331.25ZM57.1108,332L57.1108,325.45455L58.0824,325.45455L58.0824,326.47727L58.1676,326.47727Q58.3722,325.95312,58.8281,325.66122Q59.284099999999995,325.36932,59.9233,325.36932Q60.571,325.36932,61.0036,325.66122Q61.436099999999996,325.95312,61.679,326.47727L61.7472,326.47727Q61.998599999999996,325.97017,62.501400000000004,325.66974Q63.0043,325.36932,63.7074,325.36932Q64.5852,325.36932,65.1435,325.9169Q65.7017,326.46449,65.7017,327.6193L65.7017,332L64.696,332L64.696,327.6193Q64.696,326.89489,64.2997,326.58380999999997Q63.903400000000005,326.27273,63.3665,326.27273Q62.676100000000005,326.27273,62.2969,326.68821Q61.9176,327.1037,61.9176,327.7386L61.9176,332L60.8949,332L60.8949,327.517Q60.8949,326.95880999999997,60.5327,326.61577Q60.170500000000004,326.27273,59.5994,326.27273Q59.2074,326.27273,58.8686,326.48153Q58.5298,326.69034,58.3232,327.0589Q58.1165,327.4276,58.1165,327.9091L58.1165,332L57.1108,332ZM70.2869,332.1364Q69.3409,332.1364,68.657,331.71659999999997Q67.973,331.2969,67.6044,330.5405Q67.2358,329.7841,67.2358,328.7784Q67.2358,327.7727,67.6044,327.0036Q67.973,326.23438,68.6357,325.80185Q69.2983,325.36932,70.18469999999999,325.36932Q70.696,325.36932,71.19460000000001,325.53977Q71.6932,325.71023,72.1023,326.09162Q72.51140000000001,326.47301,72.7543,327.0994Q72.99719999999999,327.7259,72.99719999999999,328.642L72.99719999999999,329.0682L67.9517,329.0682L67.9517,328.1989L71.9744,328.1989Q71.9744,327.6449,71.755,327.2102Q71.5355,326.77557,71.1328,326.52415Q70.7301,326.27273,70.18469999999999,326.27273Q69.5838,326.27273,69.14699999999999,326.56889Q68.7102,326.86505999999997,68.4759,327.3381Q68.2415,327.8111,68.2415,328.3523L68.2415,328.9318Q68.2415,329.6733,68.4993,330.1868Q68.75710000000001,330.7003,69.2173,330.96659999999997Q69.6776,331.233,70.2869,331.233Q70.6832,331.233,71.005,331.12Q71.3267,331.0071,71.5611,330.77909999999997Q71.7955,330.5511,71.9233,330.2102L72.8949,330.483Q72.7415,330.9773,72.3793,331.3501Q72.017,331.723,71.4844,331.9297Q70.9517,332.1364,70.2869,332.1364Z" fill="#98A1B3" fill-opacity="1"/></g></g><g><g><path d="M41.44318,354L41.44318,342.36364L42.85227,342.36364L42.85227,347.54545L49.05682,347.54545L49.05682,342.36364L50.4659,342.36364L50.4659,354L49.05682,354L49.05682,348.7955L42.85227,348.7955L42.85227,354L41.44318,354ZM56.6477,354.1818Q55.4659,354.1818,54.5767,353.6193Q53.6875,353.0568,53.1903,352.0455Q52.6932,351.0341,52.6932,349.6818Q52.6932,348.3182,53.1903,347.30114Q53.6875,346.28409,54.5767,345.72159Q55.4659,345.15909,56.6477,345.15909Q57.829499999999996,345.15909,58.7187,345.72159Q59.608000000000004,346.28409,60.1051,347.30114Q60.6023,348.3182,60.6023,349.6818Q60.6023,351.0341,60.1051,352.0455Q59.608000000000004,353.0568,58.7187,353.6193Q57.829499999999996,354.1818,56.6477,354.1818ZM56.6477,352.9773Q57.545500000000004,352.9773,58.125,352.517Q58.704499999999996,352.0568,58.983000000000004,351.3068Q59.261399999999995,350.5568,59.261399999999995,349.6818Q59.261399999999995,348.8068,58.983000000000004,348.0511Q58.704499999999996,347.29545,58.125,346.82955Q57.545500000000004,346.36364,56.6477,346.36364Q55.75,346.36364,55.170500000000004,346.82955Q54.5909,347.29545,54.3125,348.0511Q54.0341,348.8068,54.0341,349.6818Q54.0341,350.5568,54.3125,351.3068Q54.5909,352.0568,55.170500000000004,352.517Q55.75,352.9773,56.6477,352.9773ZM68.8295,347.22727L67.625,347.56818Q67.5114,347.26705,67.2926,346.98011Q67.0739,346.69318,66.6989,346.50568Q66.3239,346.31818,65.7386,346.31818Q64.9375,346.31818,64.4062,346.68466Q63.875,347.05114,63.875,347.61364Q63.875,348.1136,64.2386,348.4034Q64.6023,348.6932,65.375,348.8864L66.6705,349.2045Q67.8409,349.4886,68.4148,350.071Q68.9886,350.6534,68.9886,351.5682Q68.9886,352.3182,68.55969999999999,352.9091Q68.1307,353.5,67.3636,353.8409Q66.5966,354.1818,65.5795,354.1818Q64.2443,354.1818,63.369299999999996,353.6023Q62.494299999999996,353.0227,62.261399999999995,351.9091L63.534099999999995,351.5909Q63.715900000000005,352.2955,64.2244,352.6477Q64.733,353,65.5568,353Q66.4943,353,67.0483,352.5994Q67.6023,352.1989,67.6023,351.6364Q67.6023,351.1818,67.2841,350.8722Q66.9659,350.5625,66.3068,350.4091L64.8523,350.0682Q63.653400000000005,349.7841,63.0937,349.1847Q62.534099999999995,348.5852,62.534099999999995,347.68182Q62.534099999999995,346.94318,62.9517,346.375Q63.369299999999996,345.80682,64.0937,345.48295Q64.8182,345.15909,65.7386,345.15909Q67.0341,345.15909,67.7756,345.72727Q68.517,346.29545,68.8295,347.22727ZM71.0114,357.2727L71.0114,345.27273L72.30680000000001,345.27273L72.30680000000001,346.65909L72.4659,346.65909Q72.61359999999999,346.43182,72.87780000000001,346.0767Q73.142,345.72159,73.6392,345.44034Q74.13640000000001,345.15909,74.98859999999999,345.15909Q76.0909,345.15909,76.93180000000001,345.71023Q77.7727,346.26136,78.24430000000001,347.27273Q78.7159,348.2841,78.7159,349.6591Q78.7159,351.0455,78.24430000000001,352.0597Q77.7727,353.0739,76.9375,353.6278Q76.1023,354.1818,75.01140000000001,354.1818Q74.1705,354.1818,73.6648,353.9006Q73.1591,353.6193,72.88640000000001,353.2585Q72.61359999999999,352.8977,72.4659,352.6591L72.3523,352.6591L72.3523,357.2727L71.0114,357.2727ZM72.3295,349.6364Q72.3295,350.625,72.61930000000001,351.3778Q72.9091,352.1307,73.4659,352.554Q74.0227,352.9773,74.8295,352.9773Q75.6705,352.9773,76.2358,352.5312Q76.80109999999999,352.0852,77.0881,351.3267Q77.375,350.5682,77.375,349.6364Q77.375,348.7159,77.0937,347.97443Q76.8125,347.23295,76.24719999999999,346.7983Q75.68180000000001,346.36364,74.8295,346.36364Q74.01140000000001,346.36364,73.4545,346.77557Q72.8977,347.1875,72.61359999999999,347.9233Q72.3295,348.6591,72.3295,349.6364ZM80.76140000000001,354L80.76140000000001,345.27273L82.1023,345.27273L82.1023,354L80.76140000000001,354ZM81.44319999999999,343.81818Q81.05109999999999,343.81818,80.7699,343.55114Q80.48859999999999,343.28409,80.48859999999999,342.90909Q80.48859999999999,342.53409,80.7699,342.26705Q81.05109999999999,342,81.44319999999999,342Q81.8352,342,82.1165,342.26705Q82.3977,342.53409,82.3977,342.90909Q82.3977,343.28409,82.1165,343.55114Q81.8352,343.81818,81.44319999999999,343.81818ZM88.3523,345.27273L88.3523,346.40909L83.8295,346.40909L83.8295,345.27273L88.3523,345.27273ZM85.1477,343.18182L86.48859999999999,343.18182L86.48859999999999,351.5Q86.48859999999999,352.0682,86.6562,352.3494Q86.82390000000001,352.6307,87.0881,352.7244Q87.3523,352.8182,87.6477,352.8182Q87.86930000000001,352.8182,88.01140000000001,352.7926Q88.1534,352.767,88.23859999999999,352.75L88.51140000000001,353.9545Q88.375,354.0057,88.13069999999999,354.0597Q87.88640000000001,354.1136,87.51140000000001,354.1136Q86.94319999999999,354.1136,86.4006,353.8693Q85.858,353.625,85.50280000000001,353.125Q85.1477,352.625,85.1477,351.8636L85.1477,343.18182ZM92.94319999999999,354.2045Q92.11359999999999,354.2045,91.4375,353.8892Q90.76140000000001,353.5739,90.36359999999999,352.9744Q89.9659,352.375,89.9659,351.5227Q89.9659,350.7727,90.26140000000001,350.304Q90.55680000000001,349.8352,91.05109999999999,349.5682Q91.5455,349.3011,92.1449,349.1676Q92.74430000000001,349.0341,93.3523,348.9545Q94.1477,348.8523,94.6449,348.7983Q95.142,348.7443,95.37219999999999,348.6136Q95.6023,348.483,95.6023,348.1591L95.6023,348.1136Q95.6023,347.27273,95.1449,346.80682Q94.6875,346.34091,93.76140000000001,346.34091Q92.80109999999999,346.34091,92.25569999999999,346.76136Q91.7102,347.18182,91.48859999999999,347.65909L90.2159,347.20455Q90.55680000000001,346.40909,91.12780000000001,345.96307Q91.69890000000001,345.51705,92.37780000000001,345.33807Q93.05680000000001,345.15909,93.7159,345.15909Q94.13640000000001,345.15909,94.68469999999999,345.25852Q95.233,345.35795,95.74719999999999,345.66477Q96.26140000000001,345.97159,96.6023,346.59091Q96.94319999999999,347.21023,96.94319999999999,348.25L96.94319999999999,354L95.6023,354L95.6023,352.8182L95.5341,352.8182Q95.3977,353.1023,95.0795,353.4261Q94.76140000000001,353.75,94.233,353.9773Q93.7045,354.2045,92.94319999999999,354.2045ZM93.1477,353Q93.94319999999999,353,94.4915,352.6875Q95.0398,352.375,95.321,351.8807Q95.6023,351.3864,95.6023,350.8409L95.6023,349.6136Q95.517,349.7159,95.2301,349.7983Q94.94319999999999,349.8807,94.571,349.9403Q94.19890000000001,350,93.8494,350.0426Q93.5,350.0852,93.2841,350.1136Q92.76140000000001,350.1818,92.30969999999999,350.3324Q91.858,350.483,91.5824,350.7812Q91.30680000000001,351.0795,91.30680000000001,351.5909Q91.30680000000001,352.2898,91.8267,352.6449Q92.3466,353,93.1477,353ZM100.73859999999999,342.36364L100.73859999999999,354L99.3977,354L99.3977,342.36364L100.73859999999999,342.36364Z" fill="#F4F7FF" fill-opacity="1"/></g></g></g></g></g><g><line x1="24" y1="365.5" x2="544" y2="365.5" fill-opacity="0" stroke-opacity="1" stroke="#98A1B3" fill="none" stroke-width="1"/></g></g><g><g><g><rect x="24" y="422" width="134" height="48" rx="24" fill="#EFBF04" fill-opacity="1"/><g><path d="M80.00337,442.91815Q79.91246,442.11364,79.25506,441.66823Q78.59774,441.22274,77.5989,441.22274Q76.88299,441.22274,76.35964,441.44602Q75.83638,441.6693,75.54998,442.05913Q75.26367,442.44886,75.26252,442.94549Q75.26021,443.36026,75.45738,443.65971Q75.65456,443.95907,75.97496,444.16078Q76.29545,444.36248,76.66477,444.49547Q77.03409,444.62837,77.37615,444.7136L78.51252,445.00906Q79.06933,445.14542,79.65456,445.38068Q80.23979,445.6159,80.73864,445.9949Q81.23748,446.3738,81.54714,446.9363Q81.85679999999999,447.4988,81.85795,448.2864Q81.85679999999999,449.2704,81.34996,450.0386Q80.84322,450.8068,79.88015,451.2488Q78.91708,451.6909,77.54883,451.6909Q76.24547,451.6909,75.2903,451.2784Q74.33523,450.8659,73.79483,450.1017Q73.25453,449.3375,73.19886,448.2818L74.96253,448.2818Q75.01367,448.9159,75.37269,449.3319Q75.73179999999999,449.7477,76.29829,449.9512Q76.86479,450.1546,77.53977,450.1546Q78.2864,450.1546,78.86816,449.9182Q79.45002,449.6818,79.78524,449.258Q80.12047,448.8341,80.12162000000001,448.2682Q80.12047,447.7512,79.82786,447.4199Q79.53524,447.0886,79.03631,446.8745Q78.53746,446.6602,77.91708,446.4955L76.53977,446.1182Q75.13974,445.7375,74.32554999999999,444.99831Q73.51136,444.25906,73.51252,443.04545Q73.51136,442.04208,74.0562,441.29155Q74.60112,440.54093,75.53462,440.12278Q76.46822,439.70455,77.63521,439.70455Q78.81703,439.70455,79.72265,440.11932Q80.62837,440.53409,81.15163,441.25968Q81.67498,441.98526,81.69886,442.91815L80.00337,442.91815ZM86.358,451.6909Q85.5273,451.6909,84.85849999999999,451.3835Q84.1898,451.0762,83.7988,450.4841Q83.4079,449.892,83.4079,449.0364Q83.4079,448.2931,83.6932,447.8165Q83.9784,447.3398,84.4614,447.0613Q84.9443,446.7829,85.5403,446.642Q86.1364,446.5012,86.758,446.4273Q87.5409,446.3341,88.0278,446.2744Q88.5147,446.2148,88.7386,446.0802Q88.9625,445.9455,88.9625,445.6364L88.9625,445.5954Q88.9625,444.85458,88.54429999999999,444.44549Q88.1262,444.0364,87.3034,444.0364Q86.4455,444.0364,85.9529,444.41193Q85.4602,444.78746,85.2716,445.25L83.6761,444.88636Q83.9602,444.09091,84.5074,443.59943Q85.0545,443.10795,85.7716,442.88352Q86.4886,442.65909,87.2761,442.65909Q87.8,442.65909,88.3874,442.7824Q88.975,442.90572,89.4909,443.22905Q90.0068,443.55228999999997,90.3346,444.15172Q90.6625,444.75115,90.6625,445.7045L90.6625,451.5L89.0034,451.5L89.0034,450.3091L88.9352,450.3091Q88.7739,450.6341,88.4449,450.9534Q88.1159,451.2727,87.5983,451.4818Q87.08070000000001,451.6909,86.358,451.6909ZM86.7261,450.3319Q87.4341,450.3319,87.9358,450.0523Q88.4375,449.7727,88.7022,449.3216Q88.9671,448.8705,88.9671,448.3546L88.9671,447.2273Q88.8738,447.3193,88.6165,447.3944Q88.3591,447.4693,88.0301,447.525Q87.7012,447.5807,87.3869,447.6216Q87.0727,447.6625,86.8625,447.6909Q86.3716,447.7568,85.9642,447.9029Q85.5568,448.0488,85.3142,448.3244Q85.0716,448.6,85.0716,449.0545Q85.0716,449.6863,85.5386,450.0091Q86.0057,450.3319,86.7261,450.3319ZM100.075,442.77273L96.9068,451.5L95.0886,451.5L91.9205,442.77273L93.7432,442.77273L95.9522,449.4909L96.0431,449.4909L98.2523,442.77273L100.075,442.77273ZM105.1262,451.6773Q103.8375,451.6773,102.9062,451.1222Q101.975,450.567,101.4733,449.5585Q100.9716,448.55,100.9716,447.1955Q100.9716,445.8523,101.4738,444.82955Q101.9761,443.80682,102.8817,443.23295Q103.7875,442.65909,105.0034,442.65909Q105.7466,442.65909,106.4387,442.90226Q107.13069999999999,443.14542,107.6807,443.66877Q108.23060000000001,444.19203,108.55109999999999,445.02619Q108.8716,445.8603,108.8716,447.0455L108.8716,447.6454L101.9307,447.6454L101.9307,446.3727L107.2034,446.3727Q107.2022,445.7069,106.93119999999999,445.18581Q106.6602,444.66477,106.1688,444.36426Q105.6773,444.06365,105.017,444.06365Q104.3,444.06365,103.7704,444.41193Q103.2409,444.76021000000003,102.9529,445.32164Q102.6648,445.883,102.6625,446.5364L102.6625,447.5273Q102.6625,448.4023,102.9727,449.0159Q103.2829,449.6295,103.8398,449.9512Q104.3966,450.2727,105.1397,450.2727Q105.62729999999999,450.2727,106.0244,450.1341Q106.4216,449.9955,106.7102,449.7177Q106.9988,449.4398,107.1534,449.0273L108.7625,449.3182Q108.5693,450.0273,108.0727,450.5585Q107.5762,451.0898,106.8267,451.3835Q106.0772,451.6773,105.1262,451.6773Z" fill="#181D26" fill-opacity="1"/></g></g><g><rect x="174.5" y="422.5" width="148" height="47" rx="23.5" fill-opacity="0" stroke-opacity="1" stroke="#868686" fill="none" stroke-width="1"/><g><path d="M232.992,443.64542L231.22390000000001,443.64542Q231.11701,443.07955,230.84029,442.64657Q230.56365,442.2136,230.16078,441.91424Q229.75799,441.61479,229.25906,441.462Q228.76021,441.30913,228.2057,441.30913Q227.20117,441.30913,226.4074,441.81365Q225.61364,442.31818,225.1551,443.2943Q224.69656,444.27042,224.69656,445.6818Q224.69656,447.1046,225.15625,448.0802Q225.61594,449.0557,226.40909,449.5551Q227.20224,450.0545,228.20117,450.0545Q228.75231,450.0545,229.24885,449.9051Q229.74547,449.7557,230.14888,449.4614Q230.55229,449.1671,230.83239,448.7369Q231.11248,448.3068,231.22390000000001,447.75L232.992,447.7545Q232.8534,448.6159,232.4454,449.3324Q232.0375,450.0488,231.40625,450.571Q230.77504,451.0932,229.96138,451.3762Q229.14773,451.6591,228.1875,451.6591Q226.67614,451.6591,225.49485,450.9398Q224.31365,450.2204,223.63468,448.8807Q222.955699,447.5409,222.955699,445.6818Q222.955699,443.82049,223.63752,442.48127Q224.31934,441.14205,225.50115,440.4233Q226.68297,439.70455,228.1875,439.70455Q229.11248,439.70455,229.91815,439.96937Q230.72390000000001,440.23411,231.36364,440.74263Q232.0034,441.25115,232.425,441.98073Q232.8466,442.71023,232.992,443.64542ZM237.5,451.6909Q236.6693,451.6909,236.0005,451.3835Q235.3319,451.0762,234.9409,450.4841Q234.55,449.892,234.55,449.0364Q234.55,448.2931,234.8352,447.8165Q235.1205,447.3398,235.6034,447.0613Q236.0864,446.7829,236.6824,446.642Q237.2784,446.5012,237.9,446.4273Q238.683,446.3341,239.1698,446.2744Q239.6568,446.2148,239.8807,446.0802Q240.1046,445.9455,240.1046,445.6364L240.1046,445.5954Q240.1046,444.85458,239.6863,444.44549Q239.2682,444.0364,238.4455,444.0364Q237.5875,444.0364,237.0949,444.41193Q236.6023,444.78746,236.4136,445.25L234.8182,444.88636Q235.1023,444.09091,235.6494,443.59943Q236.1966,443.10795,236.9136,442.88352Q237.6307,442.65909,238.4181,442.65909Q238.942,442.65909,239.52949999999998,442.7824Q240.117,442.90572,240.6329,443.22905Q241.1489,443.55228999999997,241.4767,444.15172Q241.8045,444.75115,241.8045,445.7045L241.8045,451.5L240.1454,451.5L240.1454,450.3091L240.0772,450.3091Q239.9159,450.6341,239.5869,450.9534Q239.258,451.2727,238.7403,451.4818Q238.2227,451.6909,237.5,451.6909ZM237.8682,450.3319Q238.5762,450.3319,239.0779,450.0523Q239.5795,449.7727,239.8443,449.3216Q240.1091,448.8705,240.1091,448.3546L240.1091,447.2273Q240.0159,447.3193,239.7585,447.3944Q239.5012,447.4693,239.1721,447.525Q238.8432,447.5807,238.5289,447.6216Q238.2148,447.6625,238.0045,447.6909Q237.5137,447.7568,237.1063,447.9029Q236.6989,448.0488,236.4562,448.3244Q236.21359999999999,448.6,236.21359999999999,449.0545Q236.21359999999999,449.6863,236.6807,450.0091Q237.1477,450.3319,237.8682,450.3319ZM245.767,446.3182L245.767,451.5L244.067,451.5L244.067,442.77273L245.6989,442.77273L245.6989,444.19549L245.808,444.19549Q246.1103,443.49769,246.754,443.07839Q247.3977,442.65909,248.3807,442.65909Q249.275,442.65909,249.9437,443.0324Q250.6125,443.40572,250.9835,444.13752Q251.3546,444.86932,251.3534,445.95L251.3534,451.5L249.6534,451.5L249.6534,446.1546Q249.6546,445.20224,249.1608,444.66708Q248.6671,444.13184,247.8034,444.13184Q247.2125,444.13184,246.7528,444.38814Q246.2931,444.64435,246.0306,445.13352Q245.7682,445.6227,245.767,446.3182ZM257.3011,451.6773Q256.03520000000003,451.6773,255.12380000000002,451.1006Q254.2125,450.5239,253.7227,449.5075Q253.233,448.4909,253.233,447.1773Q253.233,445.8454,253.7341,444.8267Q254.2353,443.80797,255.1444,443.23358Q256.0534,442.65909,257.2829,442.65909Q258.2761,442.65909,259.055,443.02441Q259.8341,443.38974,260.3147,444.04945Q260.7955,444.70907,260.8875,445.5909L259.233,445.5909Q259.09770000000003,444.97612,258.6108,444.53356Q258.1238,444.09091,257.3102,444.09091Q256.6011,444.09091,256.0692,444.46307Q255.5375,444.83523,255.242,445.5187Q254.9466,446.2022,254.9466,447.1364Q254.9466,448.0886,255.2375,448.7836Q255.5284,449.4784,256.0602,449.8574Q256.5921,450.2363,257.3102,450.2363Q257.7978,450.2363,258.192,450.0585Q258.5864,449.8807,258.8563,449.5449Q259.1262,449.2091,259.233,448.7363L260.8875,448.7363Q260.7931,449.5852,260.3341,450.2495Q259.875,450.9136,259.104,451.2955Q258.3329,451.6773,257.3011,451.6773ZM266.47270000000003,451.6773Q265.1841,451.6773,264.2528,451.1222Q263.3216,450.567,262.8199,449.5585Q262.3182,448.55,262.3182,447.1955Q262.3182,445.8523,262.8204,444.82955Q263.3227,443.80682,264.2283,443.23295Q265.1341,442.65909,266.35,442.65909Q267.0932,442.65909,267.78520000000003,442.90226Q268.4773,443.14542,269.02729999999997,443.66877Q269.5772,444.19203,269.8977,445.02619Q270.2182,445.8603,270.2182,447.0455L270.2182,447.6454L263.27729999999997,447.6454L263.27729999999997,446.3727L268.55,446.3727Q268.5488,445.7069,268.2778,445.18581Q268.0068,444.66477,267.5154,444.36426Q267.0239,444.06365,266.3636,444.06365Q265.6466,444.06365,265.117,444.41193Q264.5875,444.76021000000003,264.2994,445.32164Q264.0114,445.883,264.0091,446.5364L264.0091,447.5273Q264.0091,448.4023,264.3192,449.0159Q264.6295,449.6295,265.1863,449.9512Q265.7432,450.2727,266.4863,450.2727Q266.9739,450.2727,267.371,450.1341Q267.7682,449.9955,268.0568,449.7177Q268.3454,449.4398,268.5,449.0273L270.1091,449.3182Q269.9159,450.0273,269.4193,450.5585Q268.9228,451.0898,268.1733,451.3835Q267.4238,451.6773,266.47270000000003,451.6773ZM273.8068,439.86364L273.8068,451.5L272.1068,451.5L272.1068,439.86364L273.8068,439.86364Z" fill="#868686" fill-opacity="1"/></g></g></g></g></g></g></g></g></svg>