<svg xmlns="http://www.w3.org/2000/svg" xmlns:xlink="http://www.w3.org/1999/xlink" fill="none" version="1.1" width="568" height="1024" viewBox="0 0 568 1024"><g><rect x="0" y="0" width="568" height="1024" rx="0" fill="#252C38" fill-opacity="1"/><g><path d="M30,398L26.40909,398L26.40909,386.36364L30.15909,386.36364Q31.85227,386.36364,33.05682,387.05966Q34.261359999999996,387.75568,34.90341,389.05398Q35.545500000000004,390.35227,35.545500000000004,392.1591Q35.545500000000004,393.9773,34.897729999999996,395.2869Q34.25,396.5966,33.011359999999996,397.2983Q31.77273,398,30,398ZM27.818179999999998,396.75L29.90909,396.75Q31.35227,396.75,32.301140000000004,396.1932Q33.25,395.6364,33.71591,394.608Q34.18182,393.5795,34.18182,392.1591Q34.18182,390.75,33.72159,389.73011Q33.261359999999996,388.71023,32.34659,388.16193Q31.431820000000002,387.61364,30.068179999999998,387.61364L27.818179999999998,387.61364L27.818179999999998,396.75ZM41.386399999999995,398.1818Q40.125,398.1818,39.2131,397.6222Q38.3011,397.0625,37.8097,396.054Q37.3182,395.0455,37.3182,393.7045Q37.3182,392.3636,37.8097,391.33807Q38.3011,390.3125,39.1847,389.7358Q40.0682,389.15909,41.25,389.15909Q41.931799999999996,389.15909,42.596599999999995,389.38636Q43.261399999999995,389.61364,43.806799999999996,390.12216Q44.3523,390.63068,44.676100000000005,391.46591Q45,392.3011,45,393.5227L45,394.0909L38.2727,394.0909L38.2727,392.9318L43.636399999999995,392.9318Q43.636399999999995,392.1932,43.3438,391.61364Q43.051100000000005,391.03409,42.5142,390.69886Q41.9773,390.36364,41.25,390.36364Q40.4489,390.36364,39.8665,390.75852Q39.2841,391.15341,38.9716,391.78409Q38.6591,392.4148,38.6591,393.1364L38.6591,393.9091Q38.6591,394.8977,39.0028,395.5824Q39.3466,396.267,39.9602,396.6222Q40.5739,396.9773,41.386399999999995,396.9773Q41.9148,396.9773,42.3438,396.8267Q42.7727,396.6761,43.0852,396.3722Q43.3977,396.0682,43.568200000000004,395.6136L44.863600000000005,395.9773Q44.659099999999995,396.6364,44.176100000000005,397.1335Q43.693200000000004,397.6307,42.983000000000004,397.9062Q42.2727,398.1818,41.386399999999995,398.1818ZM53.2273,391.22727L52.0227,391.56818Q51.909099999999995,391.26705,51.6903,390.98011Q51.471599999999995,390.69318,51.096599999999995,390.50568Q50.721599999999995,390.31818,50.136399999999995,390.31818Q49.3352,390.31818,48.804,390.68466Q48.2727,391.05114,48.2727,391.61364Q48.2727,392.1136,48.636399999999995,392.4034Q49,392.6932,49.7727,392.8864L51.068200000000004,393.2045Q52.238600000000005,393.4886,52.8125,394.071Q53.386399999999995,394.6534,53.386399999999995,395.5682Q53.386399999999995,396.3182,52.9574,396.9091Q52.528400000000005,397.5,51.761399999999995,397.8409Q50.994299999999996,398.1818,49.9773,398.1818Q48.641999999999996,398.1818,47.766999999999996,397.6023Q46.891999999999996,397.0227,46.659099999999995,395.9091L47.931799999999996,395.5909Q48.113600000000005,396.2955,48.6222,396.6477Q49.130700000000004,397,49.954499999999996,397Q50.891999999999996,397,51.446,396.5994Q52,396.1989,52,395.6364Q52,395.1818,51.681799999999996,394.8722Q51.363600000000005,394.5625,50.704499999999996,394.4091L49.25,394.0682Q48.051100000000005,393.7841,47.4915,393.1847Q46.931799999999996,392.5852,46.931799999999996,391.68182Q46.931799999999996,390.94318,47.3494,390.375Q47.766999999999996,389.80682,48.4915,389.48295Q49.215900000000005,389.15909,50.136399999999995,389.15909Q51.431799999999996,389.15909,52.1733,389.72727Q52.9148,390.29545,53.2273,391.22727ZM59.2045,389.27273L59.2045,390.40909L54.681799999999996,390.40909L54.681799999999996,389.27273L59.2045,389.27273ZM56,387.18182L57.3409,387.18182L57.3409,395.5Q57.3409,396.0682,57.5085,396.3494Q57.6761,396.6307,57.9403,396.7244Q58.2045,396.8182,58.5,396.8182Q58.7216,396.8182,58.8636,396.7926Q59.0057,396.767,59.0909,396.75L59.3636,397.9545Q59.2273,398.0057,58.983,398.0597Q58.7386,398.1136,58.3636,398.1136Q57.7955,398.1136,57.2528,397.8693Q56.7102,397.625,56.3551,397.125Q56,396.625,56,395.8636L56,387.18182ZM61.2273,398L61.2273,389.27273L62.5682,389.27273L62.5682,398L61.2273,398ZM61.9091,387.81818Q61.517,387.81818,61.2358,387.55114Q60.9545,387.28409,60.9545,386.90909Q60.9545,386.53409,61.2358,386.26705Q61.517,386,61.9091,386Q62.3011,386,62.5824,386.26705Q62.8636,386.53409,62.8636,386.90909Q62.8636,387.28409,62.5824,387.55114Q62.3011,387.81818,61.9091,387.81818ZM66.36359999999999,392.75L66.36359999999999,398L65.0227,398L65.0227,389.27273L66.31819999999999,389.27273L66.31819999999999,390.63636L66.43180000000001,390.63636Q66.73859999999999,389.97159,67.36359999999999,389.56534Q67.98859999999999,389.15909,68.9773,389.15909Q69.86359999999999,389.15909,70.5284,389.51989Q71.19319999999999,389.88068,71.5625,390.6108Q71.93180000000001,391.34091,71.93180000000001,392.4545L71.93180000000001,398L70.5909,398L70.5909,392.5455Q70.5909,391.51705,70.05680000000001,390.94034Q69.5227,390.36364,68.5909,390.36364Q67.94890000000001,390.36364,67.446,390.64205Q66.94319999999999,390.92045,66.6534,391.45455Q66.36359999999999,391.98864,66.36359999999999,392.75ZM76.9545,398.2045Q76.125,398.2045,75.44890000000001,397.8892Q74.7727,397.5739,74.375,396.9744Q73.9773,396.375,73.9773,395.5227Q73.9773,394.7727,74.2727,394.304Q74.56819999999999,393.8352,75.0625,393.5682Q75.55680000000001,393.3011,76.1562,393.1676Q76.75569999999999,393.0341,77.36359999999999,392.9545Q78.1591,392.8523,78.6562,392.7983Q79.1534,392.7443,79.3835,392.6136Q79.61359999999999,392.483,79.61359999999999,392.1591L79.61359999999999,392.1136Q79.61359999999999,391.27273,79.1562,390.80682Q78.69890000000001,390.34091,77.7727,390.34091Q76.8125,390.34091,76.267,390.76136Q75.7216,391.18182,75.5,391.65909L74.2273,391.20455Q74.56819999999999,390.40909,75.1392,389.96307Q75.7102,389.51705,76.3892,389.33807Q77.06819999999999,389.15909,77.7273,389.15909Q78.1477,389.15909,78.696,389.25852Q79.24430000000001,389.35795,79.7585,389.66477Q80.2727,389.97159,80.61359999999999,390.59091Q80.9545,391.21023,80.9545,392.25L80.9545,398L79.61359999999999,398L79.61359999999999,396.8182L79.5455,396.8182Q79.4091,397.1023,79.0909,397.4261Q78.7727,397.75,78.24430000000001,397.9773Q77.7159,398.2045,76.9545,398.2045ZM77.1591,397Q77.9545,397,78.50280000000001,396.6875Q79.05109999999999,396.375,79.3324,395.8807Q79.61359999999999,395.3864,79.61359999999999,394.8409L79.61359999999999,393.6136Q79.5284,393.7159,79.2415,393.7983Q78.9545,393.8807,78.5824,393.9403Q78.2102,394,77.8608,394.0426Q77.51140000000001,394.0852,77.2955,394.1136Q76.7727,394.1818,76.321,394.3324Q75.86930000000001,394.483,75.5938,394.7812Q75.31819999999999,395.0795,75.31819999999999,395.5909Q75.31819999999999,396.2898,75.8381,396.6449Q76.358,397,77.1591,397ZM87.2045,389.27273L87.2045,390.40909L82.68180000000001,390.40909L82.68180000000001,389.27273L87.2045,389.27273ZM84,387.18182L85.3409,387.18182L85.3409,395.5Q85.3409,396.0682,85.5085,396.3494Q85.67609999999999,396.6307,85.94030000000001,396.7244Q86.2045,396.8182,86.5,396.8182Q86.7216,396.8182,86.86359999999999,396.7926Q87.00569999999999,396.767,87.0909,396.75L87.36359999999999,397.9545Q87.2273,398.0057,86.983,398.0597Q86.73859999999999,398.1136,86.36359999999999,398.1136Q85.7955,398.1136,85.25280000000001,397.8693Q84.7102,397.625,84.3551,397.125Q84,396.625,84,395.8636L84,387.18182ZM89.2273,398L89.2273,389.27273L90.5682,389.27273L90.5682,398L89.2273,398ZM89.9091,387.81818Q89.517,387.81818,89.2358,387.55114Q88.9545,387.28409,88.9545,386.90909Q88.9545,386.53409,89.2358,386.26705Q89.517,386,89.9091,386Q90.3011,386,90.5824,386.26705Q90.8636,386.53409,90.8636,386.90909Q90.8636,387.28409,90.5824,387.55114Q90.3011,387.81818,89.9091,387.81818ZM96.5682,398.1818Q95.3864,398.1818,94.4972,397.6193Q93.608,397.0568,93.1108,396.0455Q92.6136,395.0341,92.6136,393.6818Q92.6136,392.3182,93.1108,391.30114Q93.608,390.28409,94.4972,389.72159Q95.3864,389.15909,96.5682,389.15909Q97.75,389.15909,98.6392,389.72159Q99.5284,390.28409,100.0256,391.30114Q100.5227,392.3182,100.5227,393.6818Q100.5227,395.0341,100.0256,396.0455Q99.5284,397.0568,98.6392,397.6193Q97.75,398.1818,96.5682,398.1818ZM96.5682,396.9773Q97.4659,396.9773,98.0455,396.517Q98.625,396.0568,98.9034,395.3068Q99.1818,394.5568,99.1818,393.6818Q99.1818,392.8068,98.9034,392.0511Q98.625,391.29545,98.0455,390.82955Q97.4659,390.36364,96.5682,390.36364Q95.6705,390.36364,95.0909,390.82955Q94.5114,391.29545,94.233,392.0511Q93.9545,392.8068,93.9545,393.6818Q93.9545,394.5568,94.233,395.3068Q94.5114,396.0568,95.0909,396.517Q95.6705,396.9773,96.5682,396.9773ZM103.9091,392.75L103.9091,398L102.5682,398L102.5682,389.27273L103.8636,389.27273L103.8636,390.63636L103.9773,390.63636Q104.2841,389.97159,104.9091,389.56534Q105.5341,389.15909,106.5227,389.15909Q107.4091,389.15909,108.0739,389.51989Q108.7386,389.88068,109.108,390.6108Q109.4773,391.34091,109.4773,392.4545L109.4773,398L108.1364,398L108.1364,392.5455Q108.1364,391.51705,107.6023,390.94034Q107.0682,390.36364,106.1364,390.36364Q105.4943,390.36364,104.9915,390.64205Q104.4886,390.92045,104.1989,391.45455Q103.9091,391.98864,103.9091,392.75ZM116.4318,401.2727L116.4318,389.27273L117.7273,389.27273L117.7273,390.65909L117.8864,390.65909Q118.0341,390.43182,118.2983,390.0767Q118.5625,389.72159,119.0597,389.44034Q119.5568,389.15909,120.4091,389.15909Q121.5114,389.15909,122.3523,389.71023Q123.1932,390.26136,123.6648,391.27273Q124.1364,392.2841,124.1364,393.6591Q124.1364,395.0455,123.6648,396.0597Q123.1932,397.0739,122.358,397.6278Q121.5227,398.1818,120.4318,398.1818Q119.5909,398.1818,119.0852,397.9006Q118.5796,397.6193,118.3068,397.2585Q118.0341,396.8977,117.8864,396.6591L117.7727,396.6591L117.7727,401.2727L116.4318,401.2727ZM117.75,393.6364Q117.75,394.625,118.0398,395.3778Q118.3296,396.1307,118.8864,396.554Q119.4432,396.9773,120.25,396.9773Q121.0909,396.9773,121.6563,396.5312Q122.2216,396.0852,122.5085,395.3267Q122.7955,394.5682,122.7955,393.6364Q122.7955,392.7159,122.5142,391.97443Q122.233,391.23295,121.6676,390.7983Q121.1023,390.36364,120.25,390.36364Q119.4318,390.36364,118.875,390.77557Q118.3182,391.1875,118.0341,391.9233Q117.75,392.6591,117.75,393.6364ZM129.727,398.1818Q128.54500000000002,398.1818,127.656,397.6193Q126.767,397.0568,126.27,396.0455Q125.773,395.0341,125.773,393.6818Q125.773,392.3182,126.27,391.30114Q126.767,390.28409,127.656,389.72159Q128.54500000000002,389.15909,129.727,389.15909Q130.909,389.15909,131.798,389.72159Q132.688,390.28409,133.185,391.30114Q133.68200000000002,392.3182,133.68200000000002,393.6818Q133.68200000000002,395.0341,133.185,396.0455Q132.688,397.0568,131.798,397.6193Q130.909,398.1818,129.727,398.1818ZM129.727,396.9773Q130.625,396.9773,131.20499999999998,396.517Q131.784,396.0568,132.063,395.3068Q132.341,394.5568,132.341,393.6818Q132.341,392.8068,132.063,392.0511Q131.784,391.29545,131.20499999999998,390.82955Q130.625,390.36364,129.727,390.36364Q128.82999999999998,390.36364,128.25,390.82955Q127.67,391.29545,127.392,392.0511Q127.114,392.8068,127.114,393.6818Q127.114,394.5568,127.392,395.3068Q127.67,396.0568,128.25,396.517Q128.82999999999998,396.9773,129.727,396.9773ZM135.727,398L135.727,389.27273L137.06799999999998,389.27273L137.06799999999998,398L135.727,398ZM136.409,387.81818Q136.017,387.81818,135.736,387.55114Q135.45499999999998,387.28409,135.45499999999998,386.90909Q135.45499999999998,386.53409,135.736,386.26705Q136.017,386,136.409,386Q136.801,386,137.082,386.26705Q137.364,386.53409,137.364,386.90909Q137.364,387.28409,137.082,387.55114Q136.801,387.81818,136.409,387.81818ZM140.864,392.75L140.864,398L139.523,398L139.523,389.27273L140.81799999999998,389.27273L140.81799999999998,390.63636L140.93200000000002,390.63636Q141.239,389.97159,141.864,389.56534Q142.489,389.15909,143.477,389.15909Q144.364,389.15909,145.02800000000002,389.51989Q145.69299999999998,389.88068,146.063,390.6108Q146.43200000000002,391.34091,146.43200000000002,392.4545L146.43200000000002,398L145.091,398L145.091,392.5455Q145.091,391.51705,144.55700000000002,390.94034Q144.023,390.36364,143.091,390.36364Q142.449,390.36364,141.946,390.64205Q141.44299999999998,390.92045,141.15300000000002,391.45455Q140.864,391.98864,140.864,392.75ZM152.68200000000002,389.27273L152.68200000000002,390.40909L148.159,390.40909L148.159,389.27273L152.68200000000002,389.27273ZM149.477,387.18182L150.81799999999998,387.18182L150.81799999999998,395.5Q150.81799999999998,396.0682,150.986,396.3494Q151.15300000000002,396.6307,151.418,396.7244Q151.68200000000002,396.8182,151.977,396.8182Q152.199,396.8182,152.341,396.7926Q152.483,396.767,152.56799999999998,396.75L152.841,397.9545Q152.70499999999998,398.0057,152.45999999999998,398.0597Q152.216,398.1136,151.841,398.1136Q151.273,398.1136,150.73000000000002,397.8693Q150.188,397.625,149.832,397.125Q149.477,396.625,149.477,395.8636L149.477,387.18182ZM160.727,391.22727L159.523,391.56818Q159.409,391.26705,159.19,390.98011Q158.972,390.69318,158.597,390.50568Q158.222,390.31818,157.636,390.31818Q156.835,390.31818,156.304,390.68466Q155.773,391.05114,155.773,391.61364Q155.773,392.1136,156.136,392.4034Q156.5,392.6932,157.273,392.8864L158.568,393.2045Q159.739,393.4886,160.313,394.071Q160.886,394.6534,160.886,395.5682Q160.886,396.3182,160.457,396.9091Q160.028,397.5,159.261,397.8409Q158.494,398.1818,157.477,398.1818Q156.142,398.1818,155.267,397.6023Q154.392,397.0227,154.159,395.9091L155.432,395.5909Q155.614,396.2955,156.122,396.6477Q156.631,397,157.455,397Q158.392,397,158.946,396.5994Q159.5,396.1989,159.5,395.6364Q159.5,395.1818,159.182,394.8722Q158.864,394.5625,158.205,394.4091L156.75,394.0682Q155.551,393.7841,154.991,393.1847Q154.432,392.5852,154.432,391.68182Q154.432,390.94318,154.849,390.375Q155.267,389.80682,155.991,389.48295Q156.716,389.15909,157.636,389.15909Q158.932,389.15909,159.673,389.72727Q160.415,390.29545,160.727,391.22727Z" fill="#98A1B3" fill-opacity="1"/></g><g><g><rect x="24" y="418" width="520" height="154" rx="16" fill="#363F4F" fill-opacity="1"/></g><g><rect x="163.5" y="465.5" width="59" height="59" rx="29.5" fill-opacity="0" stroke-opacity="1" stroke="#F4F7FF" fill="none" stroke-width="1"/><g><path d="M187.756,502L187.756,500.248L191.764,495.616Q193.036,494.128,193.78,493.036Q194.524,491.944,194.848,490.96Q195.172,489.976,195.172,488.872Q195.172,487.96,194.908,487.276Q194.644,486.592,194.10399999999998,486.208Q193.564,485.824,192.724,485.824Q191.644,485.824,191.068,486.328Q190.492,486.832,190.288,487.636Q190.084,488.44,190.084,489.4Q189.508,489.4,189.04,489.26800000000003Q188.572,489.136,188.296,488.788Q188.02,488.44,188.02,487.84Q188.02,486.904,188.548,486.184Q189.076,485.464,190.132,485.044Q191.188,484.624,192.724,484.624Q194.236,484.624,195.328,485.116Q196.42,485.608,197.008,486.508Q197.596,487.408,197.596,488.632Q197.596,489.304,197.416,489.952Q197.236,490.6,196.9,491.248Q196.564,491.896,196.084,492.58Q195.60399999999998,493.264,194.98,494.008Q194.356,494.752,193.588,495.592L189.532,500.08L195.076,500.08Q196.156,500.08,196.54,499.528Q196.924,498.976,197.092,498.28L197.188,497.848L198.196,497.848L198.076,502L187.756,502Z" fill="#FFFFFF" fill-opacity="1"/></g></g><g><rect x="259.5" y="465.5" width="59" height="59" rx="29.5" fill-opacity="0" stroke-opacity="1" stroke="#F4F7FF" fill="none" stroke-width="1"/><g><path d="M288.22,502.24Q286.636,502.24,285.628,501.868Q284.62,501.496,284.152,500.884Q283.684,500.272,283.684,499.576Q283.684,498.856,284.104,498.448Q284.524,498.04,285.196,498.04Q285.196,499.288,285.988,500.116Q286.78,500.944,288.244,500.944Q289.204,500.944,290.008,500.572Q290.812,500.2,291.316,499.36Q291.82,498.52,291.82,497.08Q291.82,495.568,290.656,494.656Q289.492,493.744,287.476,493.744L286.708,493.744L286.708,492.52L287.476,492.52Q288.532,492.52,289.384,492.064Q290.236,491.608,290.74,490.76800000000003Q291.244,489.928,291.244,488.8Q291.244,487.384,290.656,486.604Q290.068,485.824,288.676,485.824Q287.596,485.824,287.02,486.328Q286.444,486.832,286.24,487.636Q286.036,488.44,286.036,489.4Q285.172,489.4,284.572,489.076Q283.972,488.752,283.972,487.84Q283.972,486.904,284.5,486.184Q285.028,485.464,286.084,485.044Q287.14,484.624,288.676,484.624Q290.956,484.624,292.336,485.62Q293.716,486.616,293.716,488.44Q293.716,489.52,293.212,490.42Q292.708,491.32,291.844,491.956Q290.98,492.592,289.876,492.856Q290.548,492.928,291.316,493.156Q292.084,493.384,292.76800000000003,493.864Q293.452,494.344,293.884,495.124Q294.316,495.904,294.316,497.104Q294.316,498.544,293.764,499.54Q293.212,500.536,292.3,501.124Q291.388,501.712,290.32,501.976Q289.252,502.24,288.22,502.24Z" fill="#FFFFFF" fill-opacity="1"/></g></g><g><rect x="355.5" y="465.5" width="59" height="59" rx="29.5" fill-opacity="0" stroke-opacity="1" stroke="#F4F7FF" fill="none" stroke-width="1"/><g><path d="M384.148,502.24Q382.372,502.24,381.388,501.856Q380.404,501.472,380.008,500.908Q379.612,500.344,379.612,499.816Q379.612,499.144,379.984,498.772Q380.356,498.4,381.124,498.4Q381.124,499.072,381.448,499.624Q381.772,500.176,382.42,500.5Q383.068,500.824,384.028,500.824Q385.012,500.824,385.792,500.44Q386.572,500.056,387.016,499.168Q387.46,498.28,387.46,496.76800000000003Q387.46,494.872,386.464,493.948Q385.468,493.024,383.812,493.024Q382.564,493.024,381.94,493.192Q381.316,493.36,380.86,493.552L380.284,493.384L381.052,484.864L389.068,484.864L389.188,488.488L388.18,488.488L388.084,487.76800000000003Q388.036,487.432,387.928,487.216Q387.82,487,387.556,486.892Q387.292,486.784,386.788,486.784L382.132,486.784L381.676,492.088Q381.916,491.992,382.3,491.908Q382.684,491.824,383.236,491.764Q383.788,491.704,384.484,491.704Q386.044,491.704,387.28,492.26800000000003Q388.516,492.832,389.236,493.948Q389.956,495.064,389.956,496.76800000000003Q389.956,497.752,389.704,498.592Q389.452,499.432,388.972,500.104Q388.492,500.776,387.784,501.256Q387.076,501.736,386.164,501.988Q385.252,502.24,384.148,502.24Z" fill="#FFFFFF" fill-opacity="1"/></g></g></g><g><g><path d="M24.912,59L24.912,57.992000000000004L25.224,57.992000000000004Q25.776,57.992000000000004,26.22,57.872Q26.664,57.751999999999995,26.928,57.379999999999995Q27.192,57.007999999999996,27.192,56.263999999999996L27.192,44.504Q27.192,43.784,26.916,43.436Q26.64,43.088,26.196,42.980000000000004Q25.752,42.872,25.224,42.872L24.912,42.872L24.912,41.864000000000004L31.344,41.864000000000004Q34.464,41.864000000000004,35.988,42.908Q37.512,43.952,37.512,46.16Q37.512,47.216,37.128,47.96Q36.744,48.704,36.072,49.172Q35.4,49.64,34.536,49.928L34.536,50.024Q35.64,50.216,36.468,50.756Q37.296,51.296,37.763999999999996,52.196Q38.232,53.096000000000004,38.232,54.367999999999995Q38.232,56.696,36.708,57.848Q35.184,59,32.064,59L24.912,59ZM31.944,57.8Q33.984,57.8,34.824,57.007999999999996Q35.664,56.216,35.664,54.296Q35.664,53.048,35.328,52.232Q34.992000000000004,51.416,34.2,51.019999999999996Q33.408,50.623999999999995,31.992,50.623999999999995L29.616,50.623999999999995L29.616,57.8L31.944,57.8ZM31.272,49.424Q32.688,49.424,33.480000000000004,49.088Q34.272,48.751999999999995,34.608000000000004,48.032Q34.944,47.312,34.944,46.16Q34.944,44.384,34.104,43.724000000000004Q33.263999999999996,43.064,31.224,43.064L29.616,43.064L29.616,49.424L31.272,49.424ZM46.248000000000005,59.239999999999995Q44.352000000000004,59.239999999999995,43.32,58.123999999999995Q42.288,57.007999999999996,42.288,54.536L42.288,48.775999999999996Q42.288,48.056,42.012,47.708Q41.736000000000004,47.36,41.292,47.252Q40.848,47.144,40.32,47.144L40.248000000000005,47.144L40.248000000000005,46.135999999999996L44.544,46.135999999999996L44.544,54.416Q44.544,55.448,44.772,56.192Q45,56.936,45.552,57.32Q46.104,57.704,47.064,57.704Q48.120000000000005,57.704,48.792,57.212Q49.464,56.72,49.775999999999996,55.844Q50.088,54.968,50.088,53.816L50.088,48.872Q50.088,48.104,49.824,47.744Q49.56,47.384,49.116,47.263999999999996Q48.672,47.144,48.120000000000005,47.144L48.048,47.144L48.048,46.135999999999996L52.344,46.135999999999996L52.344,56.384Q52.344,57.08,52.620000000000005,57.428Q52.896,57.775999999999996,53.34,57.884Q53.784,57.992000000000004,54.312,57.992000000000004L54.384,57.992000000000004L54.384,59L50.568,59L50.256,57.056L50.135999999999996,57.056Q49.391999999999996,58.4,48.408,58.82Q47.424,59.239999999999995,46.248000000000005,59.239999999999995ZM55.488,59L55.488,57.992000000000004L55.8,57.992000000000004Q56.328,57.992000000000004,56.772,57.884Q57.216,57.775999999999996,57.492,57.428Q57.768,57.08,57.768,56.384L57.768,48.775999999999996Q57.768,48.056,57.492,47.708Q57.216,47.36,56.772,47.252Q56.328,47.144,55.8,47.144L55.728,47.144L55.728,46.135999999999996L60.024,46.135999999999996L60.024,56.263999999999996Q60.024,57.007999999999996,60.288,57.379999999999995Q60.552,57.751999999999995,61.008,57.872Q61.464,57.992000000000004,61.992,57.992000000000004L62.304,57.992000000000004L62.304,59L55.488,59ZM58.8,43.736000000000004Q58.224,43.736000000000004,57.828,43.4Q57.432,43.064,57.432,42.248Q57.432,41.408,57.828,41.084Q58.224,40.76,58.8,40.76Q59.352,40.76,59.76,41.084Q60.168,41.408,60.168,42.248Q60.168,43.064,59.76,43.4Q59.352,43.736000000000004,58.8,43.736000000000004ZM62.928,59L62.928,57.992000000000004L63.24,57.992000000000004Q63.792,57.992000000000004,64.23599999999999,57.872Q64.68,57.751999999999995,64.944,57.379999999999995Q65.208,57.007999999999996,65.208,56.263999999999996L65.208,43.4Q65.208,42.68,64.932,42.332Q64.656,41.984,64.212,41.876Q63.768,41.768,63.24,41.768L62.928,41.768L62.928,40.76L67.464,40.76L67.464,56.263999999999996Q67.464,57.007999999999996,67.72800000000001,57.379999999999995Q67.99199999999999,57.751999999999995,68.44800000000001,57.872Q68.904,57.992000000000004,69.432,57.992000000000004L69.744,57.992000000000004L69.744,59L62.928,59ZM76.27199999999999,59.239999999999995Q74.688,59.239999999999995,73.596,58.544Q72.50399999999999,57.848,71.94,56.372Q71.376,54.896,71.376,52.592Q71.376,50.263999999999996,71.94,48.788Q72.50399999999999,47.312,73.596,46.604Q74.688,45.896,76.27199999999999,45.896Q77.664,45.896,78.53999999999999,46.484Q79.416,47.072,79.944,48.007999999999996L80.088,48.007999999999996Q80.01599999999999,47.408,79.97999999999999,46.676Q79.944,45.944,79.944,45.368L79.944,43.4Q79.944,42.68,79.668,42.332Q79.392,41.984,78.94800000000001,41.876Q78.50399999999999,41.768,77.976,41.768L77.78399999999999,41.768L77.78399999999999,40.76L82.2,40.76L82.2,56.36Q82.2,57.056,82.476,57.416Q82.75200000000001,57.775999999999996,83.196,57.884Q83.64,57.992000000000004,84.168,57.992000000000004L84.36,57.992000000000004L84.36,59L80.304,59L80.03999999999999,56.84L79.944,56.84Q79.416,57.944,78.55199999999999,58.592Q77.688,59.239999999999995,76.27199999999999,59.239999999999995ZM76.68,57.704Q78.55199999999999,57.704,79.24799999999999,56.444Q79.944,55.184,79.944,52.592Q79.944,50.096000000000004,79.24799999999999,48.763999999999996Q78.55199999999999,47.432,76.656,47.432Q75.6,47.432,74.952,48.032Q74.304,48.632000000000005,74.00399999999999,49.784Q73.70400000000001,50.936,73.70400000000001,52.616Q73.70400000000001,55.16,74.388,56.432Q75.072,57.704,76.68,57.704ZM91.824,59L91.824,57.992000000000004L91.896,57.992000000000004Q92.448,57.992000000000004,92.892,57.872Q93.336,57.751999999999995,93.6,57.379999999999995Q93.864,57.007999999999996,93.864,56.263999999999996L93.864,48.775999999999996Q93.864,48.056,93.588,47.708Q93.312,47.36,92.868,47.252Q92.424,47.144,91.896,47.144L91.824,47.144L91.824,46.135999999999996L95.52,46.135999999999996L95.976,48.512L96.096,48.512Q96.408,47.792,96.768,47.192Q97.128,46.592,97.728,46.244Q98.328,45.896,99.384,45.896Q100.704,45.896,101.34,46.352000000000004Q101.976,46.808,101.976,47.647999999999996Q101.976,48.391999999999996,101.46,48.872Q100.944,49.352000000000004,99.744,49.352000000000004Q99.744,48.68,99.624,48.272Q99.504,47.864000000000004,99.228,47.672Q98.952,47.480000000000004,98.472,47.480000000000004Q97.8,47.480000000000004,97.344,48.007999999999996Q96.888,48.536,96.624,49.352000000000004Q96.36,50.168,96.24,51.044Q96.12,51.92,96.12,52.616L96.12,56.384Q96.12,57.08,96.396,57.428Q96.672,57.775999999999996,97.116,57.884Q97.56,57.992000000000004,98.088,57.992000000000004L98.76,57.992000000000004L98.76,59L91.824,59ZM109.224,59.239999999999995Q106.632,59.239999999999995,105.144,57.584Q103.656,55.928,103.656,52.544Q103.656,49.184,105.084,47.54Q106.512,45.896,109.296,45.896Q111.888,45.896,113.376,47.54Q114.864,49.184,114.864,52.544Q114.864,55.928,113.436,57.584Q112.008,59.239999999999995,109.224,59.239999999999995ZM109.272,57.992000000000004Q110.472,57.992000000000004,111.192,57.379999999999995Q111.912,56.768,112.224,55.544Q112.536,54.32,112.536,52.544Q112.536,49.856,111.792,48.512Q111.048,47.168,109.248,47.168Q107.448,47.168,106.716,48.512Q105.984,49.856,105.984,52.544Q105.984,55.232,106.728,56.611999999999995Q107.472,57.992000000000004,109.272,57.992000000000004ZM122.736,59.239999999999995Q120.84,59.239999999999995,119.808,58.123999999999995Q118.776,57.007999999999996,118.776,54.536L118.776,48.775999999999996Q118.776,48.056,118.5,47.708Q118.224,47.36,117.78,47.252Q117.336,47.144,116.808,47.144L116.736,47.144L116.736,46.135999999999996L121.032,46.135999999999996L121.032,54.416Q121.032,55.448,121.26,56.192Q121.488,56.936,122.04,57.32Q122.592,57.704,123.552,57.704Q124.608,57.704,125.28,57.212Q125.952,56.72,126.264,55.844Q126.576,54.968,126.576,53.816L126.576,48.872Q126.576,48.104,126.312,47.744Q126.048,47.384,125.604,47.263999999999996Q125.16,47.144,124.608,47.144L124.536,47.144L124.536,46.135999999999996L128.832,46.135999999999996L128.832,56.384Q128.832,57.08,129.108,57.428Q129.38400000000001,57.775999999999996,129.828,57.884Q130.272,57.992000000000004,130.8,57.992000000000004L130.872,57.992000000000004L130.872,59L127.056,59L126.744,57.056L126.624,57.056Q125.88,58.4,124.896,58.82Q123.912,59.239999999999995,122.736,59.239999999999995ZM137.184,59.239999999999995Q135.36,59.239999999999995,134.53199999999998,58.412Q133.704,57.584,133.704,55.519999999999996L133.704,47.504L131.88,47.504L131.88,46.544Q132.312,46.544,132.84,46.364000000000004Q133.368,46.184,133.752,45.775999999999996Q134.16,45.344,134.424,44.72Q134.688,44.096000000000004,134.856,43.184L135.95999999999998,43.184L135.95999999999998,46.135999999999996L139.10399999999998,46.135999999999996L139.10399999999998,47.504L135.95999999999998,47.504L135.95999999999998,55.592Q135.95999999999998,56.816,136.464,57.391999999999996Q136.96800000000002,57.968,137.784,57.968Q138.216,57.968,138.576,57.92Q138.936,57.872,139.32,57.8L139.32,58.856Q139.00799999999998,59,138.38400000000001,59.120000000000005Q137.76,59.239999999999995,137.184,59.239999999999995ZM146.76,59.239999999999995Q144.144,59.239999999999995,142.668,57.512Q141.192,55.784,141.192,52.664Q141.192,49.304,142.584,47.6Q143.976,45.896,146.51999999999998,45.896Q148.848,45.896,150.18,47.336Q151.512,48.775999999999996,151.512,51.632000000000005L151.512,52.736000000000004L143.51999999999998,52.736000000000004Q143.56799999999998,55.352000000000004,144.46800000000002,56.54Q145.368,57.728,147.096,57.728Q148.344,57.728,149.22,57.212Q150.096,56.696,150.52800000000002,56.048Q150.696,56.120000000000005,150.84,56.336Q150.98399999999998,56.552,150.98399999999998,56.864000000000004Q150.98399999999998,57.344,150.52800000000002,57.896Q150.072,58.448,149.136,58.844Q148.2,59.239999999999995,146.76,59.239999999999995ZM149.088,51.44Q149.088,49.519999999999996,148.5,48.356Q147.912,47.192,146.47199999999998,47.192Q145.152,47.192,144.42000000000002,48.284Q143.688,49.376000000000005,143.56799999999998,51.44L149.088,51.44Z" fill="#FFFFFF" fill-opacity="1"/></g></g><g><g><rect x="24" y="917" width="134" height="48" rx="24" fill="#454546" fill-opacity="1"/><g><path d="M80.00337,937.91815Q79.91246,937.11364,79.25506,936.66823Q78.59774,936.22274,77.5989,936.22274Q76.88299,936.22274,76.35964,936.44602Q75.83638,936.6693,75.54998,937.05913Q75.26367,937.44886,75.26252,937.94549Q75.26021,938.36026,75.45738,938.65971Q75.65456,938.95907,75.97496,939.16078Q76.29545,939.36248,76.66477,939.49547Q77.03409,939.62837,77.37615,939.7136L78.51252,940.00906Q79.06933,940.14542,79.65456,940.38068Q80.23979,940.6159,80.73864,940.9949Q81.23748,941.3738,81.54714,941.9363Q81.85679999999999,942.4988,81.85795,943.2864Q81.85679999999999,944.2704,81.34996,945.0386Q80.84322,945.8068,79.88015,946.2488Q78.91708,946.6909,77.54883,946.6909Q76.24547,946.6909,75.2903,946.2784Q74.33523,945.8659,73.79483,945.1017Q73.25453,944.3375,73.19886,943.2818L74.96253,943.2818Q75.01367,943.9159,75.37269,944.3319Q75.73179999999999,944.7477,76.29829,944.9512Q76.86479,945.1546,77.53977,945.1546Q78.2864,945.1546,78.86816,944.9182Q79.45002,944.6818,79.78524,944.258Q80.12047,943.8341,80.12162000000001,943.2682Q80.12047,942.7512,79.82786,942.4199Q79.53524,942.0886,79.03631,941.8745Q78.53746,941.6602,77.91708,941.4955L76.53977,941.1182Q75.13974,940.7375,74.32554999999999,939.99831Q73.51136,939.25906,73.51252,938.04545Q73.51136,937.04208,74.0562,936.29155Q74.60112,935.54093,75.53462,935.12278Q76.46822,934.70455,77.63521,934.70455Q78.81703,934.70455,79.72265,935.11932Q80.62837,935.53409,81.15163,936.25968Q81.67498,936.98526,81.69886,937.91815L80.00337,937.91815ZM86.358,946.6909Q85.5273,946.6909,84.85849999999999,946.3835Q84.1898,946.0762,83.7988,945.4841Q83.4079,944.892,83.4079,944.0364Q83.4079,943.2931,83.6932,942.8165Q83.9784,942.3398,84.4614,942.0613Q84.9443,941.7829,85.5403,941.642Q86.1364,941.5012,86.758,941.4273Q87.5409,941.3341,88.0278,941.2744Q88.5147,941.2148,88.7386,941.0802Q88.9625,940.9455,88.9625,940.6364L88.9625,940.5954Q88.9625,939.85458,88.54429999999999,939.44549Q88.1262,939.0364,87.3034,939.0364Q86.4455,939.0364,85.9529,939.41193Q85.4602,939.78746,85.2716,940.25L83.6761,939.88636Q83.9602,939.09091,84.5074,938.59943Q85.0545,938.10795,85.7716,937.88352Q86.4886,937.65909,87.2761,937.65909Q87.8,937.65909,88.3874,937.7824Q88.975,937.90572,89.4909,938.22905Q90.0068,938.55229,90.3346,939.15172Q90.6625,939.75115,90.6625,940.7045L90.6625,946.5L89.0034,946.5L89.0034,945.3091L88.9352,945.3091Q88.7739,945.6341,88.4449,945.9534Q88.1159,946.2727,87.5983,946.4818Q87.08070000000001,946.6909,86.358,946.6909ZM86.7261,945.3319Q87.4341,945.3319,87.9358,945.0523Q88.4375,944.7727,88.7022,944.3216Q88.9671,943.8705,88.9671,943.3546L88.9671,942.2273Q88.8738,942.3193,88.6165,942.3944Q88.3591,942.4693,88.0301,942.525Q87.7012,942.5807,87.3869,942.6216Q87.0727,942.6625,86.8625,942.6909Q86.3716,942.7568,85.9642,942.9029Q85.5568,943.0488,85.3142,943.3244Q85.0716,943.6,85.0716,944.0545Q85.0716,944.6863,85.5386,945.0091Q86.0057,945.3319,86.7261,945.3319ZM100.075,937.77273L96.9068,946.5L95.0886,946.5L91.9205,937.77273L93.7432,937.77273L95.9522,944.4909L96.0431,944.4909L98.2523,937.77273L100.075,937.77273ZM105.1262,946.6773Q103.8375,946.6773,102.9062,946.1222Q101.975,945.567,101.4733,944.5585Q100.9716,943.55,100.9716,942.1955Q100.9716,940.8523,101.4738,939.82955Q101.9761,938.80682,102.8817,938.23295Q103.7875,937.65909,105.0034,937.65909Q105.7466,937.65909,106.4387,937.90226Q107.13069999999999,938.14542,107.6807,938.66877Q108.23060000000001,939.19203,108.55109999999999,940.02619Q108.8716,940.8603,108.8716,942.0455L108.8716,942.6454L101.9307,942.6454L101.9307,941.3727L107.2034,941.3727Q107.2022,940.7069,106.93119999999999,940.18581Q106.6602,939.66477,106.1688,939.36426Q105.6773,939.06365,105.017,939.06365Q104.3,939.06365,103.7704,939.41193Q103.2409,939.76021,102.9529,940.32164Q102.6648,940.883,102.6625,941.5364L102.6625,942.5273Q102.6625,943.4023,102.9727,944.0159Q103.2829,944.6295,103.8398,944.9512Q104.3966,945.2727,105.1397,945.2727Q105.62729999999999,945.2727,106.0244,945.1341Q106.4216,944.9955,106.7102,944.7177Q106.9988,944.4398,107.1534,944.0273L108.7625,944.3182Q108.5693,945.0273,108.0727,945.5585Q107.5762,946.0898,106.8267,946.3835Q106.0772,946.6773,105.1262,946.6773Z" fill="#868686" fill-opacity="1"/></g></g><g><rect x="174.5" y="917.5" width="148" height="47" rx="23.5" fill-opacity="0" stroke-opacity="1" stroke="#868686" fill="none" stroke-width="1"/><g><path d="M232.992,938.64542L231.22390000000001,938.64542Q231.11701,938.07955,230.84029,937.64657Q230.56365,937.2136,230.16078,936.91424Q229.75799,936.61479,229.25906,936.462Q228.76021,936.30913,228.2057,936.30913Q227.20117,936.30913,226.4074,936.81365Q225.61364,937.31818,225.1551,938.2943Q224.69656,939.27042,224.69656,940.6818Q224.69656,942.1046,225.15625,943.0802Q225.61594,944.0557,226.40909,944.5551Q227.20224,945.0545,228.20117,945.0545Q228.75231,945.0545,229.24885,944.9051Q229.74547,944.7557,230.14888,944.4614Q230.55229,944.1671,230.83239,943.7369Q231.11248,943.3068,231.22390000000001,942.75L232.992,942.7545Q232.8534,943.6159,232.4454,944.3324Q232.0375,945.0488,231.40625,945.571Q230.77504,946.0932,229.96138,946.3762Q229.14773,946.6591,228.1875,946.6591Q226.67614,946.6591,225.49485,945.9398Q224.31365,945.2204,223.63468,943.8807Q222.955699,942.5409,222.955699,940.6818Q222.955699,938.82049,223.63752,937.48127Q224.31934,936.14205,225.50115,935.4233Q226.68297,934.70455,228.1875,934.70455Q229.11248,934.70455,229.91815,934.96937Q230.72390000000001,935.23411,231.36364,935.74263Q232.0034,936.25115,232.425,936.98073Q232.8466,937.71023,232.992,938.64542ZM237.5,946.6909Q236.6693,946.6909,236.0005,946.3835Q235.3319,946.0762,234.9409,945.4841Q234.55,944.892,234.55,944.0364Q234.55,943.2931,234.8352,942.8165Q235.1205,942.3398,235.6034,942.0613Q236.0864,941.7829,236.6824,941.642Q237.2784,941.5012,237.9,941.4273Q238.683,941.3341,239.1698,941.2744Q239.6568,941.2148,239.8807,941.0802Q240.1046,940.9455,240.1046,940.6364L240.1046,940.5954Q240.1046,939.85458,239.6863,939.44549Q239.2682,939.0364,238.4455,939.0364Q237.5875,939.0364,237.0949,939.41193Q236.6023,939.78746,236.4136,940.25L234.8182,939.88636Q235.1023,939.09091,235.6494,938.59943Q236.1966,938.10795,236.9136,937.88352Q237.6307,937.65909,238.4181,937.65909Q238.942,937.65909,239.52949999999998,937.7824Q240.117,937.90572,240.6329,938.22905Q241.1489,938.55229,241.4767,939.15172Q241.8045,939.75115,241.8045,940.7045L241.8045,946.5L240.1454,946.5L240.1454,945.3091L240.0772,945.3091Q239.9159,945.6341,239.5869,945.9534Q239.258,946.2727,238.7403,946.4818Q238.2227,946.6909,237.5,946.6909ZM237.8682,945.3319Q238.5762,945.3319,239.0779,945.0523Q239.5795,944.7727,239.8443,944.3216Q240.1091,943.8705,240.1091,943.3546L240.1091,942.2273Q240.0159,942.3193,239.7585,942.3944Q239.5012,942.4693,239.1721,942.525Q238.8432,942.5807,238.5289,942.6216Q238.2148,942.6625,238.0045,942.6909Q237.5137,942.7568,237.1063,942.9029Q236.6989,943.0488,236.4562,943.3244Q236.21359999999999,943.6,236.21359999999999,944.0545Q236.21359999999999,944.6863,236.6807,945.0091Q237.1477,945.3319,237.8682,945.3319ZM245.767,941.3182L245.767,946.5L244.067,946.5L244.067,937.77273L245.6989,937.77273L245.6989,939.19549L245.808,939.19549Q246.1103,938.49769,246.754,938.07839Q247.3977,937.65909,248.3807,937.65909Q249.275,937.65909,249.9437,938.0324Q250.6125,938.40572,250.9835,939.13752Q251.3546,939.86932,251.3534,940.95L251.3534,946.5L249.6534,946.5L249.6534,941.1546Q249.6546,940.20224,249.1608,939.66708Q248.6671,939.13184,247.8034,939.13184Q247.2125,939.13184,246.7528,939.38814Q246.2931,939.64435,246.0306,940.13352Q245.7682,940.6227,245.767,941.3182ZM257.3011,946.6773Q256.03520000000003,946.6773,255.12380000000002,946.1006Q254.2125,945.5239,253.7227,944.5075Q253.233,943.4909,253.233,942.1773Q253.233,940.8454,253.7341,939.8267Q254.2353,938.80797,255.1444,938.23358Q256.0534,937.65909,257.2829,937.65909Q258.2761,937.65909,259.055,938.02441Q259.8341,938.38974,260.3147,939.04945Q260.7955,939.70907,260.8875,940.5909L259.233,940.5909Q259.09770000000003,939.97612,258.6108,939.53356Q258.1238,939.09091,257.3102,939.09091Q256.6011,939.09091,256.0692,939.46307Q255.5375,939.83523,255.242,940.5187Q254.9466,941.2022,254.9466,942.1364Q254.9466,943.0886,255.2375,943.7836Q255.5284,944.4784,256.0602,944.8574Q256.5921,945.2363,257.3102,945.2363Q257.7978,945.2363,258.192,945.0585Q258.5864,944.8807,258.8563,944.5449Q259.1262,944.2091,259.233,943.7363L260.8875,943.7363Q260.7931,944.5852,260.3341,945.2495Q259.875,945.9136,259.104,946.2955Q258.3329,946.6773,257.3011,946.6773ZM266.47270000000003,946.6773Q265.1841,946.6773,264.2528,946.1222Q263.3216,945.567,262.8199,944.5585Q262.3182,943.55,262.3182,942.1955Q262.3182,940.8523,262.8204,939.82955Q263.3227,938.80682,264.2283,938.23295Q265.1341,937.65909,266.35,937.65909Q267.0932,937.65909,267.78520000000003,937.90226Q268.4773,938.14542,269.02729999999997,938.66877Q269.5772,939.19203,269.8977,940.02619Q270.2182,940.8603,270.2182,942.0455L270.2182,942.6454L263.27729999999997,942.6454L263.27729999999997,941.3727L268.55,941.3727Q268.5488,940.7069,268.2778,940.18581Q268.0068,939.66477,267.5154,939.36426Q267.0239,939.06365,266.3636,939.06365Q265.6466,939.06365,265.117,939.41193Q264.5875,939.76021,264.2994,940.32164Q264.0114,940.883,264.0091,941.5364L264.0091,942.5273Q264.0091,943.4023,264.3192,944.0159Q264.6295,944.6295,265.1863,944.9512Q265.7432,945.2727,266.4863,945.2727Q266.9739,945.2727,267.371,945.1341Q267.7682,944.9955,268.0568,944.7177Q268.3454,944.4398,268.5,944.0273L270.1091,944.3182Q269.9159,945.0273,269.4193,945.5585Q268.9228,946.0898,268.1733,946.3835Q267.4238,946.6773,266.47270000000003,946.6773ZM273.8068,934.86364L273.8068,946.5L272.1068,946.5L272.1068,934.86364L273.8068,934.86364Z" fill="#868686" fill-opacity="1"/></g></g></g><g><path d="M170.25001,293L166.6591,293L166.6591,281.36364L170.4091,281.36364Q172.10228,281.36364,173.30683,282.05966Q174.51137,282.75568,175.1534,284.05398Q175.7955,285.35227,175.7955,287.1591Q175.7955,288.9773,175.1477,290.2869Q174.50001,291.5966,173.26137,292.2983Q172.02274,293,170.25001,293ZM168.06819,291.75L170.1591,291.75Q171.60228,291.75,172.55114,291.1932Q173.50001,290.6364,173.96592,289.608Q174.43183,288.5795,174.43183,287.1591Q174.43183,285.75,173.9716,284.73011Q173.51137,283.71023,172.5966,283.16193Q171.68183,282.61364,170.31819,282.61364L168.06819,282.61364L168.06819,291.75ZM177.9773,293L177.9773,284.27273L179.2727,284.27273L179.2727,285.59091L179.3636,285.59091Q179.6023,284.94318,180.2273,284.53977Q180.8523,284.13636,181.6364,284.13636Q181.7841,284.13636,182.0057,284.14205Q182.2273,284.14773,182.3409,284.15909L182.3409,285.52273Q182.2727,285.50568,182.0313,285.46875Q181.7898,285.43182,181.5227,285.43182Q180.8864,285.43182,180.3892,285.69602Q179.8921,285.96023,179.6051,286.4233Q179.3182,286.88636,179.3182,287.4773L179.3182,293L177.9773,293ZM186.5,293.2045Q185.6705,293.2045,184.9943,292.8892Q184.3182,292.5739,183.9205,291.9744Q183.5227,291.375,183.5227,290.5227Q183.5227,289.7727,183.8182,289.304Q184.1136,288.8352,184.608,288.5682Q185.1023,288.3011,185.7017,288.1676Q186.3011,288.0341,186.9091,287.9545Q187.7046,287.8523,188.2017,287.7983Q188.6989,287.7443,188.929,287.6136Q189.1591,287.483,189.1591,287.1591L189.1591,287.1136Q189.1591,286.27273,188.7017,285.80682Q188.2443,285.34091,187.3182,285.34091Q186.358,285.34091,185.8125,285.76136Q185.2671,286.18182,185.0455,286.65909L183.7727,286.20455Q184.1136,285.40909,184.6847,284.96307Q185.2557,284.51705,185.9347,284.33807Q186.6136,284.15909,187.2727,284.15909Q187.6932,284.15909,188.2415,284.25852Q188.7898,284.35795,189.304,284.66477Q189.8182,284.97159,190.1591,285.59091Q190.5,286.21023,190.5,287.25L190.5,293L189.1591,293L189.1591,291.8182L189.0909,291.8182Q188.9546,292.1023,188.6364,292.4261Q188.3182,292.75,187.7898,292.9773Q187.2614,293.2045,186.5,293.2045ZM186.7046,292Q187.5,292,188.0483,291.6875Q188.5966,291.375,188.8778,290.8807Q189.1591,290.3864,189.1591,289.8409L189.1591,288.6136Q189.0739,288.7159,188.7869,288.7983Q188.5,288.8807,188.1278,288.9403Q187.7557,289,187.4063,289.0426Q187.0568,289.0852,186.8409,289.1136Q186.3182,289.1818,185.8665,289.3324Q185.4148,289.483,185.1392,289.7812Q184.8636,290.0795,184.8636,290.5909Q184.8636,291.2898,185.3835,291.6449Q185.9034,292,186.7046,292ZM196.4773,296.4545Q195.5057,296.4545,194.8068,296.2074Q194.108,295.9602,193.6449,295.5597Q193.1818,295.1591,192.9091,294.7045L193.9773,293.9545Q194.1591,294.1932,194.4375,294.5028Q194.7159,294.8125,195.2017,295.0426Q195.6875,295.2727,196.4773,295.2727Q197.5341,295.2727,198.2216,294.7614Q198.9091,294.25,198.9091,293.1591L198.9091,291.3864L198.7955,291.3864Q198.6477,291.625,198.3778,291.9744Q198.108,292.3239,197.6051,292.5938Q197.1023,292.8636,196.25,292.8636Q195.1932,292.8636,194.3551,292.3636Q193.5171,291.8636,193.0313,290.9091Q192.5455,289.9545,192.5455,288.5909Q192.5455,287.25,193.0171,286.25284Q193.4886,285.25568,194.3296,284.70739Q195.1705,284.15909,196.2727,284.15909Q197.125,284.15909,197.6278,284.44034Q198.1307,284.72159,198.4006,285.0767Q198.6705,285.43182,198.8182,285.65909L198.9546,285.65909L198.9546,284.27273L200.25,284.27273L200.25,293.25Q200.25,294.375,199.7415,295.0824Q199.233,295.7898,198.3778,296.1222Q197.5227,296.4545,196.4773,296.4545ZM196.4318,291.6591Q197.2386,291.6591,197.7955,291.2898Q198.3523,290.9205,198.6421,290.2273Q198.9318,289.5341,198.9318,288.5682Q198.9318,287.625,198.6477,286.90341Q198.3636,286.18182,197.8068,285.77273Q197.25,285.36364,196.4318,285.36364Q195.5796,285.36364,195.0142,285.79545Q194.4489,286.22727,194.1676,286.95455Q193.8864,287.6818,193.8864,288.5682Q193.8864,289.4773,194.1733,290.1733Q194.4602,290.8693,195.0256,291.2642Q195.5909,291.6591,196.4318,291.6591ZM209.7727,293.2045Q208.9432,293.2045,208.2671,292.8892Q207.5909,292.5739,207.1932,291.9744Q206.7955,291.375,206.7955,290.5227Q206.7955,289.7727,207.0909,289.304Q207.3864,288.8352,207.8807,288.5682Q208.375,288.3011,208.9744,288.1676Q209.5739,288.0341,210.1818,287.9545Q210.9773,287.8523,211.4744,287.7983Q211.9716,287.7443,212.20170000000002,287.6136Q212.4318,287.483,212.4318,287.1591L212.4318,287.1136Q212.4318,286.27273,211.9744,285.80682Q211.5171,285.34091,210.5909,285.34091Q209.6307,285.34091,209.0852,285.76136Q208.5398,286.18182,208.3182,286.65909L207.0455,286.20455Q207.3864,285.40909,207.9574,284.96307Q208.5284,284.51705,209.2074,284.33807Q209.8864,284.15909,210.5455,284.15909Q210.9659,284.15909,211.51420000000002,284.25852Q212.0625,284.35795,212.57670000000002,284.66477Q213.0909,284.97159,213.4318,285.59091Q213.7727,286.21023,213.7727,287.25L213.7727,293L212.4318,293L212.4318,291.8182L212.3636,291.8182Q212.2273,292.1023,211.9091,292.4261Q211.5909,292.75,211.0625,292.9773Q210.5341,293.2045,209.7727,293.2045ZM209.9773,292Q210.7727,292,211.321,291.6875Q211.8693,291.375,212.1506,290.8807Q212.4318,290.3864,212.4318,289.8409L212.4318,288.6136Q212.3466,288.7159,212.0597,288.7983Q211.7727,288.8807,211.4006,288.9403Q211.0284,289,210.679,289.0426Q210.3296,289.0852,210.1136,289.1136Q209.5909,289.1818,209.13920000000002,289.3324Q208.6875,289.483,208.4119,289.7812Q208.1364,290.0795,208.1364,290.5909Q208.1364,291.2898,208.6563,291.6449Q209.1761,292,209.9773,292ZM217.5682,287.75L217.5682,293L216.2273,293L216.2273,284.27273L217.5227,284.27273L217.5227,285.63636L217.6364,285.63636Q217.9432,284.97159,218.5682,284.56534Q219.1932,284.15909,220.1818,284.15909Q221.0682,284.15909,221.733,284.51989Q222.3977,284.88068,222.7671,285.6108Q223.1364,286.34091,223.1364,287.4545L223.1364,293L221.7955,293L221.7955,287.5455Q221.7955,286.51705,221.2614,285.94034Q220.7273,285.36364,219.7955,285.36364Q219.1534,285.36364,218.6506,285.64205Q218.1477,285.92045,217.858,286.45455Q217.5682,286.98864,217.5682,287.75ZM228.8864,293.1818Q227.7955,293.1818,226.9602,292.6278Q226.125,292.0739,225.6534,291.0597Q225.1818,290.0455,225.1818,288.6591Q225.1818,287.2841,225.6534,286.27273Q226.125,285.26136,226.9659,284.71023Q227.8068,284.15909,228.9091,284.15909Q229.76139999999998,284.15909,230.2585,284.44034Q230.7557,284.72159,231.0199,285.0767Q231.2841,285.43182,231.4318,285.65909L231.5455,285.65909L231.5455,281.36364L232.88639999999998,281.36364L232.88639999999998,293L231.5909,293L231.5909,291.6591L231.4318,291.6591Q231.2841,291.8977,231.01139999999998,292.2585Q230.73860000000002,292.6193,230.233,292.9006Q229.7273,293.1818,228.8864,293.1818ZM229.0682,291.9773Q229.875,291.9773,230.4318,291.554Q230.98860000000002,291.1307,231.2784,290.3778Q231.5682,289.625,231.5682,288.6364Q231.5682,287.6591,231.2841,286.9233Q231,286.1875,230.4432,285.77557Q229.88639999999998,285.36364,229.0682,285.36364Q228.2159,285.36364,227.6506,285.7983Q227.0852,286.23295,226.804,286.97443Q226.5227,287.7159,226.5227,288.6364Q226.5227,289.5682,226.8097,290.3267Q227.0966,291.0852,227.6619,291.5312Q228.2273,291.9773,229.0682,291.9773ZM243.3182,293.1818Q242.2273,293.1818,241.3921,292.6278Q240.5568,292.0739,240.0852,291.0597Q239.61360000000002,290.0455,239.61360000000002,288.6591Q239.61360000000002,287.2841,240.0852,286.27273Q240.5568,285.26136,241.3977,284.71023Q242.23860000000002,284.15909,243.3409,284.15909Q244.1932,284.15909,244.6904,284.44034Q245.1875,284.72159,245.45170000000002,285.0767Q245.7159,285.43182,245.86360000000002,285.65909L245.9773,285.65909L245.9773,281.36364L247.3182,281.36364L247.3182,293L246.0227,293L246.0227,291.6591L245.86360000000002,291.6591Q245.7159,291.8977,245.4432,292.2585Q245.1705,292.6193,244.6648,292.9006Q244.1591,293.1818,243.3182,293.1818ZM243.5,291.9773Q244.3068,291.9773,244.86360000000002,291.554Q245.4205,291.1307,245.7102,290.3778Q246,289.625,246,288.6364Q246,287.6591,245.7159,286.9233Q245.4318,286.1875,244.875,285.77557Q244.3182,285.36364,243.5,285.36364Q242.6477,285.36364,242.0824,285.7983Q241.5171,286.23295,241.23579999999998,286.97443Q240.9546,287.7159,240.9546,288.6364Q240.9546,289.5682,241.2415,290.3267Q241.5284,291.0852,242.0938,291.5312Q242.6591,291.9773,243.5,291.9773ZM249.9546,293L249.9546,284.27273L251.25,284.27273L251.25,285.59091L251.3409,285.59091Q251.5796,284.94318,252.2046,284.53977Q252.8296,284.13636,253.61360000000002,284.13636Q253.76139999999998,284.13636,253.983,284.14205Q254.2046,284.14773,254.3182,284.15909L254.3182,285.52273Q254.25,285.50568,254.0085,285.46875Q253.7671,285.43182,253.5,285.43182Q252.86360000000002,285.43182,252.3665,285.69602Q251.8693,285.96023,251.5824,286.4233Q251.2955,286.88636,251.2955,287.4773L251.2955,293L249.9546,293ZM259.1818,293.1818Q258,293.1818,257.1108,292.6193Q256.22159999999997,292.0568,255.7244,291.0455Q255.2273,290.0341,255.2273,288.6818Q255.2273,287.3182,255.7244,286.30114Q256.22159999999997,285.28409,257.1108,284.72159Q258,284.15909,259.1818,284.15909Q260.3636,284.15909,261.2528,284.72159Q262.1421,285.28409,262.6392,286.30114Q263.1364,287.3182,263.1364,288.6818Q263.1364,290.0341,262.6392,291.0455Q262.1421,292.0568,261.2528,292.6193Q260.3636,293.1818,259.1818,293.1818ZM259.1818,291.9773Q260.0796,291.9773,260.65909999999997,291.517Q261.2386,291.0568,261.5171,290.3068Q261.7955,289.5568,261.7955,288.6818Q261.7955,287.8068,261.5171,287.0511Q261.2386,286.29545,260.65909999999997,285.82955Q260.0796,285.36364,259.1818,285.36364Q258.28409999999997,285.36364,257.7046,285.82955Q257.125,286.29545,256.84659999999997,287.0511Q256.5682,287.8068,256.5682,288.6818Q256.5682,289.5568,256.84659999999997,290.3068Q257.125,291.0568,257.7046,291.517Q258.28409999999997,291.9773,259.1818,291.9773ZM265.182,296.2727L265.182,284.27273L266.477,284.27273L266.477,285.65909L266.63599999999997,285.65909Q266.784,285.43182,267.048,285.0767Q267.313,284.72159,267.81,284.44034Q268.307,284.15909,269.159,284.15909Q270.26099999999997,284.15909,271.102,284.71023Q271.943,285.26136,272.415,286.27273Q272.88599999999997,287.2841,272.88599999999997,288.6591Q272.88599999999997,290.0455,272.415,291.0597Q271.943,292.0739,271.108,292.6278Q270.273,293.1818,269.182,293.1818Q268.341,293.1818,267.835,292.9006Q267.33,292.6193,267.057,292.2585Q266.784,291.8977,266.63599999999997,291.6591L266.523,291.6591L266.523,296.2727L265.182,296.2727ZM266.5,288.6364Q266.5,289.625,266.79,290.3778Q267.08,291.1307,267.63599999999997,291.554Q268.193,291.9773,269,291.9773Q269.841,291.9773,270.406,291.5312Q270.972,291.0852,271.259,290.3267Q271.545,289.5682,271.545,288.6364Q271.545,287.7159,271.264,286.97443Q270.983,286.23295,270.418,285.7983Q269.852,285.36364,269,285.36364Q268.182,285.36364,267.625,285.77557Q267.068,286.1875,266.784,286.9233Q266.5,287.6591,266.5,288.6364ZM283.227,284.27273L283.227,285.40909L278.705,285.40909L278.705,284.27273L283.227,284.27273ZM280.023,282.18182L281.36400000000003,282.18182L281.36400000000003,290.5Q281.36400000000003,291.0682,281.531,291.3494Q281.699,291.6307,281.96299999999997,291.7244Q282.227,291.8182,282.523,291.8182Q282.744,291.8182,282.88599999999997,291.7926Q283.028,291.767,283.11400000000003,291.75L283.38599999999997,292.9545Q283.25,293.0057,283.006,293.0597Q282.76099999999997,293.1136,282.38599999999997,293.1136Q281.818,293.1136,281.276,292.8693Q280.733,292.625,280.378,292.125Q280.023,291.625,280.023,290.8636L280.023,282.18182ZM286.773,287.75L286.773,293L285.432,293L285.432,281.36364L286.773,281.36364L286.773,285.63636L286.88599999999997,285.63636Q287.193,284.96023,287.81,284.55966Q288.426,284.15909,289.455,284.15909Q290.347,284.15909,291.017,284.5142Q291.688,284.86932,292.06,285.59943Q292.432,286.32955,292.432,287.4545L292.432,293L291.091,293L291.091,287.5455Q291.091,286.50568,290.554,285.93466Q290.017,285.36364,289.068,285.36364Q288.409,285.36364,287.889,285.64205Q287.369,285.92045,287.071,286.45455Q286.773,286.98864,286.773,287.75ZM298.54499999999996,293.1818Q297.284,293.1818,296.372,292.6222Q295.46000000000004,292.0625,294.969,291.054Q294.477,290.0455,294.477,288.7045Q294.477,287.3636,294.969,286.33807Q295.46000000000004,285.3125,296.344,284.7358Q297.227,284.15909,298.409,284.15909Q299.091,284.15909,299.756,284.38636Q300.41999999999996,284.61364,300.966,285.12216Q301.51099999999997,285.63068,301.83500000000004,286.46591Q302.159,287.3011,302.159,288.5227L302.159,289.0909L295.432,289.0909L295.432,287.9318L300.79499999999996,287.9318Q300.79499999999996,287.1932,300.503,286.61364Q300.21000000000004,286.03409,299.673,285.69886Q299.13599999999997,285.36364,298.409,285.36364Q297.608,285.36364,297.026,285.75852Q296.443,286.15341,296.131,286.78409Q295.818,287.4148,295.818,288.1364L295.818,288.9091Q295.818,289.8977,296.16200000000003,290.5824Q296.506,291.267,297.119,291.6222Q297.733,291.9773,298.54499999999996,291.9773Q299.074,291.9773,299.503,291.8267Q299.932,291.6761,300.244,291.3722Q300.557,291.0682,300.727,290.6136L302.023,290.9773Q301.818,291.6364,301.33500000000004,292.1335Q300.852,292.6307,300.142,292.9062Q299.432,293.1818,298.54499999999996,293.1818ZM308.70500000000004,296.2727L308.70500000000004,284.27273L310,284.27273L310,285.65909L310.159,285.65909Q310.307,285.43182,310.571,285.0767Q310.83500000000004,284.72159,311.332,284.44034Q311.83000000000004,284.15909,312.682,284.15909Q313.784,284.15909,314.625,284.71023Q315.466,285.26136,315.938,286.27273Q316.409,287.2841,316.409,288.6591Q316.409,290.0455,315.938,291.0597Q315.466,292.0739,314.631,292.6278Q313.79499999999996,293.1818,312.70500000000004,293.1818Q311.86400000000003,293.1818,311.358,292.9006Q310.852,292.6193,310.58000000000004,292.2585Q310.307,291.8977,310.159,291.6591L310.04499999999996,291.6591L310.04499999999996,296.2727L308.70500000000004,296.2727ZM310.023,288.6364Q310.023,289.625,310.312,290.3778Q310.602,291.1307,311.159,291.554Q311.716,291.9773,312.523,291.9773Q313.36400000000003,291.9773,313.929,291.5312Q314.494,291.0852,314.781,290.3267Q315.068,289.5682,315.068,288.6364Q315.068,287.7159,314.78700000000003,286.97443Q314.506,286.23295,313.94,285.7983Q313.375,285.36364,312.523,285.36364Q311.70500000000004,285.36364,311.148,285.77557Q310.591,286.1875,310.307,286.9233Q310.023,287.6591,310.023,288.6364ZM322,293.1818Q320.818,293.1818,319.929,292.6193Q319.03999999999996,292.0568,318.543,291.0455Q318.04499999999996,290.0341,318.04499999999996,288.6818Q318.04499999999996,287.3182,318.543,286.30114Q319.03999999999996,285.28409,319.929,284.72159Q320.818,284.15909,322,284.15909Q323.182,284.15909,324.071,284.72159Q324.96000000000004,285.28409,325.457,286.30114Q325.95500000000004,287.3182,325.95500000000004,288.6818Q325.95500000000004,290.0341,325.457,291.0455Q324.96000000000004,292.0568,324.071,292.6193Q323.182,293.1818,322,293.1818ZM322,291.9773Q322.898,291.9773,323.477,291.517Q324.057,291.0568,324.33500000000004,290.3068Q324.61400000000003,289.5568,324.61400000000003,288.6818Q324.61400000000003,287.8068,324.33500000000004,287.0511Q324.057,286.29545,323.477,285.82955Q322.898,285.36364,322,285.36364Q321.102,285.36364,320.523,285.82955Q319.943,286.29545,319.66499999999996,287.0511Q319.38599999999997,287.8068,319.38599999999997,288.6818Q319.38599999999997,289.5568,319.66499999999996,290.3068Q319.943,291.0568,320.523,291.517Q321.102,291.9773,322,291.9773ZM328,293L328,284.27273L329.341,284.27273L329.341,293L328,293ZM328.682,282.81818Q328.28999999999996,282.81818,328.009,282.55114Q327.727,282.28409,327.727,281.90909Q327.727,281.53409,328.009,281.26705Q328.28999999999996,281,328.682,281Q329.074,281,329.355,281.26705Q329.63599999999997,281.53409,329.63599999999997,281.90909Q329.63599999999997,282.28409,329.355,282.55114Q329.074,282.81818,328.682,282.81818ZM333.13599999999997,287.75L333.13599999999997,293L331.79499999999996,293L331.79499999999996,284.27273L333.091,284.27273L333.091,285.63636L333.20500000000004,285.63636Q333.51099999999997,284.97159,334.13599999999997,284.56534Q334.76099999999997,284.15909,335.75,284.15909Q336.63599999999997,284.15909,337.301,284.51989Q337.966,284.88068,338.33500000000004,285.6108Q338.70500000000004,286.34091,338.70500000000004,287.4545L338.70500000000004,293L337.36400000000003,293L337.36400000000003,287.5455Q337.36400000000003,286.51705,336.83000000000004,285.94034Q336.29499999999996,285.36364,335.36400000000003,285.36364Q334.722,285.36364,334.219,285.64205Q333.716,285.92045,333.426,286.45455Q333.13599999999997,286.98864,333.13599999999997,287.75ZM344.95500000000004,284.27273L344.95500000000004,285.40909L340.432,285.40909L340.432,284.27273L344.95500000000004,284.27273ZM341.75,282.18182L343.091,282.18182L343.091,290.5Q343.091,291.0682,343.259,291.3494Q343.426,291.6307,343.69,291.7244Q343.95500000000004,291.8182,344.25,291.8182Q344.472,291.8182,344.61400000000003,291.7926Q344.756,291.767,344.841,291.75L345.11400000000003,292.9545Q344.977,293.0057,344.733,293.0597Q344.48900000000003,293.1136,344.11400000000003,293.1136Q343.54499999999996,293.1136,343.003,292.8693Q342.46000000000004,292.625,342.105,292.125Q341.75,291.625,341.75,290.8636L341.75,282.18182ZM353,286.22727L351.79499999999996,286.56818Q351.682,286.26705,351.46299999999997,285.98011Q351.244,285.69318,350.869,285.50568Q350.494,285.31818,349.909,285.31818Q349.108,285.31818,348.577,285.68466Q348.04499999999996,286.05114,348.04499999999996,286.61364Q348.04499999999996,287.1136,348.409,287.4034Q348.773,287.6932,349.54499999999996,287.8864L350.841,288.2045Q352.01099999999997,288.4886,352.58500000000004,289.071Q353.159,289.6534,353.159,290.5682Q353.159,291.3182,352.73,291.9091Q352.301,292.5,351.534,292.8409Q350.767,293.1818,349.75,293.1818Q348.41499999999996,293.1818,347.53999999999996,292.6023Q346.66499999999996,292.0227,346.432,290.9091L347.70500000000004,290.5909Q347.88599999999997,291.2955,348.395,291.6477Q348.903,292,349.727,292Q350.66499999999996,292,351.219,291.5994Q351.773,291.1989,351.773,290.6364Q351.773,290.1818,351.45500000000004,289.8722Q351.13599999999997,289.5625,350.477,289.4091L349.023,289.0682Q347.824,288.7841,347.264,288.1847Q346.70500000000004,287.5852,346.70500000000004,286.68182Q346.70500000000004,285.94318,347.122,285.375Q347.53999999999996,284.80682,348.264,284.48295Q348.98900000000003,284.15909,349.909,284.15909Q351.20500000000004,284.15909,351.946,284.72727Q352.688,285.29545,353,286.22727ZM359.86400000000003,293L359.86400000000003,281.36364L361.20500000000004,281.36364L361.20500000000004,285.65909L361.318,285.65909Q361.466,285.43182,361.73,285.0767Q361.994,284.72159,362.491,284.44034Q362.98900000000003,284.15909,363.841,284.15909Q364.943,284.15909,365.784,284.71023Q366.625,285.26136,367.097,286.27273Q367.568,287.2841,367.568,288.6591Q367.568,290.0455,367.097,291.0597Q366.625,292.0739,365.78999999999996,292.6278Q364.95500000000004,293.1818,363.86400000000003,293.1818Q363.023,293.1818,362.517,292.9006Q362.01099999999997,292.6193,361.73900000000003,292.2585Q361.466,291.8977,361.318,291.6591L361.159,291.6591L361.159,293L359.86400000000003,293ZM361.182,288.6364Q361.182,289.625,361.472,290.3778Q361.76099999999997,291.1307,362.318,291.554Q362.875,291.9773,363.682,291.9773Q364.523,291.9773,365.08799999999997,291.5312Q365.653,291.0852,365.94,290.3267Q366.227,289.5682,366.227,288.6364Q366.227,287.7159,365.946,286.97443Q365.66499999999996,286.23295,365.099,285.7983Q364.534,285.36364,363.682,285.36364Q362.86400000000003,285.36364,362.307,285.77557Q361.75,286.1875,361.466,286.9233Q361.182,287.6591,361.182,288.6364ZM373.273,293.1818Q372.01099999999997,293.1818,371.099,292.6222Q370.187,292.0625,369.696,291.054Q369.20500000000004,290.0455,369.20500000000004,288.7045Q369.20500000000004,287.3636,369.696,286.33807Q370.187,285.3125,371.071,284.7358Q371.95500000000004,284.15909,373.13599999999997,284.15909Q373.818,284.15909,374.483,284.38636Q375.148,284.61364,375.693,285.12216Q376.23900000000003,285.63068,376.562,286.46591Q376.88599999999997,287.3011,376.88599999999997,288.5227L376.88599999999997,289.0909L370.159,289.0909L370.159,287.9318L375.523,287.9318Q375.523,287.1932,375.23,286.61364Q374.937,286.03409,374.401,285.69886Q373.86400000000003,285.36364,373.13599999999997,285.36364Q372.33500000000004,285.36364,371.753,285.75852Q371.16999999999996,286.15341,370.858,286.78409Q370.54499999999996,287.4148,370.54499999999996,288.1364L370.54499999999996,288.9091Q370.54499999999996,289.8977,370.889,290.5824Q371.233,291.267,371.847,291.6222Q372.46000000000004,291.9773,373.273,291.9773Q373.801,291.9773,374.23,291.8267Q374.659,291.6761,374.972,291.3722Q375.284,291.0682,375.45500000000004,290.6136L376.75,290.9773Q376.54499999999996,291.6364,376.062,292.1335Q375.58000000000004,292.6307,374.869,292.9062Q374.159,293.1818,373.273,293.1818ZM380.273,281.36364L380.273,293L378.932,293L378.932,281.36364L380.273,281.36364ZM386.273,293.1818Q385.091,293.1818,384.202,292.6193Q383.312,292.0568,382.815,291.0455Q382.318,290.0341,382.318,288.6818Q382.318,287.3182,382.815,286.30114Q383.312,285.28409,384.202,284.72159Q385.091,284.15909,386.273,284.15909Q387.45500000000004,284.15909,388.344,284.72159Q389.233,285.28409,389.73,286.30114Q390.227,287.3182,390.227,288.6818Q390.227,290.0341,389.73,291.0455Q389.233,292.0568,388.344,292.6193Q387.45500000000004,293.1818,386.273,293.1818ZM386.273,291.9773Q387.16999999999996,291.9773,387.75,291.517Q388.33000000000004,291.0568,388.608,290.3068Q388.88599999999997,289.5568,388.88599999999997,288.6818Q388.88599999999997,287.8068,388.608,287.0511Q388.33000000000004,286.29545,387.75,285.82955Q387.16999999999996,285.36364,386.273,285.36364Q385.375,285.36364,384.79499999999996,285.82955Q384.216,286.29545,383.938,287.0511Q383.659,287.8068,383.659,288.6818Q383.659,289.5568,383.938,290.3068Q384.216,291.0568,384.79499999999996,291.517Q385.375,291.9773,386.273,291.9773ZM393.95500000000004,293L391.29499999999996,284.27273L392.70500000000004,284.27273L394.591,290.9545L394.682,290.9545L396.54499999999996,284.27273L397.977,284.27273L399.818,290.9318L399.909,290.9318L401.79499999999996,284.27273L403.20500000000004,284.27273L400.54499999999996,293L399.227,293L397.318,286.29545L397.182,286.29545L395.273,293L393.95500000000004,293Z" fill="#F4F7FF" fill-opacity="1"/></g><g><g><rect x="24" y="98" width="520" height="154" rx="16" fill="#363F4F" fill-opacity="1"/></g><g><rect x="163.5" y="145.5" width="59" height="59" rx="29.5" fill-opacity="0" stroke-opacity="1" stroke="#F4F7FF" fill="none" stroke-width="1"/><g><path d="M187.756,182L187.756,180.248L191.764,175.61599999999999Q193.036,174.128,193.78,173.036Q194.524,171.944,194.848,170.96Q195.172,169.976,195.172,168.872Q195.172,167.96,194.908,167.276Q194.644,166.592,194.10399999999998,166.208Q193.564,165.824,192.724,165.824Q191.644,165.824,191.068,166.328Q190.492,166.832,190.288,167.636Q190.084,168.44,190.084,169.4Q189.508,169.4,189.04,169.268Q188.572,169.136,188.296,168.788Q188.02,168.44,188.02,167.84Q188.02,166.904,188.548,166.184Q189.076,165.464,190.132,165.044Q191.188,164.624,192.724,164.624Q194.236,164.624,195.328,165.11599999999999Q196.42,165.608,197.008,166.508Q197.596,167.408,197.596,168.632Q197.596,169.304,197.416,169.952Q197.236,170.6,196.9,171.248Q196.564,171.89600000000002,196.084,172.57999999999998Q195.60399999999998,173.264,194.98,174.008Q194.356,174.752,193.588,175.59199999999998L189.532,180.07999999999998L195.076,180.07999999999998Q196.156,180.07999999999998,196.54,179.528Q196.924,178.976,197.092,178.28L197.188,177.848L198.196,177.848L198.076,182L187.756,182Z" fill="#FFFFFF" fill-opacity="1"/></g></g><g><rect x="259.5" y="145.5" width="59" height="59" rx="29.5" fill-opacity="0" stroke-opacity="1" stroke="#F4F7FF" fill="none" stroke-width="1"/><g><path d="M288.22,182.24Q286.636,182.24,285.628,181.868Q284.62,181.496,284.152,180.88400000000001Q283.684,180.272,283.684,179.576Q283.684,178.856,284.104,178.448Q284.524,178.04,285.196,178.04Q285.196,179.288,285.988,180.11599999999999Q286.78,180.944,288.244,180.944Q289.204,180.944,290.008,180.572Q290.812,180.2,291.316,179.36Q291.82,178.52,291.82,177.07999999999998Q291.82,175.568,290.656,174.656Q289.492,173.744,287.476,173.744L286.708,173.744L286.708,172.52L287.476,172.52Q288.532,172.52,289.384,172.064Q290.236,171.608,290.74,170.768Q291.244,169.928,291.244,168.8Q291.244,167.38400000000001,290.656,166.60399999999998Q290.068,165.824,288.676,165.824Q287.596,165.824,287.02,166.328Q286.444,166.832,286.24,167.636Q286.036,168.44,286.036,169.4Q285.172,169.4,284.572,169.076Q283.972,168.752,283.972,167.84Q283.972,166.904,284.5,166.184Q285.028,165.464,286.084,165.044Q287.14,164.624,288.676,164.624Q290.956,164.624,292.336,165.62Q293.716,166.61599999999999,293.716,168.44Q293.716,169.52,293.212,170.42Q292.708,171.32,291.844,171.956Q290.98,172.59199999999998,289.876,172.856Q290.548,172.928,291.316,173.156Q292.084,173.38400000000001,292.76800000000003,173.864Q293.452,174.344,293.884,175.124Q294.316,175.904,294.316,177.10399999999998Q294.316,178.544,293.764,179.54Q293.212,180.536,292.3,181.124Q291.388,181.712,290.32,181.976Q289.252,182.24,288.22,182.24Z" fill="#FFFFFF" fill-opacity="1"/></g></g><g><rect x="355.5" y="145.5" width="59" height="59" rx="29.5" fill-opacity="0" stroke-opacity="1" stroke="#F4F7FF" fill="none" stroke-width="1"/><g><path d="M383.452,182L383.452,180.992L384.124,180.992Q384.676,180.992,385.12,180.872Q385.564,180.752,385.828,180.38Q386.092,180.008,386.092,179.264L386.092,177.296L378.7,177.296L378.7,176.312L386.116,164.864L388.396,164.864L388.396,175.952L391.372,175.952L391.372,177.296L388.396,177.296L388.396,179.264Q388.396,180.008,388.66,180.38Q388.924,180.752,389.38,180.872Q389.836,180.992,390.364,180.992L390.676,180.992L390.676,182L383.452,182ZM380.428,175.952L386.092,175.952L386.092,171.512Q386.092,170.816,386.104,169.94Q386.116,169.064,386.164,168.176Q386.212,167.288,386.26,166.544Q386.14,166.784,385.876,167.264Q385.612,167.744,385.276,168.308Q384.94,168.872,384.628,169.388Q384.316,169.904,384.1,170.24L380.428,175.952Z" fill="#FFFFFF" fill-opacity="1"/></g></g><g><rect x="451.5" y="145.5" width="59" height="59" rx="29.5" fill-opacity="0" stroke-opacity="1" stroke="#F4F7FF" fill="none" stroke-width="1"/><g><path d="M480.148,182.24Q478.372,182.24,477.388,181.856Q476.404,181.472,476.008,180.90800000000002Q475.612,180.344,475.612,179.816Q475.612,179.144,475.984,178.772Q476.356,178.4,477.124,178.4Q477.124,179.072,477.448,179.624Q477.772,180.176,478.42,180.5Q479.068,180.824,480.028,180.824Q481.012,180.824,481.792,180.44Q482.572,180.056,483.016,179.168Q483.46,178.28,483.46,176.768Q483.46,174.872,482.464,173.948Q481.468,173.024,479.812,173.024Q478.564,173.024,477.94,173.192Q477.316,173.36,476.86,173.552L476.284,173.38400000000001L477.052,164.864L485.068,164.864L485.188,168.488L484.18,168.488L484.084,167.768Q484.036,167.432,483.928,167.216Q483.82,167,483.556,166.892Q483.292,166.784,482.788,166.784L478.132,166.784L477.676,172.088Q477.916,171.992,478.3,171.90800000000002Q478.684,171.824,479.236,171.764Q479.788,171.704,480.484,171.704Q482.044,171.704,483.28,172.268Q484.516,172.832,485.236,173.948Q485.956,175.064,485.956,176.768Q485.956,177.752,485.704,178.59199999999998Q485.452,179.432,484.972,180.10399999999998Q484.492,180.776,483.784,181.256Q483.076,181.736,482.164,181.988Q481.252,182.24,480.148,182.24Z" fill="#FFFFFF" fill-opacity="1"/></g></g><g><rect x="67.5" y="145.5" width="59" height="59" rx="29.5" fill-opacity="0" stroke-opacity="1" stroke="#F4F7FF" fill="none" stroke-width="1"/><g><path d="M92.596,182L92.596,180.992L94.204,180.992Q94.756,180.992,95.2,180.872Q95.644,180.752,95.908,180.38Q96.172,180.008,96.172,179.264L96.172,166.664Q95.26,167.768,94.528,168.464Q93.796,169.16,93.076,169.16Q92.548,169.16,92.212,168.8Q91.876,168.44,91.876,167.864Q92.596,167.672,93.4,167.288Q94.204,166.904,95.38,166.016L97.06,164.768L98.596,164.768L98.596,179.264Q98.596,180.008,98.86,180.38Q99.124,180.752,99.58,180.872Q100.036,180.992,100.564,180.992L101.74,180.992L101.74,182L92.596,182Z" fill="#FFFFFF" fill-opacity="1"/></g></g></g></g></svg>