<svg xmlns="http://www.w3.org/2000/svg" xmlns:xlink="http://www.w3.org/1999/xlink" fill="none" version="1.1" width="568" height="1024" viewBox="0 0 568 1024"><g><rect x="0" y="0" width="568" height="1024" rx="0" fill="#252C38" fill-opacity="1"/><g><g><path d="M24.912,59L24.912,57.992000000000004L25.224,57.992000000000004Q25.752,57.992000000000004,26.196,57.884Q26.64,57.775999999999996,26.916,57.428Q27.192,57.08,27.192,56.384L27.192,44.6Q27.192,43.832,26.928,43.472Q26.664,43.112,26.22,42.992000000000004Q25.776,42.872,25.224,42.872L24.912,42.872L24.912,41.864000000000004L37.007999999999996,41.864000000000004L37.128,46.064L35.88,46.064L35.76,45.032Q35.712,44.504,35.484,44.06Q35.256,43.616,34.812,43.34Q34.368,43.064,33.647999999999996,43.064L29.616,43.064L29.616,49.448L35.4,49.448L35.4,50.623999999999995L29.616,50.623999999999995L29.616,57.8L34.248,57.8Q35.016,57.8,35.484,57.524Q35.952,57.248000000000005,36.204,56.804Q36.456,56.36,36.528,55.832L36.696,54.8L37.944,54.8L37.775999999999996,59L24.912,59ZM45.168,59.239999999999995Q43.584,59.239999999999995,42.492000000000004,58.544Q41.4,57.848,40.836,56.372Q40.272,54.896,40.272,52.592Q40.272,50.263999999999996,40.836,48.788Q41.4,47.312,42.492000000000004,46.604Q43.584,45.896,45.168,45.896Q46.56,45.896,47.436,46.484Q48.312,47.072,48.84,48.007999999999996L48.984,48.007999999999996Q48.912,47.408,48.876000000000005,46.676Q48.84,45.944,48.84,45.368L48.84,43.4Q48.84,42.68,48.564,42.332Q48.288,41.984,47.844,41.876Q47.4,41.768,46.872,41.768L46.68,41.768L46.68,40.76L51.096000000000004,40.76L51.096000000000004,56.36Q51.096000000000004,57.056,51.372,57.416Q51.647999999999996,57.775999999999996,52.092,57.884Q52.536,57.992000000000004,53.064,57.992000000000004L53.256,57.992000000000004L53.256,59L49.2,59L48.936,56.84L48.84,56.84Q48.312,57.944,47.448,58.592Q46.584,59.239999999999995,45.168,59.239999999999995ZM45.576,57.704Q47.448,57.704,48.144,56.444Q48.84,55.184,48.84,52.592Q48.84,50.096000000000004,48.144,48.763999999999996Q47.448,47.432,45.552,47.432Q44.495999999999995,47.432,43.848,48.032Q43.2,48.632000000000005,42.9,49.784Q42.6,50.936,42.6,52.616Q42.6,55.16,43.284,56.432Q43.968,57.704,45.576,57.704ZM54.239999999999995,59L54.239999999999995,57.992000000000004L54.552,57.992000000000004Q55.08,57.992000000000004,55.524,57.884Q55.968,57.775999999999996,56.244,57.428Q56.52,57.08,56.52,56.384L56.52,48.775999999999996Q56.52,48.056,56.244,47.708Q55.968,47.36,55.524,47.252Q55.08,47.144,54.552,47.144L54.480000000000004,47.144L54.480000000000004,46.135999999999996L58.776,46.135999999999996L58.776,56.263999999999996Q58.776,57.007999999999996,59.04,57.379999999999995Q59.304,57.751999999999995,59.76,57.872Q60.216,57.992000000000004,60.744,57.992000000000004L61.056,57.992000000000004L61.056,59L54.239999999999995,59ZM57.552,43.736000000000004Q56.976,43.736000000000004,56.58,43.4Q56.184,43.064,56.184,42.248Q56.184,41.408,56.58,41.084Q56.976,40.76,57.552,40.76Q58.104,40.76,58.512,41.084Q58.92,41.408,58.92,42.248Q58.92,43.064,58.512,43.4Q58.104,43.736000000000004,57.552,43.736000000000004ZM67.128,59.239999999999995Q65.304,59.239999999999995,64.476,58.412Q63.648,57.584,63.648,55.519999999999996L63.648,47.504L61.824,47.504L61.824,46.544Q62.256,46.544,62.784,46.364000000000004Q63.312,46.184,63.696,45.775999999999996Q64.104,45.344,64.368,44.72Q64.632,44.096000000000004,64.8,43.184L65.904,43.184L65.904,46.135999999999996L69.048,46.135999999999996L69.048,47.504L65.904,47.504L65.904,55.592Q65.904,56.816,66.408,57.391999999999996Q66.912,57.968,67.72800000000001,57.968Q68.16,57.968,68.52000000000001,57.92Q68.88,57.872,69.26400000000001,57.8L69.26400000000001,58.856Q68.952,59,68.328,59.120000000000005Q67.70400000000001,59.239999999999995,67.128,59.239999999999995ZM80.976,59.239999999999995Q79.92,59.239999999999995,79.068,58.82Q78.21600000000001,58.4,77.73599999999999,57.548Q77.256,56.696,77.256,55.4Q77.256,53.480000000000004,78.612,52.568Q79.968,51.656,82.72800000000001,51.56L84.72,51.488L84.72,50.048Q84.72,49.184,84.576,48.524Q84.432,47.864000000000004,83.952,47.480000000000004Q83.47200000000001,47.096000000000004,82.488,47.096000000000004Q81.576,47.096000000000004,81.096,47.432Q80.616,47.768,80.46000000000001,48.356Q80.304,48.944,80.304,49.712Q79.29599999999999,49.712,78.78,49.364000000000004Q78.26400000000001,49.016,78.26400000000001,48.2Q78.26400000000001,47.36,78.852,46.856Q79.44,46.352000000000004,80.424,46.124Q81.408,45.896,82.584,45.896Q84.792,45.896,85.884,46.832Q86.976,47.768,86.976,50.048L86.976,56.263999999999996Q86.976,56.936,87.12,57.308Q87.26400000000001,57.68,87.6,57.836Q87.936,57.992000000000004,88.464,57.992000000000004L88.536,57.992000000000004L88.536,59L85.29599999999999,59L84.912,56.936L84.72,56.936Q84.21600000000001,57.608000000000004,83.73599999999999,58.123999999999995Q83.256,58.64,82.62,58.94Q81.98400000000001,59.239999999999995,80.976,59.239999999999995ZM81.52799999999999,57.751999999999995Q82.512,57.751999999999995,83.22,57.344Q83.928,56.936,84.324,56.18Q84.72,55.424,84.72,54.416L84.72,52.472L83.184,52.544Q81.816,52.592,81.036,52.952Q80.256,53.312,79.92,53.948Q79.584,54.584,79.584,55.519999999999996Q79.584,56.263999999999996,79.8,56.756Q80.01599999999999,57.248000000000005,80.44800000000001,57.5Q80.88,57.751999999999995,81.52799999999999,57.751999999999995ZM95.328,59.239999999999995Q93.504,59.239999999999995,92.676,58.412Q91.848,57.584,91.848,55.519999999999996L91.848,47.504L90.024,47.504L90.024,46.544Q90.456,46.544,90.984,46.364000000000004Q91.512,46.184,91.896,45.775999999999996Q92.304,45.344,92.568,44.72Q92.832,44.096000000000004,93,43.184L94.104,43.184L94.104,46.135999999999996L97.248,46.135999999999996L97.248,47.504L94.104,47.504L94.104,55.592Q94.104,56.816,94.608,57.391999999999996Q95.112,57.968,95.928,57.968Q96.36,57.968,96.72,57.92Q97.08,57.872,97.464,57.8L97.464,58.856Q97.152,59,96.528,59.120000000000005Q95.904,59.239999999999995,95.328,59.239999999999995ZM103.776,59.239999999999995Q101.952,59.239999999999995,101.124,58.412Q100.296,57.584,100.296,55.519999999999996L100.296,47.504L98.472,47.504L98.472,46.544Q98.904,46.544,99.432,46.364000000000004Q99.96,46.184,100.344,45.775999999999996Q100.752,45.344,101.016,44.72Q101.28,44.096000000000004,101.448,43.184L102.552,43.184L102.552,46.135999999999996L105.696,46.135999999999996L105.696,47.504L102.552,47.504L102.552,55.592Q102.552,56.816,103.056,57.391999999999996Q103.56,57.968,104.376,57.968Q104.808,57.968,105.168,57.92Q105.528,57.872,105.912,57.8L105.912,58.856Q105.6,59,104.976,59.120000000000005Q104.352,59.239999999999995,103.776,59.239999999999995ZM113.352,59.239999999999995Q110.736,59.239999999999995,109.26,57.512Q107.784,55.784,107.784,52.664Q107.784,49.304,109.176,47.6Q110.568,45.896,113.112,45.896Q115.44,45.896,116.772,47.336Q118.104,48.775999999999996,118.104,51.632000000000005L118.104,52.736000000000004L110.112,52.736000000000004Q110.16,55.352000000000004,111.06,56.54Q111.96,57.728,113.688,57.728Q114.936,57.728,115.812,57.212Q116.688,56.696,117.12,56.048Q117.288,56.120000000000005,117.432,56.336Q117.576,56.552,117.576,56.864000000000004Q117.576,57.344,117.12,57.896Q116.664,58.448,115.728,58.844Q114.792,59.239999999999995,113.352,59.239999999999995ZM115.68,51.44Q115.68,49.519999999999996,115.092,48.356Q114.504,47.192,113.064,47.192Q111.744,47.192,111.012,48.284Q110.28,49.376000000000005,110.16,51.44L115.68,51.44ZM119.976,59L119.976,57.992000000000004L120.168,57.992000000000004Q120.72,57.992000000000004,121.164,57.872Q121.608,57.751999999999995,121.872,57.379999999999995Q122.136,57.007999999999996,122.136,56.263999999999996L122.136,48.775999999999996Q122.136,48.056,121.872,47.708Q121.608,47.36,121.176,47.252Q120.744,47.144,120.216,47.144L120.096,47.144L120.096,46.135999999999996L123.984,46.135999999999996L124.296,48.08L124.416,48.08Q124.92,47.168,125.484,46.7Q126.048,46.232,126.72,46.064Q127.392,45.896,128.16,45.896Q130.05599999999998,45.896,131.124,47.012Q132.192,48.128,132.192,50.6L132.192,56.263999999999996Q132.192,57.007999999999996,132.42000000000002,57.379999999999995Q132.648,57.751999999999995,133.05599999999998,57.872Q133.464,57.992000000000004,133.99200000000002,57.992000000000004L134.112,57.992000000000004L134.112,59L129.936,59L129.936,50.72Q129.936,49.16,129.348,48.296Q128.76,47.432,127.296,47.432Q126.216,47.432,125.58,47.972Q124.944,48.512,124.668,49.4Q124.392,50.288,124.392,51.32L124.392,56.384Q124.392,57.08,124.656,57.428Q124.92,57.775999999999996,125.352,57.884Q125.784,57.992000000000004,126.312,57.992000000000004L126.432,57.992000000000004L126.432,59L119.976,59ZM141,59.239999999999995Q139.416,59.239999999999995,138.324,58.544Q137.232,57.848,136.668,56.372Q136.10399999999998,54.896,136.10399999999998,52.592Q136.10399999999998,50.263999999999996,136.668,48.788Q137.232,47.312,138.324,46.604Q139.416,45.896,141,45.896Q142.392,45.896,143.268,46.484Q144.144,47.072,144.672,48.007999999999996L144.816,48.007999999999996Q144.744,47.408,144.708,46.676Q144.672,45.944,144.672,45.368L144.672,43.4Q144.672,42.68,144.39600000000002,42.332Q144.12,41.984,143.676,41.876Q143.232,41.768,142.704,41.768L142.512,41.768L142.512,40.76L146.928,40.76L146.928,56.36Q146.928,57.056,147.204,57.416Q147.48000000000002,57.775999999999996,147.924,57.884Q148.368,57.992000000000004,148.89600000000002,57.992000000000004L149.088,57.992000000000004L149.088,59L145.03199999999998,59L144.768,56.84L144.672,56.84Q144.144,57.944,143.28,58.592Q142.416,59.239999999999995,141,59.239999999999995ZM141.40800000000002,57.704Q143.28,57.704,143.976,56.444Q144.672,55.184,144.672,52.592Q144.672,50.096000000000004,143.976,48.763999999999996Q143.28,47.432,141.38400000000001,47.432Q140.328,47.432,139.68,48.032Q139.03199999999998,48.632000000000005,138.732,49.784Q138.43200000000002,50.936,138.43200000000002,52.616Q138.43200000000002,55.16,139.11599999999999,56.432Q139.8,57.704,141.40800000000002,57.704ZM154.44,59.239999999999995Q153.384,59.239999999999995,152.532,58.82Q151.68,58.4,151.2,57.548Q150.72,56.696,150.72,55.4Q150.72,53.480000000000004,152.076,52.568Q153.432,51.656,156.192,51.56L158.184,51.488L158.184,50.048Q158.184,49.184,158.04,48.524Q157.896,47.864000000000004,157.416,47.480000000000004Q156.936,47.096000000000004,155.952,47.096000000000004Q155.04,47.096000000000004,154.56,47.432Q154.08,47.768,153.924,48.356Q153.768,48.944,153.768,49.712Q152.76,49.712,152.244,49.364000000000004Q151.728,49.016,151.728,48.2Q151.728,47.36,152.316,46.856Q152.904,46.352000000000004,153.888,46.124Q154.872,45.896,156.048,45.896Q158.256,45.896,159.348,46.832Q160.44,47.768,160.44,50.048L160.44,56.263999999999996Q160.44,56.936,160.584,57.308Q160.728,57.68,161.064,57.836Q161.4,57.992000000000004,161.928,57.992000000000004L162,57.992000000000004L162,59L158.76,59L158.376,56.936L158.184,56.936Q157.68,57.608000000000004,157.2,58.123999999999995Q156.72,58.64,156.084,58.94Q155.448,59.239999999999995,154.44,59.239999999999995ZM154.992,57.751999999999995Q155.976,57.751999999999995,156.684,57.344Q157.392,56.936,157.788,56.18Q158.184,55.424,158.184,54.416L158.184,52.472L156.648,52.544Q155.28,52.592,154.5,52.952Q153.72,53.312,153.384,53.948Q153.048,54.584,153.048,55.519999999999996Q153.048,56.263999999999996,153.264,56.756Q153.48,57.248000000000005,153.912,57.5Q154.344,57.751999999999995,154.992,57.751999999999995ZM163.704,59L163.704,57.992000000000004L163.896,57.992000000000004Q164.448,57.992000000000004,164.892,57.872Q165.336,57.751999999999995,165.6,57.379999999999995Q165.864,57.007999999999996,165.864,56.263999999999996L165.864,48.775999999999996Q165.864,48.056,165.6,47.708Q165.336,47.36,164.904,47.252Q164.472,47.144,163.944,47.144L163.824,47.144L163.824,46.135999999999996L167.712,46.135999999999996L168.024,48.08L168.144,48.08Q168.648,47.168,169.212,46.7Q169.776,46.232,170.448,46.064Q171.12,45.896,171.888,45.896Q173.784,45.896,174.852,47.012Q175.92,48.128,175.92,50.6L175.92,56.263999999999996Q175.92,57.007999999999996,176.148,57.379999999999995Q176.376,57.751999999999995,176.784,57.872Q177.192,57.992000000000004,177.72,57.992000000000004L177.84,57.992000000000004L177.84,59L173.664,59L173.664,50.72Q173.664,49.16,173.076,48.296Q172.488,47.432,171.024,47.432Q169.944,47.432,169.308,47.972Q168.672,48.512,168.396,49.4Q168.12,50.288,168.12,51.32L168.12,56.384Q168.12,57.08,168.384,57.428Q168.648,57.775999999999996,169.08,57.884Q169.512,57.992000000000004,170.04,57.992000000000004L170.16,57.992000000000004L170.16,59L163.704,59ZM185.304,59.239999999999995Q183.72,59.239999999999995,182.484,58.568Q181.248,57.896,180.54,56.444Q179.832,54.992000000000004,179.832,52.64Q179.832,50.072,180.54,48.596000000000004Q181.248,47.12,182.46,46.507999999999996Q183.672,45.896,185.184,45.896Q186.192,45.896,187.152,46.16Q188.112,46.424,188.736,46.964Q189.36,47.504,189.36,48.344Q189.36,48.896,189.12,49.232Q188.88,49.568,188.412,49.712Q187.944,49.856,187.224,49.856Q187.224,49.088,187.044,48.464Q186.864,47.84,186.432,47.468Q186,47.096000000000004,185.184,47.096000000000004Q184.272,47.096000000000004,183.588,47.576Q182.904,48.056,182.532,49.256Q182.16,50.456,182.16,52.616Q182.16,54.32,182.532,55.448Q182.904,56.576,183.696,57.128Q184.488,57.68,185.784,57.68Q186.528,57.68,187.152,57.464Q187.776,57.248000000000005,188.244,56.864000000000004Q188.712,56.480000000000004,188.976,56Q189.168,56.144,189.276,56.372Q189.384,56.6,189.384,56.936Q189.384,57.488,188.928,58.016Q188.472,58.544,187.572,58.891999999999996Q186.672,59.239999999999995,185.304,59.239999999999995ZM197.208,59.239999999999995Q194.592,59.239999999999995,193.116,57.512Q191.64,55.784,191.64,52.664Q191.64,49.304,193.032,47.6Q194.424,45.896,196.968,45.896Q199.296,45.896,200.628,47.336Q201.96,48.775999999999996,201.96,51.632000000000005L201.96,52.736000000000004L193.968,52.736000000000004Q194.016,55.352000000000004,194.916,56.54Q195.816,57.728,197.544,57.728Q198.792,57.728,199.668,57.212Q200.544,56.696,200.976,56.048Q201.144,56.120000000000005,201.288,56.336Q201.432,56.552,201.432,56.864000000000004Q201.432,57.344,200.976,57.896Q200.52,58.448,199.584,58.844Q198.648,59.239999999999995,197.208,59.239999999999995ZM199.536,51.44Q199.536,49.519999999999996,198.948,48.356Q198.36,47.192,196.92,47.192Q195.6,47.192,194.868,48.284Q194.136,49.376000000000005,194.016,51.44L199.536,51.44ZM215.616,59.239999999999995Q214.032,59.239999999999995,212.94,58.544Q211.848,57.848,211.284,56.372Q210.72,54.896,210.72,52.592Q210.72,50.263999999999996,211.284,48.788Q211.848,47.312,212.94,46.604Q214.032,45.896,215.616,45.896Q217.008,45.896,217.884,46.484Q218.76,47.072,219.288,48.007999999999996L219.432,48.007999999999996Q219.36,47.408,219.324,46.676Q219.288,45.944,219.288,45.368L219.288,43.4Q219.288,42.68,219.012,42.332Q218.736,41.984,218.292,41.876Q217.848,41.768,217.32,41.768L217.128,41.768L217.128,40.76L221.544,40.76L221.544,56.36Q221.544,57.056,221.82,57.416Q222.096,57.775999999999996,222.54,57.884Q222.984,57.992000000000004,223.512,57.992000000000004L223.704,57.992000000000004L223.704,59L219.648,59L219.384,56.84L219.288,56.84Q218.76,57.944,217.896,58.592Q217.032,59.239999999999995,215.616,59.239999999999995ZM216.024,57.704Q217.896,57.704,218.592,56.444Q219.288,55.184,219.288,52.592Q219.288,50.096000000000004,218.592,48.763999999999996Q217.896,47.432,216,47.432Q214.944,47.432,214.296,48.032Q213.648,48.632000000000005,213.348,49.784Q213.048,50.936,213.048,52.616Q213.048,55.16,213.732,56.432Q214.416,57.704,216.024,57.704ZM231.024,59.239999999999995Q228.408,59.239999999999995,226.932,57.512Q225.456,55.784,225.456,52.664Q225.456,49.304,226.848,47.6Q228.24,45.896,230.784,45.896Q233.112,45.896,234.444,47.336Q235.776,48.775999999999996,235.776,51.632000000000005L235.776,52.736000000000004L227.784,52.736000000000004Q227.832,55.352000000000004,228.732,56.54Q229.632,57.728,231.36,57.728Q232.608,57.728,233.484,57.212Q234.36,56.696,234.792,56.048Q234.96,56.120000000000005,235.104,56.336Q235.248,56.552,235.248,56.864000000000004Q235.248,57.344,234.792,57.896Q234.336,58.448,233.4,58.844Q232.464,59.239999999999995,231.024,59.239999999999995ZM233.352,51.44Q233.352,49.519999999999996,232.764,48.356Q232.176,47.192,230.736,47.192Q229.416,47.192,228.684,48.284Q227.952,49.376000000000005,227.832,51.44L233.352,51.44ZM242.736,59.239999999999995Q240.912,59.239999999999995,240.084,58.412Q239.256,57.584,239.256,55.519999999999996L239.256,47.504L237.432,47.504L237.432,46.544Q237.864,46.544,238.392,46.364000000000004Q238.92,46.184,239.304,45.775999999999996Q239.712,45.344,239.976,44.72Q240.24,44.096000000000004,240.408,43.184L241.512,43.184L241.512,46.135999999999996L244.656,46.135999999999996L244.656,47.504L241.512,47.504L241.512,55.592Q241.512,56.816,242.016,57.391999999999996Q242.52,57.968,243.336,57.968Q243.768,57.968,244.128,57.92Q244.488,57.872,244.872,57.8L244.872,58.856Q244.56,59,243.936,59.120000000000005Q243.312,59.239999999999995,242.736,59.239999999999995ZM250.344,59.239999999999995Q249.288,59.239999999999995,248.436,58.82Q247.584,58.4,247.104,57.548Q246.624,56.696,246.624,55.4Q246.624,53.480000000000004,247.98,52.568Q249.336,51.656,252.096,51.56L254.088,51.488L254.088,50.048Q254.088,49.184,253.944,48.524Q253.8,47.864000000000004,253.32,47.480000000000004Q252.84,47.096000000000004,251.856,47.096000000000004Q250.944,47.096000000000004,250.464,47.432Q249.984,47.768,249.828,48.356Q249.672,48.944,249.672,49.712Q248.664,49.712,248.148,49.364000000000004Q247.632,49.016,247.632,48.2Q247.632,47.36,248.22,46.856Q248.808,46.352000000000004,249.792,46.124Q250.776,45.896,251.952,45.896Q254.16,45.896,255.252,46.832Q256.344,47.768,256.344,50.048L256.344,56.263999999999996Q256.344,56.936,256.488,57.308Q256.632,57.68,256.96799999999996,57.836Q257.304,57.992000000000004,257.832,57.992000000000004L257.904,57.992000000000004L257.904,59L254.664,59L254.28,56.936L254.088,56.936Q253.584,57.608000000000004,253.104,58.123999999999995Q252.624,58.64,251.988,58.94Q251.352,59.239999999999995,250.344,59.239999999999995ZM250.896,57.751999999999995Q251.88,57.751999999999995,252.588,57.344Q253.296,56.936,253.692,56.18Q254.088,55.424,254.088,54.416L254.088,52.472L252.552,52.544Q251.184,52.592,250.404,52.952Q249.624,53.312,249.288,53.948Q248.952,54.584,248.952,55.519999999999996Q248.952,56.263999999999996,249.168,56.756Q249.384,57.248000000000005,249.816,57.5Q250.248,57.751999999999995,250.896,57.751999999999995ZM259.488,59L259.488,57.992000000000004L259.8,57.992000000000004Q260.328,57.992000000000004,260.772,57.884Q261.216,57.775999999999996,261.49199999999996,57.428Q261.76800000000003,57.08,261.76800000000003,56.384L261.76800000000003,48.775999999999996Q261.76800000000003,48.056,261.49199999999996,47.708Q261.216,47.36,260.772,47.252Q260.328,47.144,259.8,47.144L259.728,47.144L259.728,46.135999999999996L264.024,46.135999999999996L264.024,56.263999999999996Q264.024,57.007999999999996,264.288,57.379999999999995Q264.552,57.751999999999995,265.00800000000004,57.872Q265.464,57.992000000000004,265.99199999999996,57.992000000000004L266.304,57.992000000000004L266.304,59L259.488,59ZM262.8,43.736000000000004Q262.224,43.736000000000004,261.828,43.4Q261.432,43.064,261.432,42.248Q261.432,41.408,261.828,41.084Q262.224,40.76,262.8,40.76Q263.352,40.76,263.76,41.084Q264.168,41.408,264.168,42.248Q264.168,43.064,263.76,43.4Q263.352,43.736000000000004,262.8,43.736000000000004ZM266.928,59L266.928,57.992000000000004L267.24,57.992000000000004Q267.79200000000003,57.992000000000004,268.236,57.872Q268.68,57.751999999999995,268.94399999999996,57.379999999999995Q269.20799999999997,57.007999999999996,269.20799999999997,56.263999999999996L269.20799999999997,43.4Q269.20799999999997,42.68,268.932,42.332Q268.656,41.984,268.212,41.876Q267.76800000000003,41.768,267.24,41.768L266.928,41.768L266.928,40.76L271.464,40.76L271.464,56.263999999999996Q271.464,57.007999999999996,271.728,57.379999999999995Q271.99199999999996,57.751999999999995,272.448,57.872Q272.904,57.992000000000004,273.432,57.992000000000004L273.744,57.992000000000004L273.744,59L266.928,59ZM279.096,59.239999999999995Q277.89599999999996,59.239999999999995,277.00800000000004,58.952Q276.12,58.664,275.628,58.1Q275.13599999999997,57.536,275.13599999999997,56.696Q275.13599999999997,56.048,275.4,55.688Q275.664,55.328,276.012,55.184Q276.36,55.04,276.648,55.04Q276.648,56.288,277.212,57.188Q277.776,58.088,279.24,58.088Q280.512,58.088,281.196,57.476Q281.88,56.864000000000004,281.88,55.903999999999996Q281.88,55.304,281.628,54.92Q281.376,54.536,280.74,54.164Q280.104,53.792,278.928,53.288Q277.704,52.736000000000004,276.9,52.22Q276.096,51.704,275.7,51.019999999999996Q275.304,50.336,275.304,49.304Q275.304,47.672,276.53999999999996,46.796Q277.776,45.92,279.81600000000003,45.92Q280.968,45.92,281.748,46.22Q282.528,46.519999999999996,282.924,47.024Q283.32,47.528,283.32,48.128Q283.32,48.775999999999996,282.876,49.172Q282.432,49.568,281.592,49.568Q281.592,48.367999999999995,281.088,47.696Q280.584,47.024,279.528,47.024Q278.304,47.024,277.776,47.564Q277.248,48.104,277.248,48.944Q277.248,49.544,277.548,49.952Q277.848,50.36,278.50800000000004,50.708Q279.168,51.056,280.224,51.488Q281.496,52.016,282.288,52.544Q283.08,53.072,283.452,53.768Q283.824,54.464,283.824,55.472Q283.824,57.344,282.528,58.292Q281.232,59.239999999999995,279.096,59.239999999999995Z" fill="#FFFFFF" fill-opacity="1"/></g><g><g><path d="M24 96C24 93.79086100067683 25.790861000676827 92 28 92L540 92C542.2091389993232 92 544 93.79086100067683 544 96L544 148C544 148 544 148 544 148L24 148C24 148 24 148 24 148Z" fill="#222834" fill-opacity="1"/><g><g><g><g><path d="M48.366479999999996,105.27273L48.366479999999996,114L47.34375,114L42.58807,107.14773L42.50284,107.14773L42.50284,114L41.44602,114L41.44602,105.27273L42.46875,105.27273L47.24148,112.142L47.3267,112.142L47.3267,105.27273L48.366479999999996,105.27273ZM52.2699,114.1534Q51.6477,114.1534,51.1406,113.9169Q50.6335,113.6804,50.3352,113.2308Q50.0369,112.7812,50.0369,112.142Q50.0369,111.5795,50.2585,111.228Q50.4801,110.8764,50.850899999999996,110.6761Q51.2216,110.4759,51.6712,110.3757Q52.1207,110.2756,52.5767,110.2159Q53.1733,110.1392,53.5462,110.0987Q53.919,110.0582,54.0916,109.9602Q54.2642,109.8622,54.2642,109.6193L54.2642,109.5852Q54.2642,108.95455,53.9212,108.60511Q53.5781,108.25568,52.8835,108.25568Q52.163399999999996,108.25568,51.7543,108.57102Q51.3452,108.88636,51.179,109.2443L50.2244,108.90341Q50.4801,108.30682,50.9084,107.9723Q51.336600000000004,107.63777999999999,51.8459,107.50355Q52.3551,107.36932,52.8494,107.36932Q53.1648,107.36932,53.576,107.44389Q53.9872,107.51847000000001,54.3729,107.74858Q54.7585,107.97869,55.0142,108.44318Q55.2699,108.90767,55.2699,109.6875L55.2699,114L54.2642,114L54.2642,113.1136L54.2131,113.1136Q54.1108,113.3267,53.8722,113.5696Q53.6335,113.8125,53.2372,113.983Q52.8409,114.1534,52.2699,114.1534ZM52.4233,113.25Q53.0199,113.25,53.4311,113.0156Q53.8423,112.7812,54.0533,112.4105Q54.2642,112.0398,54.2642,111.6307L54.2642,110.7102Q54.2003,110.7869,53.9851,110.8487Q53.7699,110.9105,53.4908,110.9553Q53.211600000000004,111,52.949600000000004,111.032Q52.6875,111.0639,52.5256,111.0852Q52.1335,111.1364,51.7947,111.2493Q51.456,111.3622,51.2493,111.5859Q51.0426,111.80969999999999,51.0426,112.1932Q51.0426,112.7173,51.4325,112.9837Q51.8224,113.25,52.4233,113.25ZM57.1108,114L57.1108,107.45455L58.0824,107.45455L58.0824,108.47727L58.1676,108.47727Q58.3722,107.95312,58.8281,107.66122Q59.284099999999995,107.36932,59.9233,107.36932Q60.571,107.36932,61.0036,107.66122Q61.436099999999996,107.95312,61.679,108.47727L61.7472,108.47727Q61.998599999999996,107.97017,62.501400000000004,107.66974Q63.0043,107.36932,63.7074,107.36932Q64.5852,107.36932,65.1435,107.9169Q65.7017,108.46449,65.7017,109.6193L65.7017,114L64.696,114L64.696,109.6193Q64.696,108.89489,64.2997,108.58381Q63.903400000000005,108.27273,63.3665,108.27273Q62.676100000000005,108.27273,62.2969,108.68821Q61.9176,109.1037,61.9176,109.7386L61.9176,114L60.8949,114L60.8949,109.517Q60.8949,108.95881,60.5327,108.61577Q60.170500000000004,108.27273,59.5994,108.27273Q59.2074,108.27273,58.8686,108.48152999999999Q58.5298,108.69034,58.3232,109.0589Q58.1165,109.4276,58.1165,109.9091L58.1165,114L57.1108,114ZM70.2869,114.1364Q69.3409,114.1364,68.657,113.7166Q67.973,113.2969,67.6044,112.5405Q67.2358,111.7841,67.2358,110.7784Q67.2358,109.7727,67.6044,109.0036Q67.973,108.23438,68.6357,107.80185Q69.2983,107.36932,70.18469999999999,107.36932Q70.696,107.36932,71.19460000000001,107.53977Q71.6932,107.71023,72.1023,108.09162Q72.51140000000001,108.47301,72.7543,109.0994Q72.99719999999999,109.7259,72.99719999999999,110.642L72.99719999999999,111.0682L67.9517,111.0682L67.9517,110.1989L71.9744,110.1989Q71.9744,109.6449,71.755,109.2102Q71.5355,108.77557,71.1328,108.52415Q70.7301,108.27273,70.18469999999999,108.27273Q69.5838,108.27273,69.14699999999999,108.56889Q68.7102,108.86506,68.4759,109.3381Q68.2415,109.8111,68.2415,110.3523L68.2415,110.9318Q68.2415,111.6733,68.4993,112.1868Q68.75710000000001,112.7003,69.2173,112.9666Q69.6776,113.233,70.2869,113.233Q70.6832,113.233,71.005,113.12Q71.3267,113.0071,71.5611,112.7791Q71.7955,112.5511,71.9233,112.2102L72.8949,112.483Q72.7415,112.9773,72.3793,113.3501Q72.017,113.723,71.4844,113.9297Q70.9517,114.1364,70.2869,114.1364Z" fill="#98A1B3" fill-opacity="1"/></g></g><g><g><path d="M45.07954,136L41.48864,136L41.48864,124.36364L45.238640000000004,124.36364Q46.93182,124.36364,48.136359999999996,125.05966Q49.34091,125.75568,49.98295,127.05398Q50.625,128.35227,50.625,130.1591Q50.625,131.9773,49.977270000000004,133.2869Q49.32954,134.5966,48.09091,135.2983Q46.85227,136,45.07954,136ZM42.89773,134.75L44.988640000000004,134.75Q46.43182,134.75,47.38068,134.1932Q48.32954,133.6364,48.79545,132.608Q49.261359999999996,131.5795,49.261359999999996,130.1591Q49.261359999999996,128.75,48.801140000000004,127.73011Q48.34091,126.71023,47.426140000000004,126.16193Q46.511359999999996,125.61364,45.14773,125.61364L42.89773,125.61364L42.89773,134.75ZM52.8068,136L52.8068,127.27273L54.1477,127.27273L54.1477,136L52.8068,136ZM53.4886,125.81818Q53.0966,125.81818,52.8153,125.55114Q52.5341,125.28409,52.5341,124.90909Q52.5341,124.53409,52.8153,124.26705Q53.0966,124,53.4886,124Q53.8807,124,54.1619,124.26705Q54.4432,124.53409,54.4432,124.90909Q54.4432,125.28409,54.1619,125.55114Q53.8807,125.81818,53.4886,125.81818ZM57.943200000000004,130.75L57.943200000000004,136L56.6023,136L56.6023,127.27273L57.8977,127.27273L57.8977,128.63636L58.011399999999995,128.63636Q58.318200000000004,127.97159,58.943200000000004,127.56534Q59.568200000000004,127.15909,60.556799999999996,127.15909Q61.443200000000004,127.15909,62.108000000000004,127.51989Q62.7727,127.88068,63.141999999999996,128.6108Q63.511399999999995,129.34091,63.511399999999995,130.4545L63.511399999999995,136L62.170500000000004,136L62.170500000000004,130.5455Q62.170500000000004,129.51705,61.636399999999995,128.94034Q61.1023,128.36364,60.170500000000004,128.36364Q59.528400000000005,128.36364,59.0256,128.64205Q58.5227,128.92045,58.233000000000004,129.45455Q57.943200000000004,129.98864,57.943200000000004,130.75ZM69.625,136.1818Q68.3636,136.1818,67.4517,135.6222Q66.5398,135.0625,66.0483,134.054Q65.5568,133.0455,65.5568,131.7045Q65.5568,130.3636,66.0483,129.33807Q66.5398,128.3125,67.4233,127.7358Q68.3068,127.15909,69.4886,127.15909Q70.1705,127.15909,70.8352,127.38636Q71.5,127.61364,72.0455,128.12216Q72.5909,128.63068,72.9148,129.46591Q73.23859999999999,130.3011,73.23859999999999,131.5227L73.23859999999999,132.0909L66.5114,132.0909L66.5114,130.9318L71.875,130.9318Q71.875,130.1932,71.5824,129.61364Q71.2898,129.03409,70.75280000000001,128.69886Q70.2159,128.36364,69.4886,128.36364Q68.6875,128.36364,68.1051,128.75852Q67.5227,129.15341,67.2102,129.78409Q66.8977,130.4148,66.8977,131.1364L66.8977,131.9091Q66.8977,132.8977,67.2415,133.5824Q67.5852,134.267,68.1989,134.6222Q68.8125,134.9773,69.625,134.9773Q70.1534,134.9773,70.5824,134.8267Q71.0114,134.6761,71.3239,134.3722Q71.6364,134.0682,71.8068,133.6136L73.1023,133.9773Q72.8977,134.6364,72.4148,135.1335Q71.9318,135.6307,71.2216,135.9062Q70.5114,136.1818,69.625,136.1818ZM81.4659,129.22727L80.26140000000001,129.56818Q80.1477,129.26705,79.929,128.98011Q79.7102,128.69318,79.3352,128.50568Q78.9602,128.31818,78.375,128.31818Q77.57390000000001,128.31818,77.0426,128.68466Q76.51140000000001,129.05114,76.51140000000001,129.61364Q76.51140000000001,130.1136,76.875,130.4034Q77.23859999999999,130.6932,78.01140000000001,130.8864L79.30680000000001,131.2045Q80.4773,131.4886,81.05109999999999,132.071Q81.625,132.6534,81.625,133.5682Q81.625,134.3182,81.196,134.9091Q80.767,135.5,80,135.8409Q79.233,136.1818,78.2159,136.1818Q76.88069999999999,136.1818,76.00569999999999,135.6023Q75.13069999999999,135.0227,74.8977,133.9091L76.1705,133.5909Q76.3523,134.2955,76.8608,134.6477Q77.36930000000001,135,78.19319999999999,135Q79.13069999999999,135,79.68469999999999,134.5994Q80.23859999999999,134.1989,80.23859999999999,133.6364Q80.23859999999999,133.1818,79.9205,132.8722Q79.6023,132.5625,78.94319999999999,132.4091L77.48859999999999,132.0682Q76.2898,131.7841,75.7301,131.1847Q75.1705,130.5852,75.1705,129.68182Q75.1705,128.94318,75.5881,128.375Q76.00569999999999,127.80682,76.7301,127.48295Q77.4545,127.15909,78.375,127.15909Q79.6705,127.15909,80.4119,127.72727Q81.1534,128.29545,81.4659,129.22727ZM84.98859999999999,130.75L84.98859999999999,136L83.6477,136L83.6477,124.36364L84.98859999999999,124.36364L84.98859999999999,128.63636L85.1023,128.63636Q85.4091,127.96023,86.0256,127.55966Q86.642,127.15909,87.6705,127.15909Q88.5625,127.15909,89.233,127.5142Q89.9034,127.86932,90.2756,128.59943Q90.6477,129.32955,90.6477,130.4545L90.6477,136L89.30680000000001,136L89.30680000000001,130.5455Q89.30680000000001,129.50568,88.7699,128.93466Q88.233,128.36364,87.2841,128.36364Q86.625,128.36364,86.1051,128.64205Q85.5852,128.92045,85.2869,129.45455Q84.98859999999999,129.98864,84.98859999999999,130.75ZM104.1477,127.27273Q104.0455,126.40909,103.31819999999999,125.93182Q102.5909,125.45455,101.5341,125.45455Q100.76140000000001,125.45455,100.18469999999999,125.70455Q99.608,125.95455,99.2869,126.39205Q98.9659,126.82955,98.9659,127.38636Q98.9659,127.85227,99.19030000000001,128.18466Q99.4148,128.51705,99.767,128.7358Q100.11930000000001,128.95455,100.50569999999999,129.09375Q100.892,129.23295,101.2159,129.31818L102.3977,129.63636Q102.8523,129.75568,103.4119,129.96591Q103.9716,130.1761,104.4858,130.5369Q105,130.8977,105.3352,131.4602Q105.6705,132.0227,105.6705,132.8409Q105.6705,133.7841,105.179,134.5455Q104.6875,135.3068,103.74719999999999,135.7557Q102.80680000000001,136.2045,101.4659,136.2045Q100.2159,136.2045,99.304,135.8011Q98.392,135.3977,97.87219999999999,134.6761Q97.3523,133.9545,97.2841,133L98.73859999999999,133Q98.7955,133.6591,99.18469999999999,134.0881Q99.57390000000001,134.517,100.1733,134.7244Q100.7727,134.9318,101.4659,134.9318Q102.2727,134.9318,102.9148,134.6676Q103.55680000000001,134.4034,103.93180000000001,133.929Q104.3068,133.4545,104.3068,132.8182Q104.3068,132.2386,103.983,131.875Q103.6591,131.5114,103.13069999999999,131.2841Q102.6023,131.0568,101.98859999999999,130.8864L100.55680000000001,130.4773Q99.19319999999999,130.0852,98.3977,129.35795Q97.6023,128.63068,97.6023,127.45455Q97.6023,126.47727,98.1335,125.74716Q98.6648,125.01705,99.56530000000001,124.6108Q100.4659,124.20455,101.5795,124.20455Q102.7045,124.20455,103.5795,124.60511Q104.4545,125.00568,104.9688,125.69886Q105.483,126.39205,105.5114,127.27273L104.1477,127.27273ZM110.375,136.2045Q109.5455,136.2045,108.8693,135.8892Q108.1932,135.5739,107.7955,134.9744Q107.3977,134.375,107.3977,133.5227Q107.3977,132.7727,107.6932,132.304Q107.9886,131.8352,108.483,131.5682Q108.9773,131.3011,109.5767,131.1676Q110.1761,131.0341,110.7841,130.9545Q111.5795,130.8523,112.0767,130.7983Q112.5739,130.7443,112.804,130.6136Q113.0341,130.483,113.0341,130.1591L113.0341,130.1136Q113.0341,129.27273,112.5767,128.80682Q112.1193,128.34091,111.1932,128.34091Q110.233,128.34091,109.6875,128.76136Q109.142,129.18182,108.9205,129.65909L107.6477,129.20455Q107.9886,128.40909,108.5597,127.96307Q109.1307,127.51705,109.8097,127.33807Q110.4886,127.15909,111.1477,127.15909Q111.5682,127.15909,112.1165,127.25852Q112.6648,127.35795,113.179,127.66477Q113.6932,127.97159,114.0341,128.59091Q114.375,129.21023,114.375,130.25L114.375,136L113.0341,136L113.0341,134.8182L112.9659,134.8182Q112.8295,135.1023,112.5114,135.4261Q112.1932,135.75,111.6648,135.9773Q111.1364,136.2045,110.375,136.2045ZM110.5795,135Q111.375,135,111.9233,134.6875Q112.4716,134.375,112.7528,133.8807Q113.0341,133.3864,113.0341,132.8409L113.0341,131.6136Q112.9489,131.7159,112.6619,131.7983Q112.375,131.8807,112.0028,131.9403Q111.6307,132,111.2812,132.0426Q110.9318,132.0852,110.7159,132.1136Q110.1932,132.1818,109.7415,132.3324Q109.2898,132.483,109.0142,132.7812Q108.7386,133.0795,108.7386,133.5909Q108.7386,134.2898,109.2585,134.6449Q109.7784,135,110.5795,135ZM116.8295,136L116.8295,127.27273L118.125,127.27273L118.125,128.63636L118.2386,128.63636Q118.5114,127.9375,119.1193,127.5483Q119.7273,127.15909,120.5795,127.15909Q121.4432,127.15909,122.0199,127.5483Q122.5966,127.9375,122.9205,128.63636L123.0114,128.63636Q123.3466,127.96023,124.017,127.55966Q124.6875,127.15909,125.625,127.15909Q126.7955,127.15909,127.5398,127.8892Q128.2841,128.61932,128.2841,130.1591L128.2841,136L126.9432,136L126.9432,130.1591Q126.9432,129.19318,126.4148,128.77841Q125.8864,128.36364,125.1705,128.36364Q124.25,128.36364,123.7443,128.91761Q123.2386,129.47159,123.2386,130.3182L123.2386,136L121.875,136L121.875,130.0227Q121.875,129.27841,121.392,128.82102Q120.9091,128.36364,120.1477,128.36364Q119.625,128.36364,119.1733,128.64205Q118.7216,128.92045,118.446,129.41193Q118.1705,129.90341,118.1705,130.5455L118.1705,136L116.8295,136ZM136.23860000000002,132.4318L136.23860000000002,127.27273L137.5795,127.27273L137.5795,136L136.23860000000002,136L136.23860000000002,134.5227L136.1477,134.5227Q135.8409,135.1875,135.1932,135.6506Q134.5454,136.1136,133.5568,136.1136Q132.73860000000002,136.1136,132.1023,135.7528Q131.4659,135.392,131.1023,134.6619Q130.73860000000002,133.9318,130.73860000000002,132.8182L130.73860000000002,127.27273L132.0795,127.27273L132.0795,132.7273Q132.0795,133.6818,132.6165,134.25Q133.1534,134.8182,133.98860000000002,134.8182Q134.48860000000002,134.8182,135.0085,134.5625Q135.5284,134.3068,135.8835,133.7784Q136.23860000000002,133.25,136.23860000000002,132.4318ZM143.69299999999998,136.1818Q142.43200000000002,136.1818,141.51999999999998,135.6222Q140.608,135.0625,140.11599999999999,134.054Q139.625,133.0455,139.625,131.7045Q139.625,130.3636,140.11599999999999,129.33807Q140.608,128.3125,141.49099999999999,127.7358Q142.375,127.15909,143.55700000000002,127.15909Q144.239,127.15909,144.90300000000002,127.38636Q145.56799999999998,127.61364,146.114,128.12216Q146.659,128.63068,146.983,129.46591Q147.30700000000002,130.3011,147.30700000000002,131.5227L147.30700000000002,132.0909L140.57999999999998,132.0909L140.57999999999998,130.9318L145.94299999999998,130.9318Q145.94299999999998,130.1932,145.651,129.61364Q145.358,129.03409,144.821,128.69886Q144.284,128.36364,143.55700000000002,128.36364Q142.756,128.36364,142.173,128.75852Q141.591,129.15341,141.27800000000002,129.78409Q140.966,130.4148,140.966,131.1364L140.966,131.9091Q140.966,132.8977,141.31,133.5824Q141.65300000000002,134.267,142.267,134.6222Q142.881,134.9773,143.69299999999998,134.9773Q144.22199999999998,134.9773,144.651,134.8267Q145.07999999999998,134.6761,145.392,134.3722Q145.70499999999998,134.0682,145.875,133.6136L147.17000000000002,133.9773Q146.966,134.6364,146.483,135.1335Q146,135.6307,145.29000000000002,135.9062Q144.57999999999998,136.1818,143.69299999999998,136.1818ZM150.69299999999998,124.36364L150.69299999999998,136L149.352,136L149.352,124.36364L150.69299999999998,124.36364Z" fill="#F4F7FF" fill-opacity="1"/></g></g></g></g></g><g><line x1="24" y1="147.5" x2="544" y2="147.5" fill-opacity="0" stroke-opacity="1" stroke="#98A1B3" fill="none" stroke-width="1"/></g></g><g><g><g><path d="M30.1875,180.45455Q30.1108,179.80682,29.56534,179.44886Q29.01989,179.09091,28.22727,179.09091Q27.64773,179.09091,27.2152,179.27841Q26.78267,179.46591,26.5419,179.79403Q26.30114,180.12216,26.30114,180.53977Q26.30114,180.8892,26.46946,181.13849Q26.63778,181.38778,26.90199,181.55185Q27.16619,181.71591,27.45597,181.82031Q27.74574,181.92472,27.98864,181.98864L28.875,182.2273Q29.21591,182.3168,29.63565,182.4744Q30.0554,182.6321,30.44105,182.9027Q30.8267,183.1733,31.07812,183.5952Q31.32955,184.017,31.32955,184.6307Q31.32955,185.3381,30.96094,185.9091Q30.59233,186.4801,29.88707,186.8168Q29.181820000000002,187.1534,28.17614,187.1534Q27.23864,187.1534,26.55469,186.8509Q25.87074,186.5483,25.48082,186.0071Q25.09091,185.4659,25.03977,184.75L26.130679999999998,184.75Q26.1733,185.2443,26.4652,185.5661Q26.7571,185.8878,27.20668,186.0433Q27.65625,186.1989,28.17614,186.1989Q28.78125,186.1989,29.26278,186.0007Q29.744320000000002,185.8026,30.025570000000002,185.4467Q30.306820000000002,185.0909,30.306820000000002,184.6136Q30.306820000000002,184.179,30.06392,183.9062Q29.82102,183.6335,29.42472,183.4631Q29.02841,183.2926,28.568179999999998,183.1648L27.494320000000002,182.858Q26.47159,182.5639,25.875,182.0185Q25.27841,181.47301,25.27841,180.59091Q25.27841,179.85795,25.67685,179.31037Q26.07528,178.76278,26.75071,178.4581Q27.42614,178.15341,28.26136,178.15341Q29.10511,178.15341,29.76136,178.45383Q30.41761,178.75426,30.80327,179.27415Q31.18892,179.79403,31.21023,180.45455L30.1875,180.45455ZM33.9375,183.0625L33.9375,187L32.93182,187L32.93182,178.27273L33.9375,178.27273L33.9375,181.47727L34.0227,181.47727Q34.2528,180.97017,34.715199999999996,180.66974Q35.1776,180.36932,35.9489,180.36932Q36.6179,180.36932,37.1207,180.63565Q37.623599999999996,180.90199,37.902699999999996,181.44957Q38.1818,181.99716,38.1818,182.8409L38.1818,187L37.1761,187L37.1761,182.9091Q37.1761,182.1293,36.7734,181.70099Q36.3707,181.27273,35.6591,181.27273Q35.1648,181.27273,34.7749,181.48153Q34.3849,181.69034,34.1612,182.0909Q33.9375,182.4915,33.9375,183.0625ZM40.0227,187L40.0227,180.45455L41.028400000000005,180.45455L41.028400000000005,187L40.0227,187ZM40.534099999999995,179.36364Q40.2401,179.36364,40.0291,179.16335Q39.8182,178.96307,39.8182,178.68182Q39.8182,178.40057,40.0291,178.20028Q40.2401,178,40.534099999999995,178Q40.8281,178,41.039100000000005,178.20028Q41.25,178.40057,41.25,178.68182Q41.25,178.96307,41.039100000000005,179.16335Q40.8281,179.36364,40.534099999999995,179.36364ZM45.784099999999995,180.45455L45.784099999999995,181.30682L42.255700000000004,181.30682L42.255700000000004,180.45455L45.784099999999995,180.45455ZM43.3125,187L43.3125,179.55114Q43.3125,178.98864,43.5767,178.61364Q43.840900000000005,178.23864,44.2628,178.05114Q44.6847,177.86364,45.153400000000005,177.86364Q45.524100000000004,177.86364,45.7585,177.9233Q45.9929,177.98295,46.108000000000004,178.03409L45.818200000000004,178.90341Q45.7415,178.87784,45.6072,178.83949Q45.473,178.80114,45.255700000000004,178.80114Q44.7571,178.80114,44.5376,179.05256Q44.318200000000004,179.30398,44.318200000000004,179.78977L44.318200000000004,187L43.3125,187ZM50.045500000000004,180.45455L50.045500000000004,181.30682L46.653400000000005,181.30682L46.653400000000005,180.45455L50.045500000000004,180.45455ZM47.641999999999996,178.88636L48.6477,178.88636L48.6477,185.125Q48.6477,185.5511,48.773399999999995,185.7621Q48.899100000000004,185.973,49.097300000000004,186.0433Q49.295500000000004,186.1136,49.516999999999996,186.1136Q49.6832,186.1136,49.7898,186.0945Q49.8963,186.0753,49.9602,186.0625L50.1648,186.9659Q50.0625,187.0043,49.8793,187.0447Q49.696,187.0852,49.4148,187.0852Q48.988600000000005,187.0852,48.5817,186.902Q48.1747,186.7188,47.9084,186.3438Q47.641999999999996,185.9688,47.641999999999996,185.3977L47.641999999999996,178.88636Z" fill="#98A1B3" fill-opacity="1"/></g><g><g><rect x="24" y="201" width="58" height="36" rx="18" fill="#446FC7" fill-opacity="1"/><g><path d="M44.41477,224L41.1176,224L41.1176,213.81818L44.51817,213.81818Q46.01764,213.81818,47.08995,214.4272Q48.16234,215.03622000000001,48.73656,216.17324Q49.31078,217.31026,49.31078,218.89317Q49.31078,220.4841,48.73307,221.6291Q48.15543,222.774,47.06067,223.387Q45.96591,224,44.41477,224ZM42.65685,222.6557L44.33127,222.6557Q45.4926,222.6557,46.26366,222.2172Q47.0348,221.77870000000001,47.41707,220.9395Q47.79942,220.1003,47.79942,218.89317Q47.79942,217.694,47.4201,216.8608Q47.04078,216.02759,46.29054,215.59506Q45.54037,215.16253,44.42674,215.16253L42.65685,215.16253L42.65685,222.6557ZM53.3239,224.167Q52.597,224.167,52.0118,223.8981Q51.4267,223.6292,51.0846,223.1111Q50.742599999999996,222.593,50.742599999999996,221.8443Q50.742599999999996,221.194,50.9922,220.7769Q51.2418,220.3598,51.6644,220.1162Q52.0869,219.8726,52.6084,219.7493Q53.13,219.626,53.6739,219.5614Q54.359,219.4798,54.785,219.4276Q55.211,219.3754,55.407,219.2576Q55.6029,219.1398,55.6029,218.86932L55.6029,218.83351Q55.6029,218.18526,55.2369,217.8273Q54.871,217.46935,54.1512,217.46935Q53.4005,217.46935,52.9694,217.79794Q52.538399999999996,218.12653,52.3733,218.53125L50.9773,218.21307Q51.225899999999996,217.51705,51.7046,217.087Q52.1833,216.65696,52.8108,216.46058Q53.4382,216.2642,54.1272,216.2642Q54.5856,216.2642,55.0997,216.3721Q55.6137,216.48,56.065200000000004,216.76292Q56.5166,217.04575,56.803399999999996,217.57026Q57.0903,218.09476,57.0903,218.92898L57.0903,224L55.6386,224L55.6386,222.958L55.578900000000004,222.958Q55.437799999999996,223.2423,55.1499,223.5217Q54.8621,223.8011,54.4091,223.9841Q53.9563,224.167,53.3239,224.167ZM53.646,222.9779Q54.2655,222.9779,54.704499999999996,222.73329999999999Q55.1435,222.4886,55.3751,222.0939Q55.6068,221.6992,55.6068,221.2478L55.6068,220.2614Q55.5253,220.3419,55.3001,220.4076Q55.0749,220.4731,54.787,220.5219Q54.4992,220.5706,54.224199999999996,220.6064Q53.9493,220.6422,53.765299999999996,220.667Q53.3358,220.7247,52.9793,220.8525Q52.6229,220.9802,52.4106,221.22129999999999Q52.1983,221.4625,52.1983,221.8602Q52.1983,222.4131,52.606899999999996,222.6955Q53.0156,222.9779,53.646,222.9779ZM59.730199999999996,226.8636Q59.397099999999995,226.8636,59.124700000000004,226.8114Q58.8523,226.7592,58.716,226.6986L59.074,225.4815Q59.4837,225.5929,59.8023,225.576Q60.120999999999995,225.5591,60.3661,225.3353Q60.6112,225.1116,60.8001,224.6045L60.9871,224.0994L58.1911,216.36364L59.782,216.36364L61.7149,222.2898L61.794399999999996,222.2898L63.7314,216.36364L65.3263,216.36364L62.1762,225.0182Q61.9595,225.6178,61.6219,226.0309Q61.284400000000005,226.444,60.8161,226.6538Q60.3477,226.8636,59.730199999999996,226.8636Z" fill="#F4F7FF" fill-opacity="1"/></g></g><g><rect x="94" y="201" width="69" height="36" rx="18" fill="#303847" fill-opacity="1"/><g><path d="M119.33867000000001,213.81818L119.33867000000001,224L117.9227,224L112.74828,216.53461L112.65685,216.53461L112.65685,224L111.1176,224L111.1176,213.81818L112.54149,213.81818L117.71987,221.2955L117.81534,221.2955L117.81534,213.81818L119.33867000000001,213.81818ZM121.4535,224L121.4535,216.36364L122.9411,216.36364L122.9411,224L121.4535,224ZM122.20570000000001,215.18637999999999Q121.8195,215.18637999999999,121.543,214.92584Q121.2666,214.66529,121.2666,214.29942Q121.2666,213.93354,121.5432,213.67307Q121.8197,213.41253,122.2053,213.41253Q122.592,213.41253,122.868,213.67307Q123.1439,213.93362,123.1439,214.29949Q123.1439,214.66537,122.868,214.92591Q122.592,215.18637999999999,122.20570000000001,215.18637999999999ZM128.1403,227.0227Q127.2305,227.0227,126.5778,226.7846Q125.925,226.5465,125.5108,226.1522Q125.0967,225.7579,124.8949,225.2926L126.1716,224.7676Q126.3068,224.9834,126.5335,225.2299Q126.7602,225.4766,127.1505,225.651Q127.5408,225.8256,128.1562,225.8256Q129.0024,225.8256,129.5537,225.4159Q130.1051,225.0063,130.1051,224.1074L130.1051,222.608L130.0096,222.608Q129.8764,222.8526,129.6258,223.1514Q129.3753,223.4502,128.9368,223.6674Q128.4983,223.8846,127.7983,223.8846Q126.8955,223.8846,126.1721,223.4591Q125.4488,223.0335,125.0266,222.2013Q124.6045,221.369,124.6045,220.15Q124.6045,218.93496,125.0207,218.06392Q125.4368,217.19288,126.1621,216.72858Q126.8875,216.2642,127.8103,216.2642Q128.5202,216.2642,128.9577,216.50036Q129.3952,216.73651,129.64170000000001,217.05026Q129.8884,217.36394,130.0216,217.60055L130.129,217.60055L130.129,216.36364L131.5846,216.36364L131.5846,224.1711Q131.5846,225.1524,131.1287,225.7832Q130.6729,226.4142,129.8933,226.7185Q129.1137,227.0227,128.1403,227.0227ZM128.1284,222.6517Q128.7688,222.6517,129.2127,222.3509Q129.6567,222.0501,129.8888,221.48590000000002Q130.121,220.9216,130.121,220.1341Q130.121,219.3605,129.8928,218.77439Q129.6647,218.18821,129.2206,217.85861Q128.7767,217.52901,128.1284,217.52901Q127.4563,217.52901,127.0073,217.87453Q126.5583,218.22006,126.3332,218.8102Q126.108,219.4003,126.108,220.1341Q126.108,220.8838,126.33709999999999,221.4501Q126.5664,222.0163,127.0153,222.3341Q127.4642,222.6517,128.1284,222.6517ZM135.0668,219.4659L135.0668,224L133.57920000000001,224L133.57920000000001,213.81818L135.0469,213.81818L135.0469,217.60855L135.1423,217.60855Q135.40879999999999,216.98905,135.9606,216.62666Q136.5125,216.2642,137.4014,216.2642Q138.1879,216.2642,138.777,216.58635Q139.3662,216.90849,139.6928,217.54889Q140.0195,218.18922,140.0185,219.1438L140.0185,224L138.531,224L138.531,219.3227Q138.532,218.48153,138.09890000000001,218.01723Q137.6659,217.55286,136.8963,217.55286Q136.3683,217.55286,135.95420000000001,217.77712Q135.5401,218.00131,135.3039,218.42933Q135.0678,218.85736,135.0668,219.4659ZM145.5738,216.36364L145.5738,217.55682L141.4016,217.55682L141.4016,216.36364L145.5738,216.36364ZM142.5192,214.53409L144.0067,214.53409L144.0067,221.7588Q144.0067,222.1883,144.13490000000002,222.4066Q144.26319999999998,222.6249,144.471,222.7009Q144.6789,222.777,144.9215,222.777Q145.1015,222.777,145.2341,222.7531Q145.3669,222.7293,145.4425,222.7134L145.713,223.9424Q145.5807,223.989,145.3415,224.0427Q145.1024,224.0965,144.7464,224.1015Q144.1598,224.1114,143.6517,223.8912Q143.1436,223.6709,142.8304,223.2145Q142.5172,222.7581,142.5192,222.065L142.5192,214.53409Z" fill="#F4F7FF" fill-opacity="1"/></g></g><g><rect x="175" y="201" width="70" height="36" rx="18" fill="#303847" fill-opacity="1"/><g><path d="M192.1176,224L192.1176,213.81818L195.74887999999999,213.81818Q196.9301,213.81818,197.71258,214.22484Q198.49514,214.6315,198.88393,215.35145Q199.27273,216.07132000000001,199.27273,217.00792Q199.27273,217.94662,198.88145,218.6536Q198.49017,219.3605,197.70714,219.7533Q196.92412,220.14600000000002,195.74492,220.14600000000002L192.9926,220.14600000000002L192.9926,218.82558L195.60167,218.82558Q196.35145,218.82558,196.82026,218.61033Q197.28906,218.395,197.50727,217.98935Q197.72555,217.5837,197.72555,217.00792Q197.72555,216.43122,197.50533,216.01019Q197.2851,215.58908,196.81428,215.36186Q196.34345,215.13464,195.58583,215.13464L193.65685,215.13464L193.65685,224L192.1176,224ZM197.14489,219.4062L199.65849,224L197.91253,224L195.44258,219.4062L197.14489,219.4062ZM204.2254,224.1551Q203.0979,224.1551,202.283,223.6694Q201.4682,223.1836,201.0292,222.3012Q200.5902,221.4187,200.5902,220.2336Q200.5902,219.0582,201.0296,218.16335Q201.4692,217.26847,202.2616,216.76634Q203.0541,216.2642,204.118,216.2642Q204.76839999999999,216.2642,205.3739,216.47697Q205.9794,216.68974,206.4606,217.14767Q206.9419,217.60552,207.2223,218.33542Q207.5027,219.0652,207.5027,220.1023L207.5027,220.6272L201.4294,220.6272L201.4294,219.5136L206.043,219.5136Q206.042,218.931,205.8049,218.47509Q205.5678,218.01918,205.1377,217.75623Q204.7077,217.4932,204.13,217.4932Q203.5025,217.4932,203.0392,217.79794Q202.5759,218.10268,202.3238,218.59394Q202.0717,219.0851,202.0697,219.6568L202.0697,220.5238Q202.0697,221.2895,202.3411,221.8264Q202.6126,222.3633,203.0998,222.6448Q203.5871,222.9261,204.2373,222.9261Q204.664,222.9261,205.0114,222.8049Q205.359,222.6835,205.6115,222.4405Q205.864,222.1973,205.9993,221.8363L207.4073,222.0909Q207.2382,222.7113,206.8037,223.1762Q206.3692,223.641,205.7134,223.8981Q205.0576,224.1551,204.2254,224.1551ZM210.6428,213.81818L210.6428,224L209.1552,224L209.1552,213.81818L210.6428,213.81818ZM212.6403,224L212.6403,216.36364L214.1278,216.36364L214.1278,224L212.6403,224ZM213.39249999999998,215.18637999999999Q213.0063,215.18637999999999,212.7298,214.92584Q212.4534,214.66529,212.4534,214.29942Q212.4534,213.93354,212.73,213.67307Q213.0065,213.41253,213.392,213.41253Q213.7788,213.41253,214.0547,213.67307Q214.3307,213.93362,214.3307,214.29949Q214.3307,214.66537,214.0547,214.92591Q213.7788,215.18637999999999,213.39249999999998,215.18637999999999ZM219.4186,224.1551Q218.2911,224.1551,217.4762,223.6694Q216.6613,223.1836,216.2224,222.3012Q215.7834,221.4187,215.7834,220.2336Q215.7834,219.0582,216.2228,218.16335Q216.6623,217.26847,217.4548,216.76634Q218.2473,216.2642,219.31119999999999,216.2642Q219.9615,216.2642,220.5671,216.47697Q221.1726,216.68974,221.6538,217.14767Q222.1351,217.60552,222.4155,218.33542Q222.6959,219.0652,222.6959,220.1023L222.6959,220.6272L216.6226,220.6272L216.6226,219.5136L221.2362,219.5136Q221.2352,218.931,220.998,218.47509Q220.761,218.01918,220.33089999999999,217.75623Q219.9009,217.4932,219.32319999999999,217.4932Q218.6957,217.4932,218.23239999999998,217.79794Q217.7691,218.10268,217.517,218.59394Q217.2649,219.0851,217.2629,219.6568L217.2629,220.5238Q217.2629,221.2895,217.5343,221.8264Q217.8058,222.3633,218.293,222.6448Q218.7802,222.9261,219.4305,222.9261Q219.8571,222.9261,220.2046,222.8049Q220.5521,222.6835,220.8047,222.4405Q221.0572,222.1973,221.1925,221.8363L222.6004,222.0909Q222.4314,222.7113,221.9969,223.1762Q221.5624,223.641,220.9066,223.8981Q220.2508,224.1551,219.4186,224.1551ZM227.9837,216.36364L227.9837,217.55682L223.6683,217.55682L223.6683,216.36364L227.9837,216.36364ZM224.8495,224L224.8495,215.47667Q224.8495,214.76278,225.1638,214.28854Q225.478,213.81422,225.995,213.5776Q226.5121,213.34091,227.1166,213.34091Q227.5671,213.34091,227.8847,213.41253Q228.2024,213.48408,228.35750000000002,213.54373L228.0075,214.74887999999999Q227.9061,214.71602000000001,227.74110000000002,214.67477Q227.576,214.63352,227.3433,214.63352Q226.8004,214.63352,226.5687,214.90098Q226.3371,215.16844,226.3371,215.67554L226.3371,224L224.8495,224Z" fill="#F4F7FF" fill-opacity="1"/></g></g></g></g></g><g><g><path d="M24 265C24 262.79086100067684 25.790861000676827 261 28 261L540 261C542.2091389993232 261 544 262.79086100067684 544 265L544 317C544 317 544 317 544 317L24 317C24 317 24 317 24 317Z" fill="#222834" fill-opacity="1"/><g><g><g><g><path d="M42.5142,274.27273L42.5142,283L41.45739,283L41.45739,274.27273L42.5142,274.27273ZM45.49716,279.0625L45.49716,283L44.49148,283L44.49148,276.45455L45.46307,276.45455L45.46307,277.47727L45.5483,277.47727Q45.77841,276.97869000000003,46.24716,276.67401Q46.71591,276.36932,47.457390000000004,276.36932Q48.12216,276.36932,48.62074,276.63991Q49.11932,276.91051,49.39631,277.4581Q49.6733,278.0057,49.6733,278.8409L49.6733,283L48.667609999999996,283L48.667609999999996,278.9091Q48.667609999999996,278.1378,48.26705,277.70526Q47.86648,277.27273,47.167609999999996,277.27273Q46.68608,277.27273,46.30895,277.48153Q45.93182,277.69034,45.71449,278.0909Q45.49716,278.4915,45.49716,279.0625ZM57.7358,276.45455L57.7358,277.30682L54.3438,277.30682L54.3438,276.45455L57.7358,276.45455ZM55.3324,274.88636L56.3381,274.88636L56.3381,281.125Q56.3381,281.5511,56.4638,281.7621Q56.5895,281.973,56.7876,282.0433Q56.9858,282.1136,57.2074,282.1136Q57.373599999999996,282.1136,57.4801,282.0945Q57.586600000000004,282.0753,57.6506,282.0625L57.8551,282.9659Q57.7528,283.0043,57.5696,283.0447Q57.386399999999995,283.0852,57.1051,283.0852Q56.679,283.0852,56.272,282.902Q55.8651,282.7188,55.5987,282.3438Q55.3324,281.9688,55.3324,281.3977L55.3324,274.88636ZM59.2528,283L59.2528,276.45455L60.2585,276.45455L60.2585,283L59.2528,283ZM59.7642,275.36364Q59.4702,275.36364,59.2592,275.16335Q59.0483,274.96307,59.0483,274.68182Q59.0483,274.40057,59.2592,274.20028Q59.4702,274,59.7642,274Q60.0582,274,60.2692,274.20028Q60.4801,274.40057,60.4801,274.68182Q60.4801,274.96307,60.2692,275.16335Q60.0582,275.36364,59.7642,275.36364ZM62.0994,283L62.0994,276.45455L63.071,276.45455L63.071,277.47727L63.1562,277.47727Q63.3608,276.95312,63.8168,276.66122Q64.2727,276.36932,64.9119,276.36932Q65.55969999999999,276.36932,65.9922,276.66122Q66.4247,276.95312,66.6676,277.47727L66.7358,277.47727Q66.9872,276.97017,67.4901,276.66974Q67.99289999999999,276.36932,68.696,276.36932Q69.5739,276.36932,70.13210000000001,276.9169Q70.69030000000001,277.46449,70.69030000000001,278.6193L70.69030000000001,283L69.68469999999999,283L69.68469999999999,278.6193Q69.68469999999999,277.89489,69.2884,277.58380999999997Q68.892,277.27273,68.3551,277.27273Q67.6648,277.27273,67.2855,277.68821Q66.9062,278.1037,66.9062,278.7386L66.9062,283L65.8835,283L65.8835,278.517Q65.8835,277.95880999999997,65.5213,277.61577Q65.1591,277.27273,64.5881,277.27273Q64.196,277.27273,63.8572,277.48153Q63.5185,277.69034,63.311800000000005,278.0589Q63.1051,278.4276,63.1051,278.9091L63.1051,283L62.0994,283ZM75.2756,283.1364Q74.3295,283.1364,73.6456,282.71659999999997Q72.9616,282.2969,72.593,281.5405Q72.2244,280.7841,72.2244,279.7784Q72.2244,278.7727,72.593,278.0036Q72.9616,277.23438,73.6243,276.80185Q74.2869,276.36932,75.1733,276.36932Q75.68469999999999,276.36932,76.1832,276.53977Q76.68180000000001,276.71023,77.0909,277.09162Q77.5,277.47301,77.74289999999999,278.0994Q77.9858,278.7259,77.9858,279.642L77.9858,280.0682L72.94030000000001,280.0682L72.94030000000001,279.1989L76.9631,279.1989Q76.9631,278.6449,76.7436,278.2102Q76.5241,277.77557,76.1214,277.52415Q75.7188,277.27273,75.1733,277.27273Q74.5724,277.27273,74.1357,277.56889Q73.69890000000001,277.86505999999997,73.4645,278.3381Q73.2301,278.8111,73.2301,279.3523L73.2301,279.9318Q73.2301,280.6733,73.4879,281.1868Q73.7457,281.7003,74.206,281.96659999999997Q74.6662,282.233,75.2756,282.233Q75.6719,282.233,75.9936,282.12Q76.31530000000001,282.0071,76.5497,281.77909999999997Q76.7841,281.5511,76.9119,281.2102L77.8835,281.483Q77.7301,281.9773,77.36789999999999,282.3501Q77.00569999999999,282.723,76.473,282.9297Q75.94030000000001,283.1364,75.2756,283.1364Z" fill="#98A1B3" fill-opacity="1"/></g></g><g><g><path d="M45.28409,305.1591Q44,305.1591,43.09659,304.4574Q42.19318,303.7557,41.71591,302.4176Q41.23863,301.0795,41.23863,299.1818Q41.23863,297.29545,41.71875,295.95739Q42.198859999999996,294.61932,43.105109999999996,293.91193Q44.011359999999996,293.20455,45.28409,293.20455Q46.55682,293.20455,47.46307,293.91193Q48.36932,294.61932,48.84943,295.95739Q49.32954,297.29545,49.32954,299.1818Q49.32954,301.0795,48.852270000000004,302.4176Q48.375,303.7557,47.47159,304.4574Q46.56818,305.1591,45.28409,305.1591ZM45.28409,303.9091Q46.55682,303.9091,47.261359999999996,302.6818Q47.96591,301.4545,47.96591,299.1818Q47.96591,297.67045,47.64488,296.60795Q47.323859999999996,295.54545,46.72443,294.98864Q46.125,294.43182,45.28409,294.43182Q44.02272,294.43182,43.3125,295.6733Q42.60227,296.91477,42.60227,299.1818Q42.60227,300.6932,42.92045,301.75Q43.23863,302.8068,43.83807,303.358Q44.4375,303.9091,45.28409,303.9091ZM51.4886,305L51.4886,303.9773L55.329499999999996,299.7727Q56.005700000000004,299.0341,56.443200000000004,298.4858Q56.880700000000004,297.9375,57.0937,297.4517Q57.306799999999996,296.96591,57.306799999999996,296.43182Q57.306799999999996,295.81818,57.0142,295.36932Q56.721599999999995,294.92045,56.215900000000005,294.67614Q55.7102,294.43182,55.079499999999996,294.43182Q54.4091,294.43182,53.9119,294.70739Q53.4148,294.98295,53.1449,295.47727Q52.875,295.97159,52.875,296.63636L51.5341,296.63636Q51.5341,295.61364,52.0057,294.84091Q52.4773,294.06818,53.2926,293.63636Q54.108000000000004,293.20455,55.125,293.20455Q56.1477,293.20455,56.9375,293.63636Q57.7273,294.06818,58.176100000000005,294.80114Q58.625,295.53409,58.625,296.43182Q58.625,297.07386,58.3949,297.68466Q58.1648,298.29545,57.5994,299.0426Q57.034099999999995,299.7898,56.034099999999995,300.8636L53.420500000000004,303.6591L53.420500000000004,303.75L58.829499999999996,303.75L58.829499999999996,305L51.4886,305ZM62.170500000000004,305.0909Q61.75,305.0909,61.448899999999995,304.7898Q61.1477,304.4886,61.1477,304.0682Q61.1477,303.6477,61.448899999999995,303.3466Q61.75,303.0455,62.170500000000004,303.0455Q62.590900000000005,303.0455,62.891999999999996,303.3466Q63.193200000000004,303.6477,63.193200000000004,304.0682Q63.193200000000004,304.3466,63.054,304.5795Q62.9148,304.8125,62.6847,304.9517Q62.454499999999996,305.0909,62.170500000000004,305.0909ZM62.170500000000004,298.61364Q61.75,298.61364,61.448899999999995,298.3125Q61.1477,298.01136,61.1477,297.59091Q61.1477,297.17045,61.448899999999995,296.86932Q61.75,296.56818,62.170500000000004,296.56818Q62.590900000000005,296.56818,62.891999999999996,296.86932Q63.193200000000004,297.17045,63.193200000000004,297.59091Q63.193200000000004,297.86932,63.054,298.10227Q62.9148,298.33523,62.6847,298.47443Q62.454499999999996,298.61364,62.170500000000004,298.61364ZM69.5114,305.1591Q68.3864,305.1591,67.5085,304.7727Q66.6307,304.3864,66.1165,303.696Q65.6023,303.0057,65.5568,302.0909L66.9886,302.0909Q67.0341,302.6534,67.375,303.0597Q67.7159,303.4659,68.267,303.6875Q68.8182,303.9091,69.4886,303.9091Q70.2386,303.9091,70.8182,303.6477Q71.3977,303.3864,71.7273,302.9205Q72.05680000000001,302.4545,72.05680000000001,301.8409Q72.05680000000001,301.1989,71.7386,300.7074Q71.4205,300.2159,70.8068,299.9375Q70.1932,299.6591,69.3068,299.6591L68.375,299.6591L68.375,298.40909L69.3068,298.40909Q70,298.40909,70.5256,298.15909Q71.0511,297.90909,71.3494,297.45455Q71.6477,297,71.6477,296.38636Q71.6477,295.79545,71.3864,295.35795Q71.125,294.92045,70.6506,294.67614Q70.1761,294.43182,69.5341,294.43182Q68.9318,294.43182,68.4006,294.65057Q67.8693,294.86932,67.5341,295.28125Q67.1989,295.69318,67.1705,296.27273L65.8068,296.27273Q65.8409,295.35795,66.358,294.66761Q66.875,293.97727,67.7131,293.59091Q68.5511,293.20455,69.5568,293.20455Q70.6364,293.20455,71.4091,293.6392Q72.18180000000001,294.07386,72.5966,294.78409Q73.01140000000001,295.49432,73.01140000000001,296.31818Q73.01140000000001,297.30114,72.49719999999999,297.99432Q71.983,298.6875,71.1023,298.95455L71.1023,299.0455Q72.2045,299.2273,72.82390000000001,299.9801Q73.44319999999999,300.733,73.44319999999999,301.8409Q73.44319999999999,302.7898,72.929,303.5426Q72.4148,304.2955,71.5284,304.7273Q70.642,305.1591,69.5114,305.1591ZM75.48859999999999,302.6136L75.48859999999999,301.4545L80.6023,293.36364L81.44319999999999,293.36364L81.44319999999999,295.15909L80.875,295.15909L77.01140000000001,301.2727L77.01140000000001,301.3636L83.8977,301.3636L83.8977,302.6136L75.48859999999999,302.6136ZM80.9659,305L80.9659,302.2614L80.9659,301.7216L80.9659,293.36364L82.30680000000001,293.36364L82.30680000000001,305L80.9659,305ZM90.73859999999999,305L90.73859999999999,293.36364L94.6705,293.36364Q96.0398,293.36364,96.9119,293.85511Q97.7841,294.34659,98.2045,295.18182Q98.625,296.01705,98.625,297.04545Q98.625,298.07386,98.2074,298.91477Q97.7898,299.7557,96.9205,300.2528Q96.05109999999999,300.75,94.69319999999999,300.75L91.875,300.75L91.875,299.5L94.6477,299.5Q95.5852,299.5,96.1534,299.1761Q96.7216,298.85227,96.9801,298.2983Q97.23859999999999,297.74432,97.23859999999999,297.04545Q97.23859999999999,296.34659,96.9801,295.79545Q96.7216,295.24432,96.1477,294.92898Q95.57390000000001,294.61364,94.625,294.61364L92.1477,294.61364L92.1477,305L90.73859999999999,305ZM100.8977,293.36364L102.5795,293.36364L106.5341,303.0227L106.6705,303.0227L110.625,293.36364L112.3068,293.36364L112.3068,305L110.9886,305L110.9886,296.15909L110.875,296.15909L107.2386,305L105.9659,305L102.3295,296.15909L102.2159,296.15909L102.2159,305L100.8977,305L100.8977,293.36364Z" fill="#F4F7FF" fill-opacity="1"/></g></g></g></g></g><g><line x1="24" y1="316.5" x2="544" y2="316.5" fill-opacity="0" stroke-opacity="1" stroke="#98A1B3" fill="none" stroke-width="1"/></g></g><g><g><path d="M24 345C24 342.79086100067684 25.790861000676827 341 28 341L540 341C542.2091389993232 341 544 342.79086100067684 544 345L544 397C544 397 544 397 544 397L24 397C24 397 24 397 24 397Z" fill="#222834" fill-opacity="1"/><g><g><g><g><path d="M48.551140000000004,358.6364Q48.551140000000004,360.017,48.05256,361.0227Q47.55398,362.0284,46.68466,362.5739Q45.81534,363.1193,44.698859999999996,363.1193Q43.58238,363.1193,42.71307,362.5739Q41.84375,362.0284,41.34517,361.0227Q40.846589,360.017,40.846589,358.6364Q40.846589,357.25568,41.34517,356.25Q41.84375,355.24432,42.71307,354.69886Q43.58238,354.15341,44.698859999999996,354.15341Q45.81534,354.15341,46.68466,354.69886Q47.55398,355.24432,48.05256,356.25Q48.551140000000004,357.25568,48.551140000000004,358.6364ZM47.52841,358.6364Q47.52841,357.50284,47.15128,356.72301Q46.77415,355.94318,46.13281,355.54261Q45.49148,355.14205,44.698859999999996,355.14205Q43.90625,355.14205,43.26491,355.54261Q42.62358,355.94318,42.24645,356.72301Q41.86932,357.50284,41.86932,358.6364Q41.86932,359.7699,42.24645,360.5497Q42.62358,361.3295,43.26491,361.7301Q43.90625,362.1307,44.698859999999996,362.1307Q45.49148,362.1307,46.13281,361.7301Q46.77415,361.3295,47.15128,360.5497Q47.52841,359.7699,47.52841,358.6364ZM54.3125,360.3239L54.3125,356.45455L55.3182,356.45455L55.3182,363L54.3125,363L54.3125,361.892L54.2443,361.892Q54.0142,362.3906,53.5284,362.7379Q53.0426,363.0852,52.3011,363.0852Q51.6875,363.0852,51.2102,362.8146Q50.733000000000004,362.544,50.4602,361.9964Q50.1875,361.4489,50.1875,360.6136L50.1875,356.45455L51.1932,356.45455L51.1932,360.5455Q51.1932,361.2614,51.5959,361.6875Q51.998599999999996,362.1136,52.625,362.1136Q53,362.1136,53.3899,361.9219Q53.7798,361.7301,54.0462,361.3338Q54.3125,360.9375,54.3125,360.3239ZM60.005700000000004,356.45455L60.005700000000004,357.30682L56.613600000000005,357.30682L56.613600000000005,356.45455L60.005700000000004,356.45455ZM57.6023,354.88636L58.608000000000004,354.88636L58.608000000000004,361.125Q58.608000000000004,361.5511,58.7337,361.7621Q58.8594,361.973,59.057500000000005,362.0433Q59.255700000000004,362.1136,59.4773,362.1136Q59.6435,362.1136,59.75,362.0945Q59.8565,362.0753,59.920500000000004,362.0625L60.125,362.9659Q60.0227,363.0043,59.8395,363.0447Q59.6562,363.0852,59.375,363.0852Q58.948899999999995,363.0852,58.5419,362.902Q58.1349,362.7188,57.8686,362.3438Q57.6023,361.9688,57.6023,361.3977L57.6023,354.88636ZM61.5227,363L61.5227,356.45455L62.528400000000005,356.45455L62.528400000000005,363L61.5227,363ZM62.034099999999995,355.36364Q61.7401,355.36364,61.5291,355.16335Q61.318200000000004,354.96307,61.318200000000004,354.68182Q61.318200000000004,354.40057,61.5291,354.20028Q61.7401,354,62.034099999999995,354Q62.3281,354,62.539100000000005,354.20028Q62.75,354.40057,62.75,354.68182Q62.75,354.96307,62.539100000000005,355.16335Q62.3281,355.36364,62.034099999999995,355.36364ZM64.3693,363L64.3693,356.45455L65.3409,356.45455L65.3409,357.47727L65.4261,357.47727Q65.6307,356.95312,66.0866,356.66122Q66.5426,356.36932,67.1818,356.36932Q67.8295,356.36932,68.2621,356.66122Q68.69460000000001,356.95312,68.9375,357.47727L69.0057,357.47727Q69.25710000000001,356.97017,69.7599,356.66974Q70.2628,356.36932,70.9659,356.36932Q71.8438,356.36932,72.402,356.9169Q72.9602,357.46449,72.9602,358.6193L72.9602,363L71.9545,363L71.9545,358.6193Q71.9545,357.89489,71.5582,357.58380999999997Q71.1619,357.27273,70.625,357.27273Q69.93469999999999,357.27273,69.55539999999999,357.68821Q69.1761,358.1037,69.1761,358.7386L69.1761,363L68.1534,363L68.1534,358.517Q68.1534,357.95880999999997,67.7912,357.61577Q67.429,357.27273,66.858,357.27273Q66.4659,357.27273,66.1271,357.48153Q65.7884,357.69034,65.5817,358.0589Q65.375,358.4276,65.375,358.9091L65.375,363L64.3693,363ZM77.5455,363.1364Q76.5994,363.1364,75.91550000000001,362.71659999999997Q75.2315,362.2969,74.8629,361.5405Q74.49430000000001,360.7841,74.49430000000001,359.7784Q74.49430000000001,358.7727,74.8629,358.0036Q75.2315,357.23438,75.8942,356.80185Q76.55680000000001,356.36932,77.44319999999999,356.36932Q77.9545,356.36932,78.4531,356.53977Q78.9517,356.71023,79.3608,357.09162Q79.7699,357.47301,80.0128,358.0994Q80.25569999999999,358.7259,80.25569999999999,359.642L80.25569999999999,360.0682L75.2102,360.0682L75.2102,359.1989L79.233,359.1989Q79.233,358.6449,79.0135,358.2102Q78.794,357.77557,78.3913,357.52415Q77.98859999999999,357.27273,77.44319999999999,357.27273Q76.8423,357.27273,76.4055,357.56889Q75.9688,357.86505999999997,75.7344,358.3381Q75.5,358.8111,75.5,359.3523L75.5,359.9318Q75.5,360.6733,75.7578,361.1868Q76.0156,361.7003,76.4759,361.96659999999997Q76.93610000000001,362.233,77.5455,362.233Q77.9418,362.233,78.2635,362.12Q78.5852,362.0071,78.81960000000001,361.77909999999997Q79.054,361.5511,79.18180000000001,361.2102L80.1534,361.483Q80,361.9773,79.6378,362.3501Q79.2756,362.723,78.74289999999999,362.9297Q78.2102,363.1364,77.5455,363.1364Z" fill="#98A1B3" fill-opacity="1"/></g></g><g><g><path d="M41.57955,373.36364L43.261359999999996,373.36364L47.21591,383.0227L47.35227,383.0227L51.3068,373.36364L52.9886,373.36364L52.9886,385L51.670500000000004,385L51.670500000000004,376.15909L51.5568,376.15909L47.92045,385L46.64773,385L43.011359999999996,376.15909L42.89773,376.15909L42.89773,385L41.57955,385L41.57955,373.36364ZM55.625,385L55.625,376.27273L56.965900000000005,376.27273L56.965900000000005,385L55.625,385ZM56.306799999999996,374.81818Q55.9148,374.81818,55.6335,374.55114Q55.3523,374.28409,55.3523,373.90909Q55.3523,373.53409,55.6335,373.26705Q55.9148,373,56.306799999999996,373Q56.698899999999995,373,56.9801,373.26705Q57.261399999999995,373.53409,57.261399999999995,373.90909Q57.261399999999995,374.28409,56.9801,374.55114Q56.698899999999995,374.81818,56.306799999999996,374.81818ZM65.6023,378.22727L64.3977,378.56818Q64.2841,378.26705,64.06530000000001,377.98011Q63.846599999999995,377.69318,63.471599999999995,377.50568Q63.096599999999995,377.31818,62.511399999999995,377.31818Q61.7102,377.31818,61.179,377.68466Q60.6477,378.05114,60.6477,378.61364Q60.6477,379.1136,61.011399999999995,379.4034Q61.375,379.6932,62.1477,379.8864L63.443200000000004,380.2045Q64.6136,380.4886,65.1875,381.071Q65.7614,381.6534,65.7614,382.5682Q65.7614,383.3182,65.3324,383.9091Q64.9034,384.5,64.1364,384.8409Q63.369299999999996,385.1818,62.3523,385.1818Q61.016999999999996,385.1818,60.141999999999996,384.6023Q59.266999999999996,384.0227,59.034099999999995,382.9091L60.306799999999996,382.5909Q60.488600000000005,383.2955,60.9972,383.6477Q61.505700000000004,384,62.329499999999996,384Q63.266999999999996,384,63.821,383.5994Q64.375,383.1989,64.375,382.6364Q64.375,382.1818,64.0568,381.8722Q63.738600000000005,381.5625,63.079499999999996,381.4091L61.625,381.0682Q60.426100000000005,380.7841,59.8665,380.1847Q59.306799999999996,379.5852,59.306799999999996,378.68182Q59.306799999999996,377.94318,59.7244,377.375Q60.141999999999996,376.80682,60.8665,376.48295Q61.590900000000005,376.15909,62.511399999999995,376.15909Q63.806799999999996,376.15909,64.5483,376.72727Q65.2898,377.29545,65.6023,378.22727ZM73.9659,378.22727L72.76140000000001,378.56818Q72.6477,378.26705,72.429,377.98011Q72.2102,377.69318,71.8352,377.50568Q71.4602,377.31818,70.875,377.31818Q70.0739,377.31818,69.5426,377.68466Q69.0114,378.05114,69.0114,378.61364Q69.0114,379.1136,69.375,379.4034Q69.7386,379.6932,70.5114,379.8864L71.8068,380.2045Q72.9773,380.4886,73.55109999999999,381.071Q74.125,381.6534,74.125,382.5682Q74.125,383.3182,73.696,383.9091Q73.267,384.5,72.5,384.8409Q71.733,385.1818,70.7159,385.1818Q69.3807,385.1818,68.5057,384.6023Q67.6307,384.0227,67.3977,382.9091L68.6705,382.5909Q68.8523,383.2955,69.3608,383.6477Q69.8693,384,70.6932,384Q71.6307,384,72.18469999999999,383.5994Q72.73859999999999,383.1989,72.73859999999999,382.6364Q72.73859999999999,382.1818,72.4205,381.8722Q72.1023,381.5625,71.4432,381.4091L69.9886,381.0682Q68.7898,380.7841,68.2301,380.1847Q67.6705,379.5852,67.6705,378.68182Q67.6705,377.94318,68.0881,377.375Q68.5057,376.80682,69.2301,376.48295Q69.9545,376.15909,70.875,376.15909Q72.1705,376.15909,72.9119,376.72727Q73.6534,377.29545,73.9659,378.22727ZM76.1477,385L76.1477,376.27273L77.48859999999999,376.27273L77.48859999999999,385L76.1477,385ZM76.8295,374.81818Q76.4375,374.81818,76.1562,374.55114Q75.875,374.28409,75.875,373.90909Q75.875,373.53409,76.1562,373.26705Q76.4375,373,76.8295,373Q77.2216,373,77.50280000000001,373.26705Q77.7841,373.53409,77.7841,373.90909Q77.7841,374.28409,77.50280000000001,374.55114Q77.2216,374.81818,76.8295,374.81818ZM81.2841,379.75L81.2841,385L79.94319999999999,385L79.94319999999999,376.27273L81.23859999999999,376.27273L81.23859999999999,377.63636L81.3523,377.63636Q81.6591,376.97159,82.2841,376.56534Q82.9091,376.15909,83.8977,376.15909Q84.7841,376.15909,85.44890000000001,376.51989Q86.11359999999999,376.88068,86.483,377.6108Q86.8523,378.34091,86.8523,379.4545L86.8523,385L85.51140000000001,385L85.51140000000001,379.5455Q85.51140000000001,378.51705,84.9773,377.94034Q84.44319999999999,377.36364,83.51140000000001,377.36364Q82.86930000000001,377.36364,82.3665,377.64205Q81.86359999999999,377.92045,81.57390000000001,378.45455Q81.2841,378.98864,81.2841,379.75ZM92.8295,388.4545Q91.858,388.4545,91.1591,388.2074Q90.4602,387.9602,89.99719999999999,387.5597Q89.5341,387.1591,89.26140000000001,386.7045L90.3295,385.9545Q90.51140000000001,386.1932,90.7898,386.5028Q91.06819999999999,386.8125,91.554,387.0426Q92.0398,387.2727,92.8295,387.2727Q93.88640000000001,387.2727,94.57390000000001,386.7614Q95.26140000000001,386.25,95.26140000000001,385.1591L95.26140000000001,383.3864L95.1477,383.3864Q95,383.625,94.7301,383.9744Q94.4602,384.3239,93.9574,384.5938Q93.4545,384.8636,92.6023,384.8636Q91.5455,384.8636,90.7074,384.3636Q89.86930000000001,383.8636,89.3835,382.9091Q88.8977,381.9545,88.8977,380.5909Q88.8977,379.25,89.36930000000001,378.25284Q89.8409,377.25568,90.68180000000001,376.70739Q91.5227,376.15909,92.625,376.15909Q93.4773,376.15909,93.9801,376.44034Q94.483,376.72159,94.75280000000001,377.0767Q95.0227,377.43182,95.1705,377.65909L95.30680000000001,377.65909L95.30680000000001,376.27273L96.6023,376.27273L96.6023,385.25Q96.6023,386.375,96.0938,387.0824Q95.5852,387.7898,94.7301,388.1222Q93.875,388.4545,92.8295,388.4545ZM92.7841,383.6591Q93.5909,383.6591,94.1477,383.2898Q94.7045,382.9205,94.99430000000001,382.2273Q95.2841,381.5341,95.2841,380.5682Q95.2841,379.625,95,378.90341Q94.7159,378.18182,94.1591,377.77273Q93.6023,377.36364,92.7841,377.36364Q91.93180000000001,377.36364,91.3665,377.79545Q90.80109999999999,378.22727,90.5199,378.95455Q90.23859999999999,379.6818,90.23859999999999,380.5682Q90.23859999999999,381.4773,90.5256,382.1733Q90.8125,382.8693,91.37780000000001,383.2642Q91.94319999999999,383.6591,92.7841,383.6591Z" fill="#F4F7FF" fill-opacity="1"/></g></g></g></g></g><g><line x1="24" y1="396.5" x2="544" y2="396.5" fill-opacity="0" stroke-opacity="1" stroke="#98A1B3" fill="none" stroke-width="1"/></g></g><g><g><path d="M24 425C24 422.79086100067684 25.790861000676827 421 28 421L540 421C542.2091389993232 421 544 422.79086100067684 544 425L544 477C544 477 544 477 544 477L24 477C24 477 24 477 24 477Z" fill="#222834" fill-opacity="1"/><g><g><g><g><path d="M41.36364,443L41.36364,434.27273L46.63068,434.27273L46.63068,435.21023L42.42046,435.21023L42.42046,438.1591L46.35796,438.1591L46.35796,439.0966L42.42046,439.0966L42.42046,442.0625L46.69887,442.0625L46.69887,443L41.36364,443ZM50.329499999999996,443.1534Q49.707390000000004,443.1534,49.20029,442.9169Q48.69318,442.6804,48.394890000000004,442.2308Q48.09659,441.7812,48.09659,441.142Q48.09659,440.5795,48.31818,440.228Q48.539770000000004,439.8764,48.91051,439.6761Q49.28125,439.4759,49.73083,439.3757Q50.1804,439.2756,50.6364,439.2159Q51.233000000000004,439.1392,51.6058,439.0987Q51.9787,439.0582,52.1513,438.9602Q52.3239,438.8622,52.3239,438.6193L52.3239,438.5852Q52.3239,437.95455,51.9808,437.60511Q51.6378,437.25568,50.9432,437.25568Q50.223,437.25568,49.813919999999996,437.57102Q49.404830000000004,437.88636,49.238640000000004,438.2443L48.28409,437.90341Q48.539770000000004,437.30682,48.96804,436.9723Q49.39631,436.63778,49.90554,436.50355Q50.4148,436.36932,50.9091,436.36932Q51.2244,436.36932,51.6357,436.44389Q52.0469,436.51847,52.4325,436.74858Q52.8182,436.97869000000003,53.0739,437.44318Q53.329499999999996,437.90767,53.329499999999996,438.6875L53.329499999999996,443L52.3239,443L52.3239,442.1136L52.2727,442.1136Q52.170500000000004,442.3267,51.9318,442.5696Q51.6932,442.8125,51.2969,442.983Q50.9006,443.1534,50.329499999999996,443.1534ZM50.483000000000004,442.25Q51.079499999999996,442.25,51.4908,442.0156Q51.902,441.7812,52.112899999999996,441.4105Q52.3239,441.0398,52.3239,440.6307L52.3239,439.7102Q52.2599,439.7869,52.0447,439.8487Q51.829499999999996,439.9105,51.550399999999996,439.9553Q51.2713,440,51.0092,440.032Q50.7472,440.0639,50.5852,440.0852Q50.1932,440.1364,49.85441,440.2493Q49.51563,440.3622,49.308949999999996,440.5859Q49.102270000000004,440.8097,49.102270000000004,441.1932Q49.102270000000004,441.7173,49.49219,441.9837Q49.8821,442.25,50.483000000000004,442.25ZM55.170500000000004,443L55.170500000000004,436.45455L56.141999999999996,436.45455L56.141999999999996,437.44318L56.2102,437.44318Q56.3892,436.95739,56.858000000000004,436.65483Q57.3267,436.35227,57.9148,436.35227Q58.0256,436.35227,58.1918,436.35653Q58.358000000000004,436.3608,58.443200000000004,436.36932L58.443200000000004,437.39205Q58.391999999999996,437.37926,58.210899999999995,437.35156Q58.0298,437.32386,57.829499999999996,437.32386Q57.3523,437.32386,56.9794,437.52202Q56.6065,437.72017,56.3913,438.0675Q56.176100000000005,438.4148,56.176100000000005,438.858L56.176100000000005,443L55.170500000000004,443ZM60.641999999999996,434.27273L60.641999999999996,443L59.636399999999995,443L59.636399999999995,434.27273L60.641999999999996,434.27273ZM63.130700000000004,445.4545Q62.875,445.4545,62.6747,445.4141Q62.4744,445.3736,62.3977,445.3352L62.653400000000005,444.4489Q63.0199,444.5426,63.301100000000005,444.517Q63.5824,444.4915,63.8019,444.2678Q64.0213,444.044,64.2045,443.5455L64.392,443.0341L61.971599999999995,436.45455L63.0625,436.45455L64.8693,441.6705L64.9375,441.6705L66.7443,436.45455L67.8352,436.45455L65.0568,443.9545Q64.8693,444.4616,64.5923,444.7962Q64.31530000000001,445.1307,63.951,445.2926Q63.5867,445.4545,63.130700000000004,445.4545ZM75.19890000000001,443.1364Q74.2784,443.1364,73.61359999999999,442.7017Q72.94890000000001,442.267,72.5909,441.5043Q72.233,440.7415,72.233,439.7614Q72.233,438.7642,72.60159999999999,437.99929Q72.9702,437.23438,73.6328,436.80185Q74.2955,436.36932,75.18180000000001,436.36932Q75.87219999999999,436.36932,76.42609999999999,436.625Q76.9801,436.88068,77.3338,437.34091Q77.6875,437.80114,77.7727,438.4148L76.767,438.4148Q76.652,437.96733,76.2578,437.62003Q75.86359999999999,437.27273,75.19890000000001,437.27273Q74.6108,437.27273,74.1697,437.57741Q73.7287,437.8821,73.4837,438.4339Q73.23859999999999,438.9858,73.23859999999999,439.7273Q73.23859999999999,440.4858,73.4794,441.0483Q73.7202,441.6108,74.16120000000001,441.9219Q74.6023,442.233,75.19890000000001,442.233Q75.5909,442.233,75.9105,442.0966Q76.2301,441.9602,76.4517,441.7045Q76.6733,441.4489,76.767,441.0909L77.7727,441.0909Q77.6875,441.6705,77.35300000000001,442.1328Q77.0185,442.5952,76.4709,442.8658Q75.9233,443.1364,75.19890000000001,443.1364ZM80.24430000000001,439.0625L80.24430000000001,443L79.23859999999999,443L79.23859999999999,434.27273L80.24430000000001,434.27273L80.24430000000001,437.47727L80.3296,437.47727Q80.55969999999999,436.97017,81.02199999999999,436.66974Q81.4844,436.36932,82.25569999999999,436.36932Q82.9247,436.36932,83.4276,436.63565Q83.93039999999999,436.90199,84.20949999999999,437.44957Q84.48859999999999,437.99716,84.48859999999999,438.8409L84.48859999999999,443L83.483,443L83.483,438.9091Q83.483,438.1293,83.0803,437.70099Q82.6776,437.27273,81.9659,437.27273Q81.4716,437.27273,81.0817,437.48153Q80.6918,437.69034,80.468,438.0909Q80.24430000000001,438.4915,80.24430000000001,439.0625ZM89.07390000000001,443.1364Q88.12780000000001,443.1364,87.4439,442.71659999999997Q86.7599,442.2969,86.3913,441.5405Q86.0227,440.7841,86.0227,439.7784Q86.0227,438.7727,86.3913,438.0036Q86.7599,437.23438,87.4226,436.80185Q88.0852,436.36932,88.9716,436.36932Q89.483,436.36932,89.9815,436.53977Q90.4801,436.71023,90.8892,437.09162Q91.2983,437.47301,91.5412,438.0994Q91.7841,438.7259,91.7841,439.642L91.7841,440.0682L86.73859999999999,440.0682L86.73859999999999,439.1989L90.76140000000001,439.1989Q90.76140000000001,438.6449,90.5419,438.2102Q90.3224,437.77557,89.91980000000001,437.52415Q89.5171,437.27273,88.9716,437.27273Q88.3707,437.27273,87.934,437.56889Q87.49719999999999,437.86505999999997,87.2628,438.3381Q87.0284,438.8111,87.0284,439.3523L87.0284,439.9318Q87.0284,440.6733,87.28620000000001,441.1868Q87.544,441.7003,88.0043,441.96659999999997Q88.4645,442.233,89.07390000000001,442.233Q89.4702,442.233,89.7919,442.12Q90.11359999999999,442.0071,90.348,441.77909999999997Q90.5824,441.5511,90.7102,441.2102L91.68180000000001,441.483Q91.5284,441.9773,91.1662,442.3501Q90.804,442.723,90.2713,442.9297Q89.73859999999999,443.1364,89.07390000000001,443.1364ZM95.9773,443.1364Q95.05680000000001,443.1364,94.3921,442.7017Q93.7273,442.267,93.36930000000001,441.5043Q93.01140000000001,440.7415,93.01140000000001,439.7614Q93.01140000000001,438.7642,93.38,437.99929Q93.74860000000001,437.23438,94.41120000000001,436.80185Q95.07390000000001,436.36932,95.9602,436.36932Q96.6506,436.36932,97.2046,436.625Q97.7585,436.88068,98.1122,437.34091Q98.4659,437.80114,98.55109999999999,438.4148L97.5455,438.4148Q97.43039999999999,437.96733,97.03620000000001,437.62003Q96.6421,437.27273,95.9773,437.27273Q95.3892,437.27273,94.9482,437.57741Q94.50710000000001,437.8821,94.2621,438.4339Q94.0171,438.9858,94.0171,439.7273Q94.0171,440.4858,94.2578,441.0483Q94.49860000000001,441.6108,94.9396,441.9219Q95.38069999999999,442.233,95.9773,442.233Q96.36930000000001,442.233,96.68889999999999,442.0966Q97.0085,441.9602,97.2301,441.7045Q97.4517,441.4489,97.5455,441.0909L98.55109999999999,441.0909Q98.4659,441.6705,98.1314,442.1328Q97.7969,442.5952,97.2493,442.8658Q96.7017,443.1364,95.9773,443.1364ZM100.9546,440.6136L100.9375,439.3693L101.1421,439.3693L104.0057,436.45455L105.25,436.45455L102.19890000000001,439.5398L102.11359999999999,439.5398L100.9546,440.6136ZM100.0171,443L100.0171,434.27273L101.0227,434.27273L101.0227,443L100.0171,443ZM104.1761,443L101.61930000000001,439.7614L102.3352,439.0625L105.4546,443L104.1761,443ZM108.9318,443.1364Q108.0455,443.1364,107.3786,442.7145Q106.7117,442.2926,106.3388,441.5341Q105.9659,440.7756,105.9659,439.7614Q105.9659,438.7386,106.3388,437.97585Q106.7117,437.21307,107.3786,436.79119000000003Q108.0455,436.36932,108.9318,436.36932Q109.8182,436.36932,110.4851,436.79119000000003Q111.152,437.21307,111.5249,437.97585Q111.8977,438.7386,111.8977,439.7614Q111.8977,440.7756,111.5249,441.5341Q111.152,442.2926,110.4851,442.7145Q109.8182,443.1364,108.9318,443.1364ZM108.9318,442.233Q109.6051,442.233,110.0398,441.8878Q110.4744,441.5426,110.6832,440.9801Q110.8921,440.4176,110.8921,439.7614Q110.8921,439.1051,110.6832,438.5384Q110.4744,437.97159,110.0398,437.62216Q109.6051,437.27273,108.9318,437.27273Q108.2585,437.27273,107.8239,437.62216Q107.3892,437.97159,107.1804,438.5384Q106.9716,439.1051,106.9716,439.7614Q106.9716,440.4176,107.1804,440.9801Q107.3892,441.5426,107.8239,441.8878Q108.2585,442.233,108.9318,442.233ZM117.5568,440.3239L117.5568,436.45455L118.5625,436.45455L118.5625,443L117.5568,443L117.5568,441.892L117.4886,441.892Q117.2585,442.3906,116.7727,442.7379Q116.2869,443.0852,115.5455,443.0852Q114.9318,443.0852,114.4546,442.8146Q113.9773,442.544,113.7046,441.9964Q113.4318,441.4489,113.4318,440.6136L113.4318,436.45455L114.4375,436.45455L114.4375,440.5455Q114.4375,441.2614,114.8402,441.6875Q115.2429,442.1136,115.8693,442.1136Q116.2443,442.1136,116.6342,441.9219Q117.0242,441.7301,117.2905,441.3338Q117.5568,440.9375,117.5568,440.3239ZM123.25,436.45455L123.25,437.30682L119.858,437.30682L119.858,436.45455L123.25,436.45455ZM120.8466,434.88636L121.8523,434.88636L121.8523,441.125Q121.8523,441.5511,121.978,441.7621Q122.1037,441.973,122.3018,442.0433Q122.5,442.1136,122.7216,442.1136Q122.8878,442.1136,122.9943,442.0945Q123.1009,442.0753,123.1648,442.0625L123.3693,442.9659Q123.267,443.0043,123.0838,443.0447Q122.9006,443.0852,122.6193,443.0852Q122.1932,443.0852,121.7862,442.902Q121.3793,442.7188,121.1129,442.3438Q120.8466,441.9688,120.8466,441.3977L120.8466,434.88636ZM128.142,443L128.142,436.45455L129.11360000000002,436.45455L129.11360000000002,437.44318L129.1818,437.44318Q129.36079999999998,436.95739,129.8295,436.65483Q130.29829999999998,436.35227,130.88639999999998,436.35227Q130.99720000000002,436.35227,131.1634,436.35653Q131.3295,436.3608,131.4148,436.36932L131.4148,437.39205Q131.36360000000002,437.37926,131.1825,437.35156Q131.0014,437.32386,130.80110000000002,437.32386Q130.32389999999998,437.32386,129.951,437.52202Q129.5781,437.72017,129.3629,438.0675Q129.1477,438.4148,129.1477,438.858L129.1477,443L128.142,443ZM135.1477,443.1364Q134.20170000000002,443.1364,133.5178,442.71659999999997Q132.8338,442.2969,132.46519999999998,441.5405Q132.0966,440.7841,132.0966,439.7784Q132.0966,438.7727,132.46519999999998,438.0036Q132.8338,437.23438,133.4965,436.80185Q134.1591,436.36932,135.0455,436.36932Q135.5568,436.36932,136.05540000000002,436.53977Q136.554,436.71023,136.9631,437.09162Q137.37220000000002,437.47301,137.61509999999998,438.0994Q137.858,438.7259,137.858,439.642L137.858,440.0682L132.8125,440.0682L132.8125,439.1989L136.8352,439.1989Q136.8352,438.6449,136.61579999999998,438.2102Q136.3963,437.77557,135.99360000000001,437.52415Q135.5909,437.27273,135.0455,437.27273Q134.44459999999998,437.27273,134.0078,437.56889Q133.571,437.86505999999997,133.3366,438.3381Q133.1023,438.8111,133.1023,439.3523L133.1023,439.9318Q133.1023,440.6733,133.3601,441.1868Q133.61790000000002,441.7003,134.0781,441.96659999999997Q134.5384,442.233,135.1477,442.233Q135.54399999999998,442.233,135.86579999999998,442.12Q136.1875,442.0071,136.4219,441.77909999999997Q136.6562,441.5511,136.7841,441.2102L137.7557,441.483Q137.6023,441.9773,137.24009999999998,442.3501Q136.87779999999998,442.723,136.3452,442.9297Q135.8125,443.1364,135.1477,443.1364ZM141.31799999999998,443.1534Q140.696,443.1534,140.189,442.9169Q139.6818,442.6804,139.3835,442.2308Q139.0852,441.7812,139.0852,441.142Q139.0852,440.5795,139.3068,440.228Q139.5284,439.8764,139.8991,439.6761Q140.26999999999998,439.4759,140.719,439.3757Q141.16899999999998,439.2756,141.625,439.2159Q142.22199999999998,439.1392,142.594,439.0987Q142.96699999999998,439.0582,143.14,438.9602Q143.312,438.8622,143.312,438.6193L143.312,438.5852Q143.312,437.95455,142.969,437.60511Q142.626,437.25568,141.93200000000002,437.25568Q141.212,437.25568,140.803,437.57102Q140.393,437.88636,140.227,438.2443L139.2727,437.90341Q139.5284,437.30682,139.9567,436.9723Q140.385,436.63778,140.894,436.50355Q141.40300000000002,436.36932,141.898,436.36932Q142.213,436.36932,142.624,436.44389Q143.036,436.51847,143.421,436.74858Q143.80700000000002,436.97869000000003,144.062,437.44318Q144.31799999999998,437.90767,144.31799999999998,438.6875L144.31799999999998,443L143.312,443L143.312,442.1136L143.261,442.1136Q143.159,442.3267,142.92000000000002,442.5696Q142.68200000000002,442.8125,142.286,442.983Q141.889,443.1534,141.31799999999998,443.1534ZM141.47199999999998,442.25Q142.06799999999998,442.25,142.47899999999998,442.0156Q142.89100000000002,441.7812,143.102,441.4105Q143.312,441.0398,143.312,440.6307L143.312,439.7102Q143.249,439.7869,143.03300000000002,439.8487Q142.81799999999998,439.9105,142.539,439.9553Q142.26,440,141.998,440.032Q141.736,440.0639,141.574,440.0852Q141.18200000000002,440.1364,140.84300000000002,440.2493Q140.50400000000002,440.3622,140.298,440.5859Q140.091,440.8097,140.091,441.1932Q140.091,441.7173,140.481,441.9837Q140.87099999999998,442.25,141.47199999999998,442.25ZM150.79500000000002,437.92045L149.892,438.1761Q149.80700000000002,437.95028,149.643,437.73508Q149.47899999999998,437.51989,149.197,437.37926Q148.916,437.23864,148.477,437.23864Q147.876,437.23864,147.478,437.51349Q147.07999999999998,437.78835,147.07999999999998,438.2102Q147.07999999999998,438.5852,147.352,438.8026Q147.625,439.0199,148.20499999999998,439.1648L149.176,439.4034Q150.054,439.6165,150.48399999999998,440.0533Q150.91500000000002,440.4901,150.91500000000002,441.1761Q150.91500000000002,441.7386,150.59300000000002,442.1818Q150.27100000000002,442.625,149.696,442.8807Q149.12099999999998,443.1364,148.358,443.1364Q147.357,443.1364,146.7,442.7017Q146.04399999999998,442.267,145.869,441.4318L146.824,441.1932Q146.95999999999998,441.7216,147.34199999999998,441.9858Q147.723,442.25,148.341,442.25Q149.04399999999998,442.25,149.45999999999998,441.9496Q149.875,441.6491,149.875,441.2273Q149.875,440.8864,149.636,440.65409999999997Q149.398,440.4219,148.90300000000002,440.3068L147.812,440.0511Q146.913,439.8381,146.494,439.3885Q146.074,438.9389,146.074,438.2614Q146.074,437.70739,146.387,437.28125Q146.7,436.85511,147.244,436.61222Q147.787,436.36932,148.477,436.36932Q149.449,436.36932,150.005,436.79545Q150.561,437.22159,150.79500000000002,437.92045ZM155.091,443.1364Q154.20499999999998,443.1364,153.538,442.7145Q152.87099999999998,442.2926,152.498,441.5341Q152.125,440.7756,152.125,439.7614Q152.125,438.7386,152.498,437.97585Q152.87099999999998,437.21307,153.538,436.79119000000003Q154.20499999999998,436.36932,155.091,436.36932Q155.977,436.36932,156.644,436.79119000000003Q157.311,437.21307,157.684,437.97585Q158.05700000000002,438.7386,158.05700000000002,439.7614Q158.05700000000002,440.7756,157.684,441.5341Q157.311,442.2926,156.644,442.7145Q155.977,443.1364,155.091,443.1364ZM155.091,442.233Q155.764,442.233,156.199,441.8878Q156.63400000000001,441.5426,156.84199999999998,440.9801Q157.051,440.4176,157.051,439.7614Q157.051,439.1051,156.84199999999998,438.5384Q156.63400000000001,437.97159,156.199,437.62216Q155.764,437.27273,155.091,437.27273Q154.418,437.27273,153.983,437.62216Q153.548,437.97159,153.339,438.5384Q153.131,439.1051,153.131,439.7614Q153.131,440.4176,153.339,440.9801Q153.548,441.5426,153.983,441.8878Q154.418,442.233,155.091,442.233ZM160.59699999999998,439.0625L160.59699999999998,443L159.591,443L159.591,436.45455L160.562,436.45455L160.562,437.47727L160.648,437.47727Q160.878,436.97869000000003,161.34699999999998,436.67401Q161.815,436.36932,162.55700000000002,436.36932Q163.22199999999998,436.36932,163.72,436.63991Q164.219,436.91051,164.49599999999998,437.4581Q164.773,438.0057,164.773,438.8409L164.773,443L163.767,443L163.767,438.9091Q163.767,438.1378,163.36599999999999,437.70526Q162.966,437.27273,162.267,437.27273Q161.786,437.27273,161.40800000000002,437.48153Q161.031,437.69034,160.814,438.0909Q160.59699999999998,438.4915,160.59699999999998,439.0625Z" fill="#98A1B3" fill-opacity="1"/></g></g><g><g><path d="M50.8523,453.36364L50.8523,465L49.488640000000004,465L43.14773,455.86364L43.03409,455.86364L43.03409,465L41.625,465L41.625,453.36364L42.988640000000004,453.36364L49.352270000000004,462.5227L49.46591,462.5227L49.46591,453.36364L50.8523,453.36364ZM57.6023,452.81818L53.8523,466.75L52.625,466.75L56.375,452.81818L57.6023,452.81818ZM59.8523,465L58.375,465L62.6477,453.36364L64.1023,453.36364L68.375,465L66.8977,465L63.420500000000004,455.20455L63.329499999999996,455.20455L59.8523,465ZM60.3977,460.4545L66.3523,460.4545L66.3523,461.7045L60.3977,461.7045L60.3977,460.4545Z" fill="#F4F7FF" fill-opacity="1"/></g></g></g></g></g><g><line x1="24" y1="476.5" x2="544" y2="476.5" fill-opacity="0" stroke-opacity="1" stroke="#98A1B3" fill="none" stroke-width="1"/></g></g></g><g><g><rect x="24" y="938" width="134" height="48" rx="24" fill="#454546" fill-opacity="1"/><g><path d="M80.00337,958.91815Q79.91246,958.11364,79.25506,957.66823Q78.59774,957.22274,77.5989,957.22274Q76.88299,957.22274,76.35964,957.44602Q75.83638,957.6693,75.54998,958.05913Q75.26367,958.44886,75.26252,958.94549Q75.26021,959.36026,75.45738,959.65971Q75.65456,959.95907,75.97496,960.16078Q76.29545,960.36248,76.66477,960.49547Q77.03409,960.62837,77.37615,960.7136L78.51252,961.00906Q79.06933,961.14542,79.65456,961.38068Q80.23979,961.6159,80.73864,961.9949Q81.23748,962.3738,81.54714,962.9363Q81.85679999999999,963.4988,81.85795,964.2864Q81.85679999999999,965.2704,81.34996,966.0386Q80.84322,966.8068,79.88015,967.2488Q78.91708,967.6909,77.54883,967.6909Q76.24547,967.6909,75.2903,967.2784Q74.33523,966.8659,73.79483,966.1017Q73.25453,965.3375,73.19886,964.2818L74.96253,964.2818Q75.01367,964.9159,75.37269,965.3319Q75.73179999999999,965.7477,76.29829,965.9512Q76.86479,966.1546,77.53977,966.1546Q78.2864,966.1546,78.86816,965.9182Q79.45002,965.6818,79.78524,965.258Q80.12047,964.8341,80.12162000000001,964.2682Q80.12047,963.7512,79.82786,963.4199Q79.53524,963.0886,79.03631,962.8745Q78.53746,962.6602,77.91708,962.4955L76.53977,962.1182Q75.13974,961.7375,74.32554999999999,960.99831Q73.51136,960.25906,73.51252,959.04545Q73.51136,958.04208,74.0562,957.29155Q74.60112,956.54093,75.53462,956.12278Q76.46822,955.70455,77.63521,955.70455Q78.81703,955.70455,79.72265,956.11932Q80.62837,956.53409,81.15163,957.25968Q81.67498,957.98526,81.69886,958.91815L80.00337,958.91815ZM86.358,967.6909Q85.5273,967.6909,84.85849999999999,967.3835Q84.1898,967.0762,83.7988,966.4841Q83.4079,965.892,83.4079,965.0364Q83.4079,964.2931,83.6932,963.8165Q83.9784,963.3398,84.4614,963.0613Q84.9443,962.7829,85.5403,962.642Q86.1364,962.5012,86.758,962.4273Q87.5409,962.3341,88.0278,962.2744Q88.5147,962.2148,88.7386,962.0802Q88.9625,961.9455,88.9625,961.6364L88.9625,961.5954Q88.9625,960.85458,88.54429999999999,960.44549Q88.1262,960.0364,87.3034,960.0364Q86.4455,960.0364,85.9529,960.41193Q85.4602,960.78746,85.2716,961.25L83.6761,960.88636Q83.9602,960.09091,84.5074,959.59943Q85.0545,959.10795,85.7716,958.88352Q86.4886,958.65909,87.2761,958.65909Q87.8,958.65909,88.3874,958.7824Q88.975,958.90572,89.4909,959.22905Q90.0068,959.55229,90.3346,960.15172Q90.6625,960.75115,90.6625,961.7045L90.6625,967.5L89.0034,967.5L89.0034,966.3091L88.9352,966.3091Q88.7739,966.6341,88.4449,966.9534Q88.1159,967.2727,87.5983,967.4818Q87.08070000000001,967.6909,86.358,967.6909ZM86.7261,966.3319Q87.4341,966.3319,87.9358,966.0523Q88.4375,965.7727,88.7022,965.3216Q88.9671,964.8705,88.9671,964.3546L88.9671,963.2273Q88.8738,963.3193,88.6165,963.3944Q88.3591,963.4693,88.0301,963.525Q87.7012,963.5807,87.3869,963.6216Q87.0727,963.6625,86.8625,963.6909Q86.3716,963.7568,85.9642,963.9029Q85.5568,964.0488,85.3142,964.3244Q85.0716,964.6,85.0716,965.0545Q85.0716,965.6863,85.5386,966.0091Q86.0057,966.3319,86.7261,966.3319ZM100.075,958.77273L96.9068,967.5L95.0886,967.5L91.9205,958.77273L93.7432,958.77273L95.9522,965.4909L96.0431,965.4909L98.2523,958.77273L100.075,958.77273ZM105.1262,967.6773Q103.8375,967.6773,102.9062,967.1222Q101.975,966.567,101.4733,965.5585Q100.9716,964.55,100.9716,963.1955Q100.9716,961.8523,101.4738,960.82955Q101.9761,959.80682,102.8817,959.23295Q103.7875,958.65909,105.0034,958.65909Q105.7466,958.65909,106.4387,958.90226Q107.13069999999999,959.14542,107.6807,959.66877Q108.23060000000001,960.19203,108.55109999999999,961.02619Q108.8716,961.8603,108.8716,963.0455L108.8716,963.6454L101.9307,963.6454L101.9307,962.3727L107.2034,962.3727Q107.2022,961.7069,106.93119999999999,961.18581Q106.6602,960.66477,106.1688,960.36426Q105.6773,960.06365,105.017,960.06365Q104.3,960.06365,103.7704,960.41193Q103.2409,960.76021,102.9529,961.32164Q102.6648,961.883,102.6625,962.5364L102.6625,963.5273Q102.6625,964.4023,102.9727,965.0159Q103.2829,965.6295,103.8398,965.9512Q104.3966,966.2727,105.1397,966.2727Q105.62729999999999,966.2727,106.0244,966.1341Q106.4216,965.9955,106.7102,965.7177Q106.9988,965.4398,107.1534,965.0273L108.7625,965.3182Q108.5693,966.0273,108.0727,966.5585Q107.5762,967.0898,106.8267,967.3835Q106.0772,967.6773,105.1262,967.6773Z" fill="#868686" fill-opacity="1"/></g></g><g><rect x="174.5" y="938.5" width="148" height="47" rx="23.5" fill-opacity="0" stroke-opacity="1" stroke="#868686" fill="none" stroke-width="1"/><g><path d="M232.992,959.64542L231.22390000000001,959.64542Q231.11701,959.07955,230.84029,958.64657Q230.56365,958.2136,230.16078,957.91424Q229.75799,957.61479,229.25906,957.462Q228.76021,957.30913,228.2057,957.30913Q227.20117,957.30913,226.4074,957.81365Q225.61364,958.31818,225.1551,959.2943Q224.69656,960.27042,224.69656,961.6818Q224.69656,963.1046,225.15625,964.0802Q225.61594,965.0557,226.40909,965.5551Q227.20224,966.0545,228.20117,966.0545Q228.75231,966.0545,229.24885,965.9051Q229.74547,965.7557,230.14888,965.4614Q230.55229,965.1671,230.83239,964.7369Q231.11248,964.3068,231.22390000000001,963.75L232.992,963.7545Q232.8534,964.6159,232.4454,965.3324Q232.0375,966.0488,231.40625,966.571Q230.77504,967.0932,229.96138,967.3762Q229.14773,967.6591,228.1875,967.6591Q226.67614,967.6591,225.49485,966.9398Q224.31365,966.2204,223.63468,964.8807Q222.955699,963.5409,222.955699,961.6818Q222.955699,959.82049,223.63752,958.48127Q224.31934,957.14205,225.50115,956.4233Q226.68297,955.70455,228.1875,955.70455Q229.11248,955.70455,229.91815,955.96937Q230.72390000000001,956.23411,231.36364,956.74263Q232.0034,957.25115,232.425,957.98073Q232.8466,958.71023,232.992,959.64542ZM237.5,967.6909Q236.6693,967.6909,236.0005,967.3835Q235.3319,967.0762,234.9409,966.4841Q234.55,965.892,234.55,965.0364Q234.55,964.2931,234.8352,963.8165Q235.1205,963.3398,235.6034,963.0613Q236.0864,962.7829,236.6824,962.642Q237.2784,962.5012,237.9,962.4273Q238.683,962.3341,239.1698,962.2744Q239.6568,962.2148,239.8807,962.0802Q240.1046,961.9455,240.1046,961.6364L240.1046,961.5954Q240.1046,960.85458,239.6863,960.44549Q239.2682,960.0364,238.4455,960.0364Q237.5875,960.0364,237.0949,960.41193Q236.6023,960.78746,236.4136,961.25L234.8182,960.88636Q235.1023,960.09091,235.6494,959.59943Q236.1966,959.10795,236.9136,958.88352Q237.6307,958.65909,238.4181,958.65909Q238.942,958.65909,239.52949999999998,958.7824Q240.117,958.90572,240.6329,959.22905Q241.1489,959.55229,241.4767,960.15172Q241.8045,960.75115,241.8045,961.7045L241.8045,967.5L240.1454,967.5L240.1454,966.3091L240.0772,966.3091Q239.9159,966.6341,239.5869,966.9534Q239.258,967.2727,238.7403,967.4818Q238.2227,967.6909,237.5,967.6909ZM237.8682,966.3319Q238.5762,966.3319,239.0779,966.0523Q239.5795,965.7727,239.8443,965.3216Q240.1091,964.8705,240.1091,964.3546L240.1091,963.2273Q240.0159,963.3193,239.7585,963.3944Q239.5012,963.4693,239.1721,963.525Q238.8432,963.5807,238.5289,963.6216Q238.2148,963.6625,238.0045,963.6909Q237.5137,963.7568,237.1063,963.9029Q236.6989,964.0488,236.4562,964.3244Q236.21359999999999,964.6,236.21359999999999,965.0545Q236.21359999999999,965.6863,236.6807,966.0091Q237.1477,966.3319,237.8682,966.3319ZM245.767,962.3182L245.767,967.5L244.067,967.5L244.067,958.77273L245.6989,958.77273L245.6989,960.19549L245.808,960.19549Q246.1103,959.49769,246.754,959.07839Q247.3977,958.65909,248.3807,958.65909Q249.275,958.65909,249.9437,959.0324Q250.6125,959.40572,250.9835,960.13752Q251.3546,960.86932,251.3534,961.95L251.3534,967.5L249.6534,967.5L249.6534,962.1546Q249.6546,961.20224,249.1608,960.66708Q248.6671,960.13184,247.8034,960.13184Q247.2125,960.13184,246.7528,960.38814Q246.2931,960.64435,246.0306,961.13352Q245.7682,961.6227,245.767,962.3182ZM257.3011,967.6773Q256.03520000000003,967.6773,255.12380000000002,967.1006Q254.2125,966.5239,253.7227,965.5075Q253.233,964.4909,253.233,963.1773Q253.233,961.8454,253.7341,960.8267Q254.2353,959.80797,255.1444,959.23358Q256.0534,958.65909,257.2829,958.65909Q258.2761,958.65909,259.055,959.02441Q259.8341,959.38974,260.3147,960.04945Q260.7955,960.70907,260.8875,961.5909L259.233,961.5909Q259.09770000000003,960.97612,258.6108,960.53356Q258.1238,960.09091,257.3102,960.09091Q256.6011,960.09091,256.0692,960.46307Q255.5375,960.83523,255.242,961.5187Q254.9466,962.2022,254.9466,963.1364Q254.9466,964.0886,255.2375,964.7836Q255.5284,965.4784,256.0602,965.8574Q256.5921,966.2363,257.3102,966.2363Q257.7978,966.2363,258.192,966.0585Q258.5864,965.8807,258.8563,965.5449Q259.1262,965.2091,259.233,964.7363L260.8875,964.7363Q260.7931,965.5852,260.3341,966.2495Q259.875,966.9136,259.104,967.2955Q258.3329,967.6773,257.3011,967.6773ZM266.47270000000003,967.6773Q265.1841,967.6773,264.2528,967.1222Q263.3216,966.567,262.8199,965.5585Q262.3182,964.55,262.3182,963.1955Q262.3182,961.8523,262.8204,960.82955Q263.3227,959.80682,264.2283,959.23295Q265.1341,958.65909,266.35,958.65909Q267.0932,958.65909,267.78520000000003,958.90226Q268.4773,959.14542,269.02729999999997,959.66877Q269.5772,960.19203,269.8977,961.02619Q270.2182,961.8603,270.2182,963.0455L270.2182,963.6454L263.27729999999997,963.6454L263.27729999999997,962.3727L268.55,962.3727Q268.5488,961.7069,268.2778,961.18581Q268.0068,960.66477,267.5154,960.36426Q267.0239,960.06365,266.3636,960.06365Q265.6466,960.06365,265.117,960.41193Q264.5875,960.76021,264.2994,961.32164Q264.0114,961.883,264.0091,962.5364L264.0091,963.5273Q264.0091,964.4023,264.3192,965.0159Q264.6295,965.6295,265.1863,965.9512Q265.7432,966.2727,266.4863,966.2727Q266.9739,966.2727,267.371,966.1341Q267.7682,965.9955,268.0568,965.7177Q268.3454,965.4398,268.5,965.0273L270.1091,965.3182Q269.9159,966.0273,269.4193,966.5585Q268.9228,967.0898,268.1733,967.3835Q267.4238,967.6773,266.47270000000003,967.6773ZM273.8068,955.86364L273.8068,967.5L272.1068,967.5L272.1068,955.86364L273.8068,955.86364Z" fill="#868686" fill-opacity="1"/></g></g></g></g></svg>