<svg xmlns="http://www.w3.org/2000/svg" xmlns:xlink="http://www.w3.org/1999/xlink" fill="none" version="1.1" width="568" height="452" viewBox="0 0 568 452"><g><rect x="0" y="0" width="568" height="452" rx="0" fill="#252C38" fill-opacity="1"/><g><g><path d="M24.912,59L24.912,57.992000000000004L25.224,57.992000000000004Q25.752,57.992000000000004,26.196,57.884Q26.64,57.775999999999996,26.916,57.428Q27.192,57.08,27.192,56.384L27.192,44.6Q27.192,43.832,26.928,43.472Q26.664,43.112,26.22,42.992000000000004Q25.776,42.872,25.224,42.872L24.912,42.872L24.912,41.864000000000004L37.007999999999996,41.864000000000004L37.128,46.064L35.88,46.064L35.76,45.032Q35.712,44.504,35.484,44.06Q35.256,43.616,34.812,43.34Q34.368,43.064,33.647999999999996,43.064L29.616,43.064L29.616,49.448L35.4,49.448L35.4,50.623999999999995L29.616,50.623999999999995L29.616,57.8L34.248,57.8Q35.016,57.8,35.484,57.524Q35.952,57.248000000000005,36.204,56.804Q36.456,56.36,36.528,55.832L36.696,54.8L37.944,54.8L37.775999999999996,59L24.912,59ZM45.168,59.239999999999995Q43.584,59.239999999999995,42.492000000000004,58.544Q41.4,57.848,40.836,56.372Q40.272,54.896,40.272,52.592Q40.272,50.263999999999996,40.836,48.788Q41.4,47.312,42.492000000000004,46.604Q43.584,45.896,45.168,45.896Q46.56,45.896,47.436,46.484Q48.312,47.072,48.84,48.007999999999996L48.984,48.007999999999996Q48.912,47.408,48.876000000000005,46.676Q48.84,45.944,48.84,45.368L48.84,43.4Q48.84,42.68,48.564,42.332Q48.288,41.984,47.844,41.876Q47.4,41.768,46.872,41.768L46.68,41.768L46.68,40.76L51.096000000000004,40.76L51.096000000000004,56.36Q51.096000000000004,57.056,51.372,57.416Q51.647999999999996,57.775999999999996,52.092,57.884Q52.536,57.992000000000004,53.064,57.992000000000004L53.256,57.992000000000004L53.256,59L49.2,59L48.936,56.84L48.84,56.84Q48.312,57.944,47.448,58.592Q46.584,59.239999999999995,45.168,59.239999999999995ZM45.576,57.704Q47.448,57.704,48.144,56.444Q48.84,55.184,48.84,52.592Q48.84,50.096000000000004,48.144,48.763999999999996Q47.448,47.432,45.552,47.432Q44.495999999999995,47.432,43.848,48.032Q43.2,48.632000000000005,42.9,49.784Q42.6,50.936,42.6,52.616Q42.6,55.16,43.284,56.432Q43.968,57.704,45.576,57.704ZM54.239999999999995,59L54.239999999999995,57.992000000000004L54.552,57.992000000000004Q55.08,57.992000000000004,55.524,57.884Q55.968,57.775999999999996,56.244,57.428Q56.52,57.08,56.52,56.384L56.52,48.775999999999996Q56.52,48.056,56.244,47.708Q55.968,47.36,55.524,47.252Q55.08,47.144,54.552,47.144L54.480000000000004,47.144L54.480000000000004,46.135999999999996L58.776,46.135999999999996L58.776,56.263999999999996Q58.776,57.007999999999996,59.04,57.379999999999995Q59.304,57.751999999999995,59.76,57.872Q60.216,57.992000000000004,60.744,57.992000000000004L61.056,57.992000000000004L61.056,59L54.239999999999995,59ZM57.552,43.736000000000004Q56.976,43.736000000000004,56.58,43.4Q56.184,43.064,56.184,42.248Q56.184,41.408,56.58,41.084Q56.976,40.76,57.552,40.76Q58.104,40.76,58.512,41.084Q58.92,41.408,58.92,42.248Q58.92,43.064,58.512,43.4Q58.104,43.736000000000004,57.552,43.736000000000004ZM67.128,59.239999999999995Q65.304,59.239999999999995,64.476,58.412Q63.648,57.584,63.648,55.519999999999996L63.648,47.504L61.824,47.504L61.824,46.544Q62.256,46.544,62.784,46.364000000000004Q63.312,46.184,63.696,45.775999999999996Q64.104,45.344,64.368,44.72Q64.632,44.096000000000004,64.8,43.184L65.904,43.184L65.904,46.135999999999996L69.048,46.135999999999996L69.048,47.504L65.904,47.504L65.904,55.592Q65.904,56.816,66.408,57.391999999999996Q66.912,57.968,67.72800000000001,57.968Q68.16,57.968,68.52000000000001,57.92Q68.88,57.872,69.26400000000001,57.8L69.26400000000001,58.856Q68.952,59,68.328,59.120000000000005Q67.70400000000001,59.239999999999995,67.128,59.239999999999995ZM81.98400000000001,59.239999999999995Q80.80799999999999,59.239999999999995,79.908,59Q79.00800000000001,58.760000000000005,78.408,58.304Q77.80799999999999,57.848,77.50800000000001,57.224000000000004Q77.208,56.6,77.208,55.856Q77.208,55.376000000000005,77.412,55.016Q77.616,54.656,78,54.452Q78.384,54.248000000000005,78.936,54.248000000000005Q78.98400000000001,55.232,79.32,56.108000000000004Q79.656,56.984,80.352,57.524Q81.048,58.064,82.176,58.064Q83.78399999999999,58.064,84.696,57.284Q85.608,56.504000000000005,85.608,55.04Q85.608,54.152,85.25999999999999,53.54Q84.912,52.928,84.108,52.4Q83.304,51.872,81.888,51.296Q80.4,50.672,79.416,49.952Q78.432,49.232,77.952,48.260000000000005Q77.47200000000001,47.288,77.47200000000001,45.968Q77.47200000000001,44.6,78.156,43.628Q78.84,42.656,80.02799999999999,42.14Q81.21600000000001,41.624,82.72800000000001,41.624Q84.168,41.624,85.164,42.007999999999996Q86.16,42.391999999999996,86.688,43.004Q87.21600000000001,43.616,87.21600000000001,44.312Q87.21600000000001,45.08,86.7,45.476Q86.184,45.872,85.32,45.872Q85.32,45.128,85.068,44.432Q84.816,43.736000000000004,84.22800000000001,43.28Q83.64,42.824,82.632,42.824Q81.24000000000001,42.824,80.47200000000001,43.568Q79.70400000000001,44.312,79.70400000000001,45.56Q79.70400000000001,46.519999999999996,80.05199999999999,47.18Q80.4,47.84,81.21600000000001,48.356Q82.032,48.872,83.424,49.448Q84.84,50.024,85.836,50.708Q86.832,51.391999999999996,87.36,52.28Q87.888,53.168,87.888,54.416Q87.888,55.952,87.168,57.019999999999996Q86.44800000000001,58.088,85.116,58.664Q83.78399999999999,59.239999999999995,81.98400000000001,59.239999999999995ZM98.016,59.239999999999995Q95.472,59.239999999999995,93.792,58.135999999999996Q92.112,57.032,91.284,55.04Q90.456,53.048,90.456,50.384Q90.456,47.72,91.284,45.752Q92.112,43.784,93.804,42.692Q95.496,41.6,98.04,41.6Q100.464,41.6,102.132,42.692Q103.8,43.784,104.676,45.763999999999996Q105.552,47.744,105.552,50.408Q105.552,53.072,104.676,55.052Q103.8,57.032,102.12,58.135999999999996Q100.44,59.239999999999995,98.016,59.239999999999995ZM98.016,57.944Q99.816,57.944,100.884,57.044Q101.952,56.144,102.42,54.464Q102.888,52.784,102.888,50.408Q102.888,48.032,102.42,46.352000000000004Q101.952,44.672,100.884,43.784Q99.816,42.896,98.04,42.896Q95.352,42.896,94.236,44.864000000000004Q93.12,46.832,93.12,50.408Q93.12,52.784,93.6,54.464Q94.08,56.144,95.16,57.044Q96.24,57.944,98.016,57.944ZM107.832,59L107.832,57.992000000000004L108.144,57.992000000000004Q108.696,57.992000000000004,109.14,57.872Q109.584,57.751999999999995,109.848,57.379999999999995Q110.112,57.007999999999996,110.112,56.263999999999996L110.112,44.504Q110.112,43.784,109.836,43.436Q109.56,43.088,109.116,42.980000000000004Q108.672,42.872,108.144,42.872L107.832,42.872L107.832,41.864000000000004L114.576,41.864000000000004Q117.6,41.864000000000004,119.04,43.196Q120.48,44.528,120.48,46.88Q120.48,47.96,120.144,48.932Q119.808,49.903999999999996,119.052,50.672Q118.296,51.44,117.06,51.884Q115.824,52.328,114.048,52.328L112.536,52.328L112.536,56.384Q112.536,57.08,112.812,57.428Q113.088,57.775999999999996,113.532,57.884Q113.976,57.992000000000004,114.504,57.992000000000004L115.296,57.992000000000004L115.296,59L107.832,59ZM113.808,51.2Q114.888,51.2,115.668,50.972Q116.448,50.744,116.94,50.239999999999995Q117.432,49.736000000000004,117.66,48.932Q117.888,48.128,117.888,46.976Q117.888,44.96,117.048,43.988Q116.208,43.016,114.168,43.016L112.536,43.016L112.536,51.2L113.808,51.2ZM133.872,59.239999999999995Q132.288,59.239999999999995,131.196,58.544Q130.10399999999998,57.848,129.54000000000002,56.372Q128.976,54.896,128.976,52.592Q128.976,50.263999999999996,129.54000000000002,48.788Q130.10399999999998,47.312,131.196,46.604Q132.288,45.896,133.872,45.896Q135.264,45.896,136.14,46.484Q137.01600000000002,47.072,137.54399999999998,48.007999999999996L137.688,48.007999999999996Q137.61599999999999,47.408,137.57999999999998,46.676Q137.54399999999998,45.944,137.54399999999998,45.368L137.54399999999998,43.4Q137.54399999999998,42.68,137.268,42.332Q136.99200000000002,41.984,136.548,41.876Q136.10399999999998,41.768,135.576,41.768L135.38400000000001,41.768L135.38400000000001,40.76L139.8,40.76L139.8,56.36Q139.8,57.056,140.076,57.416Q140.352,57.775999999999996,140.796,57.884Q141.24,57.992000000000004,141.768,57.992000000000004L141.95999999999998,57.992000000000004L141.95999999999998,59L137.904,59L137.64,56.84L137.54399999999998,56.84Q137.01600000000002,57.944,136.152,58.592Q135.288,59.239999999999995,133.872,59.239999999999995ZM134.28,57.704Q136.152,57.704,136.848,56.444Q137.54399999999998,55.184,137.54399999999998,52.592Q137.54399999999998,50.096000000000004,136.848,48.763999999999996Q136.152,47.432,134.256,47.432Q133.2,47.432,132.55200000000002,48.032Q131.904,48.632000000000005,131.60399999999998,49.784Q131.304,50.936,131.304,52.616Q131.304,55.16,131.988,56.432Q132.672,57.704,134.28,57.704ZM149.28,59.239999999999995Q146.688,59.239999999999995,145.2,57.584Q143.712,55.928,143.712,52.544Q143.712,49.184,145.14,47.54Q146.56799999999998,45.896,149.352,45.896Q151.94400000000002,45.896,153.432,47.54Q154.92,49.184,154.92,52.544Q154.92,55.928,153.492,57.584Q152.064,59.239999999999995,149.28,59.239999999999995ZM149.328,57.992000000000004Q150.52800000000002,57.992000000000004,151.248,57.379999999999995Q151.96800000000002,56.768,152.28,55.544Q152.592,54.32,152.592,52.544Q152.592,49.856,151.848,48.512Q151.10399999999998,47.168,149.304,47.168Q147.50400000000002,47.168,146.772,48.512Q146.04000000000002,49.856,146.04000000000002,52.544Q146.04000000000002,55.232,146.784,56.611999999999995Q147.52800000000002,57.992000000000004,149.328,57.992000000000004ZM163.032,59.239999999999995Q161.448,59.239999999999995,160.212,58.568Q158.976,57.896,158.268,56.444Q157.56,54.992000000000004,157.56,52.64Q157.56,50.072,158.268,48.596000000000004Q158.976,47.12,160.188,46.507999999999996Q161.4,45.896,162.912,45.896Q163.92,45.896,164.88,46.16Q165.84,46.424,166.464,46.964Q167.088,47.504,167.088,48.344Q167.088,48.896,166.848,49.232Q166.608,49.568,166.14,49.712Q165.672,49.856,164.952,49.856Q164.952,49.088,164.772,48.464Q164.592,47.84,164.16,47.468Q163.728,47.096000000000004,162.912,47.096000000000004Q162,47.096000000000004,161.316,47.576Q160.632,48.056,160.26,49.256Q159.888,50.456,159.888,52.616Q159.888,54.32,160.26,55.448Q160.632,56.576,161.424,57.128Q162.216,57.68,163.512,57.68Q164.256,57.68,164.88,57.464Q165.504,57.248000000000005,165.972,56.864000000000004Q166.44,56.480000000000004,166.704,56Q166.896,56.144,167.004,56.372Q167.112,56.6,167.112,56.936Q167.112,57.488,166.656,58.016Q166.2,58.544,165.3,58.891999999999996Q164.4,59.239999999999995,163.032,59.239999999999995ZM174.6,59.239999999999995Q172.704,59.239999999999995,171.672,58.123999999999995Q170.64,57.007999999999996,170.64,54.536L170.64,48.775999999999996Q170.64,48.056,170.364,47.708Q170.088,47.36,169.644,47.252Q169.2,47.144,168.672,47.144L168.6,47.144L168.6,46.135999999999996L172.896,46.135999999999996L172.896,54.416Q172.896,55.448,173.124,56.192Q173.352,56.936,173.904,57.32Q174.456,57.704,175.416,57.704Q176.472,57.704,177.144,57.212Q177.816,56.72,178.128,55.844Q178.44,54.968,178.44,53.816L178.44,48.872Q178.44,48.104,178.176,47.744Q177.912,47.384,177.468,47.263999999999996Q177.024,47.144,176.472,47.144L176.4,47.144L176.4,46.135999999999996L180.696,46.135999999999996L180.696,56.384Q180.696,57.08,180.972,57.428Q181.248,57.775999999999996,181.692,57.884Q182.136,57.992000000000004,182.664,57.992000000000004L182.736,57.992000000000004L182.736,59L178.92,59L178.608,57.056L178.488,57.056Q177.744,58.4,176.76,58.82Q175.776,59.239999999999995,174.6,59.239999999999995ZM183.96,59L183.96,57.992000000000004L184.272,57.992000000000004Q184.824,57.992000000000004,185.232,57.872Q185.64,57.751999999999995,185.88,57.379999999999995Q186.12,57.007999999999996,186.12,56.263999999999996L186.12,48.775999999999996Q186.12,48.056,185.88,47.708Q185.64,47.36,185.22,47.252Q184.8,47.144,184.272,47.144L184.2,47.144L184.2,46.135999999999996L187.968,46.135999999999996L188.28,48.08L188.4,48.08Q188.88,47.168,189.432,46.7Q189.984,46.232,190.632,46.064Q191.28,45.896,192.024,45.896Q192.792,45.896,193.476,46.112Q194.16,46.328,194.688,46.796Q195.216,47.263999999999996,195.504,48.08L195.696,48.08Q196.176,47.168,196.764,46.7Q197.352,46.232,198.036,46.064Q198.72,45.896,199.464,45.896Q201.312,45.896,202.344,47.012Q203.376,48.128,203.376,50.6L203.376,56.263999999999996Q203.376,57.007999999999996,203.616,57.379999999999995Q203.856,57.751999999999995,204.276,57.872Q204.696,57.992000000000004,205.224,57.992000000000004L205.296,57.992000000000004L205.296,59L201.12,59L201.12,50.72Q201.12,49.16,200.556,48.296Q199.992,47.432,198.6,47.432Q197.616,47.432,197.028,47.924Q196.44,48.416,196.188,49.232Q195.936,50.048,195.936,51.007999999999996L195.936,56.263999999999996Q195.936,57.007999999999996,196.176,57.379999999999995Q196.416,57.751999999999995,196.836,57.872Q197.256,57.992000000000004,197.784,57.992000000000004L197.856,57.992000000000004L197.856,59L193.68,59L193.68,50.72Q193.68,49.16,193.116,48.296Q192.552,47.432,191.16,47.432Q190.128,47.432,189.516,47.972Q188.904,48.512,188.64,49.4Q188.376,50.288,188.376,51.32L188.376,56.384Q188.376,57.08,188.652,57.428Q188.928,57.775999999999996,189.372,57.884Q189.816,57.992000000000004,190.344,57.992000000000004L190.416,57.992000000000004L190.416,59L183.96,59ZM212.856,59.239999999999995Q210.24,59.239999999999995,208.764,57.512Q207.288,55.784,207.288,52.664Q207.288,49.304,208.68,47.6Q210.072,45.896,212.616,45.896Q214.944,45.896,216.276,47.336Q217.608,48.775999999999996,217.608,51.632000000000005L217.608,52.736000000000004L209.616,52.736000000000004Q209.664,55.352000000000004,210.564,56.54Q211.464,57.728,213.192,57.728Q214.44,57.728,215.316,57.212Q216.192,56.696,216.624,56.048Q216.792,56.120000000000005,216.936,56.336Q217.08,56.552,217.08,56.864000000000004Q217.08,57.344,216.624,57.896Q216.168,58.448,215.232,58.844Q214.296,59.239999999999995,212.856,59.239999999999995ZM215.184,51.44Q215.184,49.519999999999996,214.596,48.356Q214.008,47.192,212.568,47.192Q211.248,47.192,210.516,48.284Q209.784,49.376000000000005,209.664,51.44L215.184,51.44ZM219.48,59L219.48,57.992000000000004L219.672,57.992000000000004Q220.224,57.992000000000004,220.668,57.872Q221.112,57.751999999999995,221.376,57.379999999999995Q221.64,57.007999999999996,221.64,56.263999999999996L221.64,48.775999999999996Q221.64,48.056,221.376,47.708Q221.112,47.36,220.68,47.252Q220.248,47.144,219.72,47.144L219.6,47.144L219.6,46.135999999999996L223.488,46.135999999999996L223.8,48.08L223.92,48.08Q224.424,47.168,224.988,46.7Q225.552,46.232,226.224,46.064Q226.896,45.896,227.664,45.896Q229.56,45.896,230.628,47.012Q231.696,48.128,231.696,50.6L231.696,56.263999999999996Q231.696,57.007999999999996,231.924,57.379999999999995Q232.152,57.751999999999995,232.56,57.872Q232.968,57.992000000000004,233.496,57.992000000000004L233.616,57.992000000000004L233.616,59L229.44,59L229.44,50.72Q229.44,49.16,228.852,48.296Q228.264,47.432,226.8,47.432Q225.72,47.432,225.084,47.972Q224.448,48.512,224.172,49.4Q223.896,50.288,223.896,51.32L223.896,56.384Q223.896,57.08,224.16,57.428Q224.424,57.775999999999996,224.856,57.884Q225.288,57.992000000000004,225.816,57.992000000000004L225.936,57.992000000000004L225.936,59L219.48,59ZM240.048,59.239999999999995Q238.224,59.239999999999995,237.396,58.412Q236.568,57.584,236.568,55.519999999999996L236.568,47.504L234.744,47.504L234.744,46.544Q235.176,46.544,235.704,46.364000000000004Q236.232,46.184,236.616,45.775999999999996Q237.024,45.344,237.288,44.72Q237.552,44.096000000000004,237.72,43.184L238.824,43.184L238.824,46.135999999999996L241.968,46.135999999999996L241.968,47.504L238.824,47.504L238.824,55.592Q238.824,56.816,239.328,57.391999999999996Q239.832,57.968,240.648,57.968Q241.08,57.968,241.44,57.92Q241.8,57.872,242.184,57.8L242.184,58.856Q241.872,59,241.248,59.120000000000005Q240.624,59.239999999999995,240.048,59.239999999999995Z" fill="#FFFFFF" fill-opacity="1"/></g><g><g><path d="M24 104C24 101.79086100067683 25.790861000676827 100 28 100L540 100C542.2091389993232 100 544 101.79086100067683 544 104L544 156C544 156 544 156 544 156L24 156C24 156 24 156 24 156Z" fill="#222834" fill-opacity="1"/><g><g><g><g><path d="M40.636364,114.21023L40.636364,113.27273L47.18182,113.27273L47.18182,114.21023L44.4375,114.21023L44.4375,122L43.38068,122L43.38068,114.21023L40.636364,114.21023ZM48.68182,122L48.68182,115.45455L49.6875,115.45455L49.6875,122L48.68182,122ZM49.19318,114.36364Q48.89915,114.36364,48.68821,114.16335Q48.477270000000004,113.96307,48.477270000000004,113.68182Q48.477270000000004,113.40057,48.68821,113.20028Q48.89915,113,49.19318,113Q49.48722,113,49.69815,113.20028Q49.90909,113.40057,49.90909,113.68182Q49.90909,113.96307,49.69815,114.16335Q49.48722,114.36364,49.19318,114.36364ZM54.375,115.45455L54.375,116.30682L50.983000000000004,116.30682L50.983000000000004,115.45455L54.375,115.45455ZM51.9716,113.88636L52.9773,113.88636L52.9773,120.125Q52.9773,120.5511,53.103,120.7621Q53.2287,120.973,53.4268,121.0433Q53.625,121.1136,53.8466,121.1136Q54.0128,121.1136,54.1193,121.0945Q54.225899999999996,121.0753,54.2898,121.0625L54.4943,121.9659Q54.391999999999996,122.0043,54.2088,122.0447Q54.0256,122.0852,53.7443,122.0852Q53.3182,122.0852,52.9112,121.902Q52.5043,121.7188,52.237899999999996,121.3438Q51.9716,120.9688,51.9716,120.3977L51.9716,113.88636ZM57.034099999999995,113.27273L57.034099999999995,122L56.028400000000005,122L56.028400000000005,113.27273L57.034099999999995,113.27273ZM61.619299999999996,122.1364Q60.6733,122.1364,59.9893,121.7166Q59.3054,121.2969,58.936800000000005,120.5405Q58.568200000000004,119.7841,58.568200000000004,118.7784Q58.568200000000004,117.7727,58.936800000000005,117.0036Q59.3054,116.23438,59.968,115.80185Q60.630700000000004,115.36932,61.516999999999996,115.36932Q62.028400000000005,115.36932,62.527,115.53977Q63.0256,115.71023,63.4347,116.09162Q63.8438,116.47301,64.0866,117.0994Q64.3295,117.7259,64.3295,118.642L64.3295,119.0682L59.284099999999995,119.0682L59.284099999999995,118.1989L63.306799999999996,118.1989Q63.306799999999996,117.6449,63.0874,117.2102Q62.8679,116.77557,62.465199999999996,116.52415Q62.0625,116.27273,61.516999999999996,116.27273Q60.9162,116.27273,60.4794,116.56889Q60.0426,116.86506,59.8082,117.3381Q59.573899999999995,117.8111,59.573899999999995,118.3523L59.573899999999995,118.9318Q59.573899999999995,119.6733,59.8317,120.1868Q60.0895,120.7003,60.5497,120.9666Q61.0099,121.233,61.619299999999996,121.233Q62.0156,121.233,62.3374,121.12Q62.659099999999995,121.0071,62.8935,120.7791Q63.1278,120.5511,63.255700000000004,120.2102L64.2273,120.483Q64.0739,120.9773,63.711600000000004,121.3501Q63.3494,121.723,62.8168,121.9297Q62.284099999999995,122.1364,61.619299999999996,122.1364Z" fill="#98A1B3" fill-opacity="1"/></g></g><g><g><path d="M48.04545,135.27273Q47.94318,134.40909,47.21591,133.93182Q46.48863,133.45455,45.43182,133.45455Q44.65909,133.45455,44.08238,133.70455Q43.50568,133.95455,43.18466,134.39205Q42.86363,134.82955,42.86363,135.38636Q42.86363,135.85227,43.08807,136.18466Q43.3125,136.51705,43.66477,136.7358Q44.01704,136.95455,44.40341,137.09375Q44.78977,137.23295,45.11363,137.31818L46.29545,137.63636Q46.75,137.75568,47.30966,137.96591Q47.86932,138.1761,48.383520000000004,138.5369Q48.89772,138.8977,49.23295,139.4602Q49.56818,140.0227,49.56818,140.8409Q49.56818,141.7841,49.0767,142.5455Q48.58522,143.3068,47.64488,143.7557Q46.70454,144.2045,45.36363,144.2045Q44.11363,144.2045,43.2017,143.8011Q42.28977,143.3977,41.76988,142.6761Q41.25,141.9545,41.18182,141L42.636359999999996,141Q42.69318,141.6591,43.08238,142.0881Q43.47159,142.517,44.07102,142.7244Q44.67045,142.9318,45.36363,142.9318Q46.17045,142.9318,46.8125,142.6676Q47.45454,142.4034,47.82954,141.929Q48.20454,141.4545,48.20454,140.8182Q48.20454,140.2386,47.88068,139.875Q47.55682,139.5114,47.02841,139.2841Q46.5,139.0568,45.886359999999996,138.8864L44.45454,138.4773Q43.09091,138.0852,42.29545,137.35795Q41.5,136.63068,41.5,135.45455Q41.5,134.47727,42.03125,133.74716Q42.5625,133.01705,43.46307,132.6108Q44.36363,132.20455,45.47727,132.20455Q46.60227,132.20455,47.47727,132.60511Q48.352270000000004,133.00568,48.86647,133.69886Q49.38068,134.39205,49.40909,135.27273L48.04545,135.27273ZM61.704499999999996,138.1818Q61.704499999999996,140.0227,61.0398,141.3636Q60.375,142.7045,59.215900000000005,143.4318Q58.056799999999996,144.1591,56.568200000000004,144.1591Q55.079499999999996,144.1591,53.920500000000004,143.4318Q52.7614,142.7045,52.0966,141.3636Q51.4318,140.0227,51.4318,138.1818Q51.4318,136.34091,52.0966,135Q52.7614,133.65909,53.920500000000004,132.93182Q55.079499999999996,132.20455,56.568200000000004,132.20455Q58.056799999999996,132.20455,59.215900000000005,132.93182Q60.375,133.65909,61.0398,135Q61.704499999999996,136.34091,61.704499999999996,138.1818ZM60.340900000000005,138.1818Q60.340900000000005,136.67045,59.8381,135.63068Q59.3352,134.59091,58.4801,134.05682Q57.625,133.52273,56.568200000000004,133.52273Q55.5114,133.52273,54.6562,134.05682Q53.8011,134.59091,53.2983,135.63068Q52.795500000000004,136.67045,52.795500000000004,138.1818Q52.795500000000004,139.6932,53.2983,140.733Q53.8011,141.7727,54.6562,142.3068Q55.5114,142.8409,56.568200000000004,142.8409Q57.625,142.8409,58.4801,142.3068Q59.3352,141.7727,59.8381,140.733Q60.340900000000005,139.6932,60.340900000000005,138.1818ZM64.0682,144L64.0682,132.36364L68,132.36364Q69.3693,132.36364,70.2415,132.85511Q71.1136,133.34659,71.5341,134.18182Q71.9545,135.01705,71.9545,136.04545Q71.9545,137.07386,71.5369,137.91477Q71.1193,138.7557,70.25,139.2528Q69.3807,139.75,68.0227,139.75L65.2045,139.75L65.2045,138.5L67.9773,138.5Q68.9148,138.5,69.483,138.1761Q70.0511,137.85227,70.30969999999999,137.2983Q70.5682,136.74432,70.5682,136.04545Q70.5682,135.34659,70.30969999999999,134.79545Q70.0511,134.24432,69.4773,133.92898Q68.9034,133.61364,67.9545,133.61364L65.4773,133.61364L65.4773,144L64.0682,144ZM78.7273,132.36364L80.4091,132.36364L84.36359999999999,142.0227L84.5,142.0227L88.4545,132.36364L90.13640000000001,132.36364L90.13640000000001,144L88.81819999999999,144L88.81819999999999,135.15909L88.7045,135.15909L85.06819999999999,144L83.7955,144L80.1591,135.15909L80.0455,135.15909L80.0455,144L78.7273,144L78.7273,132.36364ZM95.3409,144.2045Q94.51140000000001,144.2045,93.8352,143.8892Q93.1591,143.5739,92.76140000000001,142.9744Q92.36359999999999,142.375,92.36359999999999,141.5227Q92.36359999999999,140.7727,92.6591,140.304Q92.9545,139.8352,93.44890000000001,139.5682Q93.94319999999999,139.3011,94.5426,139.1676Q95.142,139.0341,95.75,138.9545Q96.5455,138.8523,97.0426,138.7983Q97.5398,138.7443,97.7699,138.6136Q98,138.483,98,138.1591L98,138.1136Q98,137.27273,97.5426,136.80682Q97.0852,136.34091,96.1591,136.34091Q95.19890000000001,136.34091,94.6534,136.76136Q94.108,137.18182,93.88640000000001,137.65909L92.61359999999999,137.20455Q92.9545,136.40909,93.5256,135.96307Q94.0966,135.51705,94.7756,135.33807Q95.4545,135.15909,96.11359999999999,135.15909Q96.5341,135.15909,97.0824,135.25852Q97.63069999999999,135.35795,98.1449,135.66477Q98.6591,135.97159,99,136.59091Q99.3409,137.21023,99.3409,138.25L99.3409,144L98,144L98,142.8182L97.93180000000001,142.8182Q97.7955,143.1023,97.4773,143.4261Q97.1591,143.75,96.63069999999999,143.9773Q96.1023,144.2045,95.3409,144.2045ZM95.5455,143Q96.3409,143,96.8892,142.6875Q97.4375,142.375,97.7187,141.8807Q98,141.3864,98,140.8409L98,139.6136Q97.9148,139.7159,97.62780000000001,139.7983Q97.3409,139.8807,96.9687,139.9403Q96.5966,140,96.24719999999999,140.0426Q95.8977,140.0852,95.68180000000001,140.1136Q95.1591,140.1818,94.7074,140.3324Q94.25569999999999,140.483,93.9801,140.7812Q93.7045,141.0795,93.7045,141.5909Q93.7045,142.2898,94.2244,142.6449Q94.74430000000001,143,95.5455,143ZM101.7955,144L101.7955,135.27273L103.13640000000001,135.27273L103.13640000000001,144L101.7955,144ZM102.4773,133.81818Q102.0852,133.81818,101.804,133.55114Q101.5227,133.28409,101.5227,132.90909Q101.5227,132.53409,101.804,132.26705Q102.0852,132,102.4773,132Q102.86930000000001,132,103.1506,132.26705Q103.43180000000001,132.53409,103.43180000000001,132.90909Q103.43180000000001,133.28409,103.1506,133.55114Q102.86930000000001,133.81818,102.4773,133.81818ZM106.9318,138.75L106.9318,144L105.5909,144L105.5909,135.27273L106.8864,135.27273L106.8864,136.63636L107,136.63636Q107.3068,135.97159,107.9318,135.56534Q108.5568,135.15909,109.5454,135.15909Q110.4318,135.15909,111.0966,135.51989Q111.7614,135.88068,112.1307,136.6108Q112.5,137.34091,112.5,138.4545L112.5,144L111.1591,144L111.1591,138.5455Q111.1591,137.51705,110.625,136.94034Q110.0909,136.36364,109.1591,136.36364Q108.517,136.36364,108.0142,136.64205Q107.5114,136.92045,107.2216,137.45455Q106.9318,137.98864,106.9318,138.75Z" fill="#F4F7FF" fill-opacity="1"/></g></g></g></g></g><g><line x1="24" y1="155.5" x2="544" y2="155.5" fill-opacity="0" stroke-opacity="1" stroke="#98A1B3" fill="none" stroke-width="1"/></g></g><g><g><g><path d="M28.119320000000002,203L25.42613,203L25.42613,194.27273L28.23863,194.27273Q29.50852,194.27273,30.411929999999998,194.79474Q31.31534,195.31676,31.79687,196.29048Q32.27841,197.2642,32.27841,198.6193Q32.27841,199.983,31.79261,200.9652Q31.306820000000002,201.9474,30.37784,202.4737Q29.44886,203,28.119320000000002,203ZM26.48295,202.0625L28.05113,202.0625Q29.13352,202.0625,29.84517,201.6449Q30.556820000000002,201.2273,30.90625,200.456Q31.255679999999998,199.6847,31.255679999999998,198.6193Q31.255679999999998,197.5625,30.910510000000002,196.79758Q30.56534,196.03267,29.879260000000002,195.62145Q29.193179999999998,195.21023,28.17045,195.21023L26.48295,195.21023L26.48295,202.0625ZM36.5739,203.1364Q35.6875,203.1364,35.0206,202.7145Q34.3537,202.2926,33.98082,201.5341Q33.60795,200.7756,33.60795,199.7614Q33.60795,198.7386,33.98082,197.97585Q34.3537,197.21307,35.0206,196.79119Q35.6875,196.36932,36.5739,196.36932Q37.4602,196.36932,38.1271,196.79119Q38.794,197.21307,39.1669,197.97585Q39.5398,198.7386,39.5398,199.7614Q39.5398,200.7756,39.1669,201.5341Q38.794,202.2926,38.1271,202.7145Q37.4602,203.1364,36.5739,203.1364ZM36.5739,202.233Q37.2472,202.233,37.6818,201.8878Q38.1165,201.5426,38.3253,200.9801Q38.5341,200.4176,38.5341,199.7614Q38.5341,199.1051,38.3253,198.5384Q38.1165,197.97159,37.6818,197.62216Q37.2472,197.27273,36.5739,197.27273Q35.9006,197.27273,35.4659,197.62216Q35.0312,197.97159,34.8224,198.5384Q34.6136,199.1051,34.6136,199.7614Q34.6136,200.4176,34.8224,200.9801Q35.0312,201.5426,35.4659,201.8878Q35.9006,202.233,36.5739,202.233ZM43.733000000000004,203.1364Q42.8125,203.1364,42.1477,202.7017Q41.483000000000004,202.267,41.125,201.5043Q40.766999999999996,200.7415,40.766999999999996,199.7614Q40.766999999999996,198.7642,41.1357,197.99929Q41.5043,197.23438,42.1669,196.80185Q42.829499999999996,196.36932,43.715900000000005,196.36932Q44.4062,196.36932,44.9602,196.625Q45.5142,196.88068,45.8679,197.34091Q46.221599999999995,197.80114,46.306799999999996,198.4148L45.301100000000005,198.4148Q45.186099999999996,197.96733,44.7919,197.62002999999999Q44.3977,197.27273,43.733000000000004,197.27273Q43.1449,197.27273,42.7038,197.57741Q42.2628,197.8821,42.0178,198.4339Q41.7727,198.9858,41.7727,199.7273Q41.7727,200.4858,42.0135,201.0483Q42.2543,201.6108,42.6953,201.9219Q43.136399999999995,202.233,43.733000000000004,202.233Q44.125,202.233,44.4446,202.0966Q44.7642,201.9602,44.9858,201.7045Q45.2074,201.4489,45.301100000000005,201.0909L46.306799999999996,201.0909Q46.221599999999995,201.6705,45.887100000000004,202.1328Q45.5526,202.5952,45.004999999999995,202.8658Q44.4574,203.1364,43.733000000000004,203.1364ZM51.8977,200.3239L51.8977,196.45455L52.903400000000005,196.45455L52.903400000000005,203L51.8977,203L51.8977,201.892L51.829499999999996,201.892Q51.5994,202.3906,51.113600000000005,202.7379Q50.6278,203.0852,49.886399999999995,203.0852Q49.2727,203.0852,48.795500000000004,202.8146Q48.318200000000004,202.544,48.045500000000004,201.9964Q47.7727,201.4489,47.7727,200.6136L47.7727,196.45455L48.778400000000005,196.45455L48.778400000000005,200.5455Q48.778400000000005,201.2614,49.1811,201.6875Q49.5838,202.1136,50.2102,202.1136Q50.5852,202.1136,50.9751,201.9219Q51.3651,201.7301,51.6314,201.3338Q51.8977,200.9375,51.8977,200.3239ZM54.744299999999996,203L54.744299999999996,196.45455L55.715900000000005,196.45455L55.715900000000005,197.47727L55.801100000000005,197.47727Q56.0057,196.95312,56.4616,196.66122000000001Q56.9176,196.36932,57.5568,196.36932Q58.2045,196.36932,58.6371,196.66122000000001Q59.0696,196.95312,59.3125,197.47727L59.3807,197.47727Q59.6321,196.97017,60.1349,196.66974Q60.6378,196.36932,61.3409,196.36932Q62.2188,196.36932,62.777,196.9169Q63.3352,197.46449,63.3352,198.6193L63.3352,203L62.3295,203L62.3295,198.6193Q62.3295,197.89489,61.9332,197.58381Q61.5369,197.27273,61,197.27273Q60.3097,197.27273,59.9304,197.68821Q59.5511,198.1037,59.5511,198.7386L59.5511,203L58.5284,203L58.5284,198.517Q58.5284,197.95881,58.1662,197.61577Q57.804,197.27273,57.233,197.27273Q56.8409,197.27273,56.5021,197.48153Q56.1634,197.69034,55.9567,198.0589Q55.75,198.4276,55.75,198.9091L55.75,203L54.744299999999996,203ZM67.9205,203.1364Q66.9744,203.1364,66.29050000000001,202.7166Q65.6065,202.2969,65.2379,201.5405Q64.86930000000001,200.7841,64.86930000000001,199.7784Q64.86930000000001,198.7727,65.2379,198.0036Q65.6065,197.23438,66.2692,196.80185Q66.93180000000001,196.36932,67.81819999999999,196.36932Q68.3295,196.36932,68.8281,196.53977Q69.3267,196.71023,69.7358,197.09162Q70.1449,197.47301,70.3878,198.0994Q70.63069999999999,198.7259,70.63069999999999,199.642L70.63069999999999,200.0682L65.5852,200.0682L65.5852,199.1989L69.608,199.1989Q69.608,198.6449,69.3885,198.2102Q69.169,197.77557,68.7663,197.52415Q68.36359999999999,197.27273,67.81819999999999,197.27273Q67.2173,197.27273,66.7805,197.56889Q66.3438,197.86506,66.1094,198.3381Q65.875,198.8111,65.875,199.3523L65.875,199.9318Q65.875,200.6733,66.1328,201.1868Q66.3906,201.7003,66.8509,201.9666Q67.31110000000001,202.233,67.9205,202.233Q68.3168,202.233,68.6385,202.12Q68.9602,202.0071,69.19460000000001,201.7791Q69.429,201.5511,69.55680000000001,201.2102L70.5284,201.483Q70.375,201.9773,70.0128,202.3501Q69.6506,202.723,69.11789999999999,202.9297Q68.5852,203.1364,67.9205,203.1364ZM73.1705,199.0625L73.1705,203L72.1648,203L72.1648,196.45455L73.13640000000001,196.45455L73.13640000000001,197.47727L73.2216,197.47727Q73.4517,196.97869,73.9205,196.67401Q74.3892,196.36932,75.13069999999999,196.36932Q75.7955,196.36932,76.294,196.63991Q76.7926,196.91051,77.06960000000001,197.4581Q77.3466,198.0057,77.3466,198.8409L77.3466,203L76.3409,203L76.3409,198.9091Q76.3409,198.1378,75.94030000000001,197.70526Q75.5398,197.27273,74.8409,197.27273Q74.3594,197.27273,73.9822,197.48153Q73.6051,197.69034,73.3878,198.0909Q73.1705,198.4915,73.1705,199.0625ZM82.0341,196.45455L82.0341,197.30682L78.642,197.30682L78.642,196.45455L82.0341,196.45455ZM79.63069999999999,194.88636L80.63640000000001,194.88636L80.63640000000001,201.125Q80.63640000000001,201.5511,80.7621,201.7621Q80.8878,201.973,81.08590000000001,202.0433Q81.2841,202.1136,81.50569999999999,202.1136Q81.6719,202.1136,81.7784,202.0945Q81.8849,202.0753,81.94890000000001,202.0625L82.1534,202.9659Q82.05109999999999,203.0043,81.86789999999999,203.0447Q81.68469999999999,203.0852,81.4034,203.0852Q80.9773,203.0852,80.5703,202.902Q80.1634,202.7188,79.89699999999999,202.3438Q79.63069999999999,201.9688,79.63069999999999,201.3977L79.63069999999999,194.88636Z" fill="#98A1B3" fill-opacity="1"/></g><g><g><rect x="24.5" y="221.5" width="110" height="39" rx="19.5" fill-opacity="0" stroke-opacity="1" stroke="#EFBF04" fill="none" stroke-width="1"/><g><path d="M51.32802,236.31818L52.86719,236.31818L52.86719,243.0159Q52.86719,244.0838,52.36452,244.9076Q51.86192,245.7314,50.95212,246.1992Q50.042320000000004,246.667,48.82234,246.667Q47.60026,246.667,46.69046,246.1992Q45.78065,245.7314,45.27899,244.9076Q44.7774,244.0838,44.7774,243.0159L44.7774,236.31818L46.31665,236.31818L46.31665,242.8886Q46.31665,243.5797,46.62085,244.1171Q46.92513,244.6545,47.48638,244.9608Q48.0477,245.267,48.82234,245.267Q49.5979,245.267,50.16063,244.9608Q50.72343,244.6545,51.02568,244.1171Q51.32802,243.5797,51.32802,242.8886L51.32802,236.31818ZM54.9841,249.3636L54.9841,238.86364L56.4358,238.86364L56.4358,240.10055L56.5591,240.10055Q56.6924,239.86394,56.935,239.55026Q57.1776,239.23651,57.6111,239.00035Q58.0446,238.7642,58.754599999999996,238.7642Q59.6773,238.7642,60.4026,239.23052Q61.128,239.69684,61.5441,240.5778Q61.9602,241.4588,61.9602,242.6977Q61.9602,243.9326,61.548100000000005,244.8167Q61.135999999999996,245.7006,60.414500000000004,246.1739Q59.693200000000004,246.6471,58.7665,246.6471Q58.0704,246.6471,57.6325,246.415Q57.1945,246.1828,56.9444,245.8692Q56.6943,245.5554,56.5591,245.3108L56.4716,245.3108L56.4716,249.3636L54.9841,249.3636ZM56.443799999999996,242.6818Q56.443799999999996,243.4852,56.6759,244.0933Q56.9081,244.7013,57.352000000000004,245.0418Q57.796099999999996,245.3824,58.4364,245.3824Q59.1006,245.3824,59.549499999999995,245.0269Q59.9985,244.6715,60.227599999999995,244.0595Q60.4568,243.4474,60.4568,242.6818Q60.4568,241.9241,60.2316,241.3241Q60.0064,240.724,59.557500000000005,240.37655Q59.108599999999996,240.02901,58.4364,240.02901Q57.7881,240.02901,57.3441,240.36063000000001Q56.9002,240.6922,56.6719,241.2883Q56.443799999999996,241.8843,56.443799999999996,242.6818ZM65.1122,236.31818L65.1122,246.5L63.624700000000004,246.5L63.624700000000004,236.31818L65.1122,236.31818ZM70.3274,246.6551Q69.2515,246.6551,68.4521,246.1625Q67.6527,245.6697,67.2102,244.7843Q66.7678,243.8988,66.7678,242.7176Q66.7678,241.5284,67.2102,240.639Q67.6527,239.74959,68.4521,239.25694Q69.2515,238.7642,70.3274,238.7642Q71.4033,238.7642,72.2027,239.25694Q73.0021,239.74959,73.44460000000001,240.639Q73.8871,241.5284,73.8871,242.7176Q73.8871,243.8988,73.44460000000001,244.7843Q73.0021,245.6697,72.2027,246.1625Q71.4033,246.6551,70.3274,246.6551ZM70.3314,245.4062Q71.0294,245.4062,71.4858,245.0373Q71.9422,244.6684,72.1649,244.0569Q72.3877,243.4454,72.3877,242.7137Q72.3877,241.9808,72.1649,241.3658Q71.9422,240.7508,71.4858,240.37795Q71.0294,240.00508,70.3314,240.00508Q69.6294,240.00508,69.17099999999999,240.37795Q68.7127,240.7508,68.4899,241.3658Q68.2672,241.9808,68.2672,242.7137Q68.2672,243.4454,68.4899,244.0569Q68.7127,244.6684,69.17099999999999,245.0373Q69.6294,245.4062,70.3314,245.4062ZM77.7649,246.667Q77.0381,246.667,76.4529,246.3981Q75.8678,246.1292,75.5257,245.6111Q75.1837,245.093,75.1837,244.3443Q75.1837,243.694,75.4332,243.2769Q75.6828,242.8598,76.1054,242.6162Q76.52799999999999,242.3726,77.0495,242.2493Q77.571,242.126,78.1149,242.0614Q78.8,241.9798,79.226,241.9276Q79.65209999999999,241.8754,79.848,241.7576Q80.04390000000001,241.6398,80.04390000000001,241.3693L80.04390000000001,241.33350000000002Q80.04390000000001,240.6853,79.678,240.3273Q79.3121,239.96935,78.59219999999999,239.96935Q77.8415,239.96935,77.4105,240.29794Q76.9794,240.6265,76.8143,241.0312L75.4183,240.7131Q75.6669,240.01705,76.1457,239.587Q76.62440000000001,239.15696,77.2518,238.96058Q77.8793,238.7642,78.5683,238.7642Q79.0267,238.7642,79.5407,238.8721Q80.0548,238.98,80.5062,239.26292Q80.9577,239.54575,81.2445,240.07026Q81.53139999999999,240.5948,81.53139999999999,241.429L81.53139999999999,246.5L80.0797,246.5L80.0797,245.458L80.02000000000001,245.458Q79.8789,245.7423,79.59100000000001,246.0217Q79.3032,246.3011,78.8502,246.4841Q78.3973,246.667,77.7649,246.667ZM78.08709999999999,245.4779Q78.70660000000001,245.4779,79.1455,245.23329999999999Q79.58449999999999,244.9886,79.81620000000001,244.5939Q80.0479,244.1992,80.0479,243.7478L80.0479,242.7614Q79.96629999999999,242.8419,79.7411,242.9076Q79.5159,242.9731,79.22800000000001,243.0219Q78.9402,243.0706,78.6652,243.1064Q78.3903,243.1422,78.2064,243.167Q77.7769,243.2247,77.4204,243.3525Q77.06389999999999,243.4802,76.85159999999999,243.72129999999999Q76.63929999999999,243.9625,76.63929999999999,244.3602Q76.63929999999999,244.9131,77.048,245.1955Q77.4567,245.4779,78.08709999999999,245.4779ZM86.3707,246.6471Q85.444,246.6471,84.7227,246.1739Q84.0013,245.7006,83.5891,244.8167Q83.17699999999999,243.9326,83.17699999999999,242.6977Q83.17699999999999,241.4588,83.59309999999999,240.5778Q84.00919999999999,239.69684,84.7345,239.23052Q85.4599,238.7642,86.3827,238.7642Q87.0926,238.7642,87.5261,239.00035Q87.9596,239.23651,88.2022,239.55026Q88.44489999999999,239.86394,88.5781,240.10055L88.6656,240.10055L88.6656,236.31818L90.1531,236.31818L90.1531,246.5L88.7014,246.5L88.7014,245.3108L88.5781,245.3108Q88.44290000000001,245.5554,88.1928,245.8692Q87.9428,246.1828,87.5047,246.415Q87.0668,246.6471,86.3707,246.6471ZM86.70089999999999,245.3824Q87.3412,245.3824,87.7852,245.0418Q88.2291,244.7013,88.4613,244.0933Q88.6935,243.4852,88.6935,242.6818Q88.6935,241.8843,88.4653,241.2883Q88.2371,240.6922,87.79310000000001,240.36063000000001Q87.34909999999999,240.02901,86.70089999999999,240.02901Q86.0287,240.02901,85.5797,240.37655Q85.1308,240.724,84.90559999999999,241.3241Q84.68039999999999,241.9241,84.68039999999999,242.6818Q84.68039999999999,243.4474,84.9096,244.0595Q85.1388,244.6715,85.5877,245.0269Q86.03659999999999,245.3824,86.70089999999999,245.3824ZM99.6151,238.86364L99.6151,240.05682L95.2997,240.05682L95.2997,238.86364L99.6151,238.86364ZM96.48089999999999,246.5L96.48089999999999,237.97667Q96.48089999999999,237.26278,96.7952,236.78854Q97.1094,236.31422,97.62639999999999,236.0776Q98.1435,235.84091,98.74799999999999,235.84091Q99.1985,235.84091,99.5161,235.91253Q99.8338,235.98408,99.9889,236.04373L99.6389,237.24887999999999Q99.5375,237.21602000000001,99.3725,237.17477Q99.2074,237.13352,98.9747,237.13352Q98.43180000000001,237.13352,98.20009999999999,237.40098Q97.9684,237.66844,97.9684,238.17554L97.9684,246.5L96.48089999999999,246.5ZM101.14529999999999,246.5L101.14529999999999,238.86364L102.6328,238.86364L102.6328,246.5L101.14529999999999,246.5ZM101.89750000000001,237.68637999999999Q101.5112,237.68637999999999,101.2348,237.42584Q100.9584,237.16529,100.9584,236.79942Q100.9584,236.43354,101.23490000000001,236.17307Q101.5115,235.91253,101.89699999999999,235.91253Q102.2838,235.91253,102.55969999999999,236.17307Q102.8356,236.43362,102.8356,236.79949Q102.8356,237.16537,102.55969999999999,237.42591Q102.2838,237.68637999999999,101.89750000000001,237.68637999999999ZM106.11789999999999,236.31818L106.11789999999999,246.5L104.63040000000001,246.5L104.63040000000001,236.31818L106.11789999999999,236.31818ZM111.4087,246.6551Q110.2811,246.6551,109.4663,246.1694Q108.6514,245.6836,108.2124,244.8012Q107.7734,243.9187,107.7734,242.7336Q107.7734,241.5582,108.2129,240.6634Q108.6524,239.76847,109.4448,239.26634Q110.2373,238.7642,111.3012,238.7642Q111.9516,238.7642,112.5571,238.97697Q113.1626,239.18974,113.6439,239.64767Q114.1251,240.10552,114.4055,240.8354Q114.686,241.5652,114.686,242.6023L114.686,243.1272L108.6126,243.1272L108.6126,242.0136L113.2263,242.0136Q113.2253,241.431,112.9881,240.9751Q112.751,240.5192,112.321,240.25623Q111.8909,239.9932,111.3132,239.9932Q110.6858,239.9932,110.2224,240.29794Q109.7591,240.6027,109.507,241.0939Q109.255,241.5851,109.2529,242.1568L109.2529,243.0238Q109.2529,243.7895,109.5244,244.3264Q109.7959,244.8633,110.2831,245.1448Q110.7703,245.4261,111.4206,245.4261Q111.8472,245.4261,112.1947,245.3049Q112.5422,245.1835,112.7947,244.9405Q113.0473,244.6973,113.1825,244.3363L114.5905,244.5909Q114.4215,245.2113,113.9869,245.6762Q113.5524,246.141,112.8967,246.3981Q112.2409,246.6551,111.4087,246.6551Z" fill="#EFBF04" fill-opacity="1"/></g></g><g><path d="M155.1875,236.77273L155.1875,245.5L154.16477,245.5L149.40909,238.64773L149.32386,238.64773L149.32386,245.5L148.26704,245.5L148.26704,236.77273L149.28977,236.77273L154.0625,243.642L154.14773,243.642L154.14773,236.77273L155.1875,236.77273ZM159.8239,245.6364Q158.9375,245.6364,158.2706,245.2145Q157.6037,244.7926,157.2308,244.0341Q156.85795,243.2756,156.85795,242.2614Q156.85795,241.2386,157.2308,240.47585Q157.6037,239.71307,158.2706,239.29119Q158.9375,238.86932,159.8239,238.86932Q160.7102,238.86932,161.3771,239.29119Q162.044,239.71307,162.4169,240.47585Q162.7898,241.2386,162.7898,242.2614Q162.7898,243.2756,162.4169,244.0341Q162.044,244.7926,161.3771,245.2145Q160.7102,245.6364,159.8239,245.6364ZM159.8239,244.733Q160.4972,244.733,160.9318,244.3878Q161.3665,244.0426,161.5753,243.4801Q161.7841,242.9176,161.7841,242.2614Q161.7841,241.6051,161.5753,241.0384Q161.3665,240.47159,160.9318,240.12216Q160.4972,239.77273,159.8239,239.77273Q159.1506,239.77273,158.7159,240.12216Q158.2812,240.47159,158.0724,241.0384Q157.8636,241.6051,157.8636,242.2614Q157.8636,242.9176,158.0724,243.4801Q158.2812,244.0426,158.7159,244.3878Q159.1506,244.733,159.8239,244.733ZM170.6136,238.95455L170.6136,239.80682L167.0852,239.80682L167.0852,238.95455L170.6136,238.95455ZM168.142,245.5L168.142,238.05114Q168.142,237.48864,168.4062,237.11364Q168.6705,236.73864,169.0923,236.55114Q169.5142,236.36364,169.983,236.36364Q170.3537,236.36364,170.5881,236.4233Q170.8224,236.48295,170.9375,236.53409L170.6477,237.40341Q170.571,237.37784,170.4368,237.33949Q170.3026,237.30114,170.0852,237.30114Q169.5866,237.30114,169.3672,237.55256Q169.1477,237.80398,169.1477,238.28977L169.1477,245.5L168.142,245.5ZM172.0284,245.5L172.0284,238.95455L173.0341,238.95455L173.0341,245.5L172.0284,245.5ZM172.5398,237.86364Q172.2457,237.86364,172.0348,237.66335Q171.8239,237.46307,171.8239,237.18182Q171.8239,236.90057,172.0348,236.70028Q172.2457,236.5,172.5398,236.5Q172.8338,236.5,173.0447,236.70028Q173.2557,236.90057,173.2557,237.18182Q173.2557,237.46307,173.0447,237.66335Q172.8338,237.86364,172.5398,237.86364ZM175.8807,236.77273L175.8807,245.5L174.875,245.5L174.875,236.77273L175.8807,236.77273ZM180.4659,245.6364Q179.5199,245.6364,178.8359,245.2166Q178.152,244.7969,177.7834,244.0405Q177.4148,243.2841,177.4148,242.2784Q177.4148,241.2727,177.7834,240.5036Q178.152,239.73438,178.81459999999998,239.30185Q179.4773,238.86932,180.3636,238.86932Q180.875,238.86932,181.3736,239.03977Q181.8722,239.21023,182.2812,239.59162Q182.6903,239.97301,182.9332,240.5994Q183.1761,241.2259,183.1761,242.142L183.1761,242.5682L178.1307,242.5682L178.1307,241.6989L182.1534,241.6989Q182.1534,241.1449,181.934,240.7102Q181.7145,240.27557,181.3118,240.02415Q180.9091,239.77273,180.3636,239.77273Q179.7628,239.77273,179.326,240.06889Q178.8892,240.36506,178.6548,240.8381Q178.4205,241.3111,178.4205,241.8523L178.4205,242.4318Q178.4205,243.1733,178.6783,243.6868Q178.9361,244.2003,179.3963,244.4666Q179.85649999999998,244.733,180.4659,244.733Q180.8622,244.733,181.184,244.62Q181.5057,244.5071,181.74009999999998,244.2791Q181.9744,244.0511,182.1023,243.7102L183.0739,243.983Q182.9205,244.4773,182.5582,244.8501Q182.196,245.223,181.6634,245.4297Q181.1307,245.6364,180.4659,245.6364Z" fill="#98A1B3" fill-opacity="1"/></g></g></g></g></g><g><g><rect x="24" y="329" width="134" height="48" rx="24" fill="#454546" fill-opacity="1"/><g><path d="M80.00337,349.91815Q79.91246,349.11364,79.25506,348.66823Q78.59774,348.22274,77.5989,348.22274Q76.88299,348.22274,76.35964,348.44602Q75.83638,348.6693,75.54998,349.05913Q75.26367,349.44886,75.26252,349.94549Q75.26021,350.36026,75.45738,350.65971Q75.65456,350.95907,75.97496,351.16078Q76.29545,351.36248,76.66477,351.49547Q77.03409,351.62837,77.37615,351.7136L78.51252,352.00906Q79.06933,352.14542,79.65456,352.38068Q80.23979,352.6159,80.73864,352.9949Q81.23748,353.3738,81.54714,353.9363Q81.85679999999999,354.4988,81.85795,355.2864Q81.85679999999999,356.2704,81.34996,357.0386Q80.84322,357.8068,79.88015,358.2488Q78.91708,358.6909,77.54883,358.6909Q76.24547,358.6909,75.2903,358.2784Q74.33523,357.8659,73.79483,357.1017Q73.25453,356.3375,73.19886,355.2818L74.96253,355.2818Q75.01367,355.9159,75.37269,356.3319Q75.73179999999999,356.7477,76.29829,356.9512Q76.86479,357.1546,77.53977,357.1546Q78.2864,357.1546,78.86816,356.9182Q79.45002,356.6818,79.78524,356.258Q80.12047,355.8341,80.12162000000001,355.2682Q80.12047,354.7512,79.82786,354.4199Q79.53524,354.0886,79.03631,353.8745Q78.53746,353.6602,77.91708,353.4955L76.53977,353.1182Q75.13974,352.7375,74.32554999999999,351.99831Q73.51136,351.25906,73.51252,350.04545Q73.51136,349.04208,74.0562,348.29155Q74.60112,347.54093,75.53462,347.12278Q76.46822,346.70455,77.63521,346.70455Q78.81703,346.70455,79.72265,347.11932Q80.62837,347.53409,81.15163,348.25968Q81.67498,348.98526,81.69886,349.91815L80.00337,349.91815ZM86.358,358.6909Q85.5273,358.6909,84.85849999999999,358.3835Q84.1898,358.0762,83.7988,357.4841Q83.4079,356.892,83.4079,356.0364Q83.4079,355.2931,83.6932,354.8165Q83.9784,354.3398,84.4614,354.0613Q84.9443,353.7829,85.5403,353.642Q86.1364,353.5012,86.758,353.4273Q87.5409,353.3341,88.0278,353.2744Q88.5147,353.2148,88.7386,353.0802Q88.9625,352.9455,88.9625,352.6364L88.9625,352.5954Q88.9625,351.85458,88.54429999999999,351.44549Q88.1262,351.0364,87.3034,351.0364Q86.4455,351.0364,85.9529,351.41193Q85.4602,351.78746,85.2716,352.25L83.6761,351.88636Q83.9602,351.09091,84.5074,350.59943Q85.0545,350.10795,85.7716,349.88352Q86.4886,349.65909,87.2761,349.65909Q87.8,349.65909,88.3874,349.7824Q88.975,349.90572,89.4909,350.22905Q90.0068,350.55228999999997,90.3346,351.15172Q90.6625,351.75115,90.6625,352.7045L90.6625,358.5L89.0034,358.5L89.0034,357.3091L88.9352,357.3091Q88.7739,357.6341,88.4449,357.9534Q88.1159,358.2727,87.5983,358.4818Q87.08070000000001,358.6909,86.358,358.6909ZM86.7261,357.3319Q87.4341,357.3319,87.9358,357.0523Q88.4375,356.7727,88.7022,356.3216Q88.9671,355.8705,88.9671,355.3546L88.9671,354.2273Q88.8738,354.3193,88.6165,354.3944Q88.3591,354.4693,88.0301,354.525Q87.7012,354.5807,87.3869,354.6216Q87.0727,354.6625,86.8625,354.6909Q86.3716,354.7568,85.9642,354.9029Q85.5568,355.0488,85.3142,355.3244Q85.0716,355.6,85.0716,356.0545Q85.0716,356.6863,85.5386,357.0091Q86.0057,357.3319,86.7261,357.3319ZM100.075,349.77273L96.9068,358.5L95.0886,358.5L91.9205,349.77273L93.7432,349.77273L95.9522,356.4909L96.0431,356.4909L98.2523,349.77273L100.075,349.77273ZM105.1262,358.6773Q103.8375,358.6773,102.9062,358.1222Q101.975,357.567,101.4733,356.5585Q100.9716,355.55,100.9716,354.1955Q100.9716,352.8523,101.4738,351.82955Q101.9761,350.80682,102.8817,350.23295Q103.7875,349.65909,105.0034,349.65909Q105.7466,349.65909,106.4387,349.90226Q107.13069999999999,350.14542,107.6807,350.66877Q108.23060000000001,351.19203,108.55109999999999,352.02619Q108.8716,352.8603,108.8716,354.0455L108.8716,354.6454L101.9307,354.6454L101.9307,353.3727L107.2034,353.3727Q107.2022,352.7069,106.93119999999999,352.18581Q106.6602,351.66477,106.1688,351.36426Q105.6773,351.06365,105.017,351.06365Q104.3,351.06365,103.7704,351.41193Q103.2409,351.76021000000003,102.9529,352.32164Q102.6648,352.883,102.6625,353.5364L102.6625,354.5273Q102.6625,355.4023,102.9727,356.0159Q103.2829,356.6295,103.8398,356.9512Q104.3966,357.2727,105.1397,357.2727Q105.62729999999999,357.2727,106.0244,357.1341Q106.4216,356.9955,106.7102,356.7177Q106.9988,356.4398,107.1534,356.0273L108.7625,356.3182Q108.5693,357.0273,108.0727,357.5585Q107.5762,358.0898,106.8267,358.3835Q106.0772,358.6773,105.1262,358.6773Z" fill="#868686" fill-opacity="1"/></g></g><g><rect x="174.5" y="329.5" width="148" height="47" rx="23.5" fill-opacity="0" stroke-opacity="1" stroke="#868686" fill="none" stroke-width="1"/><g><path d="M232.992,350.64542L231.22390000000001,350.64542Q231.11701,350.07955,230.84029,349.64657Q230.56365,349.2136,230.16078,348.91424Q229.75799,348.61479,229.25906,348.462Q228.76021,348.30913,228.2057,348.30913Q227.20117,348.30913,226.4074,348.81365Q225.61364,349.31818,225.1551,350.2943Q224.69656,351.27042,224.69656,352.6818Q224.69656,354.1046,225.15625,355.0802Q225.61594,356.0557,226.40909,356.5551Q227.20224,357.0545,228.20117,357.0545Q228.75231,357.0545,229.24885,356.9051Q229.74547,356.7557,230.14888,356.4614Q230.55229,356.1671,230.83239,355.7369Q231.11248,355.3068,231.22390000000001,354.75L232.992,354.7545Q232.8534,355.6159,232.4454,356.3324Q232.0375,357.0488,231.40625,357.571Q230.77504,358.0932,229.96138,358.3762Q229.14773,358.6591,228.1875,358.6591Q226.67614,358.6591,225.49485,357.9398Q224.31365,357.2204,223.63468,355.8807Q222.955699,354.5409,222.955699,352.6818Q222.955699,350.82049,223.63752,349.48127Q224.31934,348.14205,225.50115,347.4233Q226.68297,346.70455,228.1875,346.70455Q229.11248,346.70455,229.91815,346.96937Q230.72390000000001,347.23411,231.36364,347.74263Q232.0034,348.25115,232.425,348.98073Q232.8466,349.71023,232.992,350.64542ZM237.5,358.6909Q236.6693,358.6909,236.0005,358.3835Q235.3319,358.0762,234.9409,357.4841Q234.55,356.892,234.55,356.0364Q234.55,355.2931,234.8352,354.8165Q235.1205,354.3398,235.6034,354.0613Q236.0864,353.7829,236.6824,353.642Q237.2784,353.5012,237.9,353.4273Q238.683,353.3341,239.1698,353.2744Q239.6568,353.2148,239.8807,353.0802Q240.1046,352.9455,240.1046,352.6364L240.1046,352.5954Q240.1046,351.85458,239.6863,351.44549Q239.2682,351.0364,238.4455,351.0364Q237.5875,351.0364,237.0949,351.41193Q236.6023,351.78746,236.4136,352.25L234.8182,351.88636Q235.1023,351.09091,235.6494,350.59943Q236.1966,350.10795,236.9136,349.88352Q237.6307,349.65909,238.4181,349.65909Q238.942,349.65909,239.52949999999998,349.7824Q240.117,349.90572,240.6329,350.22905Q241.1489,350.55228999999997,241.4767,351.15172Q241.8045,351.75115,241.8045,352.7045L241.8045,358.5L240.1454,358.5L240.1454,357.3091L240.0772,357.3091Q239.9159,357.6341,239.5869,357.9534Q239.258,358.2727,238.7403,358.4818Q238.2227,358.6909,237.5,358.6909ZM237.8682,357.3319Q238.5762,357.3319,239.0779,357.0523Q239.5795,356.7727,239.8443,356.3216Q240.1091,355.8705,240.1091,355.3546L240.1091,354.2273Q240.0159,354.3193,239.7585,354.3944Q239.5012,354.4693,239.1721,354.525Q238.8432,354.5807,238.5289,354.6216Q238.2148,354.6625,238.0045,354.6909Q237.5137,354.7568,237.1063,354.9029Q236.6989,355.0488,236.4562,355.3244Q236.21359999999999,355.6,236.21359999999999,356.0545Q236.21359999999999,356.6863,236.6807,357.0091Q237.1477,357.3319,237.8682,357.3319ZM245.767,353.3182L245.767,358.5L244.067,358.5L244.067,349.77273L245.6989,349.77273L245.6989,351.19549L245.808,351.19549Q246.1103,350.49769,246.754,350.07839Q247.3977,349.65909,248.3807,349.65909Q249.275,349.65909,249.9437,350.0324Q250.6125,350.40572,250.9835,351.13752Q251.3546,351.86932,251.3534,352.95L251.3534,358.5L249.6534,358.5L249.6534,353.1546Q249.6546,352.20224,249.1608,351.66708Q248.6671,351.13184,247.8034,351.13184Q247.2125,351.13184,246.7528,351.38814Q246.2931,351.64435,246.0306,352.13352Q245.7682,352.6227,245.767,353.3182ZM257.3011,358.6773Q256.03520000000003,358.6773,255.12380000000002,358.1006Q254.2125,357.5239,253.7227,356.5075Q253.233,355.4909,253.233,354.1773Q253.233,352.8454,253.7341,351.8267Q254.2353,350.80797,255.1444,350.23358Q256.0534,349.65909,257.2829,349.65909Q258.2761,349.65909,259.055,350.02441Q259.8341,350.38974,260.3147,351.04945Q260.7955,351.70907,260.8875,352.5909L259.233,352.5909Q259.09770000000003,351.97612,258.6108,351.53356Q258.1238,351.09091,257.3102,351.09091Q256.6011,351.09091,256.0692,351.46307Q255.5375,351.83523,255.242,352.5187Q254.9466,353.2022,254.9466,354.1364Q254.9466,355.0886,255.2375,355.7836Q255.5284,356.4784,256.0602,356.8574Q256.5921,357.2363,257.3102,357.2363Q257.7978,357.2363,258.192,357.0585Q258.5864,356.8807,258.8563,356.5449Q259.1262,356.2091,259.233,355.7363L260.8875,355.7363Q260.7931,356.5852,260.3341,357.2495Q259.875,357.9136,259.104,358.2955Q258.3329,358.6773,257.3011,358.6773ZM266.47270000000003,358.6773Q265.1841,358.6773,264.2528,358.1222Q263.3216,357.567,262.8199,356.5585Q262.3182,355.55,262.3182,354.1955Q262.3182,352.8523,262.8204,351.82955Q263.3227,350.80682,264.2283,350.23295Q265.1341,349.65909,266.35,349.65909Q267.0932,349.65909,267.78520000000003,349.90226Q268.4773,350.14542,269.02729999999997,350.66877Q269.5772,351.19203,269.8977,352.02619Q270.2182,352.8603,270.2182,354.0455L270.2182,354.6454L263.27729999999997,354.6454L263.27729999999997,353.3727L268.55,353.3727Q268.5488,352.7069,268.2778,352.18581Q268.0068,351.66477,267.5154,351.36426Q267.0239,351.06365,266.3636,351.06365Q265.6466,351.06365,265.117,351.41193Q264.5875,351.76021000000003,264.2994,352.32164Q264.0114,352.883,264.0091,353.5364L264.0091,354.5273Q264.0091,355.4023,264.3192,356.0159Q264.6295,356.6295,265.1863,356.9512Q265.7432,357.2727,266.4863,357.2727Q266.9739,357.2727,267.371,357.1341Q267.7682,356.9955,268.0568,356.7177Q268.3454,356.4398,268.5,356.0273L270.1091,356.3182Q269.9159,357.0273,269.4193,357.5585Q268.9228,358.0898,268.1733,358.3835Q267.4238,358.6773,266.47270000000003,358.6773ZM273.8068,346.86364L273.8068,358.5L272.1068,358.5L272.1068,346.86364L273.8068,346.86364Z" fill="#868686" fill-opacity="1"/></g></g></g></g></svg>