<svg xmlns="http://www.w3.org/2000/svg" xmlns:xlink="http://www.w3.org/1999/xlink" fill="none" version="1.1" width="568" height="1024" viewBox="0 0 568 1024"><g><rect x="0" y="0" width="568" height="1024" rx="0" fill="#252C38" fillOpacity="1"/><g><g><path d="M24,59L24,57.992000000000004L24.456,57.992000000000004Q24.936,57.992000000000004,25.224,57.848Q25.512,57.704,25.752,57.296Q25.992,56.888000000000005,26.28,56.120000000000005L31.608,41.864000000000004L33.480000000000004,41.864000000000004L38.903999999999996,56.72Q39.096000000000004,57.224000000000004,39.312,57.5Q39.528,57.775999999999996,39.84,57.884Q40.152,57.992000000000004,40.608000000000004,57.992000000000004L40.92,57.992000000000004L40.92,59L34.32,59L34.32,57.992000000000004L34.872,57.992000000000004Q35.592,57.992000000000004,35.952,57.716Q36.312,57.44,36.312,56.84Q36.312,56.696,36.288,56.564Q36.263999999999996,56.432,36.228,56.275999999999996Q36.192,56.120000000000005,36.12,55.952L35.16,53.263999999999996L28.848,53.263999999999996L27.936,55.784Q27.864,55.976,27.816,56.168Q27.768,56.36,27.744,56.516Q27.72,56.672,27.72,56.816Q27.72,57.416,28.116,57.704Q28.512,57.992000000000004,29.304000000000002,57.992000000000004L29.856,57.992000000000004L29.856,59L24,59ZM29.304000000000002,52.064L34.728,52.064L33.24,47.864000000000004Q33,47.144,32.772,46.496Q32.544,45.848,32.364000000000004,45.248Q32.184,44.647999999999996,32.04,44.072Q31.92,44.647999999999996,31.764,45.188Q31.608,45.728,31.416,46.316Q31.224,46.903999999999996,30.936,47.647999999999996L29.304000000000002,52.064ZM46.656,59.239999999999995Q45.072,59.239999999999995,43.980000000000004,58.544Q42.888000000000005,57.848,42.324,56.372Q41.760000000000005,54.896,41.760000000000005,52.592Q41.760000000000005,50.263999999999996,42.324,48.788Q42.888000000000005,47.312,43.980000000000004,46.604Q45.072,45.896,46.656,45.896Q48.048,45.896,48.924,46.484Q49.8,47.072,50.328,48.007999999999996L50.472,48.007999999999996Q50.4,47.408,50.364000000000004,46.676Q50.328,45.944,50.328,45.368L50.328,43.4Q50.328,42.68,50.052,42.332Q49.775999999999996,41.984,49.332,41.876Q48.888000000000005,41.768,48.36,41.768L48.168,41.768L48.168,40.76L52.584,40.76L52.584,56.36Q52.584,57.056,52.86,57.416Q53.135999999999996,57.775999999999996,53.58,57.884Q54.024,57.992000000000004,54.552,57.992000000000004L54.744,57.992000000000004L54.744,59L50.688,59L50.424,56.84L50.328,56.84Q49.8,57.944,48.936,58.592Q48.072,59.239999999999995,46.656,59.239999999999995ZM47.064,57.704Q48.936,57.704,49.632000000000005,56.444Q50.328,55.184,50.328,52.592Q50.328,50.096000000000004,49.632000000000005,48.763999999999996Q48.936,47.432,47.04,47.432Q45.984,47.432,45.336,48.032Q44.688,48.632000000000005,44.388000000000005,49.784Q44.088,50.936,44.088,52.616Q44.088,55.16,44.772,56.432Q45.456,57.704,47.064,57.704ZM61.392,59.239999999999995Q59.808,59.239999999999995,58.716,58.544Q57.624,57.848,57.06,56.372Q56.496,54.896,56.496,52.592Q56.496,50.263999999999996,57.06,48.788Q57.624,47.312,58.716,46.604Q59.808,45.896,61.392,45.896Q62.784,45.896,63.66,46.484Q64.536,47.072,65.064,48.007999999999996L65.208,48.007999999999996Q65.136,47.408,65.1,46.676Q65.064,45.944,65.064,45.368L65.064,43.4Q65.064,42.68,64.788,42.332Q64.512,41.984,64.068,41.876Q63.624,41.768,63.096,41.768L62.904,41.768L62.904,40.76L67.32,40.76L67.32,56.36Q67.32,57.056,67.596,57.416Q67.872,57.775999999999996,68.316,57.884Q68.75999999999999,57.992000000000004,69.288,57.992000000000004L69.47999999999999,57.992000000000004L69.47999999999999,59L65.424,59L65.16,56.84L65.064,56.84Q64.536,57.944,63.672,58.592Q62.808,59.239999999999995,61.392,59.239999999999995ZM61.8,57.704Q63.672,57.704,64.368,56.444Q65.064,55.184,65.064,52.592Q65.064,50.096000000000004,64.368,48.763999999999996Q63.672,47.432,61.776,47.432Q60.72,47.432,60.072,48.032Q59.424,48.632000000000005,59.124,49.784Q58.824,50.936,58.824,52.616Q58.824,55.16,59.508,56.432Q60.192,57.704,61.8,57.704ZM82.944,59.239999999999995Q81.36,59.239999999999995,80.124,58.568Q78.888,57.896,78.18,56.444Q77.47200000000001,54.992000000000004,77.47200000000001,52.64Q77.47200000000001,50.072,78.18,48.596000000000004Q78.888,47.12,80.1,46.507999999999996Q81.312,45.896,82.824,45.896Q83.832,45.896,84.792,46.16Q85.75200000000001,46.424,86.376,46.964Q87,47.504,87,48.344Q87,48.896,86.75999999999999,49.232Q86.52000000000001,49.568,86.05199999999999,49.712Q85.584,49.856,84.864,49.856Q84.864,49.088,84.684,48.464Q84.50399999999999,47.84,84.072,47.468Q83.64,47.096000000000004,82.824,47.096000000000004Q81.912,47.096000000000004,81.22800000000001,47.576Q80.544,48.056,80.172,49.256Q79.8,50.456,79.8,52.616Q79.8,54.32,80.172,55.448Q80.544,56.576,81.336,57.128Q82.128,57.68,83.424,57.68Q84.168,57.68,84.792,57.464Q85.416,57.248000000000005,85.884,56.864000000000004Q86.352,56.480000000000004,86.616,56Q86.80799999999999,56.144,86.916,56.372Q87.024,56.6,87.024,56.936Q87.024,57.488,86.568,58.016Q86.112,58.544,85.212,58.891999999999996Q84.312,59.239999999999995,82.944,59.239999999999995ZM92.88,59.239999999999995Q91.824,59.239999999999995,90.972,58.82Q90.12,58.4,89.64,57.548Q89.16,56.696,89.16,55.4Q89.16,53.480000000000004,90.516,52.568Q91.872,51.656,94.632,51.56L96.624,51.488L96.624,50.048Q96.624,49.184,96.48,48.524Q96.336,47.864000000000004,95.856,47.480000000000004Q95.376,47.096000000000004,94.392,47.096000000000004Q93.48,47.096000000000004,93,47.432Q92.52,47.768,92.364,48.356Q92.208,48.944,92.208,49.712Q91.2,49.712,90.684,49.364000000000004Q90.168,49.016,90.168,48.2Q90.168,47.36,90.756,46.856Q91.344,46.352000000000004,92.328,46.124Q93.312,45.896,94.488,45.896Q96.696,45.896,97.788,46.832Q98.88,47.768,98.88,50.048L98.88,56.263999999999996Q98.88,56.936,99.024,57.308Q99.168,57.68,99.504,57.836Q99.84,57.992000000000004,100.368,57.992000000000004L100.44,57.992000000000004L100.44,59L97.2,59L96.816,56.936L96.624,56.936Q96.12,57.608000000000004,95.64,58.123999999999995Q95.16,58.64,94.524,58.94Q93.888,59.239999999999995,92.88,59.239999999999995ZM93.432,57.751999999999995Q94.416,57.751999999999995,95.124,57.344Q95.832,56.936,96.228,56.18Q96.624,55.424,96.624,54.416L96.624,52.472L95.088,52.544Q93.72,52.592,92.94,52.952Q92.16,53.312,91.824,53.948Q91.488,54.584,91.488,55.519999999999996Q91.488,56.263999999999996,91.704,56.756Q91.92,57.248000000000005,92.352,57.5Q92.784,57.751999999999995,93.432,57.751999999999995ZM107.232,59.239999999999995Q105.408,59.239999999999995,104.58,58.412Q103.752,57.584,103.752,55.519999999999996L103.752,47.504L101.928,47.504L101.928,46.544Q102.36,46.544,102.888,46.364000000000004Q103.416,46.184,103.8,45.775999999999996Q104.208,45.344,104.472,44.72Q104.736,44.096000000000004,104.904,43.184L106.008,43.184L106.008,46.135999999999996L109.152,46.135999999999996L109.152,47.504L106.008,47.504L106.008,55.592Q106.008,56.816,106.512,57.391999999999996Q107.016,57.968,107.832,57.968Q108.264,57.968,108.624,57.92Q108.984,57.872,109.368,57.8L109.368,58.856Q109.056,59,108.432,59.120000000000005Q107.808,59.239999999999995,107.232,59.239999999999995ZM116.808,59.239999999999995Q114.192,59.239999999999995,112.716,57.512Q111.24,55.784,111.24,52.664Q111.24,49.304,112.632,47.6Q114.024,45.896,116.568,45.896Q118.896,45.896,120.228,47.336Q121.56,48.775999999999996,121.56,51.632000000000005L121.56,52.736000000000004L113.568,52.736000000000004Q113.616,55.352000000000004,114.516,56.54Q115.416,57.728,117.144,57.728Q118.392,57.728,119.268,57.212Q120.144,56.696,120.576,56.048Q120.744,56.120000000000005,120.888,56.336Q121.032,56.552,121.032,56.864000000000004Q121.032,57.344,120.576,57.896Q120.12,58.448,119.184,58.844Q118.248,59.239999999999995,116.808,59.239999999999995ZM119.136,51.44Q119.136,49.519999999999996,118.548,48.356Q117.96,47.192,116.52,47.192Q115.2,47.192,114.468,48.284Q113.736,49.376000000000005,113.616,51.44L119.136,51.44ZM128.304,64.75999999999999Q125.808,64.75999999999999,124.56,63.836Q123.312,62.912,123.312,61.256Q123.312,60.32,123.732,59.684Q124.152,59.048,124.836,58.688Q125.52,58.328,126.312,58.184Q125.832,57.968,125.412,57.476Q124.992,56.984,124.992,56.216Q124.992,55.495999999999995,125.364,54.968Q125.736,54.44,126.552,53.96Q125.52,53.528,124.956,52.532Q124.392,51.536,124.392,50.336Q124.392,48.272,125.52,47.084Q126.648,45.896,128.904,45.896Q129.768,45.896,130.536,46.135999999999996Q131.304,46.376,131.64,46.688Q131.88,46.424,132.216,46.124Q132.55200000000002,45.824,132.99599999999998,45.608000000000004Q133.44,45.391999999999996,133.96800000000002,45.391999999999996Q134.688,45.391999999999996,135.036,45.763999999999996Q135.38400000000001,46.135999999999996,135.38400000000001,46.64Q135.38400000000001,47.144,135.084,47.516Q134.784,47.888,134.112,47.888Q134.112,47.624,133.95600000000002,47.348Q133.8,47.072,133.32,47.072Q133.00799999999998,47.072,132.768,47.144Q132.52800000000002,47.216,132.288,47.36Q132.696,47.864000000000004,132.95999999999998,48.548Q133.224,49.232,133.224,50.263999999999996Q133.224,52.04,132.156,53.216Q131.088,54.391999999999996,128.904,54.391999999999996Q128.61599999999999,54.391999999999996,128.244,54.356Q127.872,54.32,127.632,54.272Q127.176,54.512,126.84,54.872Q126.504,55.232,126.504,55.784Q126.504,56.216,126.78,56.456Q127.056,56.696,127.992,56.696L130.704,56.696Q132.144,56.696,133.00799999999998,57.164Q133.872,57.632000000000005,134.268,58.436Q134.664,59.239999999999995,134.664,60.272Q134.664,62.336,133.11599999999999,63.548Q131.56799999999998,64.75999999999999,128.304,64.75999999999999ZM128.352,63.584Q130.07999999999998,63.584,131.01600000000002,63.212Q131.952,62.84,132.324,62.18Q132.696,61.519999999999996,132.696,60.68Q132.696,59.576,132.072,59.204Q131.44799999999998,58.832,130.248,58.832L127.896,58.832Q127.224,58.832,126.624,59.012Q126.024,59.192,125.64,59.672Q125.256,60.152,125.256,61.111999999999995Q125.256,61.808,125.52,62.372Q125.784,62.936,126.456,63.260000000000005Q127.128,63.584,128.352,63.584ZM128.832,53.239999999999995Q129.624,53.239999999999995,130.09199999999998,52.928Q130.56,52.616,130.764,51.944Q130.96800000000002,51.272,130.96800000000002,50.239999999999995Q130.96800000000002,49.16,130.752,48.452Q130.536,47.744,130.06799999999998,47.408Q129.6,47.072,128.808,47.072Q128.04000000000002,47.072,127.56,47.42Q127.08,47.768,126.864,48.476Q126.648,49.184,126.648,50.263999999999996Q126.648,51.8,127.164,52.519999999999996Q127.68,53.239999999999995,128.832,53.239999999999995ZM142.56,59.239999999999995Q139.96800000000002,59.239999999999995,138.48000000000002,57.584Q136.99200000000002,55.928,136.99200000000002,52.544Q136.99200000000002,49.184,138.42000000000002,47.54Q139.848,45.896,142.632,45.896Q145.224,45.896,146.712,47.54Q148.2,49.184,148.2,52.544Q148.2,55.928,146.772,57.584Q145.344,59.239999999999995,142.56,59.239999999999995ZM142.608,57.992000000000004Q143.808,57.992000000000004,144.52800000000002,57.379999999999995Q145.248,56.768,145.56,55.544Q145.872,54.32,145.872,52.544Q145.872,49.856,145.128,48.512Q144.38400000000001,47.168,142.584,47.168Q140.784,47.168,140.05200000000002,48.512Q139.32,49.856,139.32,52.544Q139.32,55.232,140.064,56.611999999999995Q140.808,57.992000000000004,142.608,57.992000000000004ZM150.312,59L150.312,57.992000000000004L150.38400000000001,57.992000000000004Q150.936,57.992000000000004,151.38,57.872Q151.824,57.751999999999995,152.088,57.379999999999995Q152.352,57.007999999999996,152.352,56.263999999999996L152.352,48.775999999999996Q152.352,48.056,152.076,47.708Q151.8,47.36,151.356,47.252Q150.912,47.144,150.38400000000001,47.144L150.312,47.144L150.312,46.135999999999996L154.008,46.135999999999996L154.464,48.512L154.584,48.512Q154.896,47.792,155.256,47.192Q155.616,46.592,156.216,46.244Q156.816,45.896,157.872,45.896Q159.192,45.896,159.828,46.352000000000004Q160.464,46.808,160.464,47.647999999999996Q160.464,48.391999999999996,159.948,48.872Q159.432,49.352000000000004,158.232,49.352000000000004Q158.232,48.68,158.112,48.272Q157.992,47.864000000000004,157.716,47.672Q157.44,47.480000000000004,156.96,47.480000000000004Q156.288,47.480000000000004,155.832,48.007999999999996Q155.376,48.536,155.112,49.352000000000004Q154.848,50.168,154.728,51.044Q154.608,51.92,154.608,52.616L154.608,56.384Q154.608,57.08,154.884,57.428Q155.16,57.775999999999996,155.604,57.884Q156.048,57.992000000000004,156.576,57.992000000000004L157.248,57.992000000000004L157.248,59L150.312,59ZM161.736,63.632000000000005Q162.96,63.632000000000005,163.848,63.272Q164.736,62.912,165.36,62.275999999999996Q165.984,61.64,166.416,60.775999999999996Q166.848,59.912,167.136,58.903999999999996L162.696,48.416Q162.48,47.912,162.264,47.635999999999996Q162.048,47.36,161.76,47.252Q161.472,47.144,160.992,47.144L160.92,47.144L160.92,46.135999999999996L166.68,46.135999999999996L166.68,47.144L166.608,47.144Q165.888,47.144,165.528,47.42Q165.168,47.696,165.168,48.296Q165.168,48.488,165.216,48.704Q165.264,48.92,165.36,49.184L167.112,53.456Q167.352,54.007999999999996,167.58,54.668Q167.808,55.328,168,55.928Q168.192,56.528,168.264,56.936Q168.432,56.239999999999995,168.708,55.495999999999995Q168.984,54.751999999999995,169.224,54.032L170.832,49.352000000000004Q170.952,49.064,171,48.788Q171.048,48.512,171.048,48.32Q171.048,47.696,170.652,47.42Q170.256,47.144,169.464,47.144L169.392,47.144L169.392,46.135999999999996L174.384,46.135999999999996L174.384,47.144L174.312,47.144Q173.856,47.144,173.544,47.288Q173.232,47.432,173.004,47.84Q172.776,48.248000000000005,172.488,49.016L168.84,59.096000000000004Q168.216,60.848,167.64,61.952Q167.064,63.056,166.356,63.668Q165.648,64.28,164.592,64.52000000000001Q163.536,64.75999999999999,161.952,64.75999999999999L161.736,64.75999999999999L161.736,63.632000000000005Z" fill="#FFFFFF" fillOpacity="1"/></g><g><g><path d="M24 96C24 93.79086100067683 25.790861000676827 92 28 92L540 92C542.2091389993232 92 544 93.79086100067683 544 96L544 148C544 148 544 148 544 148L24 148C24 148 24 148 24 148Z" fill="#222834" fillOpacity="1"/><g><g><g><g><path d="M48.48579,108L47.42897,108Q47.33522,107.54402999999999,47.10298,107.19886Q46.87074,106.85369,46.54048,106.61719Q46.21022,106.38068,45.80966,106.26136Q45.40909,106.14205,44.97443,106.14205Q44.18181,106.14205,43.54048,106.54261Q42.89914,106.94318,42.52201,107.72301Q42.14488,108.50284,42.14488,109.6364Q42.14488,110.7699,42.52201,111.5497Q42.89914,112.3295,43.54048,112.7301Q44.18181,113.1307,44.97443,113.1307Q45.40909,113.1307,45.80966,113.0114Q46.21022,112.892,46.54048,112.6555Q46.87074,112.419,47.10298,112.07169999999999Q47.33522,111.7244,47.42897,111.2727L48.48579,111.2727Q48.36647,111.9418,48.05113,112.4702Q47.73579,112.9986,47.26704,113.3672Q46.79829,113.7358,46.21662,113.9276Q45.63494,114.1193,44.97443,114.1193Q43.85795,114.1193,42.98863,113.5739Q42.11931,113.0284,41.62073,112.0227Q41.12216,111.017,41.12216,109.6364Q41.12216,108.25568,41.62073,107.25Q42.11931,106.24432,42.98863,105.69886Q43.85795,105.15341,44.97443,105.15341Q45.63494,105.15341,46.21662,105.34517Q46.79829,105.53693,47.26704,105.90554Q47.73579,106.27415,48.05113,106.80043Q48.36647,107.3267,48.48579,108ZM51.9801,114.1534Q51.358000000000004,114.1534,50.8508,113.9169Q50.3437,113.6804,50.045500000000004,113.2308Q49.74716,112.7812,49.74716,112.142Q49.74716,111.5795,49.96875,111.228Q50.1903,110.8764,50.561099999999996,110.6761Q50.9318,110.4759,51.3814,110.3757Q51.831,110.2756,52.2869,110.2159Q52.8835,110.1392,53.2564,110.0987Q53.6293,110.0582,53.8018,109.9602Q53.9744,109.8622,53.9744,109.6193L53.9744,109.5852Q53.9744,108.95455,53.6314,108.60511Q53.2883,108.25568,52.5937,108.25568Q51.873599999999996,108.25568,51.4645,108.57102Q51.0554,108.88636,50.8892,109.2443L49.93466,108.90341Q50.1903,108.30682,50.6186,107.9723Q51.0469,107.63777999999999,51.5561,107.50355Q52.0653,107.36932,52.5597,107.36932Q52.875,107.36932,53.2862,107.44389Q53.6974,107.51847000000001,54.0831,107.74858Q54.4687,107.97869,54.7244,108.44318Q54.9801,108.90767,54.9801,109.6875L54.9801,114L53.9744,114L53.9744,113.1136L53.9233,113.1136Q53.821,113.3267,53.5824,113.5696Q53.3437,113.8125,52.9474,113.983Q52.5511,114.1534,51.9801,114.1534ZM52.1335,113.25Q52.7301,113.25,53.1413,113.0156Q53.5526,112.7812,53.7635,112.4105Q53.9744,112.0398,53.9744,111.6307L53.9744,110.7102Q53.9105,110.7869,53.6953,110.8487Q53.4801,110.9105,53.201,110.9553Q52.9219,111,52.659800000000004,111.032Q52.3977,111.0639,52.2358,111.0852Q51.8437,111.1364,51.505,111.2493Q51.1662,111.3622,50.9595,111.5859Q50.7528,111.80969999999999,50.7528,112.1932Q50.7528,112.7173,51.1428,112.9837Q51.5327,113.25,52.1335,113.25ZM59.6676,107.45455L59.6676,108.30682L56.2756,108.30682L56.2756,107.45455L59.6676,107.45455ZM57.2642,105.88636L58.2699,105.88636L58.2699,112.125Q58.2699,112.5511,58.3956,112.7621Q58.5213,112.973,58.7195,113.0433Q58.9176,113.1136,59.1392,113.1136Q59.3054,113.1136,59.4119,113.0945Q59.5185,113.0753,59.5824,113.0625L59.7869,113.9659Q59.6847,114.0043,59.501400000000004,114.0447Q59.318200000000004,114.0852,59.0369,114.0852Q58.6108,114.0852,58.2038,113.902Q57.7969,113.7188,57.5305,113.3438Q57.2642,112.9688,57.2642,112.3977L57.2642,105.88636ZM63.8608,114.1364Q62.9148,114.1364,62.2308,113.7166Q61.5469,113.2969,61.1783,112.5405Q60.8097,111.7841,60.8097,110.7784Q60.8097,109.7727,61.1783,109.0036Q61.5469,108.23438,62.2095,107.80185Q62.8722,107.36932,63.7585,107.36932Q64.2699,107.36932,64.7685,107.53977Q65.267,107.71023,65.6761,108.09162Q66.0852,108.47301,66.3281,109.0994Q66.571,109.7259,66.571,110.642L66.571,111.0682L61.5256,111.0682L61.5256,110.1989L65.5483,110.1989Q65.5483,109.6449,65.3288,109.2102Q65.1094,108.77557,64.7067,108.52415Q64.304,108.27273,63.7585,108.27273Q63.1577,108.27273,62.7209,108.56889Q62.284099999999995,108.86506,62.0497,109.3381Q61.8153,109.8111,61.8153,110.3523L61.8153,110.9318Q61.8153,111.6733,62.0731,112.1868Q62.331,112.7003,62.7912,112.9666Q63.251400000000004,113.233,63.8608,113.233Q64.25710000000001,113.233,64.5788,113.12Q64.9006,113.0071,65.1349,112.7791Q65.3693,112.5511,65.49719999999999,112.2102L66.4687,112.483Q66.31530000000001,112.9773,65.9531,113.3501Q65.5909,113.723,65.0582,113.9297Q64.5256,114.1364,63.8608,114.1364ZM70.74719999999999,116.5909Q70.0185,116.5909,69.4943,116.4055Q68.9702,116.2202,68.6229,115.9197Q68.2756,115.6193,68.071,115.2784L68.87219999999999,114.7159Q69.0085,114.8949,69.2173,115.1271Q69.4261,115.3594,69.79050000000001,115.532Q70.1548,115.7045,70.74719999999999,115.7045Q71.5398,115.7045,72.05539999999999,115.321Q72.571,114.9375,72.571,114.1193L72.571,112.7898L72.4858,112.7898Q72.375,112.9688,72.1726,113.2308Q71.9702,113.4929,71.593,113.6953Q71.2159,113.8977,70.5767,113.8977Q69.7841,113.8977,69.1555,113.5227Q68.527,113.1477,68.1626,112.4318Q67.7983,111.7159,67.7983,110.6932Q67.7983,109.6875,68.152,108.93963Q68.5057,108.19176,69.1364,107.78054Q69.767,107.36932,70.5937,107.36932Q71.233,107.36932,71.6101,107.58026Q71.9872,107.79119,72.1896,108.05753Q72.392,108.32386,72.50280000000001,108.49432L72.6051,108.49432L72.6051,107.45455L73.5767,107.45455L73.5767,114.1875Q73.5767,115.0312,73.1953,115.5618Q72.81389999999999,116.0923,72.1726,116.3416Q71.5312,116.5909,70.74719999999999,116.5909ZM70.7131,112.9943Q71.3182,112.9943,71.7358,112.7173Q72.1534,112.44030000000001,72.3707,111.9205Q72.5881,111.4006,72.5881,110.6761Q72.5881,109.9688,72.375,109.4276Q72.1619,108.88636,71.7443,108.57955Q71.3267,108.27273,70.7131,108.27273Q70.0739,108.27273,69.6499,108.59659Q69.22579999999999,108.92045,69.0149,109.4659Q68.804,110.0114,68.804,110.6761Q68.804,111.358,69.0192,111.88Q69.2344,112.402,69.6584,112.6982Q70.0824,112.9943,70.7131,112.9943ZM78.0767,114.1364Q77.19030000000001,114.1364,76.52340000000001,113.7145Q75.8565,113.2926,75.4837,112.5341Q75.1108,111.7756,75.1108,110.7614Q75.1108,109.7386,75.4837,108.97585Q75.8565,108.21307,76.52340000000001,107.79119Q77.19030000000001,107.36932,78.0767,107.36932Q78.9631,107.36932,79.63,107.79119Q80.2969,108.21307,80.6697,108.97585Q81.0426,109.7386,81.0426,110.7614Q81.0426,111.7756,80.6697,112.5341Q80.2969,113.2926,79.63,113.7145Q78.9631,114.1364,78.0767,114.1364ZM78.0767,113.233Q78.75,113.233,79.18469999999999,112.8878Q79.61930000000001,112.5426,79.8281,111.9801Q80.0369,111.4176,80.0369,110.7614Q80.0369,110.1051,79.8281,109.5384Q79.61930000000001,108.97159,79.18469999999999,108.62216Q78.75,108.27273,78.0767,108.27273Q77.4034,108.27273,76.9687,108.62216Q76.5341,108.97159,76.3253,109.5384Q76.1165,110.1051,76.1165,110.7614Q76.1165,111.4176,76.3253,111.9801Q76.5341,112.5426,76.9687,112.8878Q77.4034,113.233,78.0767,113.233ZM82.5767,114L82.5767,107.45455L83.5483,107.45455L83.5483,108.44318L83.6165,108.44318Q83.7955,107.95739,84.2642,107.65483Q84.733,107.35227,85.321,107.35227Q85.43180000000001,107.35227,85.598,107.35652999999999Q85.7642,107.3608,85.8494,107.36932L85.8494,108.39205Q85.7983,108.37926,85.6172,108.35156Q85.43610000000001,108.32386,85.2358,108.32386Q84.7585,108.32386,84.3857,108.52202Q84.0128,108.72017,83.7976,109.0675Q83.5824,109.4148,83.5824,109.858L83.5824,114L82.5767,114ZM87.8949,116.4545Q87.6392,116.4545,87.43889999999999,116.4141Q87.23859999999999,116.3736,87.1619,116.3352L87.4176,115.4489Q87.7841,115.5426,88.06530000000001,115.517Q88.3466,115.4915,88.566,115.2678Q88.7855,115.044,88.9687,114.5455L89.1562,114.0341L86.7358,107.45455L87.8267,107.45455L89.6335,112.6705L89.7017,112.6705L91.5085,107.45455L92.5994,107.45455L89.821,114.9545Q89.6335,115.4616,89.3565,115.7962Q89.0795,116.1307,88.71520000000001,116.2926Q88.35079999999999,116.4545,87.8949,116.4545ZM98.30969999999999,110.0625L98.30969999999999,114L97.304,114L97.304,107.45455L98.2756,107.45455L98.2756,108.47727L98.3608,108.47727Q98.5909,107.97869,99.05969999999999,107.67401Q99.5284,107.36932,100.2699,107.36932Q100.93469999999999,107.36932,101.4332,107.63991Q101.93180000000001,107.91051,102.2088,108.4581Q102.4858,109.0057,102.4858,109.8409L102.4858,114L101.4801,114L101.4801,109.9091Q101.4801,109.1378,101.0795,108.70526Q100.679,108.27273,99.9801,108.27273Q99.49860000000001,108.27273,99.1214,108.48152999999999Q98.74430000000001,108.69034,98.527,109.0909Q98.30969999999999,109.4915,98.30969999999999,110.0625ZM106.2528,114.1534Q105.6307,114.1534,105.1236,113.9169Q104.6165,113.6804,104.3182,113.2308Q104.0199,112.7812,104.0199,112.142Q104.0199,111.5795,104.2415,111.228Q104.4631,110.8764,104.8338,110.6761Q105.2045,110.4759,105.6541,110.3757Q106.1037,110.2756,106.5597,110.2159Q107.1562,110.1392,107.5291,110.0987Q107.902,110.0582,108.0746,109.9602Q108.2472,109.8622,108.2472,109.6193L108.2472,109.5852Q108.2472,108.95455,107.9041,108.60511Q107.5611,108.25568,106.8665,108.25568Q106.1463,108.25568,105.7372,108.57102Q105.3281,108.88636,105.1619,109.2443L104.2074,108.90341Q104.4631,108.30682,104.8913,107.9723Q105.3196,107.63777999999999,105.8288,107.50355Q106.3381,107.36932,106.8324,107.36932Q107.1477,107.36932,107.559,107.44389Q107.9702,107.51847000000001,108.3558,107.74858Q108.7415,107.97869,108.9972,108.44318Q109.2528,108.90767,109.2528,109.6875L109.2528,114L108.2472,114L108.2472,113.1136L108.196,113.1136Q108.0938,113.3267,107.8551,113.5696Q107.6165,113.8125,107.2202,113.983Q106.8239,114.1534,106.2528,114.1534ZM106.4062,113.25Q107.0028,113.25,107.4141,113.0156Q107.8253,112.7812,108.0362,112.4105Q108.2472,112.0398,108.2472,111.6307L108.2472,110.7102Q108.1832,110.7869,107.968,110.8487Q107.7528,110.9105,107.4737,110.9553Q107.1946,111,106.9325,111.032Q106.6705,111.0639,106.5085,111.0852Q106.1165,111.1364,105.7777,111.2493Q105.4389,111.3622,105.2322,111.5859Q105.0256,111.80969999999999,105.0256,112.1932Q105.0256,112.7173,105.4155,112.9837Q105.8054,113.25,106.4062,113.25ZM111.0938,114L111.0938,107.45455L112.0653,107.45455L112.0653,108.47727L112.1506,108.47727Q112.3551,107.95312,112.8111,107.66122Q113.267,107.36932,113.9062,107.36932Q114.554,107.36932,114.9865,107.66122Q115.419,107.95312,115.6619,108.47727L115.7301,108.47727Q115.9815,107.97017,116.4844,107.66974Q116.9872,107.36932,117.6903,107.36932Q118.5682,107.36932,119.1264,107.9169Q119.6847,108.46449,119.6847,109.6193L119.6847,114L118.679,114L118.679,109.6193Q118.679,108.89489,118.2827,108.58381Q117.8864,108.27273,117.3494,108.27273Q116.6591,108.27273,116.2798,108.68821Q115.9006,109.1037,115.9006,109.7386L115.9006,114L114.8778,114L114.8778,109.517Q114.8778,108.95881,114.5156,108.61577Q114.1534,108.27273,113.5824,108.27273Q113.1903,108.27273,112.8516,108.48152999999999Q112.5128,108.69034,112.3061,109.0589Q112.0994,109.4276,112.0994,109.9091L112.0994,114L111.0938,114ZM124.2699,114.1364Q123.3239,114.1364,122.6399,113.7166Q121.956,113.2969,121.5874,112.5405Q121.2188,111.7841,121.2188,110.7784Q121.2188,109.7727,121.5874,109.0036Q121.956,108.23438,122.6186,107.80185Q123.2813,107.36932,124.1676,107.36932Q124.679,107.36932,125.1776,107.53977Q125.6761,107.71023,126.0852,108.09162Q126.4943,108.47301,126.7372,109.0994Q126.9801,109.7259,126.9801,110.642L126.9801,111.0682L121.9347,111.0682L121.9347,110.1989L125.9574,110.1989Q125.9574,109.6449,125.7379,109.2102Q125.5185,108.77557,125.1158,108.52415Q124.7131,108.27273,124.1676,108.27273Q123.5668,108.27273,123.13,108.56889Q122.6932,108.86506,122.4588,109.3381Q122.2244,109.8111,122.2244,110.3523L122.2244,110.9318Q122.2244,111.6733,122.4822,112.1868Q122.7401,112.7003,123.2003,112.9666Q123.6605,113.233,124.2699,113.233Q124.6662,113.233,124.9879,113.12Q125.3097,113.0071,125.544,112.7791Q125.7784,112.5511,125.9063,112.2102L126.8778,112.483Q126.7244,112.9773,126.3622,113.3501Q126,113.723,125.4673,113.9297Q124.9347,114.1364,124.2699,114.1364Z" fill="#98A1B3" fillOpacity="1"/></g></g><g><g><path d="M41.48864,136L41.48864,124.36364L48.46591,124.36364L48.46591,125.61364L42.89773,125.61364L42.89773,129.54545L47.94318,129.54545L47.94318,130.7955L42.89773,130.7955L42.89773,136L41.48864,136ZM50.6932,136L50.6932,127.27273L52.0341,127.27273L52.0341,136L50.6932,136ZM51.375,125.81818Q50.983000000000004,125.81818,50.7017,125.55114Q50.420500000000004,125.28409,50.420500000000004,124.90909Q50.420500000000004,124.53409,50.7017,124.26705Q50.983000000000004,124,51.375,124Q51.766999999999996,124,52.0483,124.26705Q52.329499999999996,124.53409,52.329499999999996,124.90909Q52.329499999999996,125.28409,52.0483,125.55114Q51.766999999999996,125.81818,51.375,125.81818ZM54.4886,136L54.4886,127.27273L55.7841,127.27273L55.7841,128.59091L55.875,128.59091Q56.113600000000005,127.94318,56.738600000000005,127.53977Q57.363600000000005,127.13636,58.1477,127.13636Q58.295500000000004,127.13636,58.516999999999996,127.14205Q58.738600000000005,127.14773,58.8523,127.15909L58.8523,128.52273Q58.784099999999995,128.50568,58.5426,128.46875Q58.301100000000005,128.43182,58.034099999999995,128.43182Q57.3977,128.43182,56.9006,128.69602Q56.403400000000005,128.96023,56.1165,129.4233Q55.829499999999996,129.88636,55.829499999999996,130.4773L55.829499999999996,136L54.4886,136ZM63.829499999999996,136.1818Q62.568200000000004,136.1818,61.6562,135.6222Q60.744299999999996,135.0625,60.2528,134.054Q59.761399999999995,133.0455,59.761399999999995,131.7045Q59.761399999999995,130.3636,60.2528,129.33807Q60.744299999999996,128.3125,61.6278,127.7358Q62.511399999999995,127.15909,63.693200000000004,127.15909Q64.375,127.15909,65.0398,127.38636Q65.7045,127.61364,66.25,128.12216Q66.7955,128.63068,67.1193,129.46591Q67.4432,130.3011,67.4432,131.5227L67.4432,132.0909L60.715900000000005,132.0909L60.715900000000005,130.9318L66.0795,130.9318Q66.0795,130.1932,65.7869,129.61364Q65.4943,129.03409,64.9574,128.69886Q64.4205,128.36364,63.693200000000004,128.36364Q62.891999999999996,128.36364,62.3097,128.75852Q61.7273,129.15341,61.4148,129.78409Q61.1023,130.4148,61.1023,131.1364L61.1023,131.9091Q61.1023,132.8977,61.446,133.5824Q61.7898,134.267,62.403400000000005,134.6222Q63.016999999999996,134.9773,63.829499999999996,134.9773Q64.358,134.9773,64.7869,134.8267Q65.2159,134.6761,65.5284,134.3722Q65.8409,134.0682,66.0114,133.6136L67.3068,133.9773Q67.1023,134.6364,66.6193,135.1335Q66.1364,135.6307,65.4261,135.9062Q64.7159,136.1818,63.829499999999996,136.1818ZM74.1705,136L74.1705,124.36364L75.5795,124.36364L75.5795,129.54545L81.7841,129.54545L81.7841,124.36364L83.19319999999999,124.36364L83.19319999999999,136L81.7841,136L81.7841,130.7955L75.5795,130.7955L75.5795,136L74.1705,136ZM88.3977,136.2045Q87.56819999999999,136.2045,86.892,135.8892Q86.2159,135.5739,85.81819999999999,134.9744Q85.4205,134.375,85.4205,133.5227Q85.4205,132.7727,85.7159,132.304Q86.01140000000001,131.8352,86.50569999999999,131.5682Q87,131.3011,87.5994,131.1676Q88.19890000000001,131.0341,88.80680000000001,130.9545Q89.6023,130.8523,90.0994,130.7983Q90.5966,130.7443,90.8267,130.6136Q91.05680000000001,130.483,91.05680000000001,130.1591L91.05680000000001,130.1136Q91.05680000000001,129.27273,90.5994,128.80682Q90.142,128.34091,89.2159,128.34091Q88.25569999999999,128.34091,87.7102,128.76136Q87.1648,129.18182,86.94319999999999,129.65909L85.6705,129.20455Q86.01140000000001,128.40909,86.5824,127.96307Q87.1534,127.51705,87.8324,127.33807Q88.51140000000001,127.15909,89.1705,127.15909Q89.5909,127.15909,90.1392,127.25852Q90.6875,127.35795,91.2017,127.66477Q91.7159,127.97159,92.05680000000001,128.59091Q92.3977,129.21023,92.3977,130.25L92.3977,136L91.05680000000001,136L91.05680000000001,134.8182L90.98859999999999,134.8182Q90.8523,135.1023,90.5341,135.4261Q90.2159,135.75,89.6875,135.9773Q89.1591,136.2045,88.3977,136.2045ZM88.6023,135Q89.3977,135,89.946,134.6875Q90.49430000000001,134.375,90.7756,133.8807Q91.05680000000001,133.3864,91.05680000000001,132.8409L91.05680000000001,131.6136Q90.9716,131.7159,90.68469999999999,131.7983Q90.3977,131.8807,90.0256,131.9403Q89.6534,132,89.304,132.0426Q88.9545,132.0852,88.73859999999999,132.1136Q88.2159,132.1818,87.7642,132.3324Q87.3125,132.483,87.0369,132.7812Q86.76140000000001,133.0795,86.76140000000001,133.5909Q86.76140000000001,134.2898,87.2812,134.6449Q87.80109999999999,135,88.6023,135ZM94.6023,136L94.6023,134.9773L99.55680000000001,128.61364L99.55680000000001,128.52273L94.76140000000001,128.52273L94.76140000000001,127.27273L101.2841,127.27273L101.2841,128.34091L96.4659,134.6591L96.4659,134.75L101.44319999999999,134.75L101.44319999999999,136L94.6023,136ZM106.0795,136.2045Q105.25,136.2045,104.5739,135.8892Q103.8977,135.5739,103.5,134.9744Q103.1023,134.375,103.1023,133.5227Q103.1023,132.7727,103.3977,132.304Q103.69319999999999,131.8352,104.1875,131.5682Q104.6818,131.3011,105.2812,131.1676Q105.8807,131.0341,106.4886,130.9545Q107.2841,130.8523,107.7812,130.7983Q108.2784,130.7443,108.5085,130.6136Q108.7386,130.483,108.7386,130.1591L108.7386,130.1136Q108.7386,129.27273,108.2812,128.80682Q107.8239,128.34091,106.8977,128.34091Q105.9375,128.34091,105.392,128.76136Q104.8466,129.18182,104.625,129.65909L103.3523,129.20455Q103.69319999999999,128.40909,104.2642,127.96307Q104.8352,127.51705,105.5142,127.33807Q106.1932,127.15909,106.8523,127.15909Q107.2727,127.15909,107.821,127.25852Q108.3693,127.35795,108.8835,127.66477Q109.3977,127.97159,109.7386,128.59091Q110.0795,129.21023,110.0795,130.25L110.0795,136L108.7386,136L108.7386,134.8182L108.6705,134.8182Q108.5341,135.1023,108.2159,135.4261Q107.8977,135.75,107.3693,135.9773Q106.8409,136.2045,106.0795,136.2045ZM106.2841,135Q107.0795,135,107.6278,134.6875Q108.1761,134.375,108.4574,133.8807Q108.7386,133.3864,108.7386,132.8409L108.7386,131.6136Q108.6534,131.7159,108.3665,131.7983Q108.0795,131.8807,107.7074,131.9403Q107.3352,132,106.9858,132.0426Q106.6364,132.0852,106.4205,132.1136Q105.8977,132.1818,105.446,132.3324Q104.9943,132.483,104.7188,132.7812Q104.4432,133.0795,104.4432,133.5909Q104.4432,134.2898,104.9631,134.6449Q105.483,135,106.2841,135ZM112.5341,136L112.5341,127.27273L113.8296,127.27273L113.8296,128.59091L113.9205,128.59091Q114.1591,127.94318,114.7841,127.53977Q115.4091,127.13636,116.1932,127.13636Q116.3409,127.13636,116.5625,127.14205Q116.7841,127.14773,116.8977,127.15909L116.8977,128.52273Q116.8296,128.50568,116.5881,128.46875Q116.3466,128.43182,116.0796,128.43182Q115.4432,128.43182,114.946,128.69602Q114.4489,128.96023,114.1619,129.4233Q113.875,129.88636,113.875,130.4773L113.875,136L112.5341,136ZM121.5114,136.1818Q120.4205,136.1818,119.5852,135.6278Q118.75,135.0739,118.2784,134.0597Q117.8068,133.0455,117.8068,131.6591Q117.8068,130.2841,118.2784,129.27273Q118.75,128.26136,119.5909,127.71023Q120.4318,127.15909,121.5341,127.15909Q122.3864,127.15909,122.8835,127.44034Q123.3807,127.72159,123.6449,128.0767Q123.9091,128.43182,124.0568,128.65909L124.1705,128.65909L124.1705,124.36364L125.5114,124.36364L125.5114,136L124.2159,136L124.2159,134.6591L124.0568,134.6591Q123.9091,134.8977,123.6364,135.2585Q123.3636,135.6193,122.858,135.9006Q122.3523,136.1818,121.5114,136.1818ZM121.6932,134.9773Q122.5,134.9773,123.0568,134.554Q123.6136,134.1307,123.9034,133.3778Q124.1932,132.625,124.1932,131.6364Q124.1932,130.6591,123.9091,129.9233Q123.625,129.1875,123.0682,128.77557Q122.5114,128.36364,121.6932,128.36364Q120.8409,128.36364,120.2756,128.7983Q119.7102,129.23295,119.429,129.97443Q119.1477,130.7159,119.1477,131.6364Q119.1477,132.5682,119.4347,133.3267Q119.7216,134.0852,120.2869,134.5312Q120.8523,134.9773,121.6932,134.9773Z" fill="#F4F7FF" fillOpacity="1"/></g></g></g></g></g><g><line x1="24" y1="147.5" x2="544" y2="147.5" fillOpacity="0" stroke-opacity="1" stroke="#98A1B3" fill="none" strokeWidth="1"/></g></g></g><g></g><g><g><g><rect x="24" y="937" width="150" height="48" rx="24" fill="#EFBF04" fillOpacity="1"/><g><path d="M79.67951,957.91815Q79.5886,957.11364,78.93119,956.66823Q78.27388,956.22274,77.27503,956.22274Q76.55912000000001,956.22274,76.03578,956.44602Q75.51252,956.6693,75.22612,957.05913Q74.93981,957.44886,74.93865,957.94549Q74.93634,958.36026,75.13352,958.65971Q75.33070000000001,958.95907,75.6511,959.16078Q75.97159,959.36248,76.34091,959.49547Q76.71023,959.62837,77.05229,959.7136L78.18865,960.00906Q78.74547,960.14542,79.33070000000001,960.38068Q79.91593,960.6159,80.41477,960.9949Q80.91362,961.3738,81.22328,961.9363Q81.53294,962.4988,81.53409,963.2864Q81.53294,964.2704,81.0261,965.0386Q80.51935,965.8068,79.55628,966.2488Q78.59322,966.6909,77.22496,966.6909Q75.92161,966.6909,74.96644,966.2784Q74.01136,965.8659,73.47097,965.1017Q72.930662,964.3375,72.874998,963.2818L74.63867,963.2818Q74.68981,963.9159,75.04883,964.3319Q75.40793,964.7477,75.97443,964.9512Q76.54093,965.1546,77.21591,965.1546Q77.96253,965.1546,78.54429999999999,964.9182Q79.12615,964.6818,79.46138,964.258Q79.79661,963.8341,79.79776,963.2682Q79.79661,962.7512,79.50399,962.4199Q79.21138,962.0886,78.71244,961.8745Q78.2136,961.6602,77.59322,961.4955L76.21591,961.1182Q74.81587,960.7375,74.00168,959.99831Q73.1875,959.25906,73.18865,958.04545Q73.1875,957.04208,73.73233,956.29155Q74.27725,955.54093,75.21076,955.12278Q76.14435,954.70455,77.31134,954.70455Q78.49316,954.70455,79.39879,955.11932Q80.30451,955.53409,80.82777,956.25968Q81.35112,956.98526,81.375,957.91815L79.67951,957.91815ZM89.025,962.8818L89.025,957.77273L90.725,957.77273L90.725,966.5L89.0568,966.5L89.0568,964.9863L88.9659,964.9863Q88.6636,965.6852,88.0034,966.1494Q87.3432,966.6136,86.35679999999999,966.6136Q85.5194,966.6136,84.8733,966.2409Q84.2273,965.8682,83.8608,965.1364Q83.4943,964.4046,83.4932,963.3227L83.4932,957.77273L85.1932,957.77273L85.1932,963.1182Q85.1943,964.0114,85.6892,964.5398Q86.1841,965.0682,86.9704,965.0682Q87.4489,965.0682,87.9221,964.8302Q88.3954,964.5921,88.7108,964.1074Q89.0261,963.6227,89.025,962.8818ZM93.1409,966.5L93.1409,954.86364L94.8409,954.86364L94.8409,959.18635L94.9409,959.18635Q95.0932,958.91593,95.37049999999999,958.55744Q95.6477,958.19886,96.14320000000001,957.92898Q96.6387,957.65909,97.45,957.65909Q98.50450000000001,957.65909,99.3335,958.19203Q100.1625,958.72496,100.63810000000001,959.7318Q101.1136,960.7386,101.1136,962.1546Q101.1136,963.5659,100.6426,964.5762Q100.1716,965.5864,99.3471,966.1273Q98.5227,966.6681,97.4636,966.6681Q96.6681,966.6681,96.1676,966.4029Q95.6671,966.1375,95.3812,965.779Q95.0954,965.4205,94.9409,965.1409L94.8,965.1409L94.8,966.5L93.1409,966.5ZM94.8091,962.1364Q94.8091,963.0545,95.0744,963.7495Q95.3398,964.4443,95.8471,964.8335Q96.3546,965.2227,97.0864,965.2227Q97.8454,965.2227,98.35849999999999,964.8165Q98.8716,964.4102,99.1335,963.7108Q99.3954,963.0114,99.3954,962.1364Q99.3954,961.2704,99.13810000000001,960.5847Q98.8807,959.89888,98.3676,959.50178Q97.8546,959.10458,97.0864,959.10458Q96.3454,959.10458,95.8381,959.48358Q95.33070000000001,959.86248,95.0699,960.5438Q94.8091,961.225,94.8091,962.1364ZM103.0159,966.5L103.0159,957.77273L104.6477,957.77273L104.6477,959.19549L104.7568,959.19549Q105.0296,958.47274,105.6477,958.06596Q106.2659,957.65909,107.12950000000001,957.65909Q108.00450000000001,957.65909,108.5988,958.06765Q109.19319999999999,958.47612,109.4796,959.19549L109.57050000000001,959.19549Q109.88300000000001,958.49432,110.5637,958.0767Q111.24430000000001,957.65909,112.1887,957.65909Q113.3762,957.65909,114.12780000000001,958.40456Q114.87950000000001,959.15004,114.87950000000001,960.65L114.87950000000001,966.5L113.17949999999999,966.5L113.17949999999999,960.8091Q113.17949999999999,959.92161,112.69890000000001,959.5245Q112.2182,959.12731,111.5478,959.12731Q110.7148,959.12731,110.2539,959.63583Q109.79310000000001,960.14435,109.79310000000001,960.9363L109.79310000000001,966.5L108.1023,966.5L108.1023,960.7Q108.1023,959.98979,107.6579,959.55859Q107.2136,959.12731,106.5068,959.12731Q106.0239,959.12731,105.61590000000001,959.37962Q105.2079,959.63184,104.9619,960.08017Q104.7159,960.5284,104.7159,961.1182L104.7159,966.5L103.0159,966.5ZM117.1523,966.5L117.1523,957.77273L118.8523,957.77273L118.8523,966.5L117.1523,966.5ZM118.0119,956.42729Q117.57050000000001,956.42729,117.25450000000001,956.12953Q116.9387,955.83176,116.9387,955.41362Q116.9387,954.99547,117.2547,954.6978Q117.57079999999999,954.40003,118.01140000000001,954.40003Q118.4534,954.40003,118.7687,954.6978Q119.0841,954.99556,119.0841,955.41371Q119.0841,955.83185,118.7687,956.12962Q118.4534,956.42729,118.0119,956.42729ZM125.2125,957.77273L125.2125,959.13636L120.4443,959.13636L120.4443,957.77273L125.2125,957.77273ZM121.7216,955.68182L123.4216,955.68182L123.4216,963.9387Q123.4216,964.4295,123.56819999999999,964.679Q123.7148,964.9284,123.9522,965.0154Q124.18979999999999,965.1023,124.4671,965.1023Q124.6728,965.1023,124.8244,965.075Q124.9761,965.0478,125.0625,965.0296L125.3716,966.4341Q125.2204,966.4875,124.9471,966.5488Q124.6738,966.6103,124.267,966.6159Q123.5966,966.6273,123.0159,966.3756Q122.43520000000001,966.1238,122.0772,965.6023Q121.7193,965.0807,121.7216,964.2886L121.7216,955.68182Z" fill="#181D26" fillOpacity="1"/></g></g><g><rect x="190.5" y="937.5" width="148" height="47" rx="23.5" fillOpacity="0" stroke-opacity="1" stroke="#868686" fill="none" strokeWidth="1"/><g><path d="M248.992,958.64542L247.22390000000001,958.64542Q247.11701,958.07955,246.84029,957.64657Q246.56365,957.2136,246.16078,956.91424Q245.75799,956.61479,245.25906,956.462Q244.76021,956.30913,244.2057,956.30913Q243.20117,956.30913,242.4074,956.81365Q241.61364,957.31818,241.1551,958.2943Q240.69656,959.27042,240.69656,960.6818Q240.69656,962.1046,241.15625,963.0802Q241.61594,964.0557,242.40909,964.5551Q243.20224,965.0545,244.20117,965.0545Q244.75231,965.0545,245.24885,964.9051Q245.74547,964.7557,246.14888,964.4614Q246.55229,964.1671,246.83239,963.7369Q247.11248,963.3068,247.22390000000001,962.75L248.992,962.7545Q248.8534,963.6159,248.4454,964.3324Q248.0375,965.0488,247.40625,965.571Q246.77504,966.0932,245.96138,966.3762Q245.14773,966.6591,244.1875,966.6591Q242.67614,966.6591,241.49485,965.9398Q240.31365,965.2204,239.63468,963.8807Q238.955699,962.5409,238.955699,960.6818Q238.955699,958.82049,239.63752,957.48127Q240.31934,956.14205,241.50115,955.4233Q242.68297,954.70455,244.1875,954.70455Q245.11248,954.70455,245.91815,954.96937Q246.72390000000001,955.23411,247.36364,955.74263Q248.0034,956.25115,248.425,956.98073Q248.8466,957.71023,248.992,958.64542ZM253.5,966.6909Q252.6693,966.6909,252.0005,966.3835Q251.3319,966.0762,250.9409,965.4841Q250.55,964.892,250.55,964.0364Q250.55,963.2931,250.8352,962.8165Q251.1205,962.3398,251.6034,962.0613Q252.0864,961.7829,252.6824,961.642Q253.2784,961.5012,253.9,961.4273Q254.683,961.3341,255.1698,961.2744Q255.6568,961.2148,255.8807,961.0802Q256.1046,960.9455,256.1046,960.6364L256.1046,960.5954Q256.1046,959.85458,255.6863,959.44549Q255.2682,959.0364,254.4455,959.0364Q253.5875,959.0364,253.0949,959.41193Q252.6023,959.78746,252.4136,960.25L250.8182,959.88636Q251.1023,959.09091,251.6494,958.59943Q252.1966,958.10795,252.9136,957.88352Q253.6307,957.65909,254.4181,957.65909Q254.942,957.65909,255.52949999999998,957.7824Q256.117,957.90572,256.6329,958.22905Q257.1489,958.55229,257.4767,959.15172Q257.8045,959.75115,257.8045,960.7045L257.8045,966.5L256.1454,966.5L256.1454,965.3091L256.0772,965.3091Q255.9159,965.6341,255.5869,965.9534Q255.258,966.2727,254.7403,966.4818Q254.2227,966.6909,253.5,966.6909ZM253.8682,965.3319Q254.5762,965.3319,255.0779,965.0523Q255.5795,964.7727,255.8443,964.3216Q256.1091,963.8705,256.1091,963.3546L256.1091,962.2273Q256.0159,962.3193,255.7585,962.3944Q255.5012,962.4693,255.1721,962.525Q254.8432,962.5807,254.5289,962.6216Q254.2148,962.6625,254.0045,962.6909Q253.5137,962.7568,253.1063,962.9029Q252.6989,963.0488,252.4562,963.3244Q252.21359999999999,963.6,252.21359999999999,964.0545Q252.21359999999999,964.6863,252.6807,965.0091Q253.1477,965.3319,253.8682,965.3319ZM261.767,961.3182L261.767,966.5L260.067,966.5L260.067,957.77273L261.6989,957.77273L261.6989,959.19549L261.808,959.19549Q262.1103,958.49769,262.754,958.07839Q263.3977,957.65909,264.3807,957.65909Q265.275,957.65909,265.9437,958.0324Q266.6125,958.40572,266.9835,959.13752Q267.3546,959.86932,267.3534,960.95L267.3534,966.5L265.6534,966.5L265.6534,961.1546Q265.6546,960.20224,265.1608,959.66708Q264.6671,959.13184,263.8034,959.13184Q263.2125,959.13184,262.7528,959.38814Q262.2931,959.64435,262.0306,960.13352Q261.7682,960.6227,261.767,961.3182ZM273.3011,966.6773Q272.03520000000003,966.6773,271.1238,966.1006Q270.2125,965.5239,269.7227,964.5075Q269.233,963.4909,269.233,962.1773Q269.233,960.8454,269.7341,959.8267Q270.2353,958.80797,271.1444,958.23358Q272.0534,957.65909,273.2829,957.65909Q274.2761,957.65909,275.055,958.02441Q275.8341,958.38974,276.3147,959.04945Q276.7955,959.70907,276.8875,960.5909L275.233,960.5909Q275.09770000000003,959.97612,274.6108,959.53356Q274.1238,959.09091,273.3102,959.09091Q272.6011,959.09091,272.0692,959.46307Q271.5375,959.83523,271.242,960.5187Q270.9466,961.2022,270.9466,962.1364Q270.9466,963.0886,271.2375,963.7836Q271.5284,964.4784,272.0602,964.8574Q272.5921,965.2363,273.3102,965.2363Q273.7978,965.2363,274.192,965.0585Q274.5864,964.8807,274.8563,964.5449Q275.1262,964.2091,275.233,963.7363L276.8875,963.7363Q276.7931,964.5852,276.3341,965.2495Q275.875,965.9136,275.104,966.2955Q274.3329,966.6773,273.3011,966.6773ZM282.47270000000003,966.6773Q281.1841,966.6773,280.2528,966.1222Q279.3216,965.567,278.8199,964.5585Q278.3182,963.55,278.3182,962.1955Q278.3182,960.8523,278.8204,959.82955Q279.3227,958.80682,280.2283,958.23295Q281.1341,957.65909,282.35,957.65909Q283.0932,957.65909,283.78520000000003,957.90226Q284.4773,958.14542,285.02729999999997,958.66877Q285.5772,959.19203,285.8977,960.02619Q286.2182,960.8603,286.2182,962.0455L286.2182,962.6454L279.27729999999997,962.6454L279.27729999999997,961.3727L284.55,961.3727Q284.5488,960.7069,284.2778,960.18581Q284.0068,959.66477,283.5154,959.36426Q283.0239,959.06365,282.3636,959.06365Q281.6466,959.06365,281.117,959.41193Q280.5875,959.76021,280.2994,960.32164Q280.0114,960.883,280.0091,961.5364L280.0091,962.5273Q280.0091,963.4023,280.3192,964.0159Q280.6295,964.6295,281.1863,964.9512Q281.7432,965.2727,282.4863,965.2727Q282.9739,965.2727,283.371,965.1341Q283.7682,964.9955,284.0568,964.7177Q284.3454,964.4398,284.5,964.0273L286.1091,964.3182Q285.9159,965.0273,285.4193,965.5585Q284.9228,966.0898,284.1733,966.3835Q283.4238,966.6773,282.47270000000003,966.6773ZM289.8068,954.86364L289.8068,966.5L288.1068,966.5L288.1068,954.86364L289.8068,954.86364Z" fill="#868686" fillOpacity="1"/></g></g></g></g></g></svg>