<svg xmlns="http://www.w3.org/2000/svg" xmlns:xlink="http://www.w3.org/1999/xlink" fill="none" version="1.1" width="568" height="295" viewBox="0 0 568 295"><g><rect x="0" y="0" width="568" height="295" rx="0" fill="#252C38" fillOpacity="1"/><g><g><path d="M24.912,59L24.912,57.992000000000004L25.224,57.992000000000004Q25.752,57.992000000000004,26.196,57.884Q26.64,57.775999999999996,26.916,57.428Q27.192,57.08,27.192,56.384L27.192,44.6Q27.192,43.832,26.928,43.472Q26.664,43.112,26.22,42.992000000000004Q25.776,42.872,25.224,42.872L24.912,42.872L24.912,41.864000000000004L37.007999999999996,41.864000000000004L37.128,46.064L35.88,46.064L35.76,45.032Q35.712,44.504,35.484,44.06Q35.256,43.616,34.812,43.34Q34.368,43.064,33.647999999999996,43.064L29.616,43.064L29.616,49.448L35.4,49.448L35.4,50.623999999999995L29.616,50.623999999999995L29.616,57.8L34.248,57.8Q35.016,57.8,35.484,57.524Q35.952,57.248000000000005,36.204,56.804Q36.456,56.36,36.528,55.832L36.696,54.8L37.944,54.8L37.775999999999996,59L24.912,59ZM45.168,59.239999999999995Q43.584,59.239999999999995,42.492000000000004,58.544Q41.4,57.848,40.836,56.372Q40.272,54.896,40.272,52.592Q40.272,50.263999999999996,40.836,48.788Q41.4,47.312,42.492000000000004,46.604Q43.584,45.896,45.168,45.896Q46.56,45.896,47.436,46.484Q48.312,47.072,48.84,48.007999999999996L48.984,48.007999999999996Q48.912,47.408,48.876000000000005,46.676Q48.84,45.944,48.84,45.368L48.84,43.4Q48.84,42.68,48.564,42.332Q48.288,41.984,47.844,41.876Q47.4,41.768,46.872,41.768L46.68,41.768L46.68,40.76L51.096000000000004,40.76L51.096000000000004,56.36Q51.096000000000004,57.056,51.372,57.416Q51.647999999999996,57.775999999999996,52.092,57.884Q52.536,57.992000000000004,53.064,57.992000000000004L53.256,57.992000000000004L53.256,59L49.2,59L48.936,56.84L48.84,56.84Q48.312,57.944,47.448,58.592Q46.584,59.239999999999995,45.168,59.239999999999995ZM45.576,57.704Q47.448,57.704,48.144,56.444Q48.84,55.184,48.84,52.592Q48.84,50.096000000000004,48.144,48.763999999999996Q47.448,47.432,45.552,47.432Q44.495999999999995,47.432,43.848,48.032Q43.2,48.632000000000005,42.9,49.784Q42.6,50.936,42.6,52.616Q42.6,55.16,43.284,56.432Q43.968,57.704,45.576,57.704ZM54.239999999999995,59L54.239999999999995,57.992000000000004L54.552,57.992000000000004Q55.08,57.992000000000004,55.524,57.884Q55.968,57.775999999999996,56.244,57.428Q56.52,57.08,56.52,56.384L56.52,48.775999999999996Q56.52,48.056,56.244,47.708Q55.968,47.36,55.524,47.252Q55.08,47.144,54.552,47.144L54.480000000000004,47.144L54.480000000000004,46.135999999999996L58.776,46.135999999999996L58.776,56.263999999999996Q58.776,57.007999999999996,59.04,57.379999999999995Q59.304,57.751999999999995,59.76,57.872Q60.216,57.992000000000004,60.744,57.992000000000004L61.056,57.992000000000004L61.056,59L54.239999999999995,59ZM57.552,43.736000000000004Q56.976,43.736000000000004,56.58,43.4Q56.184,43.064,56.184,42.248Q56.184,41.408,56.58,41.084Q56.976,40.76,57.552,40.76Q58.104,40.76,58.512,41.084Q58.92,41.408,58.92,42.248Q58.92,43.064,58.512,43.4Q58.104,43.736000000000004,57.552,43.736000000000004ZM67.128,59.239999999999995Q65.304,59.239999999999995,64.476,58.412Q63.648,57.584,63.648,55.519999999999996L63.648,47.504L61.824,47.504L61.824,46.544Q62.256,46.544,62.784,46.364000000000004Q63.312,46.184,63.696,45.775999999999996Q64.104,45.344,64.368,44.72Q64.632,44.096000000000004,64.8,43.184L65.904,43.184L65.904,46.135999999999996L69.048,46.135999999999996L69.048,47.504L65.904,47.504L65.904,55.592Q65.904,56.816,66.408,57.391999999999996Q66.912,57.968,67.72800000000001,57.968Q68.16,57.968,68.52000000000001,57.92Q68.88,57.872,69.26400000000001,57.8L69.26400000000001,58.856Q68.952,59,68.328,59.120000000000005Q67.70400000000001,59.239999999999995,67.128,59.239999999999995ZM82.848,59.239999999999995Q81.26400000000001,59.239999999999995,80.02799999999999,58.568Q78.792,57.896,78.084,56.444Q77.376,54.992000000000004,77.376,52.64Q77.376,50.072,78.084,48.596000000000004Q78.792,47.12,80.00399999999999,46.507999999999996Q81.21600000000001,45.896,82.72800000000001,45.896Q83.73599999999999,45.896,84.696,46.16Q85.656,46.424,86.28,46.964Q86.904,47.504,86.904,48.344Q86.904,48.896,86.664,49.232Q86.424,49.568,85.956,49.712Q85.488,49.856,84.768,49.856Q84.768,49.088,84.588,48.464Q84.408,47.84,83.976,47.468Q83.544,47.096000000000004,82.72800000000001,47.096000000000004Q81.816,47.096000000000004,81.132,47.576Q80.44800000000001,48.056,80.076,49.256Q79.70400000000001,50.456,79.70400000000001,52.616Q79.70400000000001,54.32,80.076,55.448Q80.44800000000001,56.576,81.24000000000001,57.128Q82.032,57.68,83.328,57.68Q84.072,57.68,84.696,57.464Q85.32,57.248000000000005,85.788,56.864000000000004Q86.256,56.480000000000004,86.52000000000001,56Q86.712,56.144,86.82,56.372Q86.928,56.6,86.928,56.936Q86.928,57.488,86.47200000000001,58.016Q86.01599999999999,58.544,85.116,58.891999999999996Q84.21600000000001,59.239999999999995,82.848,59.239999999999995ZM92.784,59.239999999999995Q91.728,59.239999999999995,90.876,58.82Q90.024,58.4,89.544,57.548Q89.064,56.696,89.064,55.4Q89.064,53.480000000000004,90.42,52.568Q91.776,51.656,94.536,51.56L96.528,51.488L96.528,50.048Q96.528,49.184,96.384,48.524Q96.24,47.864000000000004,95.76,47.480000000000004Q95.28,47.096000000000004,94.296,47.096000000000004Q93.384,47.096000000000004,92.904,47.432Q92.424,47.768,92.268,48.356Q92.112,48.944,92.112,49.712Q91.104,49.712,90.588,49.364000000000004Q90.072,49.016,90.072,48.2Q90.072,47.36,90.66,46.856Q91.248,46.352000000000004,92.232,46.124Q93.216,45.896,94.392,45.896Q96.6,45.896,97.692,46.832Q98.784,47.768,98.784,50.048L98.784,56.263999999999996Q98.784,56.936,98.928,57.308Q99.072,57.68,99.408,57.836Q99.744,57.992000000000004,100.272,57.992000000000004L100.344,57.992000000000004L100.344,59L97.104,59L96.72,56.936L96.528,56.936Q96.024,57.608000000000004,95.544,58.123999999999995Q95.064,58.64,94.428,58.94Q93.792,59.239999999999995,92.784,59.239999999999995ZM93.336,57.751999999999995Q94.32,57.751999999999995,95.028,57.344Q95.736,56.936,96.132,56.18Q96.528,55.424,96.528,54.416L96.528,52.472L94.992,52.544Q93.624,52.592,92.844,52.952Q92.064,53.312,91.728,53.948Q91.392,54.584,91.392,55.519999999999996Q91.392,56.263999999999996,91.608,56.756Q91.824,57.248000000000005,92.256,57.5Q92.688,57.751999999999995,93.336,57.751999999999995ZM107.136,59.239999999999995Q105.312,59.239999999999995,104.484,58.412Q103.656,57.584,103.656,55.519999999999996L103.656,47.504L101.832,47.504L101.832,46.544Q102.264,46.544,102.792,46.364000000000004Q103.32,46.184,103.704,45.775999999999996Q104.112,45.344,104.376,44.72Q104.64,44.096000000000004,104.808,43.184L105.912,43.184L105.912,46.135999999999996L109.056,46.135999999999996L109.056,47.504L105.912,47.504L105.912,55.592Q105.912,56.816,106.416,57.391999999999996Q106.92,57.968,107.736,57.968Q108.168,57.968,108.528,57.92Q108.888,57.872,109.272,57.8L109.272,58.856Q108.96,59,108.336,59.120000000000005Q107.712,59.239999999999995,107.136,59.239999999999995ZM116.712,59.239999999999995Q114.096,59.239999999999995,112.62,57.512Q111.144,55.784,111.144,52.664Q111.144,49.304,112.536,47.6Q113.928,45.896,116.472,45.896Q118.8,45.896,120.132,47.336Q121.464,48.775999999999996,121.464,51.632000000000005L121.464,52.736000000000004L113.472,52.736000000000004Q113.52,55.352000000000004,114.42,56.54Q115.32,57.728,117.048,57.728Q118.296,57.728,119.172,57.212Q120.048,56.696,120.48,56.048Q120.648,56.120000000000005,120.792,56.336Q120.936,56.552,120.936,56.864000000000004Q120.936,57.344,120.48,57.896Q120.024,58.448,119.088,58.844Q118.152,59.239999999999995,116.712,59.239999999999995ZM119.04,51.44Q119.04,49.519999999999996,118.452,48.356Q117.864,47.192,116.424,47.192Q115.104,47.192,114.372,48.284Q113.64,49.376000000000005,113.52,51.44L119.04,51.44ZM128.208,64.75999999999999Q125.712,64.75999999999999,124.464,63.836Q123.216,62.912,123.216,61.256Q123.216,60.32,123.636,59.684Q124.056,59.048,124.74,58.688Q125.424,58.328,126.216,58.184Q125.736,57.968,125.316,57.476Q124.896,56.984,124.896,56.216Q124.896,55.495999999999995,125.268,54.968Q125.64,54.44,126.456,53.96Q125.424,53.528,124.86,52.532Q124.296,51.536,124.296,50.336Q124.296,48.272,125.424,47.084Q126.552,45.896,128.808,45.896Q129.672,45.896,130.44,46.135999999999996Q131.208,46.376,131.54399999999998,46.688Q131.784,46.424,132.12,46.124Q132.45600000000002,45.824,132.9,45.608000000000004Q133.344,45.391999999999996,133.872,45.391999999999996Q134.59199999999998,45.391999999999996,134.94,45.763999999999996Q135.288,46.135999999999996,135.288,46.64Q135.288,47.144,134.988,47.516Q134.688,47.888,134.01600000000002,47.888Q134.01600000000002,47.624,133.86,47.348Q133.704,47.072,133.224,47.072Q132.912,47.072,132.672,47.144Q132.43200000000002,47.216,132.192,47.36Q132.6,47.864000000000004,132.864,48.548Q133.128,49.232,133.128,50.263999999999996Q133.128,52.04,132.06,53.216Q130.99200000000002,54.391999999999996,128.808,54.391999999999996Q128.51999999999998,54.391999999999996,128.148,54.356Q127.776,54.32,127.536,54.272Q127.08,54.512,126.744,54.872Q126.408,55.232,126.408,55.784Q126.408,56.216,126.684,56.456Q126.96,56.696,127.896,56.696L130.608,56.696Q132.048,56.696,132.912,57.164Q133.776,57.632000000000005,134.172,58.436Q134.56799999999998,59.239999999999995,134.56799999999998,60.272Q134.56799999999998,62.336,133.01999999999998,63.548Q131.47199999999998,64.75999999999999,128.208,64.75999999999999ZM128.256,63.584Q129.98399999999998,63.584,130.92000000000002,63.212Q131.856,62.84,132.228,62.18Q132.6,61.519999999999996,132.6,60.68Q132.6,59.576,131.976,59.204Q131.352,58.832,130.152,58.832L127.8,58.832Q127.128,58.832,126.528,59.012Q125.928,59.192,125.544,59.672Q125.16,60.152,125.16,61.111999999999995Q125.16,61.808,125.424,62.372Q125.688,62.936,126.36,63.260000000000005Q127.032,63.584,128.256,63.584ZM128.736,53.239999999999995Q129.52800000000002,53.239999999999995,129.99599999999998,52.928Q130.464,52.616,130.668,51.944Q130.872,51.272,130.872,50.239999999999995Q130.872,49.16,130.656,48.452Q130.44,47.744,129.97199999999998,47.408Q129.50400000000002,47.072,128.712,47.072Q127.944,47.072,127.464,47.42Q126.984,47.768,126.768,48.476Q126.552,49.184,126.552,50.263999999999996Q126.552,51.8,127.068,52.519999999999996Q127.584,53.239999999999995,128.736,53.239999999999995ZM142.464,59.239999999999995Q139.872,59.239999999999995,138.38400000000001,57.584Q136.89600000000002,55.928,136.89600000000002,52.544Q136.89600000000002,49.184,138.324,47.54Q139.752,45.896,142.536,45.896Q145.128,45.896,146.61599999999999,47.54Q148.10399999999998,49.184,148.10399999999998,52.544Q148.10399999999998,55.928,146.676,57.584Q145.248,59.239999999999995,142.464,59.239999999999995ZM142.512,57.992000000000004Q143.712,57.992000000000004,144.43200000000002,57.379999999999995Q145.152,56.768,145.464,55.544Q145.776,54.32,145.776,52.544Q145.776,49.856,145.03199999999998,48.512Q144.288,47.168,142.488,47.168Q140.688,47.168,139.95600000000002,48.512Q139.224,49.856,139.224,52.544Q139.224,55.232,139.96800000000002,56.611999999999995Q140.712,57.992000000000004,142.512,57.992000000000004ZM150.216,59L150.216,57.992000000000004L150.288,57.992000000000004Q150.84,57.992000000000004,151.284,57.872Q151.728,57.751999999999995,151.99200000000002,57.379999999999995Q152.256,57.007999999999996,152.256,56.263999999999996L152.256,48.775999999999996Q152.256,48.056,151.98000000000002,47.708Q151.704,47.36,151.26,47.252Q150.816,47.144,150.288,47.144L150.216,47.144L150.216,46.135999999999996L153.912,46.135999999999996L154.368,48.512L154.488,48.512Q154.8,47.792,155.16,47.192Q155.52,46.592,156.12,46.244Q156.72,45.896,157.776,45.896Q159.096,45.896,159.732,46.352000000000004Q160.368,46.808,160.368,47.647999999999996Q160.368,48.391999999999996,159.852,48.872Q159.336,49.352000000000004,158.136,49.352000000000004Q158.136,48.68,158.016,48.272Q157.896,47.864000000000004,157.62,47.672Q157.344,47.480000000000004,156.864,47.480000000000004Q156.192,47.480000000000004,155.736,48.007999999999996Q155.28,48.536,155.016,49.352000000000004Q154.752,50.168,154.632,51.044Q154.512,51.92,154.512,52.616L154.512,56.384Q154.512,57.08,154.788,57.428Q155.064,57.775999999999996,155.508,57.884Q155.952,57.992000000000004,156.48,57.992000000000004L157.152,57.992000000000004L157.152,59L150.216,59ZM161.64,63.632000000000005Q162.864,63.632000000000005,163.752,63.272Q164.64,62.912,165.264,62.275999999999996Q165.888,61.64,166.32,60.775999999999996Q166.752,59.912,167.04,58.903999999999996L162.6,48.416Q162.384,47.912,162.168,47.635999999999996Q161.952,47.36,161.664,47.252Q161.376,47.144,160.896,47.144L160.824,47.144L160.824,46.135999999999996L166.584,46.135999999999996L166.584,47.144L166.512,47.144Q165.792,47.144,165.432,47.42Q165.072,47.696,165.072,48.296Q165.072,48.488,165.12,48.704Q165.168,48.92,165.264,49.184L167.016,53.456Q167.256,54.007999999999996,167.484,54.668Q167.712,55.328,167.904,55.928Q168.096,56.528,168.168,56.936Q168.336,56.239999999999995,168.612,55.495999999999995Q168.888,54.751999999999995,169.128,54.032L170.736,49.352000000000004Q170.856,49.064,170.904,48.788Q170.952,48.512,170.952,48.32Q170.952,47.696,170.556,47.42Q170.16,47.144,169.368,47.144L169.296,47.144L169.296,46.135999999999996L174.288,46.135999999999996L174.288,47.144L174.216,47.144Q173.76,47.144,173.448,47.288Q173.136,47.432,172.908,47.84Q172.68,48.248000000000005,172.392,49.016L168.744,59.096000000000004Q168.12,60.848,167.544,61.952Q166.968,63.056,166.26,63.668Q165.552,64.28,164.496,64.52000000000001Q163.44,64.75999999999999,161.856,64.75999999999999L161.64,64.75999999999999L161.64,63.632000000000005Z" fill="#FFFFFF" fillOpacity="1"/></g><g><g><path d="M24 96C24 93.79086100067683 25.790861000676827 92 28 92L540 92C542.2091389993232 92 544 93.79086100067683 544 96L544 148C544 148 544 148 544 148L24 148C24 148 24 148 24 148Z" fill="#222834" fillOpacity="1"/><g><g><g><g><path d="M48.48579,108L47.42897,108Q47.33522,107.54402999999999,47.10298,107.19886Q46.87074,106.85369,46.54048,106.61719Q46.21022,106.38068,45.80966,106.26136Q45.40909,106.14205,44.97443,106.14205Q44.18181,106.14205,43.54048,106.54261Q42.89914,106.94318,42.52201,107.72301Q42.14488,108.50284,42.14488,109.6364Q42.14488,110.7699,42.52201,111.5497Q42.89914,112.3295,43.54048,112.7301Q44.18181,113.1307,44.97443,113.1307Q45.40909,113.1307,45.80966,113.0114Q46.21022,112.892,46.54048,112.6555Q46.87074,112.419,47.10298,112.07169999999999Q47.33522,111.7244,47.42897,111.2727L48.48579,111.2727Q48.36647,111.9418,48.05113,112.4702Q47.73579,112.9986,47.26704,113.3672Q46.79829,113.7358,46.21662,113.9276Q45.63494,114.1193,44.97443,114.1193Q43.85795,114.1193,42.98863,113.5739Q42.11931,113.0284,41.62073,112.0227Q41.12216,111.017,41.12216,109.6364Q41.12216,108.25568,41.62073,107.25Q42.11931,106.24432,42.98863,105.69886Q43.85795,105.15341,44.97443,105.15341Q45.63494,105.15341,46.21662,105.34517Q46.79829,105.53693,47.26704,105.90554Q47.73579,106.27415,48.05113,106.80043Q48.36647,107.3267,48.48579,108ZM51.9801,114.1534Q51.358000000000004,114.1534,50.8508,113.9169Q50.3437,113.6804,50.045500000000004,113.2308Q49.74716,112.7812,49.74716,112.142Q49.74716,111.5795,49.96875,111.228Q50.1903,110.8764,50.561099999999996,110.6761Q50.9318,110.4759,51.3814,110.3757Q51.831,110.2756,52.2869,110.2159Q52.8835,110.1392,53.2564,110.0987Q53.6293,110.0582,53.8018,109.9602Q53.9744,109.8622,53.9744,109.6193L53.9744,109.5852Q53.9744,108.95455,53.6314,108.60511Q53.2883,108.25568,52.5937,108.25568Q51.873599999999996,108.25568,51.4645,108.57102Q51.0554,108.88636,50.8892,109.2443L49.93466,108.90341Q50.1903,108.30682,50.6186,107.9723Q51.0469,107.63777999999999,51.5561,107.50355Q52.0653,107.36932,52.5597,107.36932Q52.875,107.36932,53.2862,107.44389Q53.6974,107.51847000000001,54.0831,107.74858Q54.4687,107.97869,54.7244,108.44318Q54.9801,108.90767,54.9801,109.6875L54.9801,114L53.9744,114L53.9744,113.1136L53.9233,113.1136Q53.821,113.3267,53.5824,113.5696Q53.3437,113.8125,52.9474,113.983Q52.5511,114.1534,51.9801,114.1534ZM52.1335,113.25Q52.7301,113.25,53.1413,113.0156Q53.5526,112.7812,53.7635,112.4105Q53.9744,112.0398,53.9744,111.6307L53.9744,110.7102Q53.9105,110.7869,53.6953,110.8487Q53.4801,110.9105,53.201,110.9553Q52.9219,111,52.659800000000004,111.032Q52.3977,111.0639,52.2358,111.0852Q51.8437,111.1364,51.505,111.2493Q51.1662,111.3622,50.9595,111.5859Q50.7528,111.80969999999999,50.7528,112.1932Q50.7528,112.7173,51.1428,112.9837Q51.5327,113.25,52.1335,113.25ZM59.6676,107.45455L59.6676,108.30682L56.2756,108.30682L56.2756,107.45455L59.6676,107.45455ZM57.2642,105.88636L58.2699,105.88636L58.2699,112.125Q58.2699,112.5511,58.3956,112.7621Q58.5213,112.973,58.7195,113.0433Q58.9176,113.1136,59.1392,113.1136Q59.3054,113.1136,59.4119,113.0945Q59.5185,113.0753,59.5824,113.0625L59.7869,113.9659Q59.6847,114.0043,59.501400000000004,114.0447Q59.318200000000004,114.0852,59.0369,114.0852Q58.6108,114.0852,58.2038,113.902Q57.7969,113.7188,57.5305,113.3438Q57.2642,112.9688,57.2642,112.3977L57.2642,105.88636ZM63.8608,114.1364Q62.9148,114.1364,62.2308,113.7166Q61.5469,113.2969,61.1783,112.5405Q60.8097,111.7841,60.8097,110.7784Q60.8097,109.7727,61.1783,109.0036Q61.5469,108.23438,62.2095,107.80185Q62.8722,107.36932,63.7585,107.36932Q64.2699,107.36932,64.7685,107.53977Q65.267,107.71023,65.6761,108.09162Q66.0852,108.47301,66.3281,109.0994Q66.571,109.7259,66.571,110.642L66.571,111.0682L61.5256,111.0682L61.5256,110.1989L65.5483,110.1989Q65.5483,109.6449,65.3288,109.2102Q65.1094,108.77557,64.7067,108.52415Q64.304,108.27273,63.7585,108.27273Q63.1577,108.27273,62.7209,108.56889Q62.284099999999995,108.86506,62.0497,109.3381Q61.8153,109.8111,61.8153,110.3523L61.8153,110.9318Q61.8153,111.6733,62.0731,112.1868Q62.331,112.7003,62.7912,112.9666Q63.251400000000004,113.233,63.8608,113.233Q64.25710000000001,113.233,64.5788,113.12Q64.9006,113.0071,65.1349,112.7791Q65.3693,112.5511,65.49719999999999,112.2102L66.4687,112.483Q66.31530000000001,112.9773,65.9531,113.3501Q65.5909,113.723,65.0582,113.9297Q64.5256,114.1364,63.8608,114.1364ZM70.74719999999999,116.5909Q70.0185,116.5909,69.4943,116.4055Q68.9702,116.2202,68.6229,115.9197Q68.2756,115.6193,68.071,115.2784L68.87219999999999,114.7159Q69.0085,114.8949,69.2173,115.1271Q69.4261,115.3594,69.79050000000001,115.532Q70.1548,115.7045,70.74719999999999,115.7045Q71.5398,115.7045,72.05539999999999,115.321Q72.571,114.9375,72.571,114.1193L72.571,112.7898L72.4858,112.7898Q72.375,112.9688,72.1726,113.2308Q71.9702,113.4929,71.593,113.6953Q71.2159,113.8977,70.5767,113.8977Q69.7841,113.8977,69.1555,113.5227Q68.527,113.1477,68.1626,112.4318Q67.7983,111.7159,67.7983,110.6932Q67.7983,109.6875,68.152,108.93963Q68.5057,108.19176,69.1364,107.78054Q69.767,107.36932,70.5937,107.36932Q71.233,107.36932,71.6101,107.58026Q71.9872,107.79119,72.1896,108.05753Q72.392,108.32386,72.50280000000001,108.49432L72.6051,108.49432L72.6051,107.45455L73.5767,107.45455L73.5767,114.1875Q73.5767,115.0312,73.1953,115.5618Q72.81389999999999,116.0923,72.1726,116.3416Q71.5312,116.5909,70.74719999999999,116.5909ZM70.7131,112.9943Q71.3182,112.9943,71.7358,112.7173Q72.1534,112.44030000000001,72.3707,111.9205Q72.5881,111.4006,72.5881,110.6761Q72.5881,109.9688,72.375,109.4276Q72.1619,108.88636,71.7443,108.57955Q71.3267,108.27273,70.7131,108.27273Q70.0739,108.27273,69.6499,108.59659Q69.22579999999999,108.92045,69.0149,109.4659Q68.804,110.0114,68.804,110.6761Q68.804,111.358,69.0192,111.88Q69.2344,112.402,69.6584,112.6982Q70.0824,112.9943,70.7131,112.9943ZM78.0767,114.1364Q77.19030000000001,114.1364,76.52340000000001,113.7145Q75.8565,113.2926,75.4837,112.5341Q75.1108,111.7756,75.1108,110.7614Q75.1108,109.7386,75.4837,108.97585Q75.8565,108.21307,76.52340000000001,107.79119Q77.19030000000001,107.36932,78.0767,107.36932Q78.9631,107.36932,79.63,107.79119Q80.2969,108.21307,80.6697,108.97585Q81.0426,109.7386,81.0426,110.7614Q81.0426,111.7756,80.6697,112.5341Q80.2969,113.2926,79.63,113.7145Q78.9631,114.1364,78.0767,114.1364ZM78.0767,113.233Q78.75,113.233,79.18469999999999,112.8878Q79.61930000000001,112.5426,79.8281,111.9801Q80.0369,111.4176,80.0369,110.7614Q80.0369,110.1051,79.8281,109.5384Q79.61930000000001,108.97159,79.18469999999999,108.62216Q78.75,108.27273,78.0767,108.27273Q77.4034,108.27273,76.9687,108.62216Q76.5341,108.97159,76.3253,109.5384Q76.1165,110.1051,76.1165,110.7614Q76.1165,111.4176,76.3253,111.9801Q76.5341,112.5426,76.9687,112.8878Q77.4034,113.233,78.0767,113.233ZM82.5767,114L82.5767,107.45455L83.5483,107.45455L83.5483,108.44318L83.6165,108.44318Q83.7955,107.95739,84.2642,107.65483Q84.733,107.35227,85.321,107.35227Q85.43180000000001,107.35227,85.598,107.35652999999999Q85.7642,107.3608,85.8494,107.36932L85.8494,108.39205Q85.7983,108.37926,85.6172,108.35156Q85.43610000000001,108.32386,85.2358,108.32386Q84.7585,108.32386,84.3857,108.52202Q84.0128,108.72017,83.7976,109.0675Q83.5824,109.4148,83.5824,109.858L83.5824,114L82.5767,114ZM87.8949,116.4545Q87.6392,116.4545,87.43889999999999,116.4141Q87.23859999999999,116.3736,87.1619,116.3352L87.4176,115.4489Q87.7841,115.5426,88.06530000000001,115.517Q88.3466,115.4915,88.566,115.2678Q88.7855,115.044,88.9687,114.5455L89.1562,114.0341L86.7358,107.45455L87.8267,107.45455L89.6335,112.6705L89.7017,112.6705L91.5085,107.45455L92.5994,107.45455L89.821,114.9545Q89.6335,115.4616,89.3565,115.7962Q89.0795,116.1307,88.71520000000001,116.2926Q88.35079999999999,116.4545,87.8949,116.4545ZM98.30969999999999,110.0625L98.30969999999999,114L97.304,114L97.304,107.45455L98.2756,107.45455L98.2756,108.47727L98.3608,108.47727Q98.5909,107.97869,99.05969999999999,107.67401Q99.5284,107.36932,100.2699,107.36932Q100.93469999999999,107.36932,101.4332,107.63991Q101.93180000000001,107.91051,102.2088,108.4581Q102.4858,109.0057,102.4858,109.8409L102.4858,114L101.4801,114L101.4801,109.9091Q101.4801,109.1378,101.0795,108.70526Q100.679,108.27273,99.9801,108.27273Q99.49860000000001,108.27273,99.1214,108.48152999999999Q98.74430000000001,108.69034,98.527,109.0909Q98.30969999999999,109.4915,98.30969999999999,110.0625ZM106.2528,114.1534Q105.6307,114.1534,105.1236,113.9169Q104.6165,113.6804,104.3182,113.2308Q104.0199,112.7812,104.0199,112.142Q104.0199,111.5795,104.2415,111.228Q104.4631,110.8764,104.8338,110.6761Q105.2045,110.4759,105.6541,110.3757Q106.1037,110.2756,106.5597,110.2159Q107.1562,110.1392,107.5291,110.0987Q107.902,110.0582,108.0746,109.9602Q108.2472,109.8622,108.2472,109.6193L108.2472,109.5852Q108.2472,108.95455,107.9041,108.60511Q107.5611,108.25568,106.8665,108.25568Q106.1463,108.25568,105.7372,108.57102Q105.3281,108.88636,105.1619,109.2443L104.2074,108.90341Q104.4631,108.30682,104.8913,107.9723Q105.3196,107.63777999999999,105.8288,107.50355Q106.3381,107.36932,106.8324,107.36932Q107.1477,107.36932,107.559,107.44389Q107.9702,107.51847000000001,108.3558,107.74858Q108.7415,107.97869,108.9972,108.44318Q109.2528,108.90767,109.2528,109.6875L109.2528,114L108.2472,114L108.2472,113.1136L108.196,113.1136Q108.0938,113.3267,107.8551,113.5696Q107.6165,113.8125,107.2202,113.983Q106.8239,114.1534,106.2528,114.1534ZM106.4062,113.25Q107.0028,113.25,107.4141,113.0156Q107.8253,112.7812,108.0362,112.4105Q108.2472,112.0398,108.2472,111.6307L108.2472,110.7102Q108.1832,110.7869,107.968,110.8487Q107.7528,110.9105,107.4737,110.9553Q107.1946,111,106.9325,111.032Q106.6705,111.0639,106.5085,111.0852Q106.1165,111.1364,105.7777,111.2493Q105.4389,111.3622,105.2322,111.5859Q105.0256,111.80969999999999,105.0256,112.1932Q105.0256,112.7173,105.4155,112.9837Q105.8054,113.25,106.4062,113.25ZM111.0938,114L111.0938,107.45455L112.0653,107.45455L112.0653,108.47727L112.1506,108.47727Q112.3551,107.95312,112.8111,107.66122Q113.267,107.36932,113.9062,107.36932Q114.554,107.36932,114.9865,107.66122Q115.419,107.95312,115.6619,108.47727L115.7301,108.47727Q115.9815,107.97017,116.4844,107.66974Q116.9872,107.36932,117.6903,107.36932Q118.5682,107.36932,119.1264,107.9169Q119.6847,108.46449,119.6847,109.6193L119.6847,114L118.679,114L118.679,109.6193Q118.679,108.89489,118.2827,108.58381Q117.8864,108.27273,117.3494,108.27273Q116.6591,108.27273,116.2798,108.68821Q115.9006,109.1037,115.9006,109.7386L115.9006,114L114.8778,114L114.8778,109.517Q114.8778,108.95881,114.5156,108.61577Q114.1534,108.27273,113.5824,108.27273Q113.1903,108.27273,112.8516,108.48152999999999Q112.5128,108.69034,112.3061,109.0589Q112.0994,109.4276,112.0994,109.9091L112.0994,114L111.0938,114ZM124.2699,114.1364Q123.3239,114.1364,122.6399,113.7166Q121.956,113.2969,121.5874,112.5405Q121.2188,111.7841,121.2188,110.7784Q121.2188,109.7727,121.5874,109.0036Q121.956,108.23438,122.6186,107.80185Q123.2813,107.36932,124.1676,107.36932Q124.679,107.36932,125.1776,107.53977Q125.6761,107.71023,126.0852,108.09162Q126.4943,108.47301,126.7372,109.0994Q126.9801,109.7259,126.9801,110.642L126.9801,111.0682L121.9347,111.0682L121.9347,110.1989L125.9574,110.1989Q125.9574,109.6449,125.7379,109.2102Q125.5185,108.77557,125.1158,108.52415Q124.7131,108.27273,124.1676,108.27273Q123.5668,108.27273,123.13,108.56889Q122.6932,108.86506,122.4588,109.3381Q122.2244,109.8111,122.2244,110.3523L122.2244,110.9318Q122.2244,111.6733,122.4822,112.1868Q122.7401,112.7003,123.2003,112.9666Q123.6605,113.233,124.2699,113.233Q124.6662,113.233,124.9879,113.12Q125.3097,113.0071,125.544,112.7791Q125.7784,112.5511,125.9063,112.2102L126.8778,112.483Q126.7244,112.9773,126.3622,113.3501Q126,113.723,125.4673,113.9297Q124.9347,114.1364,124.2699,114.1364Z" fill="#98A1B3" fillOpacity="1"/></g></g><g><g><path d="M41.48864,136L41.48864,124.36364L48.46591,124.36364L48.46591,125.61364L42.89773,125.61364L42.89773,129.54545L47.94318,129.54545L47.94318,130.7955L42.89773,130.7955L42.89773,136L41.48864,136ZM50.6932,136L50.6932,127.27273L52.0341,127.27273L52.0341,136L50.6932,136ZM51.375,125.81818Q50.983000000000004,125.81818,50.7017,125.55114Q50.420500000000004,125.28409,50.420500000000004,124.90909Q50.420500000000004,124.53409,50.7017,124.26705Q50.983000000000004,124,51.375,124Q51.766999999999996,124,52.0483,124.26705Q52.329499999999996,124.53409,52.329499999999996,124.90909Q52.329499999999996,125.28409,52.0483,125.55114Q51.766999999999996,125.81818,51.375,125.81818ZM54.4886,136L54.4886,127.27273L55.7841,127.27273L55.7841,128.59091L55.875,128.59091Q56.113600000000005,127.94318,56.738600000000005,127.53977Q57.363600000000005,127.13636,58.1477,127.13636Q58.295500000000004,127.13636,58.516999999999996,127.14205Q58.738600000000005,127.14773,58.8523,127.15909L58.8523,128.52273Q58.784099999999995,128.50568,58.5426,128.46875Q58.301100000000005,128.43182,58.034099999999995,128.43182Q57.3977,128.43182,56.9006,128.69602Q56.403400000000005,128.96023,56.1165,129.4233Q55.829499999999996,129.88636,55.829499999999996,130.4773L55.829499999999996,136L54.4886,136ZM63.829499999999996,136.1818Q62.568200000000004,136.1818,61.6562,135.6222Q60.744299999999996,135.0625,60.2528,134.054Q59.761399999999995,133.0455,59.761399999999995,131.7045Q59.761399999999995,130.3636,60.2528,129.33807Q60.744299999999996,128.3125,61.6278,127.7358Q62.511399999999995,127.15909,63.693200000000004,127.15909Q64.375,127.15909,65.0398,127.38636Q65.7045,127.61364,66.25,128.12216Q66.7955,128.63068,67.1193,129.46591Q67.4432,130.3011,67.4432,131.5227L67.4432,132.0909L60.715900000000005,132.0909L60.715900000000005,130.9318L66.0795,130.9318Q66.0795,130.1932,65.7869,129.61364Q65.4943,129.03409,64.9574,128.69886Q64.4205,128.36364,63.693200000000004,128.36364Q62.891999999999996,128.36364,62.3097,128.75852Q61.7273,129.15341,61.4148,129.78409Q61.1023,130.4148,61.1023,131.1364L61.1023,131.9091Q61.1023,132.8977,61.446,133.5824Q61.7898,134.267,62.403400000000005,134.6222Q63.016999999999996,134.9773,63.829499999999996,134.9773Q64.358,134.9773,64.7869,134.8267Q65.2159,134.6761,65.5284,134.3722Q65.8409,134.0682,66.0114,133.6136L67.3068,133.9773Q67.1023,134.6364,66.6193,135.1335Q66.1364,135.6307,65.4261,135.9062Q64.7159,136.1818,63.829499999999996,136.1818ZM74.1705,136L74.1705,124.36364L75.5795,124.36364L75.5795,129.54545L81.7841,129.54545L81.7841,124.36364L83.19319999999999,124.36364L83.19319999999999,136L81.7841,136L81.7841,130.7955L75.5795,130.7955L75.5795,136L74.1705,136ZM88.3977,136.2045Q87.56819999999999,136.2045,86.892,135.8892Q86.2159,135.5739,85.81819999999999,134.9744Q85.4205,134.375,85.4205,133.5227Q85.4205,132.7727,85.7159,132.304Q86.01140000000001,131.8352,86.50569999999999,131.5682Q87,131.3011,87.5994,131.1676Q88.19890000000001,131.0341,88.80680000000001,130.9545Q89.6023,130.8523,90.0994,130.7983Q90.5966,130.7443,90.8267,130.6136Q91.05680000000001,130.483,91.05680000000001,130.1591L91.05680000000001,130.1136Q91.05680000000001,129.27273,90.5994,128.80682Q90.142,128.34091,89.2159,128.34091Q88.25569999999999,128.34091,87.7102,128.76136Q87.1648,129.18182,86.94319999999999,129.65909L85.6705,129.20455Q86.01140000000001,128.40909,86.5824,127.96307Q87.1534,127.51705,87.8324,127.33807Q88.51140000000001,127.15909,89.1705,127.15909Q89.5909,127.15909,90.1392,127.25852Q90.6875,127.35795,91.2017,127.66477Q91.7159,127.97159,92.05680000000001,128.59091Q92.3977,129.21023,92.3977,130.25L92.3977,136L91.05680000000001,136L91.05680000000001,134.8182L90.98859999999999,134.8182Q90.8523,135.1023,90.5341,135.4261Q90.2159,135.75,89.6875,135.9773Q89.1591,136.2045,88.3977,136.2045ZM88.6023,135Q89.3977,135,89.946,134.6875Q90.49430000000001,134.375,90.7756,133.8807Q91.05680000000001,133.3864,91.05680000000001,132.8409L91.05680000000001,131.6136Q90.9716,131.7159,90.68469999999999,131.7983Q90.3977,131.8807,90.0256,131.9403Q89.6534,132,89.304,132.0426Q88.9545,132.0852,88.73859999999999,132.1136Q88.2159,132.1818,87.7642,132.3324Q87.3125,132.483,87.0369,132.7812Q86.76140000000001,133.0795,86.76140000000001,133.5909Q86.76140000000001,134.2898,87.2812,134.6449Q87.80109999999999,135,88.6023,135ZM94.6023,136L94.6023,134.9773L99.55680000000001,128.61364L99.55680000000001,128.52273L94.76140000000001,128.52273L94.76140000000001,127.27273L101.2841,127.27273L101.2841,128.34091L96.4659,134.6591L96.4659,134.75L101.44319999999999,134.75L101.44319999999999,136L94.6023,136ZM106.0795,136.2045Q105.25,136.2045,104.5739,135.8892Q103.8977,135.5739,103.5,134.9744Q103.1023,134.375,103.1023,133.5227Q103.1023,132.7727,103.3977,132.304Q103.69319999999999,131.8352,104.1875,131.5682Q104.6818,131.3011,105.2812,131.1676Q105.8807,131.0341,106.4886,130.9545Q107.2841,130.8523,107.7812,130.7983Q108.2784,130.7443,108.5085,130.6136Q108.7386,130.483,108.7386,130.1591L108.7386,130.1136Q108.7386,129.27273,108.2812,128.80682Q107.8239,128.34091,106.8977,128.34091Q105.9375,128.34091,105.392,128.76136Q104.8466,129.18182,104.625,129.65909L103.3523,129.20455Q103.69319999999999,128.40909,104.2642,127.96307Q104.8352,127.51705,105.5142,127.33807Q106.1932,127.15909,106.8523,127.15909Q107.2727,127.15909,107.821,127.25852Q108.3693,127.35795,108.8835,127.66477Q109.3977,127.97159,109.7386,128.59091Q110.0795,129.21023,110.0795,130.25L110.0795,136L108.7386,136L108.7386,134.8182L108.6705,134.8182Q108.5341,135.1023,108.2159,135.4261Q107.8977,135.75,107.3693,135.9773Q106.8409,136.2045,106.0795,136.2045ZM106.2841,135Q107.0795,135,107.6278,134.6875Q108.1761,134.375,108.4574,133.8807Q108.7386,133.3864,108.7386,132.8409L108.7386,131.6136Q108.6534,131.7159,108.3665,131.7983Q108.0795,131.8807,107.7074,131.9403Q107.3352,132,106.9858,132.0426Q106.6364,132.0852,106.4205,132.1136Q105.8977,132.1818,105.446,132.3324Q104.9943,132.483,104.7188,132.7812Q104.4432,133.0795,104.4432,133.5909Q104.4432,134.2898,104.9631,134.6449Q105.483,135,106.2841,135ZM112.5341,136L112.5341,127.27273L113.8296,127.27273L113.8296,128.59091L113.9205,128.59091Q114.1591,127.94318,114.7841,127.53977Q115.4091,127.13636,116.1932,127.13636Q116.3409,127.13636,116.5625,127.14205Q116.7841,127.14773,116.8977,127.15909L116.8977,128.52273Q116.8296,128.50568,116.5881,128.46875Q116.3466,128.43182,116.0796,128.43182Q115.4432,128.43182,114.946,128.69602Q114.4489,128.96023,114.1619,129.4233Q113.875,129.88636,113.875,130.4773L113.875,136L112.5341,136ZM121.5114,136.1818Q120.4205,136.1818,119.5852,135.6278Q118.75,135.0739,118.2784,134.0597Q117.8068,133.0455,117.8068,131.6591Q117.8068,130.2841,118.2784,129.27273Q118.75,128.26136,119.5909,127.71023Q120.4318,127.15909,121.5341,127.15909Q122.3864,127.15909,122.8835,127.44034Q123.3807,127.72159,123.6449,128.0767Q123.9091,128.43182,124.0568,128.65909L124.1705,128.65909L124.1705,124.36364L125.5114,124.36364L125.5114,136L124.2159,136L124.2159,134.6591L124.0568,134.6591Q123.9091,134.8977,123.6364,135.2585Q123.3636,135.6193,122.858,135.9006Q122.3523,136.1818,121.5114,136.1818ZM121.6932,134.9773Q122.5,134.9773,123.0568,134.554Q123.6136,134.1307,123.9034,133.3778Q124.1932,132.625,124.1932,131.6364Q124.1932,130.6591,123.9091,129.9233Q123.625,129.1875,123.0682,128.77557Q122.5114,128.36364,121.6932,128.36364Q120.8409,128.36364,120.2756,128.7983Q119.7102,129.23295,119.429,129.97443Q119.1477,130.7159,119.1477,131.6364Q119.1477,132.5682,119.4347,133.3267Q119.7216,134.0852,120.2869,134.5312Q120.8523,134.9773,121.6932,134.9773Z" fill="#F4F7FF" fillOpacity="1"/></g></g></g></g></g><g><line x1="24" y1="147.5" x2="544" y2="147.5" fillOpacity="0" stroke-opacity="1" stroke="#98A1B3" fill="none" strokeWidth="1"/></g></g></g><g></g><g><g><g><rect x="24" y="196" width="134" height="48" rx="24" fill="#EFBF04" fillOpacity="1"/><g><path d="M80.00337,216.91815Q79.91246,216.11364,79.25506,215.66823Q78.59774,215.22274,77.5989,215.22274Q76.88299,215.22274,76.35964,215.44602Q75.83638,215.6693,75.54998,216.05913Q75.26367,216.44886,75.26252,216.94549Q75.26021,217.36026,75.45738,217.65971Q75.65456,217.95907,75.97496,218.16078Q76.29545,218.36248,76.66477,218.49547Q77.03409,218.62837,77.37615,218.71359999999999L78.51252,219.00906Q79.06933,219.14542,79.65456,219.38068Q80.23979,219.6159,80.73864,219.9949Q81.23748,220.3738,81.54714,220.9363Q81.85679999999999,221.4988,81.85795,222.28640000000001Q81.85679999999999,223.2704,81.34996,224.0386Q80.84322,224.8068,79.88015,225.2488Q78.91708,225.6909,77.54883,225.6909Q76.24547,225.6909,75.2903,225.2784Q74.33523,224.8659,73.79483,224.1017Q73.25453,223.3375,73.19886,222.2818L74.96253,222.2818Q75.01367,222.9159,75.37269,223.3319Q75.73179999999999,223.7477,76.29829,223.9512Q76.86479,224.1546,77.53977,224.1546Q78.2864,224.1546,78.86816,223.9182Q79.45002,223.6818,79.78524,223.258Q80.12047,222.8341,80.12162000000001,222.2682Q80.12047,221.7512,79.82786,221.4199Q79.53524,221.08859999999999,79.03631,220.8745Q78.53746,220.6602,77.91708,220.4955L76.53977,220.1182Q75.13974,219.7375,74.32554999999999,218.99831Q73.51136,218.25906,73.51252,217.04545Q73.51136,216.04208,74.0562,215.29155Q74.60112,214.54093,75.53462,214.12278Q76.46822,213.70455,77.63521,213.70455Q78.81703,213.70455,79.72265,214.11932Q80.62837,214.53409,81.15163,215.25968Q81.67498,215.98526,81.69886,216.91815L80.00337,216.91815ZM86.358,225.6909Q85.5273,225.6909,84.85849999999999,225.3835Q84.1898,225.0762,83.7988,224.4841Q83.4079,223.892,83.4079,223.03640000000001Q83.4079,222.2931,83.6932,221.8165Q83.9784,221.3398,84.4614,221.0613Q84.9443,220.7829,85.5403,220.642Q86.1364,220.5012,86.758,220.4273Q87.5409,220.3341,88.0278,220.2744Q88.5147,220.2148,88.7386,220.0802Q88.9625,219.9455,88.9625,219.6364L88.9625,219.5954Q88.9625,218.85458,88.54429999999999,218.44549Q88.1262,218.03640000000001,87.3034,218.03640000000001Q86.4455,218.03640000000001,85.9529,218.41193Q85.4602,218.78746,85.2716,219.25L83.6761,218.88636Q83.9602,218.09091,84.5074,217.59943Q85.0545,217.10795,85.7716,216.88352Q86.4886,216.65909,87.2761,216.65909Q87.8,216.65909,88.3874,216.7824Q88.975,216.90572,89.4909,217.22905Q90.0068,217.55229,90.3346,218.15172Q90.6625,218.75115,90.6625,219.7045L90.6625,225.5L89.0034,225.5L89.0034,224.3091L88.9352,224.3091Q88.7739,224.6341,88.4449,224.9534Q88.1159,225.2727,87.5983,225.4818Q87.08070000000001,225.6909,86.358,225.6909ZM86.7261,224.3319Q87.4341,224.3319,87.9358,224.0523Q88.4375,223.7727,88.7022,223.3216Q88.9671,222.8705,88.9671,222.3546L88.9671,221.2273Q88.8738,221.3193,88.6165,221.3944Q88.3591,221.4693,88.0301,221.525Q87.7012,221.5807,87.3869,221.6216Q87.0727,221.6625,86.8625,221.6909Q86.3716,221.7568,85.9642,221.9029Q85.5568,222.0488,85.3142,222.3244Q85.0716,222.6,85.0716,223.0545Q85.0716,223.6863,85.5386,224.0091Q86.0057,224.3319,86.7261,224.3319ZM100.075,216.77273L96.9068,225.5L95.0886,225.5L91.9205,216.77273L93.7432,216.77273L95.9522,223.4909L96.0431,223.4909L98.2523,216.77273L100.075,216.77273ZM105.1262,225.6773Q103.8375,225.6773,102.9062,225.1222Q101.975,224.567,101.4733,223.5585Q100.9716,222.55,100.9716,221.1955Q100.9716,219.8523,101.4738,218.82955Q101.9761,217.80682,102.8817,217.23295Q103.7875,216.65909,105.0034,216.65909Q105.7466,216.65909,106.4387,216.90226Q107.13069999999999,217.14542,107.6807,217.66877Q108.23060000000001,218.19203,108.55109999999999,219.02618999999999Q108.8716,219.8603,108.8716,221.0455L108.8716,221.6454L101.9307,221.6454L101.9307,220.3727L107.2034,220.3727Q107.2022,219.7069,106.93119999999999,219.18581Q106.6602,218.66477,106.1688,218.36426Q105.6773,218.06365,105.017,218.06365Q104.3,218.06365,103.7704,218.41193Q103.2409,218.76021,102.9529,219.32164Q102.6648,219.883,102.6625,220.53640000000001L102.6625,221.5273Q102.6625,222.4023,102.9727,223.0159Q103.2829,223.6295,103.8398,223.9512Q104.3966,224.2727,105.1397,224.2727Q105.62729999999999,224.2727,106.0244,224.1341Q106.4216,223.9955,106.7102,223.7177Q106.9988,223.4398,107.1534,223.0273L108.7625,223.3182Q108.5693,224.0273,108.0727,224.5585Q107.5762,225.0898,106.8267,225.3835Q106.0772,225.6773,105.1262,225.6773Z" fill="#181D26" fillOpacity="1"/></g></g><g><rect x="174.5" y="196.5" width="148" height="47" rx="23.5" fillOpacity="0" stroke-opacity="1" stroke="#868686" fill="none" strokeWidth="1"/><g><path d="M232.992,217.64542L231.22390000000001,217.64542Q231.11701,217.07955,230.84029,216.64657Q230.56365,216.21359999999999,230.16078,215.91424Q229.75799,215.61479,229.25906,215.462Q228.76021,215.30913,228.2057,215.30913Q227.20117,215.30913,226.4074,215.81365Q225.61364,216.31818,225.1551,217.2943Q224.69656,218.27042,224.69656,219.6818Q224.69656,221.1046,225.15625,222.0802Q225.61594,223.0557,226.40909,223.5551Q227.20224,224.0545,228.20117,224.0545Q228.75231,224.0545,229.24885,223.9051Q229.74547,223.7557,230.14888,223.4614Q230.55229,223.1671,230.83239,222.7369Q231.11248,222.3068,231.22390000000001,221.75L232.992,221.7545Q232.8534,222.6159,232.4454,223.3324Q232.0375,224.0488,231.40625,224.571Q230.77504,225.0932,229.96138,225.3762Q229.14773,225.6591,228.1875,225.6591Q226.67614,225.6591,225.49485,224.9398Q224.31365,224.2204,223.63468,222.8807Q222.955699,221.5409,222.955699,219.6818Q222.955699,217.82049,223.63752,216.48127Q224.31934,215.14205,225.50115,214.4233Q226.68297,213.70455,228.1875,213.70455Q229.11248,213.70455,229.91815,213.96937Q230.72390000000001,214.23411,231.36364,214.74263Q232.0034,215.25115,232.425,215.98073Q232.8466,216.71023,232.992,217.64542ZM237.5,225.6909Q236.6693,225.6909,236.0005,225.3835Q235.3319,225.0762,234.9409,224.4841Q234.55,223.892,234.55,223.03640000000001Q234.55,222.2931,234.8352,221.8165Q235.1205,221.3398,235.6034,221.0613Q236.0864,220.7829,236.6824,220.642Q237.2784,220.5012,237.9,220.4273Q238.683,220.3341,239.1698,220.2744Q239.6568,220.2148,239.8807,220.0802Q240.1046,219.9455,240.1046,219.6364L240.1046,219.5954Q240.1046,218.85458,239.6863,218.44549Q239.2682,218.03640000000001,238.4455,218.03640000000001Q237.5875,218.03640000000001,237.0949,218.41193Q236.6023,218.78746,236.4136,219.25L234.8182,218.88636Q235.1023,218.09091,235.6494,217.59943Q236.1966,217.10795,236.9136,216.88352Q237.6307,216.65909,238.4181,216.65909Q238.942,216.65909,239.52949999999998,216.7824Q240.117,216.90572,240.6329,217.22905Q241.1489,217.55229,241.4767,218.15172Q241.8045,218.75115,241.8045,219.7045L241.8045,225.5L240.1454,225.5L240.1454,224.3091L240.0772,224.3091Q239.9159,224.6341,239.5869,224.9534Q239.258,225.2727,238.7403,225.4818Q238.2227,225.6909,237.5,225.6909ZM237.8682,224.3319Q238.5762,224.3319,239.0779,224.0523Q239.5795,223.7727,239.8443,223.3216Q240.1091,222.8705,240.1091,222.3546L240.1091,221.2273Q240.0159,221.3193,239.7585,221.3944Q239.5012,221.4693,239.1721,221.525Q238.8432,221.5807,238.5289,221.6216Q238.2148,221.6625,238.0045,221.6909Q237.5137,221.7568,237.1063,221.9029Q236.6989,222.0488,236.4562,222.3244Q236.21359999999999,222.6,236.21359999999999,223.0545Q236.21359999999999,223.6863,236.6807,224.0091Q237.1477,224.3319,237.8682,224.3319ZM245.767,220.3182L245.767,225.5L244.067,225.5L244.067,216.77273L245.6989,216.77273L245.6989,218.19549L245.808,218.19549Q246.1103,217.49769,246.754,217.07839Q247.3977,216.65909,248.3807,216.65909Q249.275,216.65909,249.9437,217.0324Q250.6125,217.40572,250.9835,218.13752Q251.3546,218.86932,251.3534,219.95L251.3534,225.5L249.6534,225.5L249.6534,220.1546Q249.6546,219.20224,249.1608,218.66708Q248.6671,218.13184,247.8034,218.13184Q247.2125,218.13184,246.7528,218.38814Q246.2931,218.64435,246.0306,219.13352Q245.7682,219.6227,245.767,220.3182ZM257.3011,225.6773Q256.03520000000003,225.6773,255.12380000000002,225.1006Q254.2125,224.5239,253.7227,223.5075Q253.233,222.4909,253.233,221.1773Q253.233,219.8454,253.7341,218.8267Q254.2353,217.80797,255.1444,217.23358Q256.0534,216.65909,257.2829,216.65909Q258.2761,216.65909,259.055,217.02441Q259.8341,217.38974,260.3147,218.04945Q260.7955,218.70907,260.8875,219.5909L259.233,219.5909Q259.09770000000003,218.97612,258.6108,218.53356Q258.1238,218.09091,257.3102,218.09091Q256.6011,218.09091,256.0692,218.46307Q255.5375,218.83523,255.242,219.5187Q254.9466,220.2022,254.9466,221.1364Q254.9466,222.08859999999999,255.2375,222.7836Q255.5284,223.4784,256.0602,223.8574Q256.5921,224.2363,257.3102,224.2363Q257.7978,224.2363,258.192,224.0585Q258.5864,223.8807,258.8563,223.5449Q259.1262,223.2091,259.233,222.7363L260.8875,222.7363Q260.7931,223.5852,260.3341,224.2495Q259.875,224.9136,259.104,225.2955Q258.3329,225.6773,257.3011,225.6773ZM266.47270000000003,225.6773Q265.1841,225.6773,264.2528,225.1222Q263.3216,224.567,262.8199,223.5585Q262.3182,222.55,262.3182,221.1955Q262.3182,219.8523,262.8204,218.82955Q263.3227,217.80682,264.2283,217.23295Q265.1341,216.65909,266.35,216.65909Q267.0932,216.65909,267.78520000000003,216.90226Q268.4773,217.14542,269.02729999999997,217.66877Q269.5772,218.19203,269.8977,219.02618999999999Q270.2182,219.8603,270.2182,221.0455L270.2182,221.6454L263.27729999999997,221.6454L263.27729999999997,220.3727L268.55,220.3727Q268.5488,219.7069,268.2778,219.18581Q268.0068,218.66477,267.5154,218.36426Q267.0239,218.06365,266.3636,218.06365Q265.6466,218.06365,265.117,218.41193Q264.5875,218.76021,264.2994,219.32164Q264.0114,219.883,264.0091,220.53640000000001L264.0091,221.5273Q264.0091,222.4023,264.3192,223.0159Q264.6295,223.6295,265.1863,223.9512Q265.7432,224.2727,266.4863,224.2727Q266.9739,224.2727,267.371,224.1341Q267.7682,223.9955,268.0568,223.7177Q268.3454,223.4398,268.5,223.0273L270.1091,223.3182Q269.9159,224.0273,269.4193,224.5585Q268.9228,225.0898,268.1733,225.3835Q267.4238,225.6773,266.47270000000003,225.6773ZM273.8068,213.86364L273.8068,225.5L272.1068,225.5L272.1068,213.86364L273.8068,213.86364Z" fill="#868686" fillOpacity="1"/></g></g></g></g></g></svg>