<svg xmlns="http://www.w3.org/2000/svg" xmlns:xlink="http://www.w3.org/1999/xlink" fill="none" version="1.1" width="456" height="180" viewBox="0 0 456 180"><g><rect x="0" y="0" width="456" height="180" rx="16" fill="#363F4F" fill-opacity="1"/><g><g><path d="M146.256,59L146.256,57.992000000000004L146.56799999999998,57.992000000000004Q147.12,57.992000000000004,147.564,57.872Q148.00799999999998,57.751999999999995,148.272,57.379999999999995Q148.536,57.007999999999996,148.536,56.263999999999996L148.536,44.504Q148.536,43.784,148.26,43.436Q147.98399999999998,43.088,147.54000000000002,42.980000000000004Q147.096,42.872,146.56799999999998,42.872L146.256,42.872L146.256,41.864000000000004L153.6,41.864000000000004Q156.072,41.864000000000004,157.824,42.86Q159.576,43.856,160.5,45.763999999999996Q161.424,47.672,161.424,50.408Q161.424,53.024,160.548,54.956Q159.672,56.888000000000005,157.944,57.944Q156.216,59,153.6,59L146.256,59ZM153.048,57.775999999999996Q154.968,57.775999999999996,156.228,56.924Q157.488,56.072,158.124,54.428Q158.76,52.784,158.76,50.408Q158.76,48.032,158.124,46.4Q157.488,44.768,156.228,43.916Q154.968,43.064,153.072,43.064L150.95999999999998,43.064L150.95999999999998,57.775999999999996L153.048,57.775999999999996ZM169.68,59.239999999999995Q167.064,59.239999999999995,165.588,57.512Q164.112,55.784,164.112,52.664Q164.112,49.304,165.504,47.6Q166.896,45.896,169.44,45.896Q171.768,45.896,173.1,47.336Q174.432,48.775999999999996,174.432,51.632000000000005L174.432,52.736000000000004L166.44,52.736000000000004Q166.488,55.352000000000004,167.388,56.54Q168.288,57.728,170.016,57.728Q171.264,57.728,172.14,57.212Q173.016,56.696,173.448,56.048Q173.616,56.120000000000005,173.76,56.336Q173.904,56.552,173.904,56.864000000000004Q173.904,57.344,173.448,57.896Q172.992,58.448,172.056,58.844Q171.12,59.239999999999995,169.68,59.239999999999995ZM172.008,51.44Q172.008,49.519999999999996,171.42,48.356Q170.832,47.192,169.392,47.192Q168.072,47.192,167.34,48.284Q166.608,49.376000000000005,166.488,51.44L172.008,51.44ZM175.944,59L175.944,57.992000000000004L176.256,57.992000000000004Q176.808,57.992000000000004,177.252,57.872Q177.696,57.751999999999995,177.96,57.379999999999995Q178.224,57.007999999999996,178.224,56.263999999999996L178.224,43.4Q178.224,42.68,177.948,42.332Q177.672,41.984,177.228,41.876Q176.784,41.768,176.256,41.768L175.944,41.768L175.944,40.76L180.48,40.76L180.48,56.263999999999996Q180.48,57.007999999999996,180.744,57.379999999999995Q181.008,57.751999999999995,181.464,57.872Q181.92,57.992000000000004,182.448,57.992000000000004L182.76,57.992000000000004L182.76,59L175.944,59ZM189.96,59.239999999999995Q187.344,59.239999999999995,185.868,57.512Q184.392,55.784,184.392,52.664Q184.392,49.304,185.784,47.6Q187.176,45.896,189.72,45.896Q192.048,45.896,193.38,47.336Q194.712,48.775999999999996,194.712,51.632000000000005L194.712,52.736000000000004L186.72,52.736000000000004Q186.768,55.352000000000004,187.668,56.54Q188.568,57.728,190.296,57.728Q191.544,57.728,192.42,57.212Q193.296,56.696,193.728,56.048Q193.896,56.120000000000005,194.04,56.336Q194.184,56.552,194.184,56.864000000000004Q194.184,57.344,193.728,57.896Q193.272,58.448,192.336,58.844Q191.4,59.239999999999995,189.96,59.239999999999995ZM192.288,51.44Q192.288,49.519999999999996,191.7,48.356Q191.112,47.192,189.672,47.192Q188.352,47.192,187.62,48.284Q186.888,49.376000000000005,186.768,51.44L192.288,51.44ZM201.672,59.239999999999995Q199.848,59.239999999999995,199.02,58.412Q198.192,57.584,198.192,55.519999999999996L198.192,47.504L196.368,47.504L196.368,46.544Q196.8,46.544,197.328,46.364000000000004Q197.856,46.184,198.24,45.775999999999996Q198.648,45.344,198.912,44.72Q199.176,44.096000000000004,199.344,43.184L200.448,43.184L200.448,46.135999999999996L203.592,46.135999999999996L203.592,47.504L200.448,47.504L200.448,55.592Q200.448,56.816,200.952,57.391999999999996Q201.456,57.968,202.272,57.968Q202.704,57.968,203.064,57.92Q203.424,57.872,203.808,57.8L203.808,58.856Q203.496,59,202.872,59.120000000000005Q202.248,59.239999999999995,201.672,59.239999999999995ZM211.248,59.239999999999995Q208.632,59.239999999999995,207.156,57.512Q205.68,55.784,205.68,52.664Q205.68,49.304,207.072,47.6Q208.464,45.896,211.008,45.896Q213.336,45.896,214.668,47.336Q216,48.775999999999996,216,51.632000000000005L216,52.736000000000004L208.008,52.736000000000004Q208.056,55.352000000000004,208.956,56.54Q209.856,57.728,211.584,57.728Q212.832,57.728,213.708,57.212Q214.584,56.696,215.016,56.048Q215.184,56.120000000000005,215.328,56.336Q215.472,56.552,215.472,56.864000000000004Q215.472,57.344,215.016,57.896Q214.56,58.448,213.624,58.844Q212.688,59.239999999999995,211.248,59.239999999999995ZM213.576,51.44Q213.576,49.519999999999996,212.988,48.356Q212.4,47.192,210.96,47.192Q209.64,47.192,208.908,48.284Q208.176,49.376000000000005,208.056,51.44L213.576,51.44ZM224.232,59L224.232,57.992000000000004L224.304,57.992000000000004Q224.856,57.992000000000004,225.3,57.872Q225.744,57.751999999999995,226.008,57.379999999999995Q226.272,57.007999999999996,226.272,56.263999999999996L226.272,48.775999999999996Q226.272,48.056,225.996,47.708Q225.72,47.36,225.276,47.252Q224.832,47.144,224.304,47.144L224.232,47.144L224.232,46.135999999999996L227.928,46.135999999999996L228.384,48.512L228.504,48.512Q228.816,47.792,229.176,47.192Q229.536,46.592,230.136,46.244Q230.736,45.896,231.792,45.896Q233.112,45.896,233.748,46.352000000000004Q234.384,46.808,234.384,47.647999999999996Q234.384,48.391999999999996,233.868,48.872Q233.352,49.352000000000004,232.152,49.352000000000004Q232.152,48.68,232.032,48.272Q231.912,47.864000000000004,231.636,47.672Q231.36,47.480000000000004,230.88,47.480000000000004Q230.208,47.480000000000004,229.752,48.007999999999996Q229.296,48.536,229.032,49.352000000000004Q228.768,50.168,228.648,51.044Q228.528,51.92,228.528,52.616L228.528,56.384Q228.528,57.08,228.804,57.428Q229.08,57.775999999999996,229.524,57.884Q229.968,57.992000000000004,230.496,57.992000000000004L231.168,57.992000000000004L231.168,59L224.232,59ZM241.632,59.239999999999995Q239.016,59.239999999999995,237.54,57.512Q236.064,55.784,236.064,52.664Q236.064,49.304,237.456,47.6Q238.848,45.896,241.392,45.896Q243.72,45.896,245.052,47.336Q246.384,48.775999999999996,246.384,51.632000000000005L246.384,52.736000000000004L238.392,52.736000000000004Q238.44,55.352000000000004,239.34,56.54Q240.24,57.728,241.968,57.728Q243.216,57.728,244.092,57.212Q244.968,56.696,245.4,56.048Q245.568,56.120000000000005,245.712,56.336Q245.856,56.552,245.856,56.864000000000004Q245.856,57.344,245.4,57.896Q244.944,58.448,244.008,58.844Q243.072,59.239999999999995,241.632,59.239999999999995ZM243.96,51.44Q243.96,49.519999999999996,243.372,48.356Q242.784,47.192,241.344,47.192Q240.024,47.192,239.292,48.284Q238.56,49.376000000000005,238.44,51.44L243.96,51.44ZM254.376,59.239999999999995Q252.792,59.239999999999995,251.556,58.568Q250.32,57.896,249.612,56.444Q248.904,54.992000000000004,248.904,52.64Q248.904,50.072,249.612,48.596000000000004Q250.32,47.12,251.532,46.507999999999996Q252.744,45.896,254.256,45.896Q255.264,45.896,256.224,46.16Q257.18399999999997,46.424,257.808,46.964Q258.432,47.504,258.432,48.344Q258.432,48.896,258.192,49.232Q257.952,49.568,257.48400000000004,49.712Q257.01599999999996,49.856,256.296,49.856Q256.296,49.088,256.116,48.464Q255.936,47.84,255.504,47.468Q255.072,47.096000000000004,254.256,47.096000000000004Q253.344,47.096000000000004,252.66,47.576Q251.976,48.056,251.604,49.256Q251.232,50.456,251.232,52.616Q251.232,54.32,251.604,55.448Q251.976,56.576,252.768,57.128Q253.56,57.68,254.856,57.68Q255.6,57.68,256.224,57.464Q256.848,57.248000000000005,257.31600000000003,56.864000000000004Q257.784,56.480000000000004,258.048,56Q258.24,56.144,258.348,56.372Q258.456,56.6,258.456,56.936Q258.456,57.488,258,58.016Q257.544,58.544,256.644,58.891999999999996Q255.744,59.239999999999995,254.376,59.239999999999995ZM266.28,59.239999999999995Q263.688,59.239999999999995,262.2,57.584Q260.712,55.928,260.712,52.544Q260.712,49.184,262.14,47.54Q263.568,45.896,266.352,45.896Q268.94399999999996,45.896,270.432,47.54Q271.91999999999996,49.184,271.91999999999996,52.544Q271.91999999999996,55.928,270.49199999999996,57.584Q269.06399999999996,59.239999999999995,266.28,59.239999999999995ZM266.328,57.992000000000004Q267.528,57.992000000000004,268.248,57.379999999999995Q268.96799999999996,56.768,269.28,55.544Q269.592,54.32,269.592,52.544Q269.592,49.856,268.848,48.512Q268.10400000000004,47.168,266.304,47.168Q264.504,47.168,263.772,48.512Q263.03999999999996,49.856,263.03999999999996,52.544Q263.03999999999996,55.232,263.784,56.611999999999995Q264.528,57.992000000000004,266.328,57.992000000000004ZM274.03200000000004,59L274.03200000000004,57.992000000000004L274.10400000000004,57.992000000000004Q274.656,57.992000000000004,275.1,57.872Q275.544,57.751999999999995,275.808,57.379999999999995Q276.072,57.007999999999996,276.072,56.263999999999996L276.072,48.775999999999996Q276.072,48.056,275.796,47.708Q275.52,47.36,275.076,47.252Q274.632,47.144,274.10400000000004,47.144L274.03200000000004,47.144L274.03200000000004,46.135999999999996L277.728,46.135999999999996L278.18399999999997,48.512L278.304,48.512Q278.616,47.792,278.976,47.192Q279.336,46.592,279.93600000000004,46.244Q280.536,45.896,281.592,45.896Q282.912,45.896,283.548,46.352000000000004Q284.184,46.808,284.184,47.647999999999996Q284.184,48.391999999999996,283.668,48.872Q283.152,49.352000000000004,281.952,49.352000000000004Q281.952,48.68,281.832,48.272Q281.712,47.864000000000004,281.436,47.672Q281.16,47.480000000000004,280.68,47.480000000000004Q280.008,47.480000000000004,279.552,48.007999999999996Q279.096,48.536,278.832,49.352000000000004Q278.568,50.168,278.448,51.044Q278.328,51.92,278.328,52.616L278.328,56.384Q278.328,57.08,278.60400000000004,57.428Q278.88,57.775999999999996,279.324,57.884Q279.76800000000003,57.992000000000004,280.296,57.992000000000004L280.968,57.992000000000004L280.968,59L274.03200000000004,59ZM290.76,59.239999999999995Q289.176,59.239999999999995,288.084,58.544Q286.992,57.848,286.428,56.372Q285.864,54.896,285.864,52.592Q285.864,50.263999999999996,286.428,48.788Q286.992,47.312,288.084,46.604Q289.176,45.896,290.76,45.896Q292.152,45.896,293.028,46.484Q293.904,47.072,294.432,48.007999999999996L294.576,48.007999999999996Q294.504,47.408,294.468,46.676Q294.432,45.944,294.432,45.368L294.432,43.4Q294.432,42.68,294.156,42.332Q293.88,41.984,293.436,41.876Q292.992,41.768,292.464,41.768L292.272,41.768L292.272,40.76L296.688,40.76L296.688,56.36Q296.688,57.056,296.964,57.416Q297.24,57.775999999999996,297.684,57.884Q298.128,57.992000000000004,298.656,57.992000000000004L298.848,57.992000000000004L298.848,59L294.792,59L294.528,56.84L294.432,56.84Q293.904,57.944,293.04,58.592Q292.176,59.239999999999995,290.76,59.239999999999995ZM291.168,57.704Q293.04,57.704,293.736,56.444Q294.432,55.184,294.432,52.592Q294.432,50.096000000000004,293.736,48.763999999999996Q293.04,47.432,291.144,47.432Q290.088,47.432,289.44,48.032Q288.792,48.632000000000005,288.492,49.784Q288.192,50.936,288.192,52.616Q288.192,55.16,288.876,56.432Q289.56,57.704,291.168,57.704ZM303.696,50.528Q305.136,49.952,305.94,49.16Q306.744,48.367999999999995,307.08,47.444Q307.416,46.519999999999996,307.416,45.56Q307.416,44.312,306.792,43.556Q306.168,42.8,304.752,42.8Q303.768,42.8,303.168,43.232Q302.568,43.664,302.316,44.36Q302.064,45.056,302.064,45.896Q301.2,45.896,300.636,45.512Q300.072,45.128,300.072,44.384Q300.072,43.808,300.348,43.304Q300.624,42.8,301.176,42.416Q301.728,42.032,302.568,41.828Q303.408,41.624,304.56,41.624Q306.072,41.624,307.248,42.14Q308.424,42.656,309.084,43.628Q309.744,44.6,309.744,45.968Q309.744,47.288,309.192,48.296Q308.64,49.304,307.62,50.072Q306.6,50.84,305.16,51.464L305.088,54.176L303.792,54.176L303.696,50.528ZM304.392,59.168Q303.768,59.168,303.324,58.808Q302.88,58.448,302.88,57.536Q302.88,56.6,303.324,56.251999999999995Q303.768,55.903999999999996,304.392,55.903999999999996Q305.016,55.903999999999996,305.46,56.251999999999995Q305.904,56.6,305.904,57.536Q305.904,58.448,305.46,58.808Q305.016,59.168,304.392,59.168Z" fill="#FFFFFF" fill-opacity="1"/></g></g><g><g><g><rect x="66.5" y="100" width="158" height="48" rx="24" fill="#EFBF04" fill-opacity="1"/><g><path d="M125.8755,121.64542L124.10742,121.64542Q124.00053,121.07955,123.72381,120.64657Q123.44718,120.2136,123.04429999999999,119.91424Q122.64151,119.61479,122.14258,119.462Q121.64373,119.30913,121.08922,119.30913Q120.08469,119.30913,119.29093,119.81365Q118.49716,120.31818,118.03862,121.29429999999999Q117.58008,122.27042,117.58008,123.6818Q117.58008,125.1046,118.03977,126.0802Q118.49947,127.0557,119.29261,127.5551Q120.08576,128.0545,121.08469,128.0545Q121.63583,128.0545,122.13237,127.9051Q122.62899,127.7557,123.0324,127.4614Q123.43581,127.1671,123.71591,126.7369Q123.996,126.3068,124.10742,125.75L125.8755,125.75450000000001Q125.7369,126.6159,125.3289,127.3324Q124.92099999999999,128.0488,124.28977,128.571Q123.65856,129.0932,122.8449,129.3762Q122.03125,129.6591,121.07102,129.6591Q119.55966,129.6591,118.37837,128.9398Q117.19718,128.2204,116.51820000000001,126.8807Q115.83922,125.5409,115.83922,123.6818Q115.83922,121.82049,116.52104,120.48127Q117.20286,119.14205,118.38468,118.4233Q119.56649,117.70455,121.07102,117.70455Q121.996,117.70455,122.80167,117.96937Q123.60742,118.23411,124.24716,118.74263Q124.8869,119.25115,125.3085,119.98073Q125.7301,120.71023,125.8755,121.64542ZM131.5199,129.6773Q130.2903,129.6773,129.3767,129.11430000000001Q128.4631,128.5511,127.9574,127.5392Q127.4517,126.5273,127.4517,125.1773Q127.4517,123.8182,127.9574,122.80176Q128.4631,121.78524,129.3767,121.22221Q130.2903,120.65909,131.5199,120.65909Q132.7495,120.65909,133.6631,121.22221Q134.5767,121.78524,135.0824,122.80176Q135.5881,123.8182,135.5881,125.1773Q135.5881,126.5273,135.0824,127.5392Q134.5767,128.5511,133.6631,129.11430000000001Q132.7495,129.6773,131.5199,129.6773ZM131.5244,128.25Q132.3222,128.25,132.8438,127.8284Q133.3653,127.4068,133.6199,126.7079Q133.8745,126.0091,133.8745,125.1728Q133.8745,124.3352,133.6199,123.6324Q133.3653,122.92951,132.8438,122.50337Q132.3222,122.07724,131.5244,122.07724Q130.7221,122.07724,130.19819999999999,122.50337Q129.6744,122.92951,129.4198,123.6324Q129.1653,124.3352,129.1653,125.1728Q129.1653,126.0091,129.4198,126.7079Q129.6744,127.4068,130.19819999999999,127.8284Q130.7221,128.25,131.5244,128.25ZM139.179,124.3182L139.179,129.5L137.47899999999998,129.5L137.47899999999998,120.77273L139.1108,120.77273L139.1108,122.19549L139.2199,122.19549Q139.5222,121.49769,140.1659,121.07839Q140.8097,120.65909,141.7926,120.65909Q142.687,120.65909,143.3556,121.0324Q144.0244,121.40572,144.3954,122.13752Q144.7665,122.86932,144.7654,123.95L144.7654,129.5L143.0653,129.5L143.0653,124.1546Q143.0665,123.20224,142.5727,122.66708Q142.079,122.13184,141.2154,122.13184Q140.6245,122.13184,140.1648,122.38813999999999Q139.70510000000002,122.64435,139.4426,123.13352Q139.1801,123.6227,139.179,124.3182ZM151.1903,120.77273L151.1903,122.13636L146.2585,122.13636L146.2585,120.77273L151.1903,120.77273ZM147.6085,129.5L147.6085,119.75906Q147.6085,118.94318,147.9676,118.40119Q148.32670000000002,117.85911,148.9176,117.58869Q149.5085,117.31818,150.1994,117.31818Q150.7142,117.31818,151.0772,117.40003Q151.4403,117.48179999999999,151.6176,117.54998L151.2176,118.92729Q151.1017,118.88974,150.9131,118.8426Q150.7244,118.79545,150.45850000000002,118.79545Q149.8381,118.79545,149.57319999999999,119.10112Q149.3085,119.40678,149.3085,119.98633L149.3085,129.5L147.6085,129.5ZM152.9392,129.5L152.9392,120.77273L154.63920000000002,120.77273L154.63920000000002,129.5L152.9392,129.5ZM153.7988,119.42729Q153.35739999999998,119.42729,153.04149999999998,119.12953Q152.7256,118.83176,152.7256,118.41362Q152.7256,117.99547,153.04160000000002,117.6978Q153.3577,117.40003,153.79829999999998,117.40003Q154.2403,117.40003,154.5557,117.6978Q154.871,117.99556,154.871,118.41371Q154.871,118.83185,154.5557,119.12962Q154.2403,119.42729,153.7988,119.42729ZM156.9221,129.5L156.9221,120.77273L158.5676,120.77273L158.5676,122.15909L158.6586,122.15909Q158.8972,121.45685,159.50119999999998,121.04892Q160.1051,120.64089,160.8722,120.64089Q161.0312,120.64089,161.24880000000002,120.65172Q161.4664,120.66246,161.5949,120.68297L161.5949,122.30913Q161.4938,122.27956,161.23239999999998,122.2421Q160.9711,122.20455,160.70850000000002,122.20455Q160.10739999999998,122.20455,159.6364,122.45739Q159.1653,122.71023,158.8937,123.1551Q158.6222,123.6,158.6222,124.1728L158.6222,129.5L156.9221,129.5ZM163.0699,129.5L163.0699,120.77273L164.70170000000002,120.77273L164.70170000000002,122.19549L164.8108,122.19549Q165.08350000000002,121.47274,165.70170000000002,121.06596Q166.3199,120.65909,167.1835,120.65909Q168.0585,120.65909,168.6528,121.06765Q169.2472,121.47612,169.5336,122.19549L169.6245,122.19549Q169.937,121.49432,170.6176,121.0767Q171.29829999999998,120.65909,172.2426,120.65909Q173.4301,120.65909,174.1818,121.40456Q174.9335,122.15004,174.9335,123.65L174.9335,129.5L173.2335,129.5L173.2335,123.8091Q173.2335,122.92161,172.7528,122.5245Q172.2722,122.12731,171.6017,122.12731Q170.7687,122.12731,170.3079,122.63583Q169.8471,123.14435,169.8471,123.9363L169.8471,129.5L168.1562,129.5L168.1562,123.7Q168.1562,122.98979,167.7119,122.55859Q167.26760000000002,122.12731,166.5608,122.12731Q166.0779,122.12731,165.6698,122.37962Q165.2619,122.63184,165.0159,123.08017Q164.7699,123.5284,164.7699,124.1182L164.7699,129.5L163.0699,129.5Z" fill="#181D26" fill-opacity="1"/></g></g><g><rect x="241" y="100.5" width="148" height="47" rx="23.5" fill-opacity="0" stroke-opacity="1" stroke="#868686" fill="none" stroke-width="1"/><g><path d="M299.492,121.64542L297.7239,121.64542Q297.61701,121.07955,297.34029,120.64657Q297.06365,120.2136,296.66078,119.91424Q296.25799,119.61479,295.75906,119.462Q295.26021,119.30913,294.7057,119.30913Q293.70117,119.30913,292.9074,119.81365Q292.11364,120.31818,291.6551,121.29429999999999Q291.19656,122.27042,291.19656,123.6818Q291.19656,125.1046,291.65625,126.0802Q292.11594,127.0557,292.90909,127.5551Q293.70224,128.0545,294.70117,128.0545Q295.25231,128.0545,295.74885,127.9051Q296.24547,127.7557,296.64888,127.4614Q297.05228999999997,127.1671,297.33239,126.7369Q297.61248,126.3068,297.7239,125.75L299.492,125.75450000000001Q299.3534,126.6159,298.9454,127.3324Q298.5375,128.0488,297.90625,128.571Q297.27504,129.0932,296.46138,129.3762Q295.64773,129.6591,294.6875,129.6591Q293.17614,129.6591,291.99485,128.9398Q290.81365,128.2204,290.13468,126.8807Q289.455699,125.5409,289.455699,123.6818Q289.455699,121.82049,290.13752,120.48127Q290.81934,119.14205,292.00115,118.4233Q293.18297,117.70455,294.6875,117.70455Q295.61248,117.70455,296.41815,117.96937Q297.2239,118.23411,297.86364,118.74263Q298.5034,119.25115,298.925,119.98073Q299.3466,120.71023,299.492,121.64542ZM304,129.6909Q303.1693,129.6909,302.5005,129.3835Q301.8319,129.0762,301.4409,128.4841Q301.05,127.892,301.05,127.0364Q301.05,126.2931,301.3352,125.8165Q301.6205,125.3398,302.1034,125.0613Q302.5864,124.7829,303.1824,124.642Q303.7784,124.5012,304.4,124.4273Q305.183,124.3341,305.6698,124.2744Q306.1568,124.2148,306.3807,124.0802Q306.6046,123.9455,306.6046,123.6364L306.6046,123.5954Q306.6046,122.85458,306.1863,122.44549Q305.7682,122.0364,304.9455,122.0364Q304.0875,122.0364,303.5949,122.41193Q303.1023,122.78746,302.9136,123.25L301.3182,122.88636Q301.6023,122.09091,302.1494,121.59943Q302.6966,121.10795,303.4136,120.88352Q304.1307,120.65909,304.9181,120.65909Q305.442,120.65909,306.0295,120.7824Q306.617,120.90572,307.1329,121.22905Q307.6489,121.55229,307.9767,122.15172Q308.3045,122.75115,308.3045,123.7045L308.3045,129.5L306.6454,129.5L306.6454,128.3091L306.5772,128.3091Q306.4159,128.6341,306.0869,128.9534Q305.758,129.2727,305.2403,129.4818Q304.7227,129.6909,304,129.6909ZM304.3682,128.3319Q305.0762,128.3319,305.5779,128.0523Q306.0795,127.7727,306.3443,127.3216Q306.6091,126.87049999999999,306.6091,126.3546L306.6091,125.2273Q306.5159,125.3193,306.2585,125.3944Q306.0012,125.4693,305.6721,125.525Q305.3432,125.58070000000001,305.0289,125.6216Q304.7148,125.6625,304.5045,125.6909Q304.0137,125.7568,303.6063,125.9029Q303.1989,126.0488,302.9562,126.3244Q302.7136,126.6,302.7136,127.0545Q302.7136,127.6863,303.1807,128.0091Q303.6477,128.3319,304.3682,128.3319ZM312.267,124.3182L312.267,129.5L310.567,129.5L310.567,120.77273L312.1989,120.77273L312.1989,122.19549L312.308,122.19549Q312.6103,121.49769,313.254,121.07839Q313.8977,120.65909,314.8807,120.65909Q315.775,120.65909,316.4437,121.0324Q317.1125,121.40572,317.4835,122.13752Q317.8546,122.86932,317.8534,123.95L317.8534,129.5L316.1534,129.5L316.1534,124.1546Q316.1546,123.20224,315.6608,122.66708Q315.1671,122.13184,314.3034,122.13184Q313.7125,122.13184,313.2528,122.38813999999999Q312.7931,122.64435,312.5306,123.13352Q312.2682,123.6227,312.267,124.3182ZM323.8011,129.6773Q322.53520000000003,129.6773,321.6238,129.1006Q320.7125,128.5239,320.2227,127.5075Q319.733,126.4909,319.733,125.1773Q319.733,123.8454,320.2341,122.8267Q320.7353,121.80797,321.6444,121.23358Q322.5534,120.65909,323.7829,120.65909Q324.7761,120.65909,325.555,121.02441Q326.3341,121.38974,326.8147,122.04945000000001Q327.2955,122.70907,327.3875,123.5909L325.733,123.5909Q325.59770000000003,122.97612,325.1108,122.53356Q324.6238,122.09091,323.8102,122.09091Q323.1011,122.09091,322.5692,122.46307Q322.0375,122.83523,321.742,123.5187Q321.4466,124.2022,321.4466,125.1364Q321.4466,126.0886,321.7375,126.7836Q322.0284,127.4784,322.5602,127.8574Q323.0921,128.2363,323.8102,128.2363Q324.2978,128.2363,324.692,128.0585Q325.0864,127.8807,325.3563,127.5449Q325.6262,127.2091,325.733,126.7363L327.3875,126.7363Q327.2931,127.5852,326.8341,128.2495Q326.375,128.9136,325.604,129.2955Q324.8329,129.6773,323.8011,129.6773ZM332.97270000000003,129.6773Q331.6841,129.6773,330.7528,129.1222Q329.8216,128.567,329.3199,127.5585Q328.8182,126.55,328.8182,125.1955Q328.8182,123.8523,329.3204,122.82955Q329.8227,121.80682,330.7283,121.23295Q331.6341,120.65909,332.85,120.65909Q333.5932,120.65909,334.28520000000003,120.90226Q334.9773,121.14542,335.52729999999997,121.66877Q336.0772,122.19203,336.3977,123.02619Q336.7182,123.8603,336.7182,125.0455L336.7182,125.6454L329.77729999999997,125.6454L329.77729999999997,124.3727L335.05,124.3727Q335.0488,123.7069,334.7778,123.18581Q334.5068,122.66477,334.0154,122.36426Q333.5239,122.06365,332.8636,122.06365Q332.1466,122.06365,331.617,122.41193Q331.0875,122.76021,330.7994,123.32164Q330.5114,123.883,330.5091,124.5364L330.5091,125.5273Q330.5091,126.4023,330.8192,127.0159Q331.1295,127.62950000000001,331.6863,127.9512Q332.2432,128.2727,332.9863,128.2727Q333.4739,128.2727,333.871,128.1341Q334.2682,127.99549999999999,334.5568,127.71770000000001Q334.8454,127.4398,335,127.0273L336.6091,127.3182Q336.4159,128.0273,335.9193,128.5585Q335.4228,129.0898,334.6733,129.3835Q333.9238,129.6773,332.97270000000003,129.6773ZM340.3068,117.86364L340.3068,129.5L338.6068,129.5L338.6068,117.86364L340.3068,117.86364Z" fill="#868686" fill-opacity="1"/></g></g></g></g></g></svg>