<svg xmlns="http://www.w3.org/2000/svg" xmlns:xlink="http://www.w3.org/1999/xlink" fill="none" version="1.1" width="568" height="541" viewBox="0 0 568 541"><g><rect x="0" y="0" width="568" height="541" rx="0" fill="#252C38" fillOpacity="1"/><g><g><g><path d="M26.016,44.144Q25.848,43.64,25.632,43.364000000000004Q25.416,43.088,25.104,42.980000000000004Q24.792,42.872,24.312,42.872L24,42.872L24,41.864000000000004L30.6,41.864000000000004L30.6,42.872L30.048000000000002,42.872Q29.328,42.872,28.968,43.147999999999996Q28.608,43.424,28.608,44.024Q28.608,44.144,28.631999999999998,44.288Q28.656,44.432,28.704,44.576Q28.752,44.72,28.8,44.912L31.44,52.712Q31.68,53.408,31.872,54.104Q32.064,54.8,32.232,55.436Q32.4,56.072,32.519999999999996,56.647999999999996Q32.64,56.072,32.796,55.448Q32.952,54.824,33.156,54.14Q33.36,53.456,33.624,52.712L36.263999999999996,45.08Q36.336,44.888,36.384,44.696Q36.432,44.504,36.456,44.336Q36.480000000000004,44.168,36.480000000000004,44.048Q36.480000000000004,43.424,36.084,43.147999999999996Q35.688,42.872,34.896,42.872L34.344,42.872L34.344,41.864000000000004L40.2,41.864000000000004L40.2,42.872L39.744,42.872Q39.288,42.872,38.976,43.016Q38.664,43.16,38.424,43.556Q38.184,43.952,37.92,44.744L32.952,59L31.2,59L26.016,44.144ZM40.751999999999995,59L40.751999999999995,57.992000000000004L41.064,57.992000000000004Q41.592,57.992000000000004,42.036,57.884Q42.480000000000004,57.775999999999996,42.756,57.428Q43.032,57.08,43.032,56.384L43.032,48.775999999999996Q43.032,48.056,42.756,47.708Q42.480000000000004,47.36,42.036,47.252Q41.592,47.144,41.064,47.144L40.992000000000004,47.144L40.992000000000004,46.135999999999996L45.288,46.135999999999996L45.288,56.263999999999996Q45.288,57.007999999999996,45.552,57.379999999999995Q45.816,57.751999999999995,46.272,57.872Q46.728,57.992000000000004,47.256,57.992000000000004L47.568,57.992000000000004L47.568,59L40.751999999999995,59ZM44.064,43.736000000000004Q43.488,43.736000000000004,43.092,43.4Q42.696,43.064,42.696,42.248Q42.696,41.408,43.092,41.084Q43.488,40.76,44.064,40.76Q44.616,40.76,45.024,41.084Q45.432,41.408,45.432,42.248Q45.432,43.064,45.024,43.4Q44.616,43.736000000000004,44.064,43.736000000000004ZM54.768,59.239999999999995Q52.152,59.239999999999995,50.676,57.512Q49.2,55.784,49.2,52.664Q49.2,49.304,50.592,47.6Q51.984,45.896,54.528,45.896Q56.856,45.896,58.188,47.336Q59.52,48.775999999999996,59.52,51.632000000000005L59.52,52.736000000000004L51.528,52.736000000000004Q51.576,55.352000000000004,52.476,56.54Q53.376000000000005,57.728,55.104,57.728Q56.352,57.728,57.228,57.212Q58.104,56.696,58.536,56.048Q58.704,56.120000000000005,58.848,56.336Q58.992,56.552,58.992,56.864000000000004Q58.992,57.344,58.536,57.896Q58.08,58.448,57.144,58.844Q56.208,59.239999999999995,54.768,59.239999999999995ZM57.096,51.44Q57.096,49.519999999999996,56.508,48.356Q55.92,47.192,54.480000000000004,47.192Q53.16,47.192,52.428,48.284Q51.696,49.376000000000005,51.576,51.44L57.096,51.44ZM62.52,48.416Q62.352,47.912,62.124,47.635999999999996Q61.896,47.36,61.596,47.252Q61.296,47.144,60.816,47.144L60.744,47.144L60.744,46.135999999999996L66.672,46.135999999999996L66.672,47.144L66.36,47.144Q65.64,47.144,65.28,47.348Q64.92,47.552,64.92,48.152Q64.92,48.344,64.97999999999999,48.632000000000005Q65.03999999999999,48.92,65.112,49.184L66.24000000000001,53.216Q66.408,53.792,66.564,54.5Q66.72,55.208,66.864,55.844Q67.00800000000001,56.480000000000004,67.08,56.888000000000005L67.152,56.888000000000005Q67.22399999999999,56.480000000000004,67.38,55.903999999999996Q67.536,55.328,67.74000000000001,54.68Q67.944,54.032,68.136,53.456L70.632,46.208L72.144,46.208L74.544,53.312Q74.688,53.744,74.844,54.236000000000004Q75,54.728,75.144,55.232Q75.288,55.736000000000004,75.408,56.168Q75.52799999999999,56.6,75.576,56.888000000000005L75.648,56.888000000000005Q75.768,56.288,75.99600000000001,55.412Q76.22399999999999,54.536,76.584,53.384L77.78399999999999,49.519999999999996Q77.88,49.208,77.94,48.86Q78,48.512,78,48.32Q78,47.696,77.604,47.42Q77.208,47.144,76.416,47.144L76.24799999999999,47.144L76.24799999999999,46.135999999999996L81.384,46.135999999999996L81.384,47.144L81.072,47.144Q80.616,47.144,80.304,47.275999999999996Q79.99199999999999,47.408,79.75200000000001,47.816Q79.512,48.224000000000004,79.27199999999999,49.016L76.176,59L74.256,59L70.968,48.968L67.56,59L65.664,59L62.52,48.416ZM93.576,59.239999999999995Q92.4,59.239999999999995,91.5,59Q90.6,58.760000000000005,90,58.304Q89.4,57.848,89.1,57.224000000000004Q88.8,56.6,88.8,55.856Q88.8,55.376000000000005,89.004,55.016Q89.208,54.656,89.592,54.452Q89.976,54.248000000000005,90.528,54.248000000000005Q90.576,55.232,90.912,56.108000000000004Q91.248,56.984,91.944,57.524Q92.64,58.064,93.768,58.064Q95.376,58.064,96.288,57.284Q97.2,56.504000000000005,97.2,55.04Q97.2,54.152,96.852,53.54Q96.504,52.928,95.7,52.4Q94.896,51.872,93.48,51.296Q91.992,50.672,91.008,49.952Q90.024,49.232,89.544,48.260000000000005Q89.064,47.288,89.064,45.968Q89.064,44.6,89.748,43.628Q90.432,42.656,91.62,42.14Q92.808,41.624,94.32,41.624Q95.76,41.624,96.756,42.007999999999996Q97.752,42.391999999999996,98.28,43.004Q98.808,43.616,98.808,44.312Q98.808,45.08,98.292,45.476Q97.776,45.872,96.912,45.872Q96.912,45.128,96.66,44.432Q96.408,43.736000000000004,95.82,43.28Q95.232,42.824,94.224,42.824Q92.832,42.824,92.064,43.568Q91.296,44.312,91.296,45.56Q91.296,46.519999999999996,91.644,47.18Q91.992,47.84,92.808,48.356Q93.624,48.872,95.016,49.448Q96.432,50.024,97.428,50.708Q98.424,51.391999999999996,98.952,52.28Q99.48,53.168,99.48,54.416Q99.48,55.952,98.76,57.019999999999996Q98.04,58.088,96.708,58.664Q95.376,59.239999999999995,93.576,59.239999999999995ZM109.608,59.239999999999995Q107.064,59.239999999999995,105.384,58.135999999999996Q103.704,57.032,102.876,55.04Q102.048,53.048,102.048,50.384Q102.048,47.72,102.876,45.752Q103.704,43.784,105.396,42.692Q107.088,41.6,109.632,41.6Q112.056,41.6,113.724,42.692Q115.392,43.784,116.268,45.763999999999996Q117.144,47.744,117.144,50.408Q117.144,53.072,116.268,55.052Q115.392,57.032,113.712,58.135999999999996Q112.032,59.239999999999995,109.608,59.239999999999995ZM109.608,57.944Q111.408,57.944,112.476,57.044Q113.544,56.144,114.012,54.464Q114.48,52.784,114.48,50.408Q114.48,48.032,114.012,46.352000000000004Q113.544,44.672,112.476,43.784Q111.408,42.896,109.632,42.896Q106.944,42.896,105.828,44.864000000000004Q104.712,46.832,104.712,50.408Q104.712,52.784,105.192,54.464Q105.672,56.144,106.752,57.044Q107.832,57.944,109.608,57.944ZM119.424,59L119.424,57.992000000000004L119.736,57.992000000000004Q120.288,57.992000000000004,120.732,57.872Q121.176,57.751999999999995,121.44,57.379999999999995Q121.704,57.007999999999996,121.704,56.263999999999996L121.704,44.504Q121.704,43.784,121.428,43.436Q121.152,43.088,120.708,42.980000000000004Q120.264,42.872,119.736,42.872L119.424,42.872L119.424,41.864000000000004L126.168,41.864000000000004Q129.192,41.864000000000004,130.632,43.196Q132.072,44.528,132.072,46.88Q132.072,47.96,131.736,48.932Q131.4,49.903999999999996,130.644,50.672Q129.888,51.44,128.652,51.884Q127.416,52.328,125.64,52.328L124.128,52.328L124.128,56.384Q124.128,57.08,124.404,57.428Q124.68,57.775999999999996,125.124,57.884Q125.568,57.992000000000004,126.096,57.992000000000004L126.888,57.992000000000004L126.888,59L119.424,59ZM125.4,51.2Q126.48,51.2,127.26,50.972Q128.04000000000002,50.744,128.53199999999998,50.239999999999995Q129.024,49.736000000000004,129.252,48.932Q129.48000000000002,48.128,129.48000000000002,46.976Q129.48000000000002,44.96,128.64,43.988Q127.8,43.016,125.76,43.016L124.128,43.016L124.128,51.2L125.4,51.2ZM145.464,59.239999999999995Q143.88,59.239999999999995,142.788,58.544Q141.696,57.848,141.132,56.372Q140.56799999999998,54.896,140.56799999999998,52.592Q140.56799999999998,50.263999999999996,141.132,48.788Q141.696,47.312,142.788,46.604Q143.88,45.896,145.464,45.896Q146.856,45.896,147.732,46.484Q148.608,47.072,149.136,48.007999999999996L149.28,48.007999999999996Q149.208,47.408,149.172,46.676Q149.136,45.944,149.136,45.368L149.136,43.4Q149.136,42.68,148.86,42.332Q148.584,41.984,148.14,41.876Q147.696,41.768,147.168,41.768L146.976,41.768L146.976,40.76L151.392,40.76L151.392,56.36Q151.392,57.056,151.668,57.416Q151.94400000000002,57.775999999999996,152.388,57.884Q152.832,57.992000000000004,153.36,57.992000000000004L153.552,57.992000000000004L153.552,59L149.49599999999998,59L149.232,56.84L149.136,56.84Q148.608,57.944,147.744,58.592Q146.88,59.239999999999995,145.464,59.239999999999995ZM145.872,57.704Q147.744,57.704,148.44,56.444Q149.136,55.184,149.136,52.592Q149.136,50.096000000000004,148.44,48.763999999999996Q147.744,47.432,145.848,47.432Q144.792,47.432,144.144,48.032Q143.49599999999998,48.632000000000005,143.196,49.784Q142.89600000000002,50.936,142.89600000000002,52.616Q142.89600000000002,55.16,143.57999999999998,56.432Q144.264,57.704,145.872,57.704ZM160.872,59.239999999999995Q158.28,59.239999999999995,156.792,57.584Q155.304,55.928,155.304,52.544Q155.304,49.184,156.732,47.54Q158.16,45.896,160.944,45.896Q163.536,45.896,165.024,47.54Q166.512,49.184,166.512,52.544Q166.512,55.928,165.084,57.584Q163.656,59.239999999999995,160.872,59.239999999999995ZM160.92,57.992000000000004Q162.12,57.992000000000004,162.84,57.379999999999995Q163.56,56.768,163.872,55.544Q164.184,54.32,164.184,52.544Q164.184,49.856,163.44,48.512Q162.696,47.168,160.896,47.168Q159.096,47.168,158.364,48.512Q157.632,49.856,157.632,52.544Q157.632,55.232,158.376,56.611999999999995Q159.12,57.992000000000004,160.92,57.992000000000004ZM174.624,59.239999999999995Q173.04,59.239999999999995,171.804,58.568Q170.568,57.896,169.86,56.444Q169.152,54.992000000000004,169.152,52.64Q169.152,50.072,169.86,48.596000000000004Q170.568,47.12,171.78,46.507999999999996Q172.992,45.896,174.504,45.896Q175.512,45.896,176.472,46.16Q177.432,46.424,178.056,46.964Q178.68,47.504,178.68,48.344Q178.68,48.896,178.44,49.232Q178.2,49.568,177.732,49.712Q177.264,49.856,176.544,49.856Q176.544,49.088,176.364,48.464Q176.184,47.84,175.752,47.468Q175.32,47.096000000000004,174.504,47.096000000000004Q173.592,47.096000000000004,172.908,47.576Q172.224,48.056,171.852,49.256Q171.48,50.456,171.48,52.616Q171.48,54.32,171.852,55.448Q172.224,56.576,173.016,57.128Q173.808,57.68,175.104,57.68Q175.848,57.68,176.472,57.464Q177.096,57.248000000000005,177.564,56.864000000000004Q178.032,56.480000000000004,178.296,56Q178.488,56.144,178.596,56.372Q178.704,56.6,178.704,56.936Q178.704,57.488,178.248,58.016Q177.792,58.544,176.892,58.891999999999996Q175.992,59.239999999999995,174.624,59.239999999999995ZM186.192,59.239999999999995Q184.296,59.239999999999995,183.264,58.123999999999995Q182.232,57.007999999999996,182.232,54.536L182.232,48.775999999999996Q182.232,48.056,181.956,47.708Q181.68,47.36,181.236,47.252Q180.792,47.144,180.264,47.144L180.192,47.144L180.192,46.135999999999996L184.488,46.135999999999996L184.488,54.416Q184.488,55.448,184.716,56.192Q184.944,56.936,185.496,57.32Q186.048,57.704,187.008,57.704Q188.064,57.704,188.736,57.212Q189.408,56.72,189.72,55.844Q190.032,54.968,190.032,53.816L190.032,48.872Q190.032,48.104,189.768,47.744Q189.504,47.384,189.06,47.263999999999996Q188.616,47.144,188.064,47.144L187.992,47.144L187.992,46.135999999999996L192.288,46.135999999999996L192.288,56.384Q192.288,57.08,192.564,57.428Q192.84,57.775999999999996,193.284,57.884Q193.728,57.992000000000004,194.256,57.992000000000004L194.328,57.992000000000004L194.328,59L190.512,59L190.2,57.056L190.08,57.056Q189.336,58.4,188.352,58.82Q187.368,59.239999999999995,186.192,59.239999999999995ZM195.552,59L195.552,57.992000000000004L195.864,57.992000000000004Q196.416,57.992000000000004,196.824,57.872Q197.232,57.751999999999995,197.472,57.379999999999995Q197.712,57.007999999999996,197.712,56.263999999999996L197.712,48.775999999999996Q197.712,48.056,197.472,47.708Q197.232,47.36,196.812,47.252Q196.392,47.144,195.864,47.144L195.792,47.144L195.792,46.135999999999996L199.56,46.135999999999996L199.872,48.08L199.992,48.08Q200.472,47.168,201.024,46.7Q201.576,46.232,202.224,46.064Q202.872,45.896,203.616,45.896Q204.384,45.896,205.068,46.112Q205.752,46.328,206.28,46.796Q206.808,47.263999999999996,207.096,48.08L207.288,48.08Q207.768,47.168,208.356,46.7Q208.944,46.232,209.628,46.064Q210.312,45.896,211.056,45.896Q212.904,45.896,213.936,47.012Q214.968,48.128,214.968,50.6L214.968,56.263999999999996Q214.968,57.007999999999996,215.208,57.379999999999995Q215.448,57.751999999999995,215.868,57.872Q216.288,57.992000000000004,216.816,57.992000000000004L216.888,57.992000000000004L216.888,59L212.712,59L212.712,50.72Q212.712,49.16,212.148,48.296Q211.584,47.432,210.192,47.432Q209.208,47.432,208.62,47.924Q208.032,48.416,207.78,49.232Q207.528,50.048,207.528,51.007999999999996L207.528,56.263999999999996Q207.528,57.007999999999996,207.768,57.379999999999995Q208.008,57.751999999999995,208.428,57.872Q208.848,57.992000000000004,209.376,57.992000000000004L209.448,57.992000000000004L209.448,59L205.272,59L205.272,50.72Q205.272,49.16,204.708,48.296Q204.144,47.432,202.752,47.432Q201.72,47.432,201.108,47.972Q200.496,48.512,200.232,49.4Q199.968,50.288,199.968,51.32L199.968,56.384Q199.968,57.08,200.244,57.428Q200.52,57.775999999999996,200.964,57.884Q201.408,57.992000000000004,201.936,57.992000000000004L202.008,57.992000000000004L202.008,59L195.552,59ZM224.448,59.239999999999995Q221.832,59.239999999999995,220.356,57.512Q218.88,55.784,218.88,52.664Q218.88,49.304,220.272,47.6Q221.664,45.896,224.208,45.896Q226.536,45.896,227.868,47.336Q229.2,48.775999999999996,229.2,51.632000000000005L229.2,52.736000000000004L221.208,52.736000000000004Q221.256,55.352000000000004,222.156,56.54Q223.056,57.728,224.784,57.728Q226.032,57.728,226.908,57.212Q227.784,56.696,228.216,56.048Q228.384,56.120000000000005,228.528,56.336Q228.672,56.552,228.672,56.864000000000004Q228.672,57.344,228.216,57.896Q227.76,58.448,226.824,58.844Q225.888,59.239999999999995,224.448,59.239999999999995ZM226.776,51.44Q226.776,49.519999999999996,226.188,48.356Q225.6,47.192,224.16,47.192Q222.84,47.192,222.108,48.284Q221.376,49.376000000000005,221.256,51.44L226.776,51.44ZM231.072,59L231.072,57.992000000000004L231.264,57.992000000000004Q231.816,57.992000000000004,232.26,57.872Q232.704,57.751999999999995,232.968,57.379999999999995Q233.232,57.007999999999996,233.232,56.263999999999996L233.232,48.775999999999996Q233.232,48.056,232.968,47.708Q232.704,47.36,232.272,47.252Q231.84,47.144,231.312,47.144L231.192,47.144L231.192,46.135999999999996L235.08,46.135999999999996L235.392,48.08L235.512,48.08Q236.016,47.168,236.58,46.7Q237.144,46.232,237.816,46.064Q238.488,45.896,239.256,45.896Q241.152,45.896,242.22,47.012Q243.288,48.128,243.288,50.6L243.288,56.263999999999996Q243.288,57.007999999999996,243.516,57.379999999999995Q243.744,57.751999999999995,244.152,57.872Q244.56,57.992000000000004,245.088,57.992000000000004L245.208,57.992000000000004L245.208,59L241.032,59L241.032,50.72Q241.032,49.16,240.444,48.296Q239.856,47.432,238.392,47.432Q237.312,47.432,236.676,47.972Q236.04,48.512,235.764,49.4Q235.488,50.288,235.488,51.32L235.488,56.384Q235.488,57.08,235.752,57.428Q236.016,57.775999999999996,236.448,57.884Q236.88,57.992000000000004,237.408,57.992000000000004L237.528,57.992000000000004L237.528,59L231.072,59ZM251.64,59.239999999999995Q249.816,59.239999999999995,248.988,58.412Q248.16,57.584,248.16,55.519999999999996L248.16,47.504L246.336,47.504L246.336,46.544Q246.768,46.544,247.296,46.364000000000004Q247.824,46.184,248.208,45.775999999999996Q248.616,45.344,248.88,44.72Q249.144,44.096000000000004,249.312,43.184L250.416,43.184L250.416,46.135999999999996L253.56,46.135999999999996L253.56,47.504L250.416,47.504L250.416,55.592Q250.416,56.816,250.92,57.391999999999996Q251.424,57.968,252.24,57.968Q252.672,57.968,253.032,57.92Q253.392,57.872,253.776,57.8L253.776,58.856Q253.464,59,252.84,59.120000000000005Q252.216,59.239999999999995,251.64,59.239999999999995Z" fill="#FFFFFF" fillOpacity="1"/></g><g style="opacity:0.20000000298023224;"><rect x="24" y="92" width="394" height="289" rx="8" fill="#D8D8D8" fillOpacity="1"/></g><g><g><g><rect x="24.5" y="437.5" width="139" height="47" rx="23.5" fillOpacity="0" stroke-opacity="1" stroke="#868686" fill="none" strokeWidth="1"/><g><path d="M83.2619,458.64542L81.49378,458.64542Q81.3869,458.07955,81.11017,457.64657Q80.83354,457.2136,80.43066,456.91424Q80.02788,456.61479,79.52894,456.462Q79.0301,456.30913,78.47559,456.30913Q77.47106,456.30913,76.67729,456.81365Q75.88352,457.31818,75.42498,458.2943Q74.96644,459.27042,74.96644,460.6818Q74.96644,462.1046,75.42614,463.0802Q75.88583,464.0557,76.67898,464.5551Q77.47212,465.0545,78.47106,465.0545Q79.02219,465.0545,79.51873,464.9051Q80.01536,464.7557,80.41877,464.4614Q80.82218,464.1671,81.10227,463.7369Q81.38237,463.3068,81.49378,462.75L83.2619,462.7545Q83.1233,463.6159,82.7153,464.3324Q82.3074,465.0488,81.67614,465.571Q81.04492,466.0932,80.23127,466.3762Q79.41761,466.6591,78.45739,466.6591Q76.94602,466.6591,75.76474,465.9398Q74.58354,465.2204,73.90456,463.8807Q73.22559,462.5409,73.22559,460.6818Q73.22559,458.82049,73.9074,457.48127Q74.58922,456.14205,75.77104,455.4233Q76.95286,454.70455,78.45739,454.70455Q79.38237,454.70455,80.18803,454.96937Q80.99378,455.23411,81.63352,455.74263Q82.2733,456.25115,82.6949,456.98073Q83.1165,457.71023,83.2619,458.64542ZM86.929,454.86364L86.929,466.5L85.229,466.5L85.229,454.86364L86.929,454.86364ZM92.8892,466.6773Q91.6596,466.6773,90.746,466.1143Q89.8324,465.5511,89.3267,464.5392Q88.821,463.5273,88.821,462.1773Q88.821,460.8182,89.3267,459.80176Q89.8324,458.78524,90.746,458.22221Q91.6596,457.65909,92.8892,457.65909Q94.1188,457.65909,95.0324,458.22221Q95.946,458.78524,96.4517,459.80176Q96.9574,460.8182,96.9574,462.1773Q96.9574,463.5273,96.4517,464.5392Q95.946,465.5511,95.0324,466.1143Q94.1188,466.6773,92.8892,466.6773ZM92.8937,465.25Q93.6915,465.25,94.2131,464.8284Q94.7346,464.4068,94.9892,463.7079Q95.2438,463.0091,95.2438,462.1728Q95.2438,461.3352,94.9892,460.6324Q94.7346,459.92951,94.2131,459.50337Q93.6915,459.07724,92.8937,459.07724Q92.0914,459.07724,91.5676,459.50337Q91.0438,459.92951,90.7892,460.6324Q90.5346,461.3352,90.5346,462.1728Q90.5346,463.0091,90.7892,463.7079Q91.0438,464.4068,91.5676,464.8284Q92.0914,465.25,92.8937,465.25ZM105.3892,459.90456L103.8483,460.17728999999997Q103.75280000000001,459.88299,103.5448,459.61478999999997Q103.3369,459.34659,102.98519999999999,459.1756Q102.6335,459.00453,102.1028,459.00453Q101.3812,459.00453,100.8983,459.32733Q100.4153,459.65004,100.4165,460.15456Q100.4153,460.5932,100.7409,460.858Q101.0665,461.1227,101.7846,461.2955L103.1756,461.6136Q104.3801,461.8897,104.9704,462.4711Q105.5608,463.0523,105.562,463.9773Q105.5608,464.7637,105.108,465.3733Q104.6551,465.983,103.8523,466.3302Q103.04939999999999,466.6773,101.9938,466.6773Q100.5256,466.6773,99.6,466.0501Q98.67439999999999,465.4228,98.4619,464.2637L100.1028,464.0091Q100.2608,464.6557,100.7375,464.9824Q101.2142,465.3091,101.9801,465.3091Q102.8165,465.3091,103.3159,464.9592Q103.81530000000001,464.6091,103.8165,464.1046Q103.81530000000001,463.6909,103.5125,463.4136Q103.2097,463.1364,102.5801,462.9955L101.1074,462.6681Q99.8812,462.3944,99.3005,461.7841Q98.7199,461.1738,98.7211,460.24547Q98.7199,459.47274,99.1511,458.89151Q99.5824,458.31019,100.34309999999999,457.98464Q101.104,457.65909,102.0892,457.65909Q103.504,457.65909,104.3159,458.27051Q105.12780000000001,458.88184,105.3892,459.90456ZM111.1858,466.6773Q109.8972,466.6773,108.9659,466.1222Q108.0346,465.567,107.5329,464.5585Q107.0312,463.55,107.0312,462.1955Q107.0312,460.8523,107.5335,459.82955Q108.0358,458.80682,108.9414,458.23295Q109.8471,457.65909,111.063,457.65909Q111.8063,457.65909,112.4983,457.90226Q113.19030000000001,458.14542,113.74029999999999,458.66877Q114.2903,459.19203,114.6108,460.02619Q114.9313,460.8603,114.9313,462.0455L114.9313,462.6454L107.99029999999999,462.6454L107.99029999999999,461.3727L113.26310000000001,461.3727Q113.2619,460.7069,112.99090000000001,460.18581Q112.7199,459.66477,112.2284,459.36426Q111.73689999999999,459.06365,111.0767,459.06365Q110.3596,459.06365,109.8301,459.41193Q109.3006,459.76021000000003,109.0125,460.32164Q108.7244,460.883,108.7221,461.5364L108.7221,462.5273Q108.7221,463.4023,109.03229999999999,464.0159Q109.3426,464.6295,109.8994,464.9512Q110.4562,465.2727,111.1994,465.2727Q111.687,465.2727,112.0841,465.1341Q112.4813,464.9955,112.7699,464.7177Q113.05850000000001,464.4398,113.2131,464.0273L114.82220000000001,464.3182Q114.62899999999999,465.0273,114.13239999999999,465.5585Q113.6358,466.0898,112.88640000000001,466.3835Q112.1369,466.6773,111.1858,466.6773Z" fill="#868686" fillOpacity="1"/></g></g></g></g></g></g></g></svg>