<svg xmlns="http://www.w3.org/2000/svg" xmlns:xlink="http://www.w3.org/1999/xlink" fill="none" version="1.1" width="568" height="541" viewBox="0 0 568 541"><g><rect x="0" y="0" width="568" height="541" rx="0" fill="#252C38" fillOpacity="1"/><g><g><g><path d="M26.016,44.144Q25.848,43.64,25.632,43.364000000000004Q25.416,43.088,25.104,42.980000000000004Q24.792,42.872,24.312,42.872L24,42.872L24,41.864000000000004L30.6,41.864000000000004L30.6,42.872L30.048000000000002,42.872Q29.328,42.872,28.968,43.147999999999996Q28.608,43.424,28.608,44.024Q28.608,44.144,28.631999999999998,44.288Q28.656,44.432,28.704,44.576Q28.752,44.72,28.8,44.912L31.44,52.712Q31.68,53.408,31.872,54.104Q32.064,54.8,32.232,55.436Q32.4,56.072,32.519999999999996,56.647999999999996Q32.64,56.072,32.796,55.448Q32.952,54.824,33.156,54.14Q33.36,53.456,33.624,52.712L36.263999999999996,45.08Q36.336,44.888,36.384,44.696Q36.432,44.504,36.456,44.336Q36.480000000000004,44.168,36.480000000000004,44.048Q36.480000000000004,43.424,36.084,43.147999999999996Q35.688,42.872,34.896,42.872L34.344,42.872L34.344,41.864000000000004L40.2,41.864000000000004L40.2,42.872L39.744,42.872Q39.288,42.872,38.976,43.016Q38.664,43.16,38.424,43.556Q38.184,43.952,37.92,44.744L32.952,59L31.2,59L26.016,44.144ZM40.751999999999995,59L40.751999999999995,57.992000000000004L41.064,57.992000000000004Q41.592,57.992000000000004,42.036,57.884Q42.480000000000004,57.775999999999996,42.756,57.428Q43.032,57.08,43.032,56.384L43.032,48.775999999999996Q43.032,48.056,42.756,47.708Q42.480000000000004,47.36,42.036,47.252Q41.592,47.144,41.064,47.144L40.992000000000004,47.144L40.992000000000004,46.135999999999996L45.288,46.135999999999996L45.288,56.263999999999996Q45.288,57.007999999999996,45.552,57.379999999999995Q45.816,57.751999999999995,46.272,57.872Q46.728,57.992000000000004,47.256,57.992000000000004L47.568,57.992000000000004L47.568,59L40.751999999999995,59ZM44.064,43.736000000000004Q43.488,43.736000000000004,43.092,43.4Q42.696,43.064,42.696,42.248Q42.696,41.408,43.092,41.084Q43.488,40.76,44.064,40.76Q44.616,40.76,45.024,41.084Q45.432,41.408,45.432,42.248Q45.432,43.064,45.024,43.4Q44.616,43.736000000000004,44.064,43.736000000000004ZM54.768,59.239999999999995Q52.152,59.239999999999995,50.676,57.512Q49.2,55.784,49.2,52.664Q49.2,49.304,50.592,47.6Q51.984,45.896,54.528,45.896Q56.856,45.896,58.188,47.336Q59.52,48.775999999999996,59.52,51.632000000000005L59.52,52.736000000000004L51.528,52.736000000000004Q51.576,55.352000000000004,52.476,56.54Q53.376000000000005,57.728,55.104,57.728Q56.352,57.728,57.228,57.212Q58.104,56.696,58.536,56.048Q58.704,56.120000000000005,58.848,56.336Q58.992,56.552,58.992,56.864000000000004Q58.992,57.344,58.536,57.896Q58.08,58.448,57.144,58.844Q56.208,59.239999999999995,54.768,59.239999999999995ZM57.096,51.44Q57.096,49.519999999999996,56.508,48.356Q55.92,47.192,54.480000000000004,47.192Q53.16,47.192,52.428,48.284Q51.696,49.376000000000005,51.576,51.44L57.096,51.44ZM62.52,48.416Q62.352,47.912,62.124,47.635999999999996Q61.896,47.36,61.596,47.252Q61.296,47.144,60.816,47.144L60.744,47.144L60.744,46.135999999999996L66.672,46.135999999999996L66.672,47.144L66.36,47.144Q65.64,47.144,65.28,47.348Q64.92,47.552,64.92,48.152Q64.92,48.344,64.97999999999999,48.632000000000005Q65.03999999999999,48.92,65.112,49.184L66.24000000000001,53.216Q66.408,53.792,66.564,54.5Q66.72,55.208,66.864,55.844Q67.00800000000001,56.480000000000004,67.08,56.888000000000005L67.152,56.888000000000005Q67.22399999999999,56.480000000000004,67.38,55.903999999999996Q67.536,55.328,67.74000000000001,54.68Q67.944,54.032,68.136,53.456L70.632,46.208L72.144,46.208L74.544,53.312Q74.688,53.744,74.844,54.236000000000004Q75,54.728,75.144,55.232Q75.288,55.736000000000004,75.408,56.168Q75.52799999999999,56.6,75.576,56.888000000000005L75.648,56.888000000000005Q75.768,56.288,75.99600000000001,55.412Q76.22399999999999,54.536,76.584,53.384L77.78399999999999,49.519999999999996Q77.88,49.208,77.94,48.86Q78,48.512,78,48.32Q78,47.696,77.604,47.42Q77.208,47.144,76.416,47.144L76.24799999999999,47.144L76.24799999999999,46.135999999999996L81.384,46.135999999999996L81.384,47.144L81.072,47.144Q80.616,47.144,80.304,47.275999999999996Q79.99199999999999,47.408,79.75200000000001,47.816Q79.512,48.224000000000004,79.27199999999999,49.016L76.176,59L74.256,59L70.968,48.968L67.56,59L65.664,59L62.52,48.416ZM88.2,59L88.2,57.992000000000004L88.512,57.992000000000004Q89.04,57.992000000000004,89.484,57.884Q89.928,57.775999999999996,90.204,57.428Q90.48,57.08,90.48,56.384L90.48,48.775999999999996Q90.48,48.056,90.204,47.708Q89.928,47.36,89.484,47.252Q89.04,47.144,88.512,47.144L88.44,47.144L88.44,46.135999999999996L92.736,46.135999999999996L92.736,56.263999999999996Q92.736,57.007999999999996,93,57.379999999999995Q93.264,57.751999999999995,93.72,57.872Q94.176,57.992000000000004,94.704,57.992000000000004L95.016,57.992000000000004L95.016,59L88.2,59ZM91.512,43.736000000000004Q90.936,43.736000000000004,90.54,43.4Q90.144,43.064,90.144,42.248Q90.144,41.408,90.54,41.084Q90.936,40.76,91.512,40.76Q92.064,40.76,92.472,41.084Q92.88,41.408,92.88,42.248Q92.88,43.064,92.472,43.4Q92.064,43.736000000000004,91.512,43.736000000000004ZM96,59L96,57.992000000000004L96.312,57.992000000000004Q96.864,57.992000000000004,97.272,57.872Q97.68,57.751999999999995,97.92,57.379999999999995Q98.16,57.007999999999996,98.16,56.263999999999996L98.16,48.775999999999996Q98.16,48.056,97.92,47.708Q97.68,47.36,97.26,47.252Q96.84,47.144,96.312,47.144L96.24,47.144L96.24,46.135999999999996L100.008,46.135999999999996L100.32,48.08L100.44,48.08Q100.92,47.168,101.472,46.7Q102.024,46.232,102.672,46.064Q103.32,45.896,104.064,45.896Q104.832,45.896,105.516,46.112Q106.2,46.328,106.728,46.796Q107.256,47.263999999999996,107.544,48.08L107.736,48.08Q108.216,47.168,108.804,46.7Q109.392,46.232,110.076,46.064Q110.76,45.896,111.504,45.896Q113.352,45.896,114.384,47.012Q115.416,48.128,115.416,50.6L115.416,56.263999999999996Q115.416,57.007999999999996,115.656,57.379999999999995Q115.896,57.751999999999995,116.316,57.872Q116.736,57.992000000000004,117.264,57.992000000000004L117.336,57.992000000000004L117.336,59L113.16,59L113.16,50.72Q113.16,49.16,112.596,48.296Q112.032,47.432,110.64,47.432Q109.656,47.432,109.068,47.924Q108.48,48.416,108.228,49.232Q107.976,50.048,107.976,51.007999999999996L107.976,56.263999999999996Q107.976,57.007999999999996,108.216,57.379999999999995Q108.456,57.751999999999995,108.876,57.872Q109.296,57.992000000000004,109.824,57.992000000000004L109.896,57.992000000000004L109.896,59L105.72,59L105.72,50.72Q105.72,49.16,105.156,48.296Q104.592,47.432,103.2,47.432Q102.168,47.432,101.556,47.972Q100.944,48.512,100.68,49.4Q100.416,50.288,100.416,51.32L100.416,56.384Q100.416,57.08,100.692,57.428Q100.968,57.775999999999996,101.412,57.884Q101.856,57.992000000000004,102.384,57.992000000000004L102.456,57.992000000000004L102.456,59L96,59ZM122.928,59.239999999999995Q121.872,59.239999999999995,121.02,58.82Q120.168,58.4,119.688,57.548Q119.208,56.696,119.208,55.4Q119.208,53.480000000000004,120.564,52.568Q121.92,51.656,124.68,51.56L126.672,51.488L126.672,50.048Q126.672,49.184,126.528,48.524Q126.384,47.864000000000004,125.904,47.480000000000004Q125.424,47.096000000000004,124.44,47.096000000000004Q123.528,47.096000000000004,123.048,47.432Q122.568,47.768,122.412,48.356Q122.256,48.944,122.256,49.712Q121.248,49.712,120.732,49.364000000000004Q120.216,49.016,120.216,48.2Q120.216,47.36,120.804,46.856Q121.392,46.352000000000004,122.376,46.124Q123.36,45.896,124.536,45.896Q126.744,45.896,127.836,46.832Q128.928,47.768,128.928,50.048L128.928,56.263999999999996Q128.928,56.936,129.072,57.308Q129.216,57.68,129.55200000000002,57.836Q129.888,57.992000000000004,130.416,57.992000000000004L130.488,57.992000000000004L130.488,59L127.248,59L126.864,56.936L126.672,56.936Q126.168,57.608000000000004,125.688,58.123999999999995Q125.208,58.64,124.572,58.94Q123.936,59.239999999999995,122.928,59.239999999999995ZM123.48,57.751999999999995Q124.464,57.751999999999995,125.172,57.344Q125.88,56.936,126.276,56.18Q126.672,55.424,126.672,54.416L126.672,52.472L125.136,52.544Q123.768,52.592,122.988,52.952Q122.208,53.312,121.872,53.948Q121.536,54.584,121.536,55.519999999999996Q121.536,56.263999999999996,121.752,56.756Q121.968,57.248000000000005,122.4,57.5Q122.832,57.751999999999995,123.48,57.751999999999995ZM137.064,64.75999999999999Q134.56799999999998,64.75999999999999,133.32,63.836Q132.072,62.912,132.072,61.256Q132.072,60.32,132.49200000000002,59.684Q132.912,59.048,133.596,58.688Q134.28,58.328,135.072,58.184Q134.59199999999998,57.968,134.172,57.476Q133.752,56.984,133.752,56.216Q133.752,55.495999999999995,134.124,54.968Q134.49599999999998,54.44,135.312,53.96Q134.28,53.528,133.716,52.532Q133.152,51.536,133.152,50.336Q133.152,48.272,134.28,47.084Q135.40800000000002,45.896,137.664,45.896Q138.52800000000002,45.896,139.296,46.135999999999996Q140.064,46.376,140.4,46.688Q140.64,46.424,140.976,46.124Q141.312,45.824,141.756,45.608000000000004Q142.2,45.391999999999996,142.728,45.391999999999996Q143.44799999999998,45.391999999999996,143.796,45.763999999999996Q144.144,46.135999999999996,144.144,46.64Q144.144,47.144,143.844,47.516Q143.54399999999998,47.888,142.872,47.888Q142.872,47.624,142.716,47.348Q142.56,47.072,142.07999999999998,47.072Q141.768,47.072,141.52800000000002,47.144Q141.288,47.216,141.048,47.36Q141.45600000000002,47.864000000000004,141.72,48.548Q141.98399999999998,49.232,141.98399999999998,50.263999999999996Q141.98399999999998,52.04,140.916,53.216Q139.848,54.391999999999996,137.664,54.391999999999996Q137.376,54.391999999999996,137.00400000000002,54.356Q136.632,54.32,136.392,54.272Q135.936,54.512,135.6,54.872Q135.264,55.232,135.264,55.784Q135.264,56.216,135.54000000000002,56.456Q135.816,56.696,136.752,56.696L139.464,56.696Q140.904,56.696,141.768,57.164Q142.632,57.632000000000005,143.02800000000002,58.436Q143.424,59.239999999999995,143.424,60.272Q143.424,62.336,141.876,63.548Q140.328,64.75999999999999,137.064,64.75999999999999ZM137.112,63.584Q138.84,63.584,139.776,63.212Q140.712,62.84,141.084,62.18Q141.45600000000002,61.519999999999996,141.45600000000002,60.68Q141.45600000000002,59.576,140.832,59.204Q140.208,58.832,139.00799999999998,58.832L136.656,58.832Q135.98399999999998,58.832,135.38400000000001,59.012Q134.784,59.192,134.4,59.672Q134.01600000000002,60.152,134.01600000000002,61.111999999999995Q134.01600000000002,61.808,134.28,62.372Q134.54399999999998,62.936,135.216,63.260000000000005Q135.888,63.584,137.112,63.584ZM137.59199999999998,53.239999999999995Q138.38400000000001,53.239999999999995,138.852,52.928Q139.32,52.616,139.524,51.944Q139.728,51.272,139.728,50.239999999999995Q139.728,49.16,139.512,48.452Q139.296,47.744,138.828,47.408Q138.36,47.072,137.56799999999998,47.072Q136.8,47.072,136.32,47.42Q135.84,47.768,135.624,48.476Q135.40800000000002,49.184,135.40800000000002,50.263999999999996Q135.40800000000002,51.8,135.924,52.519999999999996Q136.44,53.239999999999995,137.59199999999998,53.239999999999995ZM151.32,59.239999999999995Q148.704,59.239999999999995,147.228,57.512Q145.752,55.784,145.752,52.664Q145.752,49.304,147.144,47.6Q148.536,45.896,151.07999999999998,45.896Q153.408,45.896,154.74,47.336Q156.072,48.775999999999996,156.072,51.632000000000005L156.072,52.736000000000004L148.07999999999998,52.736000000000004Q148.128,55.352000000000004,149.02800000000002,56.54Q149.928,57.728,151.656,57.728Q152.904,57.728,153.78,57.212Q154.656,56.696,155.088,56.048Q155.256,56.120000000000005,155.4,56.336Q155.544,56.552,155.544,56.864000000000004Q155.544,57.344,155.088,57.896Q154.632,58.448,153.696,58.844Q152.76,59.239999999999995,151.32,59.239999999999995ZM153.648,51.44Q153.648,49.519999999999996,153.06,48.356Q152.472,47.192,151.03199999999998,47.192Q149.712,47.192,148.98000000000002,48.284Q148.248,49.376000000000005,148.128,51.44L153.648,51.44Z" fill="#FFFFFF" fillOpacity="1"/></g><g style="opacity:0.20000000298023224;"><rect x="24" y="92" width="394" height="289" rx="8" fill="#D8D8D8" fillOpacity="1"/></g><g><g><g><rect x="24.5" y="437.5" width="139" height="47" rx="23.5" fillOpacity="0" stroke-opacity="1" stroke="#868686" fill="none" strokeWidth="1"/><g><path d="M83.2619,458.64542L81.49378,458.64542Q81.3869,458.07955,81.11017,457.64657Q80.83354,457.2136,80.43066,456.91424Q80.02788,456.61479,79.52894,456.462Q79.0301,456.30913,78.47559,456.30913Q77.47106,456.30913,76.67729,456.81365Q75.88352,457.31818,75.42498,458.2943Q74.96644,459.27042,74.96644,460.6818Q74.96644,462.1046,75.42614,463.0802Q75.88583,464.0557,76.67898,464.5551Q77.47212,465.0545,78.47106,465.0545Q79.02219,465.0545,79.51873,464.9051Q80.01536,464.7557,80.41877,464.4614Q80.82218,464.1671,81.10227,463.7369Q81.38237,463.3068,81.49378,462.75L83.2619,462.7545Q83.1233,463.6159,82.7153,464.3324Q82.3074,465.0488,81.67614,465.571Q81.04492,466.0932,80.23127,466.3762Q79.41761,466.6591,78.45739,466.6591Q76.94602,466.6591,75.76474,465.9398Q74.58354,465.2204,73.90456,463.8807Q73.22559,462.5409,73.22559,460.6818Q73.22559,458.82049,73.9074,457.48127Q74.58922,456.14205,75.77104,455.4233Q76.95286,454.70455,78.45739,454.70455Q79.38237,454.70455,80.18803,454.96937Q80.99378,455.23411,81.63352,455.74263Q82.2733,456.25115,82.6949,456.98073Q83.1165,457.71023,83.2619,458.64542ZM86.929,454.86364L86.929,466.5L85.229,466.5L85.229,454.86364L86.929,454.86364ZM92.8892,466.6773Q91.6596,466.6773,90.746,466.1143Q89.8324,465.5511,89.3267,464.5392Q88.821,463.5273,88.821,462.1773Q88.821,460.8182,89.3267,459.80176Q89.8324,458.78524,90.746,458.22221Q91.6596,457.65909,92.8892,457.65909Q94.1188,457.65909,95.0324,458.22221Q95.946,458.78524,96.4517,459.80176Q96.9574,460.8182,96.9574,462.1773Q96.9574,463.5273,96.4517,464.5392Q95.946,465.5511,95.0324,466.1143Q94.1188,466.6773,92.8892,466.6773ZM92.8937,465.25Q93.6915,465.25,94.2131,464.8284Q94.7346,464.4068,94.9892,463.7079Q95.2438,463.0091,95.2438,462.1728Q95.2438,461.3352,94.9892,460.6324Q94.7346,459.92951,94.2131,459.50337Q93.6915,459.07724,92.8937,459.07724Q92.0914,459.07724,91.5676,459.50337Q91.0438,459.92951,90.7892,460.6324Q90.5346,461.3352,90.5346,462.1728Q90.5346,463.0091,90.7892,463.7079Q91.0438,464.4068,91.5676,464.8284Q92.0914,465.25,92.8937,465.25ZM105.3892,459.90456L103.8483,460.17728999999997Q103.75280000000001,459.88299,103.5448,459.61478999999997Q103.3369,459.34659,102.98519999999999,459.1756Q102.6335,459.00453,102.1028,459.00453Q101.3812,459.00453,100.8983,459.32733Q100.4153,459.65004,100.4165,460.15456Q100.4153,460.5932,100.7409,460.858Q101.0665,461.1227,101.7846,461.2955L103.1756,461.6136Q104.3801,461.8897,104.9704,462.4711Q105.5608,463.0523,105.562,463.9773Q105.5608,464.7637,105.108,465.3733Q104.6551,465.983,103.8523,466.3302Q103.04939999999999,466.6773,101.9938,466.6773Q100.5256,466.6773,99.6,466.0501Q98.67439999999999,465.4228,98.4619,464.2637L100.1028,464.0091Q100.2608,464.6557,100.7375,464.9824Q101.2142,465.3091,101.9801,465.3091Q102.8165,465.3091,103.3159,464.9592Q103.81530000000001,464.6091,103.8165,464.1046Q103.81530000000001,463.6909,103.5125,463.4136Q103.2097,463.1364,102.5801,462.9955L101.1074,462.6681Q99.8812,462.3944,99.3005,461.7841Q98.7199,461.1738,98.7211,460.24547Q98.7199,459.47274,99.1511,458.89151Q99.5824,458.31019,100.34309999999999,457.98464Q101.104,457.65909,102.0892,457.65909Q103.504,457.65909,104.3159,458.27051Q105.12780000000001,458.88184,105.3892,459.90456ZM111.1858,466.6773Q109.8972,466.6773,108.9659,466.1222Q108.0346,465.567,107.5329,464.5585Q107.0312,463.55,107.0312,462.1955Q107.0312,460.8523,107.5335,459.82955Q108.0358,458.80682,108.9414,458.23295Q109.8471,457.65909,111.063,457.65909Q111.8063,457.65909,112.4983,457.90226Q113.19030000000001,458.14542,113.74029999999999,458.66877Q114.2903,459.19203,114.6108,460.02619Q114.9313,460.8603,114.9313,462.0455L114.9313,462.6454L107.99029999999999,462.6454L107.99029999999999,461.3727L113.26310000000001,461.3727Q113.2619,460.7069,112.99090000000001,460.18581Q112.7199,459.66477,112.2284,459.36426Q111.73689999999999,459.06365,111.0767,459.06365Q110.3596,459.06365,109.8301,459.41193Q109.3006,459.76021000000003,109.0125,460.32164Q108.7244,460.883,108.7221,461.5364L108.7221,462.5273Q108.7221,463.4023,109.03229999999999,464.0159Q109.3426,464.6295,109.8994,464.9512Q110.4562,465.2727,111.1994,465.2727Q111.687,465.2727,112.0841,465.1341Q112.4813,464.9955,112.7699,464.7177Q113.05850000000001,464.4398,113.2131,464.0273L114.82220000000001,464.3182Q114.62899999999999,465.0273,114.13239999999999,465.5585Q113.6358,466.0898,112.88640000000001,466.3835Q112.1369,466.6773,111.1858,466.6773Z" fill="#868686" fillOpacity="1"/></g></g></g></g></g></g></g></svg>